  0
SECTION
  2
HEADER
  0
ENDSEC
  0
SECTION
  2
TABLES
  0
TABLE
  2
LAYER
  70
    153
  0
LAYER
  2
Cylinder3
 70
0
 62
15
  6
CONTINUOUS
  0
ENDTAB
  0
ENDSEC
  0
SECTION
  2
ENTITIES
  0
3DFACE
  8
Cylinder3
 10
-0.754753
 20
-0.000000
 30
-0.436289
 11
-0.612536
 21
0.593825
 31
0.107470
 12
-0.896969
 22
0.593825
 32
0.107470
 13
-0.896969
 23
0.593825
 33
0.107470
 62
0
  0
3DFACE
  8
Cylinder3
 10
-1.040092
 20
-0.000000
 30
-0.402942
 11
-0.754753
 21
-0.000000
 31
-0.436289
 12
-0.896969
 22
0.593825
 32
0.107470
 13
-0.896969
 23
0.593825
 33
0.107470
 62
0
  0
3DFACE
  8
Cylinder3
 10
-0.896970
 20
-0.593826
 30
0.107471
 11
-0.754753
 21
-0.000000
 31
-0.436289
 12
-1.040092
 22
-0.000000
 32
-0.402942
 13
-1.040092
 23
-0.000000
 33
-0.402942
 62
0
  0
3DFACE
  8
Cylinder3
 10
-0.754753
 20
-0.000000
 30
-0.436289
 11
-0.896970
 21
-0.593826
 31
0.107471
 12
-0.612536
 22
-0.593826
 32
0.107471
 13
-0.612536
 23
-0.593826
 33
0.107471
 62
0
  0
3DFACE
  8
Cylinder3
 10
-1.040092
 20
-0.000000
 30
-0.402942
 11
-1.202283
 21
-0.634935
 31
0.220416
 12
-0.896970
 22
-0.593826
 32
0.107471
 13
-0.896970
 23
-0.593826
 33
0.107471
 62
0
  0
3DFACE
  8
Cylinder3
 10
-1.202285
 20
0.634934
 30
0.220417
 11
-1.040092
 21
-0.000000
 31
-0.402942
 12
-0.896969
 22
0.593825
 32
0.107470
 13
-0.896969
 23
0.593825
 33
0.107470
 62
0
  0
3DFACE
  8
Cylinder3
 10
-0.612536
 20
0.593825
 30
0.107470
 11
-0.754753
 21
-0.000000
 31
-0.436289
 12
-0.469414
 22
0.000000
 32
-0.402942
 13
-0.469414
 23
0.000000
 33
-0.402942
 62
0
  0
3DFACE
  8
Cylinder3
 10
-0.469414
 20
0.000000
 30
-0.402942
 11
-0.754753
 21
-0.000000
 31
-0.436289
 12
-0.612536
 22
-0.593826
 32
0.107471
 13
-0.612536
 23
-0.593826
 33
0.107471
 62
0
  0
3DFACE
  8
Cylinder3
 10
-1.040092
 20
-0.000000
 30
-0.402942
 11
-1.328285
 21
-0.000000
 31
-0.296959
 12
-1.202283
 22
-0.634935
 32
0.220416
 13
-1.202283
 23
-0.634935
 33
0.220416
 62
0
  0
3DFACE
  8
Cylinder3
 10
-1.040092
 20
-0.000000
 30
-0.402942
 11
-1.202285
 21
0.634934
 31
0.220417
 12
-1.328285
 22
-0.000000
 32
-0.296959
 13
-1.328285
 23
-0.000000
 33
-0.296959
 62
0
  0
3DFACE
  8
Cylinder3
 10
-0.469414
 20
0.000000
 30
-0.402942
 11
-0.307222
 21
0.634934
 31
0.220416
 12
-0.612536
 22
0.593825
 32
0.107470
 13
-0.612536
 23
0.593825
 33
0.107470
 62
0
  0
3DFACE
  8
Cylinder3
 10
-0.307220
 20
-0.634935
 30
0.220417
 11
-0.469414
 21
0.000000
 31
-0.402942
 12
-0.612536
 22
-0.593826
 32
0.107471
 13
-0.612536
 23
-0.593826
 33
0.107471
 62
0
  0
3DFACE
  8
Cylinder3
 10
-1.475453
 20
-0.714370
 30
0.438664
 11
-1.202283
 21
-0.634935
 31
0.220416
 12
-1.328285
 22
-0.000000
 32
-0.296959
 13
-1.328285
 23
-0.000000
 33
-0.296959
 62
0
  0
3DFACE
  8
Cylinder3
 10
-1.328285
 20
-0.000000
 30
-0.296959
 11
-1.202285
 21
0.634934
 31
0.220417
 12
-1.475446
 22
0.714367
 32
0.438657
 13
-1.475446
 23
0.714367
 33
0.438657
 62
0
  0
3DFACE
  8
Cylinder3
 10
-0.469414
 20
0.000000
 30
-0.402942
 11
-0.181224
 21
0.000000
 31
-0.296960
 12
-0.307222
 22
0.634934
 32
0.220416
 13
-0.307222
 23
0.634934
 33
0.220416
 62
0
  0
3DFACE
  8
Cylinder3
 10
-0.469414
 20
0.000000
 30
-0.402942
 11
-0.307220
 21
-0.634935
 31
0.220417
 12
-0.181224
 22
0.000000
 32
-0.296960
 13
-0.181224
 23
0.000000
 33
-0.296960
 62
0
  0
3DFACE
  8
Cylinder3
 10
-1.588810
 20
-0.000000
 30
-0.119203
 11
-1.475453
 21
-0.714370
 31
0.438664
 12
-1.328285
 22
-0.000000
 32
-0.296959
 13
-1.328285
 23
-0.000000
 33
-0.296959
 62
0
  0
3DFACE
  8
Cylinder3
 10
-1.475446
 20
0.714367
 30
0.438657
 11
-1.588810
 21
-0.000000
 31
-0.119203
 12
-1.328285
 22
-0.000000
 32
-0.296959
 13
-1.328285
 23
-0.000000
 33
-0.296959
 62
0
  0
3DFACE
  8
Cylinder3
 10
-0.034056
 20
0.714369
 30
0.438660
 11
-0.307222
 21
0.634934
 31
0.220416
 12
-0.181224
 22
0.000000
 32
-0.296960
 13
-0.181224
 23
0.000000
 33
-0.296960
 62
0
  0
3DFACE
  8
Cylinder3
 10
-0.181224
 20
0.000000
 30
-0.296960
 11
-0.307220
 21
-0.634935
 31
0.220417
 12
-0.034062
 22
-0.714367
 32
0.438655
 13
-0.034062
 23
-0.714367
 33
0.438655
 62
0
  0
3DFACE
  8
Cylinder3
 10
0.079306
 20
0.000000
 30
-0.119201
 11
-0.034056
 21
0.714369
 31
0.438660
 12
-0.181224
 22
0.000000
 32
-0.296960
 13
-0.181224
 23
0.000000
 33
-0.296960
 62
0
  0
3DFACE
  8
Cylinder3
 10
-0.034062
 20
-0.714367
 30
0.438655
 11
0.079306
 21
0.000000
 31
-0.119201
 12
-0.181224
 22
0.000000
 32
-0.296960
 13
-0.181224
 23
0.000000
 33
-0.296960
 62
0
  0
3DFACE
  8
Cylinder3
 10
-1.707389
 20
0.482434
 30
0.438665
 11
-1.707389
 21
-0.482435
 31
0.438664
 12
-1.588810
 22
-0.000000
 32
-0.119203
 13
-1.588810
 23
-0.000000
 33
-0.119203
 62
0
  0
3DFACE
  8
Cylinder3
 10
-0.307222
 20
0.634934
 30
0.220416
 11
-0.896969
 21
0.593825
 31
0.107470
 12
-0.612536
 22
0.593825
 32
0.107470
 13
-0.612536
 23
0.593825
 33
0.107470
 62
0
  0
3DFACE
  8
Cylinder3
 10
-1.202285
 20
0.634934
 30
0.220417
 11
-0.896969
 21
0.593825
 31
0.107470
 12
-0.307222
 22
0.634934
 32
0.220416
 13
-0.307222
 23
0.634934
 33
0.220416
 62
0
  0
3DFACE
  8
Cylinder3
 10
-1.475446
 20
0.714367
 30
0.438657
 11
-1.202285
 21
0.634934
 31
0.220417
 12
-0.307222
 22
0.634934
 32
0.220416
 13
-0.307222
 23
0.634934
 33
0.220416
 62
0
  0
3DFACE
  8
Cylinder3
 10
-0.034056
 20
0.714369
 30
0.438660
 11
-1.475446
 21
0.714367
 31
0.438657
 12
-0.307222
 22
0.634934
 32
0.220416
 13
-0.307222
 23
0.634934
 33
0.220416
 62
0
  0
3DFACE
  8
Cylinder3
 10
-1.202283
 20
-0.634935
 30
0.220416
 11
-0.612536
 21
-0.593826
 31
0.107471
 12
-0.896970
 22
-0.593826
 32
0.107471
 13
-0.896970
 23
-0.593826
 33
0.107471
 62
0
  0
3DFACE
  8
Cylinder3
 10
-0.307220
 20
-0.634935
 30
0.220417
 11
-0.612536
 21
-0.593826
 31
0.107471
 12
-1.202283
 22
-0.634935
 32
0.220416
 13
-1.202283
 23
-0.634935
 33
0.220416
 62
0
  0
3DFACE
  8
Cylinder3
 10
-0.034062
 20
-0.714367
 30
0.438655
 11
-0.307220
 21
-0.634935
 31
0.220417
 12
-1.202283
 22
-0.634935
 32
0.220416
 13
-1.202283
 23
-0.634935
 33
0.220416
 62
0
  0
3DFACE
  8
Cylinder3
 10
-1.475453
 20
-0.714370
 30
0.438664
 11
-0.034062
 21
-0.714367
 31
0.438655
 12
-1.202283
 22
-0.634935
 32
0.220416
 13
-1.202283
 23
-0.634935
 33
0.220416
 62
0
  0
3DFACE
  8
Cylinder3
 10
-1.707389
 20
-0.482435
 30
0.438664
 11
-1.475453
 21
-0.714370
 31
0.438664
 12
-1.588810
 22
-0.000000
 32
-0.119203
 13
-1.588810
 23
-0.000000
 33
-0.119203
 62
0
  0
3DFACE
  8
Cylinder3
 10
-1.475446
 20
0.714367
 30
0.438657
 11
-1.707389
 21
0.482434
 31
0.438665
 12
-1.588810
 22
-0.000000
 32
-0.119203
 13
-1.588810
 23
-0.000000
 33
-0.119203
 62
0
  0
3DFACE
  8
Cylinder3
 10
-1.475453
 20
-0.714370
 30
0.438664
 11
-1.707389
 21
-0.482435
 31
0.438664
 12
-1.707389
 22
-0.482435
 32
0.473729
 13
-1.475453
 23
-0.714370
 33
0.473729
 62
0
  0
3DFACE
  8
Cylinder3
 10
-1.707389
 20
0.482434
 30
0.438665
 11
-1.475446
 21
0.714367
 31
0.438657
 12
-1.475446
 22
0.714367
 32
0.473733
 13
-1.707389
 23
0.482434
 33
0.473729
 62
0
  0
3DFACE
  8
Cylinder3
 10
-1.475446
 20
0.714367
 30
0.438657
 11
-0.034056
 21
0.714369
 31
0.438660
 12
-0.034056
 22
0.714369
 32
0.473732
 13
-1.475446
 23
0.714367
 33
0.473733
 62
0
  0
3DFACE
  8
Cylinder3
 10
0.197883
 20
0.482434
 30
0.438664
 11
-0.034056
 21
0.714369
 31
0.438660
 12
0.079306
 22
0.000000
 32
-0.119201
 13
0.079306
 23
0.000000
 33
-0.119201
 62
0
  0
3DFACE
  8
Cylinder3
 10
-0.034062
 20
-0.714367
 30
0.438655
 11
0.197883
 21
-0.482434
 31
0.438665
 12
0.079306
 22
0.000000
 32
-0.119201
 13
0.079306
 23
0.000000
 33
-0.119201
 62
0
  0
3DFACE
  8
Cylinder3
 10
-1.707389
 20
-0.482435
 30
0.438664
 11
-1.707389
 21
0.482434
 31
0.438665
 12
-1.707389
 22
0.482434
 32
0.473729
 13
-1.707389
 23
-0.482435
 33
0.473729
 62
0
  0
3DFACE
  8
Cylinder3
 10
0.197883
 20
-0.482434
 30
0.438665
 11
0.197883
 21
0.482434
 31
0.438664
 12
0.079306
 22
0.000000
 32
-0.119201
 13
0.079306
 23
0.000000
 33
-0.119201
 62
0
  0
3DFACE
  8
Cylinder3
 10
-0.034062
 20
-0.714367
 30
0.438655
 11
-1.475453
 21
-0.714370
 31
0.438664
 12
-1.475453
 22
-0.714370
 32
0.473729
 13
-0.034062
 23
-0.714367
 33
0.473734
 62
0
  0
3DFACE
  8
Cylinder3
 10
-0.034056
 20
0.714369
 30
0.438660
 11
0.197883
 21
0.482434
 31
0.438664
 12
0.197883
 22
0.482434
 32
0.473729
 13
-0.034056
 23
0.714369
 33
0.473732
 62
0
  0
3DFACE
  8
Cylinder3
 10
0.197883
 20
-0.482434
 30
0.438665
 11
-0.034062
 21
-0.714367
 31
0.438655
 12
-0.034062
 22
-0.714367
 32
0.473734
 13
0.197883
 23
-0.482434
 33
0.473730
 62
0
  0
3DFACE
  8
Cylinder3
 10
-1.707389
 20
-0.482435
 30
0.473729
 11
-1.707389
 21
0.482434
 31
0.473729
 12
-1.557873
 22
-0.000001
 32
0.688056
 13
-1.557873
 23
-0.000001
 33
0.688056
 62
0
  0
3DFACE
  8
Cylinder3
 10
0.197883
 20
0.482434
 30
0.438664
 11
0.197883
 21
-0.482434
 31
0.438665
 12
0.197883
 22
-0.482434
 32
0.473730
 13
0.197883
 23
0.482434
 33
0.473729
 62
0
  0
3DFACE
  8
Cylinder3
 10
-1.707389
 20
-0.482435
 30
0.473729
 11
-1.475376
 21
-0.425346
 31
0.674968
 12
-1.475453
 22
-0.714370
 32
0.473729
 13
-1.475453
 23
-0.714370
 33
0.473729
 62
0
  0
3DFACE
  8
Cylinder3
 10
-1.707389
 20
0.482434
 30
0.473729
 11
-1.475446
 21
0.714367
 31
0.473733
 12
-1.475375
 22
0.425344
 32
0.674970
 13
-1.475375
 23
0.425344
 33
0.674970
 62
0
  0
3DFACE
  8
Cylinder3
 10
-1.475376
 20
-0.425346
 30
0.674968
 11
-1.707389
 21
-0.482435
 31
0.473729
 12
-1.471316
 22
-0.141720
 32
0.753042
 13
-1.471316
 23
-0.141720
 33
0.753042
 62
0
  0
3DFACE
  8
Cylinder3
 10
-1.471316
 20
-0.141720
 30
0.753042
 11
-1.707389
 21
-0.482435
 31
0.473729
 12
-1.557873
 22
-0.000001
 32
0.688056
 13
-1.557873
 23
-0.000001
 33
0.688056
 62
0
  0
3DFACE
  8
Cylinder3
 10
-1.707389
 20
0.482434
 30
0.473729
 11
-1.475375
 21
0.425344
 31
0.674970
 12
-1.471316
 22
0.141720
 32
0.753042
 13
-1.471316
 23
0.141720
 33
0.753042
 62
0
  0
3DFACE
  8
Cylinder3
 10
-1.557873
 20
-0.000001
 30
0.688056
 11
-1.707389
 21
0.482434
 31
0.473729
 12
-1.471316
 22
0.141720
 32
0.753042
 13
-1.471316
 23
0.141720
 33
0.753042
 62
0
  0
3DFACE
  8
Cylinder3
 10
0.197883
 20
0.482434
 30
0.473729
 11
0.197883
 21
-0.482434
 31
0.473730
 12
0.048369
 22
0.000000
 32
0.688053
 13
0.048369
 23
0.000000
 33
0.688053
 62
0
  0
3DFACE
  8
Cylinder3
 10
-1.475453
 20
-0.714370
 30
0.473729
 11
-0.754752
 21
-0.571161
 31
0.673246
 12
-0.034062
 22
-0.714367
 32
0.473734
 13
-0.034062
 23
-0.714367
 33
0.473734
 62
0
  0
3DFACE
  8
Cylinder3
 10
-1.475446
 20
0.714367
 30
0.473733
 11
-0.034056
 21
0.714369
 31
0.473732
 12
-0.754754
 22
0.571161
 32
0.673246
 13
-0.754754
 23
0.571161
 33
0.673246
 62
0
  0
3DFACE
  8
Cylinder3
 10
0.197883
 20
0.482434
 30
0.473729
 11
-0.034130
 21
0.425345
 31
0.674969
 12
-0.034056
 22
0.714369
 32
0.473732
 13
-0.034056
 23
0.714369
 33
0.473732
 62
0
  0
3DFACE
  8
Cylinder3
 10
0.197883
 20
-0.482434
 30
0.473730
 11
-0.034062
 21
-0.714367
 31
0.473734
 12
-0.034132
 22
-0.425343
 32
0.674971
 13
-0.034132
 23
-0.425343
 33
0.674971
 62
0
  0
3DFACE
  8
Cylinder3
 10
-1.475453
 20
-0.714370
 30
0.473729
 11
-1.475376
 21
-0.425346
 31
0.674968
 12
-0.754752
 22
-0.568687
 32
0.674969
 13
-0.754752
 23
-0.571161
 33
0.673246
 62
0
  0
3DFACE
  8
Cylinder3
 10
-0.754754
 20
0.571161
 30
0.673246
 11
-0.754754
 21
0.568690
 31
0.674967
 12
-1.475375
 22
0.425344
 32
0.674970
 13
-1.475446
 23
0.714367
 33
0.473733
 62
0
  0
3DFACE
  8
Cylinder3
 10
-1.471316
 20
-0.141720
 30
0.753042
 11
-1.557873
 21
-0.000001
 31
0.688056
 12
-1.471316
 22
0.141720
 32
0.753042
 13
-1.471316
 23
0.141720
 33
0.753042
 62
0
  0
3DFACE
  8
Cylinder3
 10
0.048369
 20
0.000000
 30
0.688053
 11
0.197883
 21
-0.482434
 31
0.473730
 12
-0.038191
 22
-0.141721
 32
0.753042
 13
-0.038191
 23
-0.141721
 33
0.753042
 62
0
  0
3DFACE
  8
Cylinder3
 10
-0.038190
 20
0.141722
 30
0.753042
 11
0.197883
 21
0.482434
 31
0.473729
 12
0.048369
 22
0.000000
 32
0.688053
 13
0.048369
 23
0.000000
 33
0.688053
 62
0
  0
3DFACE
  8
Cylinder3
 10
-0.034056
 20
0.714369
 30
0.473732
 11
-0.034130
 21
0.425345
 31
0.674969
 12
-0.754754
 22
0.568690
 32
0.674967
 13
-0.754754
 23
0.571161
 33
0.673246
 62
0
  0
3DFACE
  8
Cylinder3
 10
-0.754752
 20
-0.571161
 30
0.673246
 11
-0.754752
 21
-0.568687
 31
0.674969
 12
-0.034132
 22
-0.425343
 32
0.674971
 13
-0.034062
 23
-0.714367
 33
0.473734
 62
0
  0
3DFACE
  8
Cylinder3
 10
-0.754752
 20
-0.568687
 30
0.674969
 11
-1.475376
 21
-0.425346
 31
0.674968
 12
-0.754753
 22
-0.282054
 32
0.828817
 13
-0.754753
 23
-0.282054
 33
0.828817
 62
0
  0
3DFACE
  8
Cylinder3
 10
-0.754752
 20
-0.568687
 30
0.674969
 11
-0.754753
 21
-0.282054
 31
0.828817
 12
-0.034132
 22
-0.425343
 32
0.674971
 13
-0.034132
 23
-0.425343
 33
0.674971
 62
0
  0
3DFACE
  8
Cylinder3
 10
-0.754754
 20
0.568690
 30
0.674967
 11
-0.754754
 21
0.282054
 31
0.828816
 12
-1.475375
 22
0.425344
 32
0.674970
 13
-1.475375
 23
0.425344
 33
0.674970
 62
0
  0
3DFACE
  8
Cylinder3
 10
-0.754754
 20
0.568690
 30
0.674967
 11
-0.034130
 21
0.425345
 31
0.674969
 12
-0.754754
 22
0.282054
 32
0.828816
 13
-0.754754
 23
0.282054
 33
0.828816
 62
0
  0
3DFACE
  8
Cylinder3
 10
-0.034130
 20
0.425345
 30
0.674969
 11
0.197883
 21
0.482434
 31
0.473729
 12
-0.038190
 22
0.141722
 32
0.753042
 13
-0.038190
 23
0.141722
 33
0.753042
 62
0
  0
3DFACE
  8
Cylinder3
 10
0.197883
 20
-0.482434
 30
0.473730
 11
-0.034132
 21
-0.425343
 31
0.674971
 12
-0.038191
 22
-0.141721
 32
0.753042
 13
-0.038191
 23
-0.141721
 33
0.753042
 62
0
  0
3DFACE
  8
Cylinder3
 10
-0.754754
 20
0.282054
 30
0.828816
 11
-0.034130
 21
0.425345
 31
0.674969
 12
-0.038190
 22
0.141722
 32
0.753042
 13
-0.038190
 23
0.141722
 33
0.753042
 62
0
  0
3DFACE
  8
Cylinder3
 10
-0.034132
 20
-0.425343
 30
0.674971
 11
-0.754753
 21
-0.282054
 31
0.828817
 12
-0.038191
 22
-0.141721
 32
0.753042
 13
-0.038191
 23
-0.141721
 33
0.753042
 62
0
  0
3DFACE
  8
Cylinder3
 10
-0.754753
 20
-0.000000
 30
0.880478
 11
-0.754754
 21
0.282054
 31
0.828816
 12
-0.038190
 22
0.141722
 32
0.753042
 13
-0.038190
 23
0.141722
 33
0.753042
 62
0
  0
3DFACE
  8
Cylinder3
 10
-0.754753
 20
-0.282054
 30
0.828817
 11
-1.475376
 21
-0.425346
 31
0.674968
 12
-1.471316
 22
-0.141720
 32
0.753042
 13
-1.471316
 23
-0.141720
 33
0.753042
 62
0
  0
3DFACE
  8
Cylinder3
 10
-0.038191
 20
-0.141721
 30
0.753042
 11
-0.754753
 21
-0.282054
 31
0.828817
 12
-0.754753
 22
-0.000000
 32
0.880478
 13
-0.754753
 23
-0.000000
 33
0.880478
 62
0
  0
3DFACE
  8
Cylinder3
 10
-1.471316
 20
0.141720
 30
0.753042
 11
-0.754754
 21
0.282054
 31
0.828816
 12
-0.754753
 22
-0.000000
 32
0.880478
 13
-0.754753
 23
-0.000000
 33
0.880478
 62
0
  0
3DFACE
  8
Cylinder3
 10
-0.754753
 20
-0.000000
 30
0.880478
 11
-0.754753
 21
-0.282054
 31
0.828817
 12
-1.471316
 22
-0.141720
 32
0.753042
 13
-1.471316
 23
-0.141720
 33
0.753042
 62
0
  0
3DFACE
  8
Cylinder3
 10
-1.475375
 20
0.425344
 30
0.674970
 11
-0.754754
 21
0.282054
 31
0.828816
 12
-1.471316
 22
0.141720
 32
0.753042
 13
-1.471316
 23
0.141720
 33
0.753042
 62
0
  0
3DFACE
  8
Cylinder3
 10
-0.754753
 20
-0.000000
 30
0.880478
 11
-1.471316
 21
-0.141720
 31
0.753042
 12
-1.471316
 22
0.141720
 32
0.753042
 13
-1.471316
 23
0.141720
 33
0.753042
 62
0
  0
3DFACE
  8
Cylinder3
 10
0.048369
 20
0.000000
 30
0.688053
 11
-0.038191
 21
-0.141721
 31
0.753042
 12
-0.038190
 22
0.141722
 32
0.753042
 13
-0.038190
 23
0.141722
 33
0.753042
 62
0
  0
3DFACE
  8
Cylinder3
 10
-0.038191
 20
-0.141721
 30
0.753042
 11
-0.754753
 21
-0.000000
 31
0.880478
 12
-0.038190
 22
0.141722
 32
0.753042
 13
-0.038190
 23
0.141722
 33
0.753042
 62
0
 0
ENDSEC
 0
EOF
