  0
SECTION
  2
HEADER
  0
ENDSEC
  0
SECTION
  2
TABLES
  0
TABLE
  2
LAYER
  70
    153
  0
LAYER
  2
Cube75
 70
0
 62
15
  6
CONTINUOUS
  0
ENDTAB
  0
ENDSEC
  0
SECTION
  2
ENTITIES
  0
3DFACE
  8
Cube75
 10
1.460541
 20
0.578108
 30
-0.223705
 11
1.536650
 21
0.000005
 31
-0.744231
 12
1.612759
 22
0.578108
 32
-0.223705
 13
1.612759
 23
0.578108
 33
-0.223705
 62
0
  0
3DFACE
  8
Cube75
 10
1.612759
 20
0.578108
 30
-0.223705
 11
1.536650
 21
0.000005
 31
-0.744231
 12
1.717253
 22
0.436017
 32
-0.322934
 13
1.717253
 23
0.436017
 33
-0.322934
 62
0
  0
3DFACE
  8
Cube75
 10
1.717253
 20
0.436017
 30
-0.322934
 11
1.536650
 21
0.000005
 31
-0.744231
 12
1.798143
 22
0.340788
 32
-0.360774
 13
1.798143
 23
0.340788
 33
-0.360774
 62
0
  0
3DFACE
  8
Cube75
 10
1.798143
 20
0.340788
 30
-0.360774
 11
1.536650
 21
0.000005
 31
-0.744231
 12
1.877434
 22
0.261496
 32
-0.360774
 13
1.877434
 23
0.261496
 33
-0.360774
 62
0
  0
3DFACE
  8
Cube75
 10
1.877434
 20
0.261496
 30
-0.360774
 11
1.536650
 21
0.000005
 31
-0.744231
 12
1.972663
 22
0.180607
 32
-0.322934
 13
1.972663
 23
0.180607
 33
-0.322934
 62
0
  0
3DFACE
  8
Cube75
 10
2.114760
 20
0.076114
 30
-0.223700
 11
1.536650
 21
0.000005
 31
-0.744231
 12
2.114760
 22
-0.076105
 32
-0.223700
 13
2.114760
 23
-0.076105
 33
-0.223700
 62
0
  0
3DFACE
  8
Cube75
 10
1.972663
 20
0.180607
 30
-0.322934
 11
1.536650
 21
0.000005
 31
-0.744231
 12
2.114760
 22
0.076114
 32
-0.223700
 13
2.114760
 23
0.076114
 33
-0.223700
 62
0
  0
3DFACE
  8
Cube75
 10
1.612760
 20
-0.578108
 30
-0.223697
 11
1.536650
 21
0.000005
 31
-0.744231
 12
1.460540
 22
-0.578108
 32
-0.223697
 13
1.460540
 23
-0.578108
 33
-0.223697
 62
0
  0
3DFACE
  8
Cube75
 10
1.798148
 20
-0.340787
 30
-0.360766
 11
1.536650
 21
0.000005
 31
-0.744231
 12
1.717257
 22
-0.436017
 32
-0.322925
 13
1.717257
 23
-0.436017
 33
-0.322925
 62
0
  0
3DFACE
  8
Cube75
 10
1.877441
 20
-0.261494
 30
-0.360766
 11
1.536650
 21
0.000005
 31
-0.744231
 12
1.798148
 22
-0.340787
 32
-0.360766
 13
1.798148
 23
-0.340787
 33
-0.360766
 62
0
  0
3DFACE
  8
Cube75
 10
0.958543
 20
0.076113
 30
-0.223702
 11
1.536650
 21
0.000005
 31
-0.744231
 12
1.100639
 22
0.180605
 32
-0.322935
 13
1.100639
 23
0.180605
 33
-0.322935
 62
0
  0
3DFACE
  8
Cube75
 10
0.958543
 20
-0.076106
 30
-0.223702
 11
1.536650
 21
0.000005
 31
-0.744231
 12
0.958543
 22
0.076113
 32
-0.223702
 13
0.958543
 23
0.076113
 33
-0.223702
 62
0
  0
3DFACE
  8
Cube75
 10
1.100639
 20
0.180605
 30
-0.322935
 11
1.536650
 21
0.000005
 31
-0.744231
 12
1.195867
 22
0.261494
 32
-0.360775
 13
1.195867
 23
0.261494
 33
-0.360775
 62
0
  0
3DFACE
  8
Cube75
 10
1.612759
 20
0.578108
 30
-0.210280
 11
1.460541
 21
0.578108
 31
-0.210285
 12
1.460541
 22
0.578108
 32
-0.223705
 13
1.612759
 23
0.578108
 33
-0.223705
 62
0
  0
3DFACE
  8
Cube75
 10
2.114760
 20
-0.076105
 30
-0.210270
 11
2.114760
 21
0.076114
 31
-0.210300
 12
2.114760
 22
0.076114
 32
-0.223700
 13
2.114760
 23
-0.076105
 33
-0.223700
 62
0
  0
3DFACE
  8
Cube75
 10
1.717257
 20
-0.436017
 30
-0.322925
 11
1.536650
 21
0.000005
 31
-0.744231
 12
1.612760
 22
-0.578108
 32
-0.223697
 13
1.612760
 23
-0.578108
 33
-0.223697
 62
0
  0
3DFACE
  8
Cube75
 10
1.460541
 20
0.578108
 30
-0.210285
 11
0.958543
 21
0.076113
 31
-0.210298
 12
0.958543
 22
0.076113
 32
-0.223702
 13
1.460541
 23
0.578108
 33
-0.223705
 62
0
  0
3DFACE
  8
Cube75
 10
1.356048
 20
0.436015
 30
-0.322935
 11
1.536650
 21
0.000005
 31
-0.744231
 12
1.460541
 22
0.578108
 32
-0.223705
 13
1.460541
 23
0.578108
 33
-0.223705
 62
0
  0
3DFACE
  8
Cube75
 10
1.195867
 20
0.261494
 30
-0.360775
 11
1.536650
 21
0.000005
 31
-0.744231
 12
1.275159
 22
0.340786
 32
-0.360775
 13
1.275159
 23
0.340786
 33
-0.360775
 62
0
  0
3DFACE
  8
Cube75
 10
1.275159
 20
0.340786
 30
-0.360775
 11
1.536650
 21
0.000005
 31
-0.744231
 12
1.356048
 22
0.436015
 32
-0.322935
 13
1.356048
 23
0.436015
 33
-0.322935
 62
0
  0
3DFACE
  8
Cube75
 10
1.100639
 20
0.180605
 30
-0.322935
 11
1.195867
 21
0.261494
 31
-0.360775
 12
1.275159
 22
0.340786
 32
-0.360775
 13
1.275159
 23
0.340786
 33
-0.360775
 62
0
  0
3DFACE
  8
Cube75
 10
1.356048
 20
0.436015
 30
-0.322935
 11
1.100639
 21
0.180605
 31
-0.322935
 12
1.275159
 22
0.340786
 32
-0.360775
 13
1.275159
 23
0.340786
 33
-0.360775
 62
0
  0
3DFACE
  8
Cube75
 10
1.460541
 20
0.578108
 30
-0.223705
 11
1.100639
 21
0.180605
 31
-0.322935
 12
1.356048
 22
0.436015
 32
-0.322935
 13
1.356048
 23
0.436015
 33
-0.322935
 62
0
  0
3DFACE
  8
Cube75
 10
0.958543
 20
0.076113
 30
-0.223702
 11
1.100639
 21
0.180605
 31
-0.322935
 12
1.460541
 22
0.578108
 32
-0.223705
 13
1.460541
 23
0.578108
 33
-0.223705
 62
0
  0
3DFACE
  8
Cube75
 10
2.114760
 20
0.076114
 30
-0.210300
 11
1.612759
 21
0.578108
 31
-0.210280
 12
1.612759
 22
0.578108
 32
-0.223705
 13
2.114760
 23
0.076114
 33
-0.223700
 62
0
  0
3DFACE
  8
Cube75
 10
2.114760
 20
-0.076105
 30
-0.223700
 11
1.536650
 21
0.000005
 31
-0.744231
 12
1.972672
 22
-0.180602
 32
-0.322925
 13
1.972672
 23
-0.180602
 33
-0.322925
 62
0
  0
3DFACE
  8
Cube75
 10
1.877434
 20
0.261496
 30
-0.360774
 11
1.972663
 21
0.180607
 31
-0.322934
 12
2.114760
 22
0.076114
 32
-0.223700
 13
2.114760
 23
0.076114
 33
-0.223700
 62
0
  0
3DFACE
  8
Cube75
 10
1.798143
 20
0.340788
 30
-0.360774
 11
1.877434
 21
0.261496
 31
-0.360774
 12
2.114760
 22
0.076114
 32
-0.223700
 13
2.114760
 23
0.076114
 33
-0.223700
 62
0
  0
3DFACE
  8
Cube75
 10
1.717253
 20
0.436017
 30
-0.322934
 11
1.798143
 21
0.340788
 31
-0.360774
 12
2.114760
 22
0.076114
 32
-0.223700
 13
2.114760
 23
0.076114
 33
-0.223700
 62
0
  0
3DFACE
  8
Cube75
 10
1.612759
 20
0.578108
 30
-0.223705
 11
1.717253
 21
0.436017
 31
-0.322934
 12
2.114760
 22
0.076114
 32
-0.223700
 13
2.114760
 23
0.076114
 33
-0.223700
 62
0
  0
3DFACE
  8
Cube75
 10
1.972672
 20
-0.180602
 30
-0.322925
 11
1.536650
 21
0.000005
 31
-0.744231
 12
1.877441
 22
-0.261494
 32
-0.360766
 13
1.877441
 23
-0.261494
 33
-0.360766
 62
0
  0
3DFACE
  8
Cube75
 10
1.612760
 20
-0.578108
 30
-0.210281
 11
2.114760
 21
-0.076105
 31
-0.210270
 12
2.114760
 22
-0.076105
 32
-0.223700
 13
1.612760
 23
-0.578108
 33
-0.223697
 62
0
  0
3DFACE
  8
Cube75
 10
1.100631
 20
-0.180601
 30
-0.322927
 11
1.536650
 21
0.000005
 31
-0.744231
 12
0.958543
 22
-0.076106
 32
-0.223702
 13
0.958543
 23
-0.076106
 33
-0.223702
 62
0
  0
3DFACE
  8
Cube75
 10
1.275154
 20
-0.340784
 30
-0.360768
 11
1.536650
 21
0.000005
 31
-0.744231
 12
1.195861
 22
-0.261492
 32
-0.360768
 13
1.195861
 23
-0.261492
 33
-0.360768
 62
0
  0
3DFACE
  8
Cube75
 10
1.717257
 20
-0.436017
 30
-0.322925
 11
1.877441
 21
-0.261494
 31
-0.360766
 12
1.798148
 22
-0.340787
 32
-0.360766
 13
1.798148
 23
-0.340787
 33
-0.360766
 62
0
  0
3DFACE
  8
Cube75
 10
1.972672
 20
-0.180602
 30
-0.322925
 11
1.877441
 21
-0.261494
 31
-0.360766
 12
1.717257
 22
-0.436017
 32
-0.322925
 13
1.717257
 23
-0.436017
 33
-0.322925
 62
0
  0
3DFACE
  8
Cube75
 10
2.114760
 20
-0.076105
 30
-0.223700
 11
1.972672
 21
-0.180602
 31
-0.322925
 12
1.717257
 22
-0.436017
 32
-0.322925
 13
1.717257
 23
-0.436017
 33
-0.322925
 62
0
  0
3DFACE
  8
Cube75
 10
1.612760
 20
-0.578108
 30
-0.223697
 11
2.114760
 21
-0.076105
 31
-0.223700
 12
1.717257
 22
-0.436017
 32
-0.322925
 13
1.717257
 23
-0.436017
 33
-0.322925
 62
0
  0
3DFACE
  8
Cube75
 10
1.195861
 20
-0.261492
 30
-0.360768
 11
1.536650
 21
0.000005
 31
-0.744231
 12
1.100631
 22
-0.180601
 32
-0.322927
 13
1.100631
 23
-0.180601
 33
-0.322927
 62
0
  0
3DFACE
  8
Cube75
 10
1.356045
 20
-0.436015
 30
-0.322928
 11
1.536650
 21
0.000005
 31
-0.744231
 12
1.275154
 22
-0.340784
 32
-0.360768
 13
1.275154
 23
-0.340784
 33
-0.360768
 62
0
  0
3DFACE
  8
Cube75
 10
1.460540
 20
-0.578108
 30
-0.223697
 11
1.536650
 21
0.000005
 31
-0.744231
 12
1.356045
 22
-0.436015
 32
-0.322928
 13
1.356045
 23
-0.436015
 33
-0.322928
 62
0
  0
3DFACE
  8
Cube75
 10
1.275154
 20
-0.340784
 30
-0.360768
 11
1.460540
 21
-0.578108
 31
-0.223697
 12
1.356045
 22
-0.436015
 32
-0.322928
 13
1.356045
 23
-0.436015
 33
-0.322928
 62
0
  0
3DFACE
  8
Cube75
 10
1.195861
 20
-0.261492
 30
-0.360768
 11
1.460540
 21
-0.578108
 31
-0.223697
 12
1.275154
 22
-0.340784
 32
-0.360768
 13
1.275154
 23
-0.340784
 33
-0.360768
 62
0
  0
3DFACE
  8
Cube75
 10
1.100631
 20
-0.180601
 30
-0.322927
 11
1.460540
 21
-0.578108
 31
-0.223697
 12
1.195861
 22
-0.261492
 32
-0.360768
 13
1.195861
 23
-0.261492
 33
-0.360768
 62
0
  0
3DFACE
  8
Cube75
 10
0.958543
 20
-0.076106
 30
-0.223702
 11
1.460540
 21
-0.578108
 31
-0.223697
 12
1.100631
 22
-0.180601
 32
-0.322927
 13
1.100631
 23
-0.180601
 33
-0.322927
 62
0
  0
3DFACE
  8
Cube75
 10
1.848754
 20
0.312105
 30
-0.110452
 11
1.612759
 21
0.578108
 31
-0.210280
 12
2.114760
 22
0.076114
 32
-0.210300
 13
2.114760
 23
0.076114
 33
-0.210300
 62
0
  0
3DFACE
  8
Cube75
 10
0.958543
 20
-0.076106
 30
-0.210270
 11
1.460540
 21
-0.578108
 31
-0.210288
 12
1.460540
 22
-0.578108
 32
-0.223697
 13
0.958543
 23
-0.076106
 33
-0.223702
 62
0
  0
3DFACE
  8
Cube75
 10
1.460540
 20
-0.578108
 30
-0.210288
 11
1.612760
 21
-0.578108
 31
-0.210281
 12
1.612760
 22
-0.578108
 32
-0.223697
 13
1.460540
 23
-0.578108
 33
-0.223697
 62
0
  0
3DFACE
  8
Cube75
 10
0.958543
 20
0.076113
 30
-0.210298
 11
0.958543
 21
-0.076106
 31
-0.210270
 12
0.958543
 22
-0.076106
 32
-0.223702
 13
0.958543
 23
0.076113
 33
-0.223702
 62
0
  0
3DFACE
  8
Cube75
 10
0.958543
 20
0.076113
 30
-0.210298
 11
1.460541
 21
0.578108
 31
-0.210285
 12
1.224547
 22
0.312104
 32
-0.110453
 13
1.224547
 23
0.312104
 33
-0.110453
 62
0
  0
3DFACE
  8
Cube75
 10
1.536652
 20
0.441511
 30
-0.110529
 11
1.460541
 21
0.578108
 31
-0.210285
 12
1.612759
 22
0.578108
 32
-0.210280
 13
1.612759
 23
0.578108
 33
-0.210280
 62
0
  0
3DFACE
  8
Cube75
 10
1.848754
 20
0.312105
 30
-0.110452
 11
1.536652
 21
0.441511
 31
-0.110529
 12
1.612759
 22
0.578108
 32
-0.210280
 13
1.612759
 23
0.578108
 33
-0.210280
 62
0
  0
3DFACE
  8
Cube75
 10
1.536652
 20
0.441511
 30
-0.110529
 11
1.224547
 21
0.312104
 31
-0.110453
 12
1.460541
 22
0.578108
 32
-0.210285
 13
1.460541
 23
0.578108
 33
-0.210285
 62
0
  0
3DFACE
  8
Cube75
 10
1.978128
 20
-0.000020
 30
-0.110513
 11
2.114760
 21
0.076114
 31
-0.210300
 12
2.114760
 22
-0.076105
 32
-0.210270
 13
2.114760
 23
-0.076105
 33
-0.210270
 62
0
  0
3DFACE
  8
Cube75
 10
1.848760
 20
-0.312099
 30
-0.110450
 11
2.114760
 21
-0.076105
 31
-0.210270
 12
1.612760
 22
-0.578108
 32
-0.210281
 13
1.612760
 23
-0.578108
 33
-0.210281
 62
0
  0
3DFACE
  8
Cube75
 10
1.978128
 20
-0.000020
 30
-0.110513
 11
1.848754
 21
0.312105
 31
-0.110452
 12
2.114760
 22
0.076114
 32
-0.210300
 13
2.114760
 23
0.076114
 33
-0.210300
 62
0
  0
3DFACE
  8
Cube75
 10
1.536656
 20
-0.441515
 30
-0.110530
 11
1.612760
 21
-0.578108
 31
-0.210281
 12
1.460540
 22
-0.578108
 32
-0.210288
 13
1.460540
 23
-0.578108
 33
-0.210288
 62
0
  0
3DFACE
  8
Cube75
 10
1.224546
 20
-0.312103
 30
-0.110453
 11
1.460540
 21
-0.578108
 31
-0.210288
 12
0.958543
 22
-0.076106
 32
-0.210270
 13
0.958543
 23
-0.076106
 33
-0.210270
 62
0
  0
3DFACE
  8
Cube75
 10
1.095116
 20
-0.000017
 30
-0.110539
 11
0.958543
 21
-0.076106
 31
-0.210270
 12
0.958543
 22
0.076113
 32
-0.210298
 13
0.958543
 23
0.076113
 33
-0.210298
 62
0
  0
3DFACE
  8
Cube75
 10
1.848754
 20
0.312105
 30
-0.110452
 11
1.573460
 21
0.289235
 31
-0.052381
 12
1.536652
 22
0.441511
 32
-0.110529
 13
1.536652
 23
0.441511
 33
-0.110529
 62
0
  0
3DFACE
  8
Cube75
 10
1.848760
 20
-0.312099
 30
-0.110450
 11
1.978128
 21
-0.000020
 31
-0.110513
 12
2.114760
 22
-0.076105
 32
-0.210270
 13
2.114760
 23
-0.076105
 33
-0.210270
 62
0
  0
3DFACE
  8
Cube75
 10
1.848754
 20
0.312105
 30
-0.110452
 11
1.978128
 21
-0.000020
 31
-0.110513
 12
1.825871
 22
0.036801
 32
-0.052375
 13
1.825871
 23
0.036801
 33
-0.052375
 62
0
  0
3DFACE
  8
Cube75
 10
1.536656
 20
-0.441515
 30
-0.110530
 11
1.848760
 21
-0.312099
 31
-0.110450
 12
1.612760
 22
-0.578108
 32
-0.210281
 13
1.612760
 23
-0.578108
 33
-0.210281
 62
0
  0
3DFACE
  8
Cube75
 10
1.224546
 20
-0.312103
 30
-0.110453
 11
1.536656
 21
-0.441515
 31
-0.110530
 12
1.460540
 22
-0.578108
 32
-0.210288
 13
1.460540
 23
-0.578108
 33
-0.210288
 62
0
  0
3DFACE
  8
Cube75
 10
1.095116
 20
-0.000017
 30
-0.110539
 11
1.224546
 21
-0.312103
 31
-0.110453
 12
0.958543
 22
-0.076106
 32
-0.210270
 13
0.958543
 23
-0.076106
 33
-0.210270
 62
0
  0
3DFACE
  8
Cube75
 10
1.224547
 20
0.312104
 30
-0.110453
 11
1.095116
 21
-0.000017
 31
-0.110539
 12
0.958543
 22
0.076113
 32
-0.210298
 13
0.958543
 23
0.076113
 33
-0.210298
 62
0
  0
3DFACE
  8
Cube75
 10
1.542732
 20
0.232195
 30
-0.030600
 11
1.573460
 21
0.289235
 31
-0.052381
 12
1.848754
 22
0.312105
 32
-0.110452
 13
1.536652
 23
0.127282
 33
-0.000000
 62
0
  0
3DFACE
  8
Cube75
 10
1.663933
 20
-0.000004
 30
0.000001
 11
1.848754
 21
0.312105
 31
-0.110452
 12
1.825871
 22
0.036801
 32
-0.052375
 13
1.768848
 23
0.006081
 33
-0.030600
 62
0
  0
3DFACE
  8
Cube75
 10
1.848760
 20
-0.312099
 30
-0.110450
 11
1.536656
 21
-0.441515
 31
-0.110530
 12
1.573459
 22
-0.289228
 32
-0.052379
 13
1.573459
 23
-0.289228
 33
-0.052379
 62
0
  0
3DFACE
  8
Cube75
 10
1.224547
 20
0.312104
 30
-0.110453
 11
1.247412
 21
0.036796
 31
-0.052383
 12
1.095116
 22
-0.000017
 32
-0.110539
 13
1.095116
 23
-0.000017
 33
-0.110539
 62
0
  0
3DFACE
  8
Cube75
 10
1.304457
 20
0.006067
 30
-0.030600
 11
1.247412
 21
0.036796
 31
-0.052383
 12
1.224547
 22
0.312104
 32
-0.110453
 13
1.409398
 23
-0.000003
 33
0.000007
 62
0
  0
3DFACE
  8
Cube75
 10
1.536652
 20
0.127282
 30
-0.000000
 11
1.848754
 21
0.312105
 31
-0.110452
 12
1.663933
 22
-0.000004
 32
0.000001
 13
1.663933
 23
-0.000004
 33
0.000001
 62
0
  0
3DFACE
  8
Cube75
 10
1.536654
 20
-0.127278
 30
0.000000
 11
1.848760
 21
-0.312099
 31
-0.110450
 12
1.573459
 22
-0.289228
 32
-0.052379
 13
1.542732
 23
-0.232193
 33
-0.030599
 62
0
  0
3DFACE
  8
Cube75
 10
1.224547
 20
0.312104
 30
-0.110453
 11
1.536652
 21
0.441511
 31
-0.110529
 12
1.499844
 22
0.289234
 32
-0.052381
 13
1.499844
 23
0.289234
 33
-0.052381
 62
0
  0
3DFACE
  8
Cube75
 10
1.499844
 20
0.289234
 30
-0.052381
 11
1.542732
 21
0.232195
 31
-0.030600
 12
1.530572
 22
0.232195
 32
-0.030600
 13
1.530572
 23
0.232195
 33
-0.030600
 62
0
  0
3DFACE
  8
Cube75
 10
1.573460
 20
0.289235
 30
-0.052381
 11
1.542732
 21
0.232195
 31
-0.030600
 12
1.499844
 22
0.289234
 32
-0.052381
 13
1.499844
 23
0.289234
 33
-0.052381
 62
0
  0
3DFACE
  8
Cube75
 10
1.536652
 20
0.441511
 30
-0.110529
 11
1.573460
 21
0.289235
 31
-0.052381
 12
1.499844
 22
0.289234
 32
-0.052381
 13
1.499844
 23
0.289234
 33
-0.052381
 62
0
  0
3DFACE
  8
Cube75
 10
1.848760
 20
-0.312099
 30
-0.110450
 11
1.825872
 21
-0.036821
 31
-0.052375
 12
1.978128
 22
-0.000020
 32
-0.110513
 13
1.978128
 23
-0.000020
 33
-0.110513
 62
0
  0
3DFACE
  8
Cube75
 10
1.825872
 20
-0.036821
 30
-0.052375
 11
1.768848
 21
-0.006098
 31
-0.030600
 12
1.768848
 22
0.006081
 32
-0.030600
 13
1.768848
 23
0.006081
 33
-0.030600
 62
0
  0
3DFACE
  8
Cube75
 10
1.825871
 20
0.036801
 30
-0.052375
 11
1.825872
 21
-0.036821
 31
-0.052375
 12
1.768848
 22
0.006081
 32
-0.030600
 13
1.768848
 23
0.006081
 33
-0.030600
 62
0
  0
3DFACE
  8
Cube75
 10
1.978128
 20
-0.000020
 30
-0.110513
 11
1.825872
 21
-0.036821
 31
-0.052375
 12
1.825871
 22
0.036801
 32
-0.052375
 13
1.825871
 23
0.036801
 33
-0.052375
 62
0
  0
3DFACE
  8
Cube75
 10
1.224546
 20
-0.312103
 30
-0.110453
 11
1.499851
 21
-0.289229
 31
-0.052379
 12
1.536656
 22
-0.441515
 32
-0.110530
 13
1.536656
 23
-0.441515
 33
-0.110530
 62
0
  0
3DFACE
  8
Cube75
 10
1.224546
 20
-0.312103
 30
-0.110453
 11
1.095116
 21
-0.000017
 31
-0.110539
 12
1.247412
 22
-0.036811
 32
-0.052383
 13
1.247412
 23
-0.036811
 33
-0.052383
 62
0
  0
3DFACE
  8
Cube75
 10
1.536652
 20
0.127282
 30
-0.000000
 11
1.224547
 21
0.312104
 31
-0.110453
 12
1.499844
 22
0.289234
 32
-0.052381
 13
1.530572
 23
0.232195
 33
-0.030600
 62
0
  0
3DFACE
  8
Cube75
 10
1.530572
 20
0.232195
 30
-0.030600
 11
1.542732
 21
0.232195
 31
-0.030600
 12
1.536652
 22
0.127282
 32
-0.000000
 13
1.536652
 23
0.127282
 33
-0.000000
 62
0
  0
3DFACE
  8
Cube75
 10
1.768848
 20
-0.006098
 30
-0.030600
 11
1.825872
 21
-0.036821
 31
-0.052375
 12
1.848760
 22
-0.312099
 32
-0.110450
 13
1.663933
 23
-0.000004
 33
0.000001
 62
0
  0
3DFACE
  8
Cube75
 10
1.530576
 20
-0.232194
 30
-0.030599
 11
1.499851
 21
-0.289229
 31
-0.052379
 12
1.224546
 22
-0.312103
 32
-0.110453
 13
1.536654
 23
-0.127278
 33
0.000000
 62
0
  0
3DFACE
  8
Cube75
 10
1.663933
 20
-0.000004
 30
0.000001
 11
1.768848
 21
0.006081
 31
-0.030600
 12
1.768848
 22
-0.006098
 32
-0.030600
 13
1.768848
 23
-0.006098
 33
-0.030600
 62
0
  0
3DFACE
  8
Cube75
 10
1.573459
 20
-0.289228
 30
-0.052379
 11
1.536656
 21
-0.441515
 31
-0.110530
 12
1.499851
 22
-0.289229
 32
-0.052379
 13
1.499851
 23
-0.289229
 33
-0.052379
 62
0
  0
3DFACE
  8
Cube75
 10
1.530576
 20
-0.232194
 30
-0.030599
 11
1.573459
 21
-0.289228
 31
-0.052379
 12
1.499851
 22
-0.289229
 32
-0.052379
 13
1.499851
 23
-0.289229
 33
-0.052379
 62
0
  0
3DFACE
  8
Cube75
 10
1.542732
 20
-0.232193
 30
-0.030599
 11
1.573459
 21
-0.289228
 31
-0.052379
 12
1.530576
 22
-0.232194
 32
-0.030599
 13
1.530576
 23
-0.232194
 33
-0.030599
 62
0
  0
3DFACE
  8
Cube75
 10
1.247412
 20
0.036796
 30
-0.052383
 11
1.247412
 21
-0.036811
 31
-0.052383
 12
1.095116
 22
-0.000017
 32
-0.110539
 13
1.095116
 23
-0.000017
 33
-0.110539
 62
0
  0
3DFACE
  8
Cube75
 10
1.304457
 20
-0.006080
 30
-0.030600
 11
1.247412
 21
-0.036811
 31
-0.052383
 12
1.247412
 22
0.036796
 32
-0.052383
 13
1.247412
 23
0.036796
 33
-0.052383
 62
0
  0
3DFACE
  8
Cube75
 10
1.304457
 20
0.006067
 30
-0.030600
 11
1.304457
 21
-0.006080
 31
-0.030600
 12
1.247412
 22
0.036796
 32
-0.052383
 13
1.247412
 23
0.036796
 33
-0.052383
 62
0
  0
3DFACE
  8
Cube75
 10
1.530576
 20
-0.232194
 30
-0.030599
 11
1.536654
 21
-0.127278
 31
0.000000
 12
1.542732
 22
-0.232193
 32
-0.030599
 13
1.542732
 23
-0.232193
 33
-0.030599
 62
0
  0
3DFACE
  8
Cube75
 10
1.409398
 20
-0.000003
 30
0.000007
 11
1.224546
 21
-0.312103
 31
-0.110453
 12
1.247412
 22
-0.036811
 32
-0.052383
 13
1.304457
 23
-0.006080
 33
-0.030600
 62
0
  0
3DFACE
  8
Cube75
 10
1.409398
 20
-0.000003
 30
0.000007
 11
1.224547
 21
0.312104
 31
-0.110453
 12
1.536652
 22
0.127282
 32
-0.000000
 13
1.536652
 23
0.127282
 33
-0.000000
 62
0
  0
3DFACE
  8
Cube75
 10
1.663933
 20
-0.000004
 30
0.000001
 11
1.848760
 21
-0.312099
 31
-0.110450
 12
1.536654
 22
-0.127278
 32
0.000000
 13
1.536654
 23
-0.127278
 33
0.000000
 62
0
  0
3DFACE
  8
Cube75
 10
1.304457
 20
-0.006080
 30
-0.030600
 11
1.304457
 21
0.006067
 31
-0.030600
 12
1.409398
 22
-0.000003
 32
0.000007
 13
1.409398
 23
-0.000003
 33
0.000007
 62
0
  0
3DFACE
  8
Cube75
 10
1.536654
 20
-0.127278
 30
0.000000
 11
1.224546
 21
-0.312103
 31
-0.110453
 12
1.409398
 22
-0.000003
 32
0.000007
 13
1.409398
 23
-0.000003
 33
0.000007
 62
0
  0
3DFACE
  8
Cube75
 10
1.536654
 20
-0.127278
 30
0.000000
 11
1.409398
 21
-0.000003
 31
0.000007
 12
1.536652
 22
0.127282
 32
-0.000000
 13
1.663933
 23
-0.000004
 33
0.000001
 62
0
 0
ENDSEC
 0
EOF
