  0
SECTION
  2
HEADER
  0
ENDSEC
  0
SECTION
  2
TABLES
  0
TABLE
  2
LAYER
  70
    153
  0
LAYER
  2
NoName1
 70
0
 62
15
  6
CONTINUOUS
  0
ENDTAB
  0
ENDSEC
  0
SECTION
  2
ENTITIES
  0
3DFACE
  8
NoName1
 10
0.599970
 20
0.118257
 30
0.095759
 11
1.396977
 21
0.119054
 31
0.095763
 12
1.396837
 22
-0.118270
 32
0.095763
 13
0.600009
 23
-0.118747
 33
0.095759
 62
0
  0
3DFACE
  8
NoName1
 10
0.528617
 20
-0.157364
 30
0.016799
 11
0.528629
 21
0.156156
 31
0.016799
 12
0.599970
 22
0.118257
 32
0.095759
 13
0.600009
 23
-0.118747
 33
0.095759
 62
0
  0
3DFACE
  8
NoName1
 10
0.592120
 20
-0.215853
 30
0.016799
 11
0.528617
 21
-0.157364
 31
0.016799
 12
0.600009
 22
-0.118747
 32
0.095759
 13
0.600009
 23
-0.118747
 33
0.095759
 62
0
  0
3DFACE
  8
NoName1
 10
1.407358
 20
0.217979
 30
0.016799
 11
0.591881
 21
0.217917
 31
0.016799
 12
0.591881
 22
0.217917
 32
0.000000
 13
1.407358
 23
0.217979
 33
0.000000
 62
0
  0
3DFACE
  8
NoName1
 10
1.396837
 20
-0.118270
 30
0.095763
 11
1.466248
 21
-0.157250
 31
0.016799
 12
1.406988
 22
-0.215653
 32
0.016799
 13
1.406988
 23
-0.215653
 33
0.016799
 62
0
  0
3DFACE
  8
NoName1
 10
1.466249
 20
0.156751
 30
0.016799
 11
1.466248
 21
-0.157250
 31
0.016799
 12
1.396837
 22
-0.118270
 32
0.095763
 13
1.396977
 23
0.119054
 33
0.095763
 62
0
  0
3DFACE
  8
NoName1
 10
1.407358
 20
0.217979
 30
0.016799
 11
1.466249
 21
0.156751
 31
0.016799
 12
1.396977
 22
0.119054
 32
0.095763
 13
1.396977
 23
0.119054
 33
0.095763
 62
0
  0
3DFACE
  8
NoName1
 10
1.396977
 20
0.119054
 30
0.095763
 11
0.999047
 21
0.180788
 31
0.056280
 12
1.407358
 22
0.217979
 32
0.016799
 13
1.407358
 23
0.217979
 33
0.016799
 62
0
  0
3DFACE
  8
NoName1
 10
0.599970
 20
0.118257
 30
0.095759
 11
0.528629
 21
0.156156
 31
0.016799
 12
0.591881
 22
0.217917
 32
0.016799
 13
0.591881
 23
0.217917
 33
0.016799
 62
0
  0
3DFACE
  8
NoName1
 10
0.601975
 20
0.000398
 30
-0.279443
 11
0.998645
 21
0.000519
 31
-0.313204
 12
1.406361
 22
0.000640
 32
-0.279116
 13
0.998647
 23
0.000519
 33
-0.313203
 62
0
  0
3DFACE
  8
NoName1
 10
0.528617
 20
-0.157364
 30
0.000000
 11
0.601975
 21
0.000398
 31
-0.279443
 12
0.528629
 22
0.156156
 32
-0.000000
 13
0.528629
 23
0.156156
 33
-0.000000
 62
0
  0
3DFACE
  8
NoName1
 10
0.528617
 20
-0.157364
 30
0.000000
 11
0.592120
 21
-0.215853
 31
-0.000000
 12
0.601975
 22
0.000398
 32
-0.279443
 13
0.601975
 23
0.000398
 33
-0.279443
 62
0
  0
3DFACE
  8
NoName1
 10
0.601975
 20
0.000398
 30
-0.279443
 11
0.592120
 21
-0.215853
 31
-0.000000
 12
0.998645
 22
0.000519
 32
-0.313204
 13
0.998645
 23
0.000519
 33
-0.313204
 62
0
  0
3DFACE
  8
NoName1
 10
1.466248
 20
-0.157250
 30
0.000000
 11
1.406361
 21
0.000640
 31
-0.279116
 12
1.406988
 22
-0.215653
 32
-0.000000
 13
1.406988
 23
-0.215653
 33
-0.000000
 62
0
  0
3DFACE
  8
NoName1
 10
1.466248
 20
0.156751
 30
0.000000
 11
1.406361
 21
0.000640
 31
-0.279116
 12
1.466248
 22
-0.157250
 32
0.000000
 13
1.466248
 23
-0.157250
 33
0.000000
 62
0
  0
3DFACE
  8
NoName1
 10
1.466248
 20
0.156751
 30
0.000000
 11
1.407358
 21
0.217979
 31
0.000000
 12
1.406361
 22
0.000640
 32
-0.279116
 13
1.406361
 23
0.000640
 33
-0.279116
 62
0
  0
3DFACE
  8
NoName1
 10
0.998479
 20
0.188305
 30
-0.075150
 11
0.998647
 21
0.000519
 31
-0.313203
 12
1.407358
 22
0.217979
 32
0.000000
 13
1.407358
 23
0.217979
 33
0.000000
 62
0
  0
3DFACE
  8
NoName1
 10
0.528629
 20
0.156156
 30
-0.000000
 11
0.601975
 21
0.000398
 31
-0.279443
 12
0.591881
 22
0.217917
 32
0.000000
 13
0.591881
 23
0.217917
 33
0.000000
 62
0
  0
3DFACE
  8
NoName1
 10
1.396837
 20
-0.118270
 30
0.095763
 11
0.998196
 21
-0.183978
 31
0.056280
 12
0.600009
 22
-0.118747
 32
0.095759
 13
0.600009
 23
-0.118747
 33
0.095759
 62
0
  0
3DFACE
  8
NoName1
 10
0.592120
 20
-0.215853
 30
0.016799
 11
0.998196
 21
-0.183978
 31
0.056280
 12
1.406988
 22
-0.215653
 32
0.016799
 13
1.406988
 23
-0.215653
 33
0.016799
 62
0
  0
3DFACE
  8
NoName1
 10
0.998196
 20
-0.183978
 30
0.056280
 11
1.396837
 21
-0.118270
 31
0.095763
 12
1.406988
 22
-0.215653
 32
0.016799
 13
1.406988
 23
-0.215653
 33
0.016799
 62
0
  0
3DFACE
  8
NoName1
 10
0.998196
 20
-0.183978
 30
0.056280
 11
0.592120
 21
-0.215853
 31
0.016799
 12
0.600009
 22
-0.118747
 32
0.095759
 13
0.600009
 23
-0.118747
 33
0.095759
 62
0
  0
3DFACE
  8
NoName1
 10
1.466248
 20
0.156751
 30
0.000000
 11
1.466248
 21
-0.157250
 31
0.000000
 12
1.466248
 22
-0.157250
 32
0.016799
 13
1.466249
 23
0.156751
 33
0.016799
 62
0
  0
3DFACE
  8
NoName1
 10
0.599970
 20
0.118257
 30
0.095759
 11
0.999047
 21
0.180788
 31
0.056280
 12
1.396977
 22
0.119054
 32
0.095763
 13
1.396977
 23
0.119054
 33
0.095763
 62
0
  0
3DFACE
  8
NoName1
 10
0.591881
 20
0.217917
 30
0.016799
 11
0.999047
 21
0.180788
 31
0.056280
 12
0.599970
 22
0.118257
 32
0.095759
 13
0.599970
 23
0.118257
 33
0.095759
 62
0
  0
3DFACE
  8
NoName1
 10
1.407358
 20
0.217979
 30
0.016799
 11
0.999047
 21
0.180788
 31
0.056280
 12
0.591881
 22
0.217917
 32
0.016799
 13
0.591881
 23
0.217917
 33
0.016799
 62
0
  0
3DFACE
  8
NoName1
 10
1.407358
 20
0.217979
 30
0.000000
 11
1.466248
 21
0.156751
 31
0.000000
 12
1.466249
 22
0.156751
 32
0.016799
 13
1.407358
 23
0.217979
 33
0.016799
 62
0
  0
3DFACE
  8
NoName1
 10
1.466248
 20
-0.157250
 30
0.000000
 11
1.406988
 21
-0.215653
 31
-0.000000
 12
1.406988
 22
-0.215653
 32
0.016799
 13
1.466248
 23
-0.157250
 33
0.016799
 62
0
  0
3DFACE
  8
NoName1
 10
0.592120
 20
-0.215853
 30
0.016799
 11
1.406988
 21
-0.215653
 31
0.016799
 12
1.406988
 22
-0.215653
 32
-0.000000
 13
0.592120
 23
-0.215853
 33
-0.000000
 62
0
  0
3DFACE
  8
NoName1
 10
0.592120
 20
-0.215853
 30
-0.000000
 11
0.528617
 21
-0.157364
 31
0.000000
 12
0.528617
 22
-0.157364
 32
0.016799
 13
0.592120
 23
-0.215853
 33
0.016799
 62
0
  0
3DFACE
  8
NoName1
 10
0.528617
 20
-0.157364
 30
0.000000
 11
0.528629
 21
0.156156
 31
-0.000000
 12
0.528629
 22
0.156156
 32
0.016799
 13
0.528617
 23
-0.157364
 33
0.016799
 62
0
  0
3DFACE
  8
NoName1
 10
0.528629
 20
0.156156
 30
-0.000000
 11
0.591881
 21
0.217917
 31
0.000000
 12
0.591881
 22
0.217917
 32
0.016799
 13
0.528629
 23
0.156156
 33
0.016799
 62
0
  0
3DFACE
  8
NoName1
 10
0.601975
 20
0.000398
 30
-0.279443
 11
0.998647
 21
0.000519
 31
-0.313203
 12
0.591881
 22
0.217917
 32
0.000000
 13
0.591881
 23
0.217917
 33
0.000000
 62
0
  0
3DFACE
  8
NoName1
 10
0.998450
 20
-0.185364
 30
-0.075720
 11
0.998645
 21
0.000519
 31
-0.313204
 12
0.592120
 22
-0.215853
 32
-0.000000
 13
0.592120
 23
-0.215853
 33
-0.000000
 62
0
  0
3DFACE
  8
NoName1
 10
0.998479
 20
0.188305
 30
-0.075150
 11
1.407358
 21
0.217979
 31
0.000000
 12
0.591881
 22
0.217917
 32
0.000000
 13
0.591881
 23
0.217917
 33
0.000000
 62
0
  0
3DFACE
  8
NoName1
 10
0.998479
 20
0.188305
 30
-0.075150
 11
0.591881
 21
0.217917
 31
0.000000
 12
0.998647
 22
0.000519
 32
-0.313203
 13
0.998647
 23
0.000519
 33
-0.313203
 62
0
  0
3DFACE
  8
NoName1
 10
1.406361
 20
0.000640
 30
-0.279116
 11
1.407358
 21
0.217979
 31
0.000000
 12
0.998647
 22
0.000519
 32
-0.313203
 13
0.998647
 23
0.000519
 33
-0.313203
 62
0
  0
3DFACE
  8
NoName1
 10
1.406361
 20
0.000640
 30
-0.279116
 11
0.998645
 21
0.000519
 31
-0.313204
 12
1.406988
 22
-0.215653
 32
-0.000000
 13
1.406988
 23
-0.215653
 33
-0.000000
 62
0
  0
3DFACE
  8
NoName1
 10
0.998450
 20
-0.185364
 30
-0.075720
 11
1.406988
 21
-0.215653
 31
-0.000000
 12
0.998645
 22
0.000519
 32
-0.313204
 13
0.998645
 23
0.000519
 33
-0.313204
 62
0
  0
3DFACE
  8
NoName1
 10
0.998450
 20
-0.185364
 30
-0.075720
 11
0.592120
 21
-0.215853
 31
-0.000000
 12
1.406988
 22
-0.215653
 32
-0.000000
 13
1.406988
 23
-0.215653
 33
-0.000000
 62
0
 0
ENDSEC
 0
EOF
