  0
SECTION
  2
HEADER
  0
ENDSEC
  0
SECTION
  2
TABLES
  0
TABLE
  2
LAYER
  70
    153
  0
LAYER
  2
Cylinder1
 70
0
 62
15
  6
CONTINUOUS
  0
ENDTAB
  0
ENDSEC
  0
SECTION
  2
ENTITIES
  0
3DFACE
  8
Cylinder1
 10
-0.196211
 20
-0.063520
 30
-0.105876
 11
-0.259731
 21
-1.007186
 31
0.743841
 12
0.236242
 22
-0.941890
 32
0.743841
 13
0.236242
 23
-0.941890
 33
0.743841
 62
0
  0
3DFACE
  8
Cylinder1
 10
-0.755703
 20
-0.941890
 30
0.743841
 11
-0.259731
 21
-1.007186
 31
0.743841
 12
-0.323252
 22
-0.063520
 32
-0.105875
 13
-0.323252
 23
-0.063520
 33
-0.105875
 62
0
  0
3DFACE
  8
Cylinder1
 10
-1.201622
 20
0.495969
 30
0.743841
 11
-1.266917
 21
0.000001
 31
0.743841
 12
-0.323252
 22
0.063521
 32
-0.105875
 13
-0.323252
 23
0.063521
 33
-0.105875
 62
0
  0
3DFACE
  8
Cylinder1
 10
-0.196211
 20
0.063520
 30
-0.105876
 11
-0.259731
 21
1.007186
 31
0.743841
 12
-0.323252
 22
0.063521
 32
-0.105875
 13
-0.259731
 23
0.000000
 33
-0.163069
 62
0
  0
3DFACE
  8
Cylinder1
 10
-0.196211
 20
0.063520
 30
-0.105876
 11
0.747455
 21
-0.000000
 31
0.743841
 12
0.682159
 22
0.495972
 32
0.743841
 13
0.682159
 23
0.495972
 33
0.743841
 62
0
  0
3DFACE
  8
Cylinder1
 10
-0.259731
 20
0.000000
 30
-0.163069
 11
-0.323252
 21
0.063521
 31
-0.105875
 12
-1.266917
 22
0.000001
 32
0.743841
 13
-0.323252
 23
-0.063520
 33
-0.105875
 62
0
  0
3DFACE
  8
Cylinder1
 10
-0.196211
 20
-0.063520
 30
-0.105876
 11
0.747455
 21
-0.000000
 31
0.743841
 12
-0.196211
 22
0.063520
 32
-0.105876
 13
-0.259731
 23
0.000000
 33
-0.163069
 62
0
  0
3DFACE
  8
Cylinder1
 10
-0.259731
 20
0.000000
 30
-0.163069
 11
-0.323252
 21
-0.063520
 31
-0.105875
 12
-0.259731
 22
-1.007186
 32
0.743841
 13
-0.196211
 23
-0.063520
 33
-0.105876
 62
0
  0
3DFACE
  8
Cylinder1
 10
-1.201622
 20
0.495969
 30
0.743841
 11
-0.323252
 21
0.063521
 31
-0.105875
 12
-0.686936
 22
0.427204
 32
0.288223
 13
-0.686936
 23
0.427204
 33
0.288223
 62
0
  0
3DFACE
  8
Cylinder1
 10
-0.323252
 20
0.063521
 30
-0.105875
 11
-0.259731
 21
1.007186
 31
0.743841
 12
-0.755703
 22
0.941890
 32
0.743841
 13
-0.755703
 23
0.941890
 33
0.743841
 62
0
  0
3DFACE
  8
Cylinder1
 10
0.236238
 20
0.941891
 30
0.743841
 11
-0.259731
 21
1.007186
 31
0.743841
 12
-0.196211
 22
0.063520
 32
-0.105876
 13
-0.196211
 23
0.063520
 33
-0.105876
 62
0
  0
3DFACE
  8
Cylinder1
 10
0.167473
 20
0.427204
 30
0.288223
 11
-0.196211
 21
0.063520
 31
-0.105876
 12
0.682159
 22
0.495972
 32
0.743841
 13
0.682159
 23
0.495972
 33
0.743841
 62
0
  0
3DFACE
  8
Cylinder1
 10
0.682160
 20
-0.495970
 30
0.743841
 11
0.747455
 21
-0.000000
 31
0.743841
 12
-0.196211
 22
-0.063520
 32
-0.105876
 13
-0.196211
 23
-0.063520
 33
-0.105876
 62
0
  0
3DFACE
  8
Cylinder1
 10
0.167473
 20
-0.427204
 30
0.288223
 11
-0.196211
 21
-0.063520
 31
-0.105876
 12
0.236242
 22
-0.941890
 32
0.743841
 13
0.236242
 23
-0.941890
 33
0.743841
 62
0
  0
3DFACE
  8
Cylinder1
 10
-0.755703
 20
-0.941890
 30
0.743841
 11
-0.323252
 21
-0.063520
 31
-0.105875
 12
-0.686935
 22
-0.427204
 32
0.288223
 13
-0.686935
 23
-0.427204
 33
0.288223
 62
0
  0
3DFACE
  8
Cylinder1
 10
-0.323252
 20
-0.063520
 30
-0.105875
 11
-1.266917
 21
0.000001
 31
0.743841
 12
-1.201621
 22
-0.495973
 32
0.743841
 13
-1.201621
 23
-0.495973
 33
0.743841
 62
0
  0
3DFACE
  8
Cylinder1
 10
-1.201622
 20
0.495969
 30
0.743841
 11
-1.201622
 21
0.495969
 31
0.765483
 12
-1.266917
 22
0.000001
 32
0.765483
 13
-1.266917
 23
0.000001
 33
0.743841
 62
0
  0
3DFACE
  8
Cylinder1
 10
-0.259731
 20
1.007186
 30
0.743841
 11
-0.259731
 21
1.007186
 31
0.765483
 12
-0.755703
 22
0.941890
 32
0.765483
 13
-0.755703
 23
0.941890
 33
0.743841
 62
0
  0
3DFACE
  8
Cylinder1
 10
-1.038401
 20
0.778669
 30
0.743831
 11
-1.201622
 21
0.495969
 31
0.743841
 12
-0.686936
 22
0.427204
 32
0.288223
 13
-0.686936
 23
0.427204
 33
0.288223
 62
0
  0
3DFACE
  8
Cylinder1
 10
-0.686936
 20
0.427204
 30
0.288223
 11
-0.323252
 21
0.063521
 31
-0.105875
 12
-0.755703
 22
0.941890
 32
0.743841
 13
-0.755703
 23
0.941890
 33
0.743841
 62
0
  0
3DFACE
  8
Cylinder1
 10
0.236238
 20
0.941891
 30
0.743841
 11
-0.196211
 21
0.063520
 31
-0.105876
 12
0.167473
 22
0.427204
 32
0.288223
 13
0.167473
 23
0.427204
 33
0.288223
 62
0
  0
3DFACE
  8
Cylinder1
 10
-0.755703
 20
0.941890
 30
0.743841
 11
-1.038401
 21
0.778669
 31
0.743831
 12
-0.686936
 22
0.427204
 32
0.288223
 13
-0.686936
 23
0.427204
 33
0.288223
 62
0
  0
3DFACE
  8
Cylinder1
 10
0.236238
 20
0.941891
 30
0.743841
 11
0.236238
 21
0.941891
 31
0.765483
 12
-0.259731
 22
1.007186
 32
0.765483
 13
-0.259731
 23
1.007186
 33
0.743841
 62
0
  0
3DFACE
  8
Cylinder1
 10
0.518938
 20
0.778670
 30
0.743832
 11
0.236238
 21
0.941891
 31
0.743841
 12
0.167473
 22
0.427204
 32
0.288223
 13
0.167473
 23
0.427204
 33
0.288223
 62
0
  0
3DFACE
  8
Cylinder1
 10
0.682159
 20
0.495972
 30
0.743841
 11
0.518938
 21
0.778670
 31
0.743832
 12
0.167473
 22
0.427204
 32
0.288223
 13
0.167473
 23
0.427204
 33
0.288223
 62
0
  0
3DFACE
  8
Cylinder1
 10
0.682160
 20
-0.495970
 30
0.743841
 11
-0.196211
 21
-0.063520
 31
-0.105876
 12
0.167473
 22
-0.427204
 32
0.288223
 13
0.167473
 23
-0.427204
 33
0.288223
 62
0
  0
3DFACE
  8
Cylinder1
 10
-0.686935
 20
-0.427204
 30
0.288223
 11
-0.323252
 21
-0.063520
 31
-0.105875
 12
-1.201621
 22
-0.495973
 32
0.743841
 13
-1.201621
 23
-0.495973
 33
0.743841
 62
0
  0
3DFACE
  8
Cylinder1
 10
-1.038401
 20
0.778669
 30
0.743831
 11
-1.038401
 21
0.778669
 31
0.765358
 12
-1.201622
 22
0.495969
 32
0.765483
 13
-1.201622
 23
0.495969
 33
0.743841
 62
0
  0
3DFACE
  8
Cylinder1
 10
0.747455
 20
-0.000000
 30
0.743841
 11
0.747455
 21
-0.000000
 31
0.765483
 12
0.682159
 22
0.495972
 32
0.765483
 13
0.682159
 23
0.495972
 33
0.743841
 62
0
  0
3DFACE
  8
Cylinder1
 10
-0.755703
 20
0.941890
 30
0.743841
 11
-0.755703
 21
0.941890
 31
0.765483
 12
-1.038401
 22
0.778669
 32
0.765358
 13
-1.038401
 23
0.778669
 33
0.743831
 62
0
  0
3DFACE
  8
Cylinder1
 10
0.518938
 20
0.778670
 30
0.743832
 11
0.518938
 21
0.778670
 31
0.765358
 12
0.236238
 22
0.941891
 32
0.765483
 13
0.236238
 23
0.941891
 33
0.743841
 62
0
  0
3DFACE
  8
Cylinder1
 10
0.518939
 20
-0.778669
 30
0.743832
 11
0.682160
 21
-0.495970
 31
0.743841
 12
0.167473
 22
-0.427204
 32
0.288223
 13
0.167473
 23
-0.427204
 33
0.288223
 62
0
  0
3DFACE
  8
Cylinder1
 10
0.682159
 20
0.495972
 30
0.743841
 11
0.682159
 21
0.495972
 31
0.765483
 12
0.518938
 22
0.778670
 32
0.765358
 13
0.518938
 23
0.778670
 33
0.743832
 62
0
  0
3DFACE
  8
Cylinder1
 10
0.236242
 20
-0.941890
 30
0.743841
 11
0.518939
 21
-0.778669
 31
0.743832
 12
0.167473
 22
-0.427204
 32
0.288223
 13
0.167473
 23
-0.427204
 33
0.288223
 62
0
  0
3DFACE
  8
Cylinder1
 10
-1.038400
 20
-0.778670
 30
0.743832
 11
-0.755703
 21
-0.941890
 31
0.743841
 12
-0.686935
 22
-0.427204
 32
0.288223
 13
-0.686935
 23
-0.427204
 33
0.288223
 62
0
  0
3DFACE
  8
Cylinder1
 10
-1.201621
 20
-0.495973
 30
0.743841
 11
-1.038400
 21
-0.778670
 31
0.743832
 12
-0.686935
 22
-0.427204
 32
0.288223
 13
-0.686935
 23
-0.427204
 33
0.288223
 62
0
  0
3DFACE
  8
Cylinder1
 10
-0.259731
 20
0.680362
 30
0.967959
 11
-0.755703
 21
0.941890
 31
0.765483
 12
-0.259731
 22
1.007186
 32
0.765483
 13
-0.259731
 23
1.007186
 33
0.765483
 62
0
  0
3DFACE
  8
Cylinder1
 10
0.236238
 20
0.941891
 30
0.765483
 11
-0.259731
 21
0.680362
 31
0.967959
 12
-0.259731
 22
1.007186
 32
0.765483
 13
-0.259731
 23
1.007186
 33
0.765483
 62
0
  0
3DFACE
  8
Cylinder1
 10
0.682160
 20
-0.495970
 30
0.743841
 11
0.682160
 21
-0.495970
 31
0.765483
 12
0.747455
 22
-0.000000
 32
0.765483
 13
0.747455
 23
-0.000000
 33
0.743841
 62
0
  0
3DFACE
  8
Cylinder1
 10
-0.259731
 20
-1.007186
 30
0.743841
 11
-0.259731
 21
-1.007186
 31
0.765483
 12
0.236242
 22
-0.941890
 32
0.765483
 13
0.236242
 23
-0.941890
 33
0.743841
 62
0
  0
3DFACE
  8
Cylinder1
 10
-0.755703
 20
-0.941890
 30
0.743841
 11
-0.755703
 21
-0.941890
 31
0.765483
 12
-0.259731
 22
-1.007186
 32
0.765483
 13
-0.259731
 23
-1.007186
 33
0.743841
 62
0
  0
3DFACE
  8
Cylinder1
 10
-1.266917
 20
0.000001
 30
0.743841
 11
-1.266917
 21
0.000001
 31
0.765483
 12
-1.201621
 22
-0.495973
 32
0.765483
 13
-1.201621
 23
-0.495973
 33
0.743841
 62
0
  0
3DFACE
  8
Cylinder1
 10
0.518939
 20
-0.778669
 30
0.743832
 11
0.518939
 21
-0.778669
 31
0.765357
 12
0.682160
 22
-0.495970
 32
0.765483
 13
0.682160
 23
-0.495970
 33
0.743841
 62
0
  0
3DFACE
  8
Cylinder1
 10
0.236242
 20
-0.941890
 30
0.743841
 11
0.236242
 21
-0.941890
 31
0.765483
 12
0.518939
 22
-0.778669
 32
0.765357
 13
0.518939
 23
-0.778669
 33
0.743832
 62
0
  0
3DFACE
  8
Cylinder1
 10
-1.038400
 20
-0.778670
 30
0.743832
 11
-1.038400
 21
-0.778670
 31
0.765358
 12
-0.755703
 22
-0.941890
 32
0.765483
 13
-0.755703
 23
-0.941890
 33
0.743841
 62
0
  0
3DFACE
  8
Cylinder1
 10
-1.201621
 20
-0.495973
 30
0.743841
 11
-1.201621
 21
-0.495973
 31
0.765483
 12
-1.038400
 22
-0.778670
 32
0.765358
 13
-1.038400
 23
-0.778670
 33
0.743832
 62
0
  0
3DFACE
  8
Cylinder1
 10
-1.201622
 20
0.495969
 30
0.765483
 11
-0.940096
 21
0.000001
 31
0.967957
 12
-1.266917
 22
0.000001
 32
0.765483
 13
-1.266917
 23
0.000001
 33
0.765483
 62
0
  0
3DFACE
  8
Cylinder1
 10
-0.940096
 20
0.000001
 30
0.967957
 11
-1.201621
 21
-0.495973
 31
0.765483
 12
-1.266917
 22
0.000001
 32
0.765483
 13
-1.266917
 23
0.000001
 33
0.765483
 62
0
  0
3DFACE
  8
Cylinder1
 10
-0.755703
 20
0.941890
 30
0.765483
 11
-0.711547
 21
0.570287
 31
0.962340
 12
-1.038401
 22
0.778669
 32
0.765358
 13
-1.038401
 23
0.778669
 33
0.765358
 62
0
  0
3DFACE
  8
Cylinder1
 10
-0.755703
 20
0.941890
 30
0.765483
 11
-0.259731
 21
0.680362
 31
0.967959
 12
-0.705722
 22
0.561045
 32
0.967886
 13
-0.711547
 23
0.570287
 33
0.962340
 62
0
  0
3DFACE
  8
Cylinder1
 10
0.236238
 20
0.941891
 30
0.765483
 11
0.518938
 21
0.778670
 31
0.765358
 12
0.192083
 22
0.570287
 32
0.962341
 13
0.192083
 23
0.570287
 33
0.962341
 62
0
  0
3DFACE
  8
Cylinder1
 10
-0.259731
 20
0.680362
 30
0.967959
 11
0.236238
 21
0.941891
 31
0.765483
 12
0.192083
 22
0.570287
 32
0.962341
 13
0.186260
 23
0.561046
 33
0.967886
 62
0
  0
3DFACE
  8
Cylinder1
 10
0.420633
 20
-0.000000
 30
0.967957
 11
0.682159
 21
0.495972
 31
0.765483
 12
0.747455
 22
-0.000000
 32
0.765483
 13
0.747455
 23
-0.000000
 33
0.765483
 62
0
  0
3DFACE
  8
Cylinder1
 10
0.682160
 20
-0.495970
 30
0.765483
 11
0.420633
 21
-0.000000
 31
0.967957
 12
0.747455
 22
-0.000000
 32
0.765483
 13
0.747455
 23
-0.000000
 33
0.765483
 62
0
  0
3DFACE
  8
Cylinder1
 10
-0.259731
 20
-0.680364
 30
0.967957
 11
0.236242
 21
-0.941890
 31
0.765483
 12
-0.259731
 22
-1.007186
 32
0.765483
 13
-0.259731
 23
-1.007186
 33
0.765483
 62
0
  0
3DFACE
  8
Cylinder1
 10
-0.755703
 20
-0.941890
 30
0.765483
 11
-0.259731
 21
-0.680364
 31
0.967957
 12
-0.259731
 22
-1.007186
 32
0.765483
 13
-0.259731
 23
-1.007186
 33
0.765483
 62
0
  0
3DFACE
  8
Cylinder1
 10
0.682160
 20
-0.495970
 30
0.765483
 11
0.518939
 21
-0.778669
 31
0.765357
 12
0.310555
 22
-0.451814
 32
0.962341
 13
0.310555
 23
-0.451814
 33
0.962341
 62
0
  0
3DFACE
  8
Cylinder1
 10
0.420633
 20
-0.000000
 30
0.967957
 11
0.682160
 21
-0.495970
 31
0.765483
 12
0.310555
 22
-0.451814
 32
0.962341
 13
0.301315
 23
-0.445991
 33
0.967886
 62
0
  0
3DFACE
  8
Cylinder1
 10
-1.201621
 20
-0.495973
 30
0.765483
 11
-0.940096
 21
0.000001
 31
0.967957
 12
-0.820777
 22
-0.445991
 32
0.967886
 13
-0.830019
 23
-0.451815
 33
0.962340
 62
0
  0
3DFACE
  8
Cylinder1
 10
-1.201621
 20
-0.495973
 30
0.765483
 11
-0.830019
 21
-0.451815
 31
0.962340
 12
-1.038400
 22
-0.778670
 32
0.765358
 13
-1.038400
 23
-0.778670
 33
0.765358
 62
0
  0
3DFACE
  8
Cylinder1
 10
-1.201622
 20
0.495969
 30
0.765483
 11
-1.038401
 21
0.778669
 31
0.765358
 12
-0.830016
 22
0.451814
 32
0.962342
 13
-0.830016
 23
0.451814
 33
0.962342
 62
0
  0
3DFACE
  8
Cylinder1
 10
-0.845368
 20
0.000001
 30
0.998571
 11
-0.940096
 21
0.000001
 31
0.967957
 12
-0.820777
 22
0.445991
 32
0.967886
 13
-0.721551
 23
0.461819
 33
0.998584
 62
0
  0
3DFACE
  8
Cylinder1
 10
-0.940096
 20
0.000001
 30
0.967957
 11
-1.201622
 21
0.495969
 31
0.765483
 12
-0.830016
 22
0.451814
 32
0.962342
 13
-0.820777
 23
0.445991
 33
0.967886
 62
0
  0
3DFACE
  8
Cylinder1
 10
-0.721551
 20
0.461819
 30
0.998584
 11
-0.705722
 21
0.561045
 31
0.967886
 12
-0.259731
 22
0.680362
 32
0.967959
 13
-0.259731
 23
0.585640
 33
0.998571
 62
0
  0
3DFACE
  8
Cylinder1
 10
0.202088
 20
0.461819
 30
0.998585
 11
0.301315
 21
0.445991
 31
0.967886
 12
0.420633
 22
-0.000000
 32
0.967957
 13
0.325907
 23
-0.000000
 33
0.998571
 62
0
  0
3DFACE
  8
Cylinder1
 10
-0.721551
 20
0.461819
 30
0.998584
 11
-0.820777
 21
0.445991
 31
0.967886
 12
-0.830016
 22
0.451814
 32
0.962342
 13
-0.830016
 23
0.451814
 33
0.962342
 62
0
  0
3DFACE
  8
Cylinder1
 10
-0.705722
 20
0.561045
 30
0.967886
 11
-0.721551
 21
0.461819
 31
0.998584
 12
-0.830016
 22
0.451814
 32
0.962342
 13
-0.830016
 23
0.451814
 33
0.962342
 62
0
  0
3DFACE
  8
Cylinder1
 10
-0.711547
 20
0.570287
 30
0.962340
 11
-0.705722
 21
0.561045
 31
0.967886
 12
-0.830016
 22
0.451814
 32
0.962342
 13
-0.830016
 23
0.451814
 33
0.962342
 62
0
  0
3DFACE
  8
Cylinder1
 10
-1.038401
 20
0.778669
 30
0.765358
 11
-0.711547
 21
0.570287
 31
0.962340
 12
-0.830016
 22
0.451814
 32
0.962342
 13
-0.830016
 23
0.451814
 33
0.962342
 62
0
  0
3DFACE
  8
Cylinder1
 10
-0.259731
 20
0.585640
 30
0.998571
 11
-0.259731
 21
0.680362
 31
0.967959
 12
0.186260
 22
0.561046
 32
0.967886
 13
0.202088
 23
0.461819
 33
0.998585
 62
0
  0
3DFACE
  8
Cylinder1
 10
0.682159
 20
0.495972
 30
0.765483
 11
0.420633
 21
-0.000000
 31
0.967957
 12
0.301315
 22
0.445991
 32
0.967886
 13
0.310557
 23
0.451815
 33
0.962340
 62
0
  0
3DFACE
  8
Cylinder1
 10
0.682159
 20
0.495972
 30
0.765483
 11
0.310557
 21
0.451815
 31
0.962340
 12
0.518938
 22
0.778670
 32
0.765358
 13
0.518938
 23
0.778670
 33
0.765358
 62
0
  0
3DFACE
  8
Cylinder1
 10
0.236242
 20
-0.941890
 30
0.765483
 11
-0.259731
 21
-0.680364
 31
0.967957
 12
0.186260
 22
-0.561046
 32
0.967886
 13
0.192085
 23
-0.570288
 33
0.962340
 62
0
  0
3DFACE
  8
Cylinder1
 10
0.202088
 20
0.461819
 30
0.998585
 11
0.310557
 21
0.451815
 31
0.962340
 12
0.301315
 22
0.445991
 32
0.967886
 13
0.301315
 23
0.445991
 33
0.967886
 62
0
  0
3DFACE
  8
Cylinder1
 10
0.186260
 20
0.561046
 30
0.967886
 11
0.310557
 21
0.451815
 31
0.962340
 12
0.202088
 22
0.461819
 32
0.998585
 13
0.202088
 23
0.461819
 33
0.998585
 62
0
  0
3DFACE
  8
Cylinder1
 10
0.192083
 20
0.570287
 30
0.962341
 11
0.310557
 21
0.451815
 31
0.962340
 12
0.186260
 22
0.561046
 32
0.967886
 13
0.186260
 23
0.561046
 33
0.967886
 62
0
  0
3DFACE
  8
Cylinder1
 10
0.518938
 20
0.778670
 30
0.765358
 11
0.310557
 21
0.451815
 31
0.962340
 12
0.192083
 22
0.570287
 32
0.962341
 13
0.192083
 23
0.570287
 33
0.962341
 62
0
  0
3DFACE
  8
Cylinder1
 10
0.236242
 20
-0.941890
 30
0.765483
 11
0.192085
 21
-0.570288
 31
0.962340
 12
0.518939
 22
-0.778669
 32
0.765357
 13
0.518939
 23
-0.778669
 33
0.765357
 62
0
  0
3DFACE
  8
Cylinder1
 10
-0.259731
 20
-0.680364
 30
0.967957
 11
-0.755703
 21
-0.941890
 31
0.765483
 12
-0.711546
 22
-0.570287
 32
0.962341
 13
-0.705722
 23
-0.561047
 33
0.967886
 62
0
  0
3DFACE
  8
Cylinder1
 10
0.186260
 20
-0.561046
 30
0.967886
 11
0.518939
 21
-0.778669
 31
0.765357
 12
0.192085
 22
-0.570288
 32
0.962340
 13
0.192085
 23
-0.570288
 33
0.962340
 62
0
  0
3DFACE
  8
Cylinder1
 10
0.202089
 20
-0.461819
 30
0.998584
 11
0.518939
 21
-0.778669
 31
0.765357
 12
0.186260
 22
-0.561046
 32
0.967886
 13
0.186260
 23
-0.561046
 33
0.967886
 62
0
  0
3DFACE
  8
Cylinder1
 10
0.310555
 20
-0.451814
 30
0.962341
 11
0.518939
 21
-0.778669
 31
0.765357
 12
0.202089
 22
-0.461819
 32
0.998584
 13
0.202089
 23
-0.461819
 33
0.998584
 62
0
  0
3DFACE
  8
Cylinder1
 10
0.301315
 20
-0.445991
 30
0.967886
 11
0.310555
 21
-0.451814
 31
0.962341
 12
0.202089
 22
-0.461819
 32
0.998584
 13
0.202089
 23
-0.461819
 33
0.998584
 62
0
  0
3DFACE
  8
Cylinder1
 10
-0.755703
 20
-0.941890
 30
0.765483
 11
-1.038400
 21
-0.778670
 31
0.765358
 12
-0.711546
 22
-0.570287
 32
0.962341
 13
-0.711546
 23
-0.570287
 33
0.962341
 62
0
  0
3DFACE
  8
Cylinder1
 10
-0.705722
 20
-0.561047
 30
0.967886
 11
-0.711546
 21
-0.570287
 31
0.962341
 12
-1.038400
 22
-0.778670
 32
0.765358
 13
-1.038400
 23
-0.778670
 33
0.765358
 62
0
  0
3DFACE
  8
Cylinder1
 10
-0.721550
 20
-0.461820
 30
0.998584
 11
-0.705722
 21
-0.561047
 31
0.967886
 12
-1.038400
 22
-0.778670
 32
0.765358
 13
-1.038400
 23
-0.778670
 33
0.765358
 62
0
  0
3DFACE
  8
Cylinder1
 10
-0.830019
 20
-0.451815
 30
0.962340
 11
-0.721550
 21
-0.461820
 31
0.998584
 12
-1.038400
 22
-0.778670
 32
0.765358
 13
-1.038400
 23
-0.778670
 33
0.765358
 62
0
  0
3DFACE
  8
Cylinder1
 10
-0.820777
 20
-0.445991
 30
0.967886
 11
-0.721550
 21
-0.461820
 31
0.998584
 12
-0.830019
 22
-0.451815
 32
0.962340
 13
-0.830019
 23
-0.451815
 33
0.962340
 62
0
  0
3DFACE
  8
Cylinder1
 10
-0.259731
 20
-0.585638
 30
0.998571
 11
-0.259731
 21
-0.680364
 31
0.967957
 12
-0.705722
 22
-0.561047
 32
0.967886
 13
-0.721550
 23
-0.461820
 33
0.998584
 62
0
  0
3DFACE
  8
Cylinder1
 10
-0.721550
 20
-0.461820
 30
0.998584
 11
-0.820777
 21
-0.445991
 31
0.967886
 12
-0.940096
 22
0.000001
 32
0.967957
 13
-0.845368
 23
0.000001
 33
0.998571
 62
0
  0
3DFACE
  8
Cylinder1
 10
0.325907
 20
-0.000000
 30
0.998571
 11
0.420633
 21
-0.000000
 31
0.967957
 12
0.301315
 22
-0.445991
 32
0.967886
 13
0.202089
 23
-0.461819
 33
0.998584
 62
0
  0
3DFACE
  8
Cylinder1
 10
0.202089
 20
-0.461819
 30
0.998584
 11
0.186260
 21
-0.561046
 31
0.967886
 12
-0.259731
 22
-0.680364
 32
0.967957
 13
-0.259731
 23
-0.585638
 33
0.998571
 62
0
  0
3DFACE
  8
Cylinder1
 10
0.202089
 20
-0.461819
 30
0.998584
 11
-0.259731
 21
-0.585638
 31
0.998571
 12
-0.721550
 22
-0.461820
 32
0.998584
 13
-0.721550
 23
-0.461820
 33
0.998584
 62
0
  0
3DFACE
  8
Cylinder1
 10
0.325907
 20
-0.000000
 30
0.998571
 11
0.202089
 21
-0.461819
 31
0.998584
 12
-0.721550
 22
-0.461820
 32
0.998584
 13
-0.721550
 23
-0.461820
 33
0.998584
 62
0
  0
3DFACE
  8
Cylinder1
 10
-0.845368
 20
0.000001
 30
0.998571
 11
0.325907
 21
-0.000000
 31
0.998571
 12
-0.721550
 22
-0.461820
 32
0.998584
 13
-0.721550
 23
-0.461820
 33
0.998584
 62
0
  0
3DFACE
  8
Cylinder1
 10
0.202088
 20
0.461819
 30
0.998585
 11
0.325907
 21
-0.000000
 31
0.998571
 12
-0.845368
 22
0.000001
 32
0.998571
 13
-0.845368
 23
0.000001
 33
0.998571
 62
0
  0
3DFACE
  8
Cylinder1
 10
-0.721551
 20
0.461819
 30
0.998584
 11
0.202088
 21
0.461819
 31
0.998585
 12
-0.845368
 22
0.000001
 32
0.998571
 13
-0.845368
 23
0.000001
 33
0.998571
 62
0
  0
3DFACE
  8
Cylinder1
 10
-0.259731
 20
0.585640
 30
0.998571
 11
0.202088
 21
0.461819
 31
0.998585
 12
-0.721551
 22
0.461819
 32
0.998584
 13
-0.721551
 23
0.461819
 33
0.998584
 62
0
 0
ENDSEC
 0
EOF
