  0
SECTION
  2
HEADER
  0
ENDSEC
  0
SECTION
  2
TABLES
  0
TABLE
  2
LAYER
  70
    153
  0
LAYER
  2
NoName2
 70
0
 62
15
  6
CONTINUOUS
  0
ENDTAB
  0
ENDSEC
  0
SECTION
  2
ENTITIES
  0
3DFACE
  8
NoName2
 10
0.907397
 20
0.246419
 30
0.393378
 11
-0.847375
 21
0.305535
 31
0.393378
 12
0.809882
 22
0.305535
 32
0.393378
 13
0.809882
 23
0.305535
 33
0.393378
 62
0
  0
3DFACE
  8
NoName2
 10
-0.953915
 20
0.245853
 30
0.393378
 11
-0.847375
 21
0.305535
 31
0.393378
 12
0.907397
 22
0.246419
 32
0.393378
 13
0.907397
 23
0.246419
 33
0.393378
 62
0
  0
3DFACE
  8
NoName2
 10
0.907396
 20
-0.243694
 30
0.393378
 11
-0.953915
 21
0.245853
 31
0.393378
 12
0.907397
 22
0.246419
 32
0.393378
 13
0.907397
 23
0.246419
 33
0.393378
 62
0
  0
3DFACE
  8
NoName2
 10
-0.953916
 20
-0.244259
 30
0.393378
 11
-0.953915
 21
0.245853
 31
0.393378
 12
0.907396
 22
-0.243694
 32
0.393378
 13
0.907396
 23
-0.243694
 33
0.393378
 62
0
  0
3DFACE
  8
NoName2
 10
-0.831003
 20
-0.307694
 30
0.393378
 11
-0.953916
 21
-0.244259
 31
0.393378
 12
0.907396
 22
-0.243694
 32
0.393378
 13
0.907396
 23
-0.243694
 33
0.393378
 62
0
  0
3DFACE
  8
NoName2
 10
0.797302
 20
-0.307694
 30
0.393378
 11
-0.831003
 21
-0.307694
 31
0.393378
 12
0.907396
 22
-0.243694
 32
0.393378
 13
0.907396
 23
-0.243694
 33
0.393378
 62
0
  0
3DFACE
  8
NoName2
 10
-1.008539
 20
0.432117
 30
0.321249
 11
-0.847375
 21
0.305535
 31
0.393378
 12
-0.953915
 22
0.245853
 32
0.393378
 13
-1.135845
 23
0.347710
 33
0.321249
 62
0
  0
3DFACE
  8
NoName2
 10
-1.135845
 20
0.347710
 30
0.321249
 11
-0.953915
 21
0.245853
 31
0.393378
 12
-0.953916
 22
-0.244259
 32
0.393378
 13
-1.135846
 23
-0.345456
 33
0.321249
 62
0
  0
3DFACE
  8
NoName2
 10
-1.135846
 20
-0.345456
 30
0.321249
 11
-0.953916
 21
-0.244259
 31
0.393378
 12
-0.831003
 22
-0.307694
 32
0.393378
 13
-0.988976
 23
-0.435171
 33
0.321249
 62
0
  0
3DFACE
  8
NoName2
 10
-0.988976
 20
-0.435171
 30
0.321249
 11
-0.831003
 21
-0.307694
 31
0.393378
 12
0.797302
 22
-0.307694
 32
0.393378
 13
0.956709
 23
-0.435171
 33
0.321249
 62
0
  0
3DFACE
  8
NoName2
 10
0.956709
 20
-0.435171
 30
0.321249
 11
0.797302
 21
-0.307694
 31
0.393378
 12
0.907396
 22
-0.243694
 32
0.393378
 13
1.088262
 23
-0.344656
 33
0.321249
 62
0
  0
3DFACE
  8
NoName2
 10
1.088262
 20
-0.344656
 30
0.321249
 11
0.907396
 21
-0.243694
 31
0.393378
 12
0.907397
 22
0.246419
 32
0.393378
 13
1.088262
 23
0.348510
 33
0.321249
 62
0
  0
3DFACE
  8
NoName2
 10
1.088262
 20
0.348510
 30
0.321249
 11
0.907397
 21
0.246419
 31
0.393378
 12
0.809882
 22
0.305535
 32
0.393378
 13
0.971741
 23
0.432117
 33
0.321249
 62
0
  0
3DFACE
  8
NoName2
 10
0.971741
 20
0.432117
 30
0.321249
 11
0.809882
 21
0.305535
 31
0.393378
 12
-0.847375
 22
0.305535
 32
0.393378
 13
-1.008539
 23
0.432117
 33
0.321249
 62
0
  0
3DFACE
  8
NoName2
 10
0.427137
 20
0.011356
 30
-0.915859
 11
0.380092
 21
0.014081
 31
-0.915859
 12
-0.419430
 22
0.014081
 32
-0.915859
 13
-0.419430
 23
0.014081
 33
-0.915859
 62
0
  0
3DFACE
  8
NoName2
 10
-0.470829
 20
0.011330
 30
-0.915859
 11
0.427137
 21
0.011356
 31
-0.915859
 12
-0.419430
 22
0.014081
 32
-0.915859
 13
-0.419430
 23
0.014081
 33
-0.915859
 62
0
  0
3DFACE
  8
NoName2
 10
0.427137
 20
-0.011230
 30
-0.915859
 11
0.427137
 21
0.011356
 31
-0.915859
 12
-0.470829
 22
0.011330
 32
-0.915859
 13
-0.470829
 23
0.011330
 33
-0.915859
 62
0
  0
3DFACE
  8
NoName2
 10
-0.470829
 20
-0.011257
 30
-0.915859
 11
0.427137
 21
-0.011230
 31
-0.915859
 12
-0.470829
 22
0.011330
 32
-0.915859
 13
-0.470829
 23
0.011330
 33
-0.915859
 62
0
  0
3DFACE
  8
NoName2
 10
-0.411532
 20
-0.014180
 30
-0.915859
 11
0.427137
 21
-0.011230
 31
-0.915859
 12
-0.470829
 22
-0.011257
 32
-0.915859
 13
-0.470829
 23
-0.011257
 33
-0.915859
 62
0
  0
3DFACE
  8
NoName2
 10
0.374023
 20
-0.014180
 30
-0.915859
 11
0.427137
 21
-0.011230
 31
-0.915859
 12
-0.411532
 22
-0.014180
 32
-0.915859
 13
-0.411532
 23
-0.014180
 33
-0.915859
 62
0
  0
3DFACE
  8
NoName2
 10
-0.419430
 20
0.014081
 30
-0.915859
 11
-0.844279
 21
0.315215
 31
-0.642849
 12
-0.950420
 22
0.253642
 32
-0.642849
 13
-0.470829
 23
0.011330
 33
-0.915859
 62
0
  0
3DFACE
  8
NoName2
 10
-0.950420
 20
-0.251998
 30
-0.642849
 11
-0.470829
 21
-0.011257
 31
-0.915859
 12
-0.470829
 22
0.011330
 32
-0.915859
 13
-0.950420
 23
0.253642
 33
-0.642849
 62
0
  0
3DFACE
  8
NoName2
 10
-0.411532
 20
-0.014180
 30
-0.915859
 11
-0.470829
 21
-0.011257
 31
-0.915859
 12
-0.950420
 22
-0.251998
 32
-0.642849
 13
-0.827968
 23
-0.317442
 33
-0.642849
 62
0
  0
3DFACE
  8
NoName2
 10
-0.827968
 20
-0.317442
 30
-0.642849
 11
0.794240
 21
-0.317442
 31
-0.642849
 12
0.374023
 22
-0.014180
 32
-0.915859
 13
-0.411532
 23
-0.014180
 33
-0.915859
 62
0
  0
3DFACE
  8
NoName2
 10
0.903921
 20
-0.251415
 30
-0.642849
 11
0.427137
 21
-0.011230
 31
-0.915859
 12
0.374023
 22
-0.014180
 32
-0.915859
 13
0.794240
 23
-0.317442
 33
-0.642849
 62
0
  0
3DFACE
  8
NoName2
 10
0.903922
 20
0.254226
 30
-0.642849
 11
0.427137
 21
0.011356
 31
-0.915859
 12
0.427137
 22
-0.011230
 32
-0.915859
 13
0.903921
 23
-0.251415
 33
-0.642849
 62
0
  0
3DFACE
  8
NoName2
 10
0.806772
 20
0.315215
 30
-0.642849
 11
0.380092
 21
0.014081
 31
-0.915859
 12
0.427137
 22
0.011356
 32
-0.915859
 13
0.903922
 23
0.254226
 33
-0.642849
 62
0
  0
3DFACE
  8
NoName2
 10
-0.844279
 20
0.315215
 30
-0.642849
 11
-0.419430
 21
0.014081
 31
-0.915859
 12
0.380092
 22
0.014081
 32
-0.915859
 13
0.806772
 23
0.315215
 33
-0.642849
 62
0
  0
3DFACE
  8
NoName2
 10
-1.135845
 20
0.347710
 30
0.321249
 11
-1.340823
 21
0.455321
 31
0.193076
 12
-1.190120
 22
0.565851
 32
0.193076
 13
-1.008539
 23
0.432117
 33
0.321249
 62
0
  0
3DFACE
  8
NoName2
 10
-1.135846
 20
-0.345456
 30
0.321249
 11
-1.340824
 21
-0.452369
 31
0.193076
 12
-1.340823
 22
0.455321
 32
0.193076
 13
-1.135845
 23
0.347710
 33
0.321249
 62
0
  0
3DFACE
  8
NoName2
 10
-0.988976
 20
-0.435171
 30
0.321249
 11
-1.166961
 21
-0.569850
 31
0.193076
 12
-1.340824
 22
-0.452369
 32
0.193076
 13
-1.135846
 23
-0.345456
 33
0.321249
 62
0
  0
3DFACE
  8
NoName2
 10
0.956709
 20
-0.435171
 30
0.321249
 11
1.136310
 21
-0.569850
 31
0.193076
 12
-1.166961
 22
-0.569850
 32
0.193076
 13
-0.988976
 23
-0.435171
 33
0.321249
 62
0
  0
3DFACE
  8
NoName2
 10
1.088262
 20
-0.344656
 30
0.321249
 11
1.292041
 21
-0.451322
 31
0.193076
 12
1.136310
 22
-0.569850
 32
0.193076
 13
0.956709
 23
-0.435171
 33
0.321249
 62
0
  0
3DFACE
  8
NoName2
 10
1.088262
 20
0.348510
 30
0.321249
 11
1.292041
 21
0.456368
 31
0.193076
 12
1.292041
 22
-0.451322
 32
0.193076
 13
1.088262
 23
-0.344656
 33
0.321249
 62
0
  0
3DFACE
  8
NoName2
 10
0.971741
 20
0.432117
 30
0.321249
 11
1.154104
 21
0.565851
 31
0.193076
 12
1.292041
 22
0.456368
 32
0.193076
 13
1.088262
 23
0.348510
 33
0.321249
 62
0
  0
3DFACE
  8
NoName2
 10
-1.008539
 20
0.432117
 30
0.321249
 11
-1.190120
 21
0.565851
 31
0.193076
 12
1.154104
 22
0.565851
 32
0.193076
 13
0.971741
 23
0.432117
 33
0.321249
 62
0
  0
3DFACE
  8
NoName2
 10
1.486039
 20
0.574083
 30
0.002634
 11
1.292041
 21
0.456368
 31
0.193076
 12
1.154104
 22
0.565851
 32
0.193076
 13
1.327716
 23
0.711805
 33
0.002634
 62
0
  0
3DFACE
  8
NoName2
 10
1.486039
 20
-0.567734
 30
0.002634
 11
1.292041
 21
-0.451322
 31
0.193076
 12
1.292041
 22
0.456368
 32
0.193076
 13
1.486039
 23
0.574083
 33
0.002634
 62
0
  0
3DFACE
  8
NoName2
 10
1.307291
 20
-0.716836
 30
0.002634
 11
1.136310
 21
-0.569850
 31
0.193076
 12
1.292041
 22
-0.451322
 32
0.193076
 13
1.486039
 23
-0.567734
 33
0.002634
 62
0
  0
3DFACE
  8
NoName2
 10
-1.336404
 20
-0.716835
 30
0.002634
 11
-1.166961
 21
-0.569850
 31
0.193076
 12
1.136310
 22
-0.569850
 32
0.193076
 13
1.307291
 23
-0.716836
 33
0.002634
 62
0
  0
3DFACE
  8
NoName2
 10
-1.535964
 20
-0.569052
 30
0.002634
 11
-1.340824
 21
-0.452369
 31
0.193076
 12
-1.166961
 22
-0.569850
 32
0.193076
 13
-1.336404
 23
-0.716835
 33
0.002634
 62
0
  0
3DFACE
  8
NoName2
 10
-1.535963
 20
0.572765
 30
0.002634
 11
-1.340823
 21
0.455321
 31
0.193076
 12
-1.340824
 22
-0.452369
 32
0.193076
 13
-1.535964
 23
-0.569052
 33
0.002634
 62
0
  0
3DFACE
  8
NoName2
 10
-1.362986
 20
0.711805
 30
0.002634
 11
-1.190120
 21
0.565851
 31
0.193076
 12
-1.340823
 22
0.455321
 32
0.193076
 13
-1.535963
 23
0.572765
 33
0.002634
 62
0
  0
3DFACE
  8
NoName2
 10
1.154104
 20
0.565851
 30
0.193076
 11
-1.190120
 21
0.565851
 31
0.193076
 12
-1.362986
 22
0.711805
 32
0.002634
 13
1.327716
 23
0.711805
 33
0.002634
 62
0
  0
3DFACE
  8
NoName2
 10
1.327716
 20
0.711805
 30
0.002634
 11
1.327716
 21
0.711805
 31
-0.028779
 12
1.486039
 22
0.574083
 32
-0.028779
 13
1.486039
 23
0.574083
 33
0.002634
 62
0
  0
3DFACE
  8
NoName2
 10
1.486039
 20
-0.567734
 30
0.002634
 11
1.486039
 21
0.574083
 31
0.002634
 12
1.486039
 22
0.574083
 32
-0.028779
 13
1.486039
 23
-0.567734
 33
-0.028779
 62
0
  0
3DFACE
  8
NoName2
 10
1.307291
 20
-0.716836
 30
0.002634
 11
1.486039
 21
-0.567734
 31
0.002634
 12
1.486039
 22
-0.567734
 32
-0.028779
 13
1.307291
 23
-0.716836
 33
-0.028779
 62
0
  0
3DFACE
  8
NoName2
 10
1.307291
 20
-0.716836
 30
-0.028779
 11
-1.336404
 21
-0.716835
 31
-0.028779
 12
-1.336404
 22
-0.716835
 32
0.002634
 13
1.307291
 23
-0.716836
 33
0.002634
 62
0
  0
3DFACE
  8
NoName2
 10
-1.535964
 20
-0.569052
 30
-0.028779
 11
-1.535964
 21
-0.569052
 31
0.002634
 12
-1.336404
 22
-0.716835
 32
0.002634
 13
-1.336404
 23
-0.716835
 33
-0.028779
 62
0
  0
3DFACE
  8
NoName2
 10
-1.535963
 20
0.572765
 30
0.002634
 11
-1.535964
 21
-0.569052
 31
0.002634
 12
-1.535964
 22
-0.569052
 32
-0.028779
 13
-1.535963
 23
0.572765
 33
-0.028779
 62
0
  0
3DFACE
  8
NoName2
 10
-1.362986
 20
0.711805
 30
0.002634
 11
-1.535963
 21
0.572765
 31
0.002634
 12
-1.535963
 22
0.572765
 32
-0.028779
 13
-1.362986
 23
0.711805
 33
-0.028779
 62
0
  0
3DFACE
  8
NoName2
 10
-1.362986
 20
0.711805
 30
0.002634
 11
-1.362986
 21
0.711805
 31
-0.028779
 12
1.327716
 22
0.711805
 32
-0.028779
 13
1.327716
 23
0.711805
 33
0.002634
 62
0
  0
3DFACE
  8
NoName2
 10
1.165701
 20
0.389986
 30
-0.403864
 11
1.486039
 21
0.574083
 31
-0.028779
 12
1.327716
 22
0.711805
 32
-0.028779
 13
1.041042
 23
0.483543
 33
-0.403864
 62
0
  0
3DFACE
  8
NoName2
 10
1.165701
 20
-0.385673
 30
-0.403864
 11
1.486039
 21
-0.567734
 31
-0.028779
 12
1.486039
 22
0.574083
 32
-0.028779
 13
1.165701
 23
0.389986
 33
-0.403864
 62
0
  0
3DFACE
  8
NoName2
 10
1.024960
 20
-0.486960
 30
-0.403864
 11
1.307291
 21
-0.716836
 31
-0.028779
 12
1.486039
 22
-0.567734
 32
-0.028779
 13
1.165701
 23
-0.385673
 33
-0.403864
 62
0
  0
3DFACE
  8
NoName2
 10
-1.056613
 20
-0.486960
 30
-0.403864
 11
-1.336404
 21
-0.716835
 31
-0.028779
 12
1.307291
 22
-0.716836
 32
-0.028779
 13
1.024960
 23
-0.486960
 33
-0.403864
 62
0
  0
3DFACE
  8
NoName2
 10
-1.213740
 20
-0.386568
 30
-0.403864
 11
-1.535964
 21
-0.569052
 31
-0.028779
 12
-1.336404
 22
-0.716835
 32
-0.028779
 13
-1.056613
 23
-0.486960
 33
-0.403864
 62
0
  0
3DFACE
  8
NoName2
 10
-1.213740
 20
0.389090
 30
-0.403864
 11
-1.535963
 21
0.572765
 31
-0.028779
 12
-1.535964
 22
-0.569052
 32
-0.028779
 13
-1.213740
 23
-0.386568
 33
-0.403864
 62
0
  0
3DFACE
  8
NoName2
 10
-1.213740
 20
0.389090
 30
-0.403864
 11
-1.077542
 21
0.483543
 31
-0.403864
 12
-1.362986
 22
0.711805
 32
-0.028779
 13
-1.535963
 23
0.572765
 33
-0.028779
 62
0
  0
3DFACE
  8
NoName2
 10
1.041042
 20
0.483543
 30
-0.403864
 11
1.327716
 21
0.711805
 31
-0.028779
 12
-1.362986
 22
0.711805
 32
-0.028779
 13
-1.077542
 23
0.483543
 33
-0.403864
 62
0
  0
3DFACE
  8
NoName2
 10
0.903922
 20
0.254226
 30
-0.642849
 11
1.165701
 21
0.389986
 31
-0.403864
 12
1.041042
 22
0.483543
 32
-0.403864
 13
0.806772
 23
0.315215
 33
-0.642849
 62
0
  0
3DFACE
  8
NoName2
 10
0.903921
 20
-0.251415
 30
-0.642849
 11
1.165701
 21
-0.385673
 31
-0.403864
 12
1.165701
 22
0.389986
 32
-0.403864
 13
0.903922
 23
0.254226
 33
-0.642849
 62
0
  0
3DFACE
  8
NoName2
 10
0.794240
 20
-0.317442
 30
-0.642849
 11
1.024960
 21
-0.486960
 31
-0.403864
 12
1.165701
 22
-0.385673
 32
-0.403864
 13
0.903921
 23
-0.251415
 33
-0.642849
 62
0
  0
3DFACE
  8
NoName2
 10
-0.827968
 20
-0.317442
 30
-0.642849
 11
-1.056613
 21
-0.486960
 31
-0.403864
 12
1.024960
 22
-0.486960
 32
-0.403864
 13
0.794240
 23
-0.317442
 33
-0.642849
 62
0
  0
3DFACE
  8
NoName2
 10
-0.950420
 20
-0.251998
 30
-0.642849
 11
-1.213740
 21
-0.386568
 31
-0.403864
 12
-1.056613
 22
-0.486960
 32
-0.403864
 13
-0.827968
 23
-0.317442
 33
-0.642849
 62
0
  0
3DFACE
  8
NoName2
 10
-1.213740
 20
-0.386568
 30
-0.403864
 11
-0.950420
 21
-0.251998
 31
-0.642849
 12
-0.950420
 22
0.253642
 32
-0.642849
 13
-1.213740
 23
0.389090
 33
-0.403864
 62
0
  0
3DFACE
  8
NoName2
 10
-1.213740
 20
0.389090
 30
-0.403864
 11
-0.950420
 21
0.253642
 31
-0.642849
 12
-0.844279
 22
0.315215
 32
-0.642849
 13
-1.077542
 23
0.483543
 33
-0.403864
 62
0
  0
3DFACE
  8
NoName2
 10
0.806772
 20
0.315215
 30
-0.642849
 11
1.041042
 21
0.483543
 31
-0.403864
 12
-1.077542
 22
0.483543
 32
-0.403864
 13
-0.844279
 23
0.315215
 33
-0.642849
 62
0
 0
ENDSEC
 0
EOF
