  0
SECTION
  2
HEADER
  0
ENDSEC
  0
SECTION
  2
TABLES
  0
TABLE
  2
LAYER
  70
    153
  0
LAYER
  2
Cube40
 70
0
 62
15
  6
CONTINUOUS
  0
ENDTAB
  0
ENDSEC
  0
SECTION
  2
ENTITIES
  0
3DFACE
  8
Cube40
 10
0.610433
 20
-0.474486
 30
-0.132991
 11
1.559407
 21
-0.474487
 31
-0.132991
 12
1.084920
 22
-0.363770
 32
-0.268792
 13
1.084920
 23
-0.363770
 33
-0.268792
 62
0
  0
3DFACE
  8
Cube40
 10
1.559407
 20
0.474488
 30
-0.132991
 11
1.559407
 21
0.474488
 31
-0.123774
 12
0.610433
 22
0.474488
 32
-0.123774
 13
0.610433
 23
0.474488
 33
-0.132991
 62
0
  0
3DFACE
  8
Cube40
 10
1.559407
 20
-0.474487
 30
-0.132991
 11
1.559407
 21
-0.474487
 31
-0.123774
 12
1.559407
 22
0.474488
 32
-0.123774
 13
1.559407
 23
0.474488
 33
-0.132991
 62
0
  0
3DFACE
  8
Cube40
 10
1.559407
 20
0.474488
 30
-0.132991
 11
0.610433
 21
0.474488
 31
-0.132991
 12
1.084921
 22
0.363770
 32
-0.268792
 13
1.084921
 23
0.363770
 33
-0.268792
 62
0
  0
3DFACE
  8
Cube40
 10
1.559407
 20
-0.474487
 30
-0.132991
 11
1.559407
 21
0.474488
 31
-0.132991
 12
1.448690
 22
0.000001
 32
-0.268792
 13
1.448690
 23
0.000001
 33
-0.268792
 62
0
  0
3DFACE
  8
Cube40
 10
1.329384
 20
0.000000
 30
-0.383038
 11
1.448690
 21
0.000001
 31
-0.268792
 12
1.559407
 22
0.474488
 32
-0.132991
 13
1.559407
 23
0.474488
 33
-0.132991
 62
0
  0
3DFACE
  8
Cube40
 10
1.084920
 20
-0.244465
 30
-0.383036
 11
1.084920
 21
-0.363770
 31
-0.268792
 12
1.559407
 22
-0.474487
 32
-0.132991
 13
1.559407
 23
-0.474487
 33
-0.132991
 62
0
  0
3DFACE
  8
Cube40
 10
0.721149
 20
0.000004
 30
-0.268791
 11
0.610433
 21
0.474488
 31
-0.132991
 12
0.610433
 22
-0.474486
 32
-0.132991
 13
0.610433
 23
-0.474486
 33
-0.132991
 62
0
  0
3DFACE
  8
Cube40
 10
0.610433
 20
-0.474486
 30
-0.132991
 11
1.084920
 21
-0.363770
 31
-0.268792
 12
1.084920
 22
-0.244465
 32
-0.383036
 13
1.084920
 23
-0.244465
 33
-0.383036
 62
0
  0
3DFACE
  8
Cube40
 10
0.610433
 20
0.474488
 30
-0.132991
 11
0.721149
 21
0.000004
 31
-0.268791
 12
0.840455
 22
0.000003
 32
-0.383036
 13
0.840455
 23
0.000003
 33
-0.383036
 62
0
  0
3DFACE
  8
Cube40
 10
1.084921
 20
0.244463
 30
-0.383039
 11
1.084921
 21
0.363770
 31
-0.268792
 12
0.610433
 22
0.474488
 32
-0.132991
 13
0.610433
 23
0.474488
 33
-0.132991
 62
0
  0
3DFACE
  8
Cube40
 10
1.559407
 20
0.474488
 30
-0.132991
 11
1.084921
 21
0.363770
 31
-0.268792
 12
1.084921
 22
0.244463
 32
-0.383039
 13
1.084921
 23
0.244463
 33
-0.383039
 62
0
  0
3DFACE
  8
Cube40
 10
1.559407
 20
0.474488
 30
-0.132991
 11
1.204054
 21
-0.000000
 31
-0.490182
 12
1.329384
 22
0.000000
 32
-0.383038
 13
1.329384
 23
0.000000
 33
-0.383038
 62
0
  0
3DFACE
  8
Cube40
 10
1.559407
 20
-0.474487
 30
-0.132991
 11
1.448690
 21
0.000001
 31
-0.268792
 12
1.329384
 22
0.000000
 32
-0.383038
 13
1.329384
 23
0.000000
 33
-0.383038
 62
0
  0
3DFACE
  8
Cube40
 10
1.559407
 20
-0.474487
 30
-0.132991
 11
1.084921
 21
-0.119140
 31
-0.490176
 12
1.084920
 22
-0.244465
 32
-0.383036
 13
1.084920
 23
-0.244465
 33
-0.383036
 62
0
  0
3DFACE
  8
Cube40
 10
0.840455
 20
0.000003
 30
-0.383036
 11
0.721149
 21
0.000004
 31
-0.268791
 12
0.610433
 22
-0.474486
 32
-0.132991
 13
0.610433
 23
-0.474486
 33
-0.132991
 62
0
  0
3DFACE
  8
Cube40
 10
1.084921
 20
-0.119140
 30
-0.490176
 11
0.610433
 21
-0.474486
 31
-0.132991
 12
1.084920
 22
-0.244465
 32
-0.383036
 13
1.084920
 23
-0.244465
 33
-0.383036
 62
0
  0
3DFACE
  8
Cube40
 10
0.965807
 20
0.000001
 30
-0.490198
 11
0.610433
 21
0.474488
 31
-0.132991
 12
0.840455
 22
0.000003
 32
-0.383036
 13
0.840455
 23
0.000003
 33
-0.383036
 62
0
  0
3DFACE
  8
Cube40
 10
0.610433
 20
0.474488
 30
-0.132991
 11
1.084921
 21
0.119110
 31
-0.490202
 12
1.084921
 22
0.244463
 32
-0.383039
 13
1.084921
 23
0.244463
 33
-0.383039
 62
0
  0
3DFACE
  8
Cube40
 10
1.084920
 20
0.000000
 30
-0.584801
 11
1.084921
 21
0.119110
 31
-0.490202
 12
0.610433
 22
0.474488
 32
-0.132991
 13
0.610433
 23
0.474488
 33
-0.132991
 62
0
  0
3DFACE
  8
Cube40
 10
1.084921
 20
0.119110
 30
-0.490202
 11
1.559407
 21
0.474488
 31
-0.132991
 12
1.084921
 22
0.244463
 32
-0.383039
 13
1.084921
 23
0.244463
 33
-0.383039
 62
0
  0
3DFACE
  8
Cube40
 10
1.084920
 20
0.000000
 30
-0.584801
 11
1.559407
 21
0.474488
 31
-0.132991
 12
1.084921
 22
0.119110
 32
-0.490202
 13
1.084921
 23
0.119110
 33
-0.490202
 62
0
  0
3DFACE
  8
Cube40
 10
1.204054
 20
-0.000000
 30
-0.490182
 11
1.559407
 21
-0.474487
 31
-0.132991
 12
1.329384
 22
0.000000
 32
-0.383038
 13
1.329384
 23
0.000000
 33
-0.383038
 62
0
  0
3DFACE
  8
Cube40
 10
1.084920
 20
0.000000
 30
-0.584801
 11
1.204054
 21
-0.000000
 31
-0.490182
 12
1.559407
 22
0.474488
 32
-0.132991
 13
1.559407
 23
0.474488
 33
-0.132991
 62
0
  0
3DFACE
  8
Cube40
 10
1.084920
 20
0.000000
 30
-0.584801
 11
1.559407
 21
-0.474487
 31
-0.132991
 12
1.204054
 22
-0.000000
 32
-0.490182
 13
1.204054
 23
-0.000000
 33
-0.490182
 62
0
  0
3DFACE
  8
Cube40
 10
1.084920
 20
0.000000
 30
-0.584801
 11
1.084921
 21
-0.119140
 31
-0.490176
 12
1.559407
 22
-0.474487
 32
-0.132991
 13
1.559407
 23
-0.474487
 33
-0.132991
 62
0
  0
3DFACE
  8
Cube40
 10
0.610433
 20
-0.474486
 30
-0.132991
 11
0.965807
 21
0.000001
 31
-0.490198
 12
0.840455
 22
0.000003
 32
-0.383036
 13
0.840455
 23
0.000003
 33
-0.383036
 62
0
  0
3DFACE
  8
Cube40
 10
1.084920
 20
0.000000
 30
-0.584801
 11
0.610433
 21
-0.474486
 31
-0.132991
 12
1.084921
 22
-0.119140
 32
-0.490176
 13
1.084921
 23
-0.119140
 33
-0.490176
 62
0
  0
3DFACE
  8
Cube40
 10
0.965807
 20
0.000001
 30
-0.490198
 11
1.084920
 21
0.000000
 31
-0.584801
 12
0.610433
 22
0.474488
 32
-0.132991
 13
0.610433
 23
0.474488
 33
-0.132991
 62
0
  0
3DFACE
  8
Cube40
 10
0.610433
 20
0.474488
 30
-0.132991
 11
0.610433
 21
0.474488
 31
-0.123774
 12
0.610433
 22
-0.474486
 32
-0.123774
 13
0.610433
 23
-0.474486
 33
-0.132991
 62
0
  0
3DFACE
  8
Cube40
 10
1.084920
 20
0.000000
 30
-0.584801
 11
0.965807
 21
0.000001
 31
-0.490198
 12
0.610433
 22
-0.474486
 32
-0.132991
 13
0.610433
 23
-0.474486
 33
-0.132991
 62
0
  0
3DFACE
  8
Cube40
 10
0.610433
 20
0.474488
 30
-0.123774
 11
1.559407
 21
0.474488
 31
-0.123774
 12
1.513737
 22
0.428817
 32
-0.092969
 13
0.656105
 23
0.428816
 33
-0.092968
 62
0
  0
3DFACE
  8
Cube40
 10
0.610433
 20
-0.474486
 30
-0.132991
 11
0.610433
 21
-0.474486
 31
-0.123774
 12
1.559407
 22
-0.474487
 32
-0.123774
 13
1.559407
 23
-0.474487
 33
-0.132991
 62
0
  0
3DFACE
  8
Cube40
 10
1.559407
 20
-0.474487
 30
-0.123774
 11
0.610433
 21
-0.474486
 31
-0.123774
 12
0.656107
 22
-0.428812
 32
-0.092967
 13
1.513740
 23
-0.428819
 33
-0.092971
 62
0
  0
3DFACE
  8
Cube40
 10
0.610433
 20
-0.474486
 30
-0.123774
 11
0.610433
 21
0.474488
 31
-0.123774
 12
0.656105
 22
0.428816
 32
-0.092968
 13
0.656107
 23
-0.428812
 33
-0.092967
 62
0
  0
3DFACE
  8
Cube40
 10
1.559407
 20
0.474488
 30
-0.123774
 11
1.559407
 21
-0.474487
 31
-0.123774
 12
1.513740
 22
-0.428819
 32
-0.092971
 13
1.513737
 23
0.428817
 33
-0.092969
 62
0
  0
3DFACE
  8
Cube40
 10
1.084920
 20
0.269974
 30
0.000000
 11
0.656105
 21
0.428816
 31
-0.092968
 12
1.513737
 22
0.428817
 32
-0.092969
 13
1.513737
 23
0.428817
 33
-0.092969
 62
0
  0
3DFACE
  8
Cube40
 10
0.656107
 20
-0.428812
 30
-0.092967
 11
0.656105
 21
0.428816
 31
-0.092968
 12
0.814947
 22
0.000002
 32
0.000000
 13
0.814947
 23
0.000002
 33
0.000000
 62
0
  0
3DFACE
  8
Cube40
 10
0.831553
 20
0.253368
 30
0.000000
 11
0.656105
 21
0.428816
 31
-0.092968
 12
1.084920
 22
0.269974
 32
0.000000
 13
1.084920
 23
0.269974
 33
0.000000
 62
0
  0
3DFACE
  8
Cube40
 10
0.814947
 20
0.000002
 30
0.000000
 11
0.656105
 21
0.428816
 31
-0.092968
 12
0.831553
 22
0.253368
 32
0.000000
 13
0.831553
 23
0.253368
 33
0.000000
 62
0
  0
3DFACE
  8
Cube40
 10
1.354894
 20
0.000001
 30
0.000000
 11
1.513737
 21
0.428817
 31
-0.092969
 12
1.513740
 22
-0.428819
 32
-0.092971
 13
1.513740
 23
-0.428819
 33
-0.092971
 62
0
  0
3DFACE
  8
Cube40
 10
1.084920
 20
0.269974
 30
0.000000
 11
1.513737
 21
0.428817
 31
-0.092969
 12
1.338284
 22
0.253368
 32
0.000000
 13
1.338284
 23
0.253368
 33
0.000000
 62
0
  0
3DFACE
  8
Cube40
 10
1.338284
 20
0.253368
 30
0.000000
 11
1.513737
 21
0.428817
 31
-0.092969
 12
1.354894
 22
0.000001
 32
0.000000
 13
1.354894
 23
0.000001
 33
0.000000
 62
0
  0
3DFACE
  8
Cube40
 10
1.084922
 20
-0.269974
 30
-0.000000
 11
1.513740
 21
-0.428819
 31
-0.092971
 12
0.656107
 22
-0.428812
 32
-0.092967
 13
0.656107
 23
-0.428812
 33
-0.092967
 62
0
  0
3DFACE
  8
Cube40
 10
0.831553
 20
-0.253364
 30
0.000000
 11
0.656107
 21
-0.428812
 31
-0.092967
 12
0.814947
 22
0.000002
 32
0.000000
 13
0.814947
 23
0.000002
 33
0.000000
 62
0
  0
3DFACE
  8
Cube40
 10
1.338284
 20
-0.253363
 30
0.000000
 11
1.513740
 21
-0.428819
 31
-0.092971
 12
1.084922
 22
-0.269974
 32
-0.000000
 13
1.084922
 23
-0.269974
 33
-0.000000
 62
0
  0
3DFACE
  8
Cube40
 10
1.084922
 20
-0.269974
 30
-0.000000
 11
0.656107
 21
-0.428812
 31
-0.092967
 12
0.831553
 22
-0.253364
 32
0.000000
 13
0.831553
 23
-0.253364
 33
0.000000
 62
0
  0
3DFACE
  8
Cube40
 10
1.354894
 20
0.000001
 30
0.000000
 11
1.513740
 21
-0.428819
 31
-0.092971
 12
1.338284
 22
-0.253363
 32
0.000000
 13
1.338284
 23
-0.253363
 33
0.000000
 62
0
  0
3DFACE
  8
Cube40
 10
1.338284
 20
-0.253363
 30
0.000000
 11
1.084922
 21
-0.269974
 31
-0.000000
 12
0.831553
 22
-0.253364
 32
0.000000
 13
0.831553
 23
-0.253364
 33
0.000000
 62
0
  0
3DFACE
  8
Cube40
 10
1.354894
 20
0.000001
 30
0.000000
 11
1.338284
 21
-0.253363
 31
0.000000
 12
0.831553
 22
-0.253364
 32
0.000000
 13
0.831553
 23
-0.253364
 33
0.000000
 62
0
  0
3DFACE
  8
Cube40
 10
0.814947
 20
0.000002
 30
0.000000
 11
1.354894
 21
0.000001
 31
0.000000
 12
0.831553
 22
-0.253364
 32
0.000000
 13
0.831553
 23
-0.253364
 33
0.000000
 62
0
  0
3DFACE
  8
Cube40
 10
0.831553
 20
0.253368
 30
0.000000
 11
1.354894
 21
0.000001
 31
0.000000
 12
0.814947
 22
0.000002
 32
0.000000
 13
0.814947
 23
0.000002
 33
0.000000
 62
0
  0
3DFACE
  8
Cube40
 10
1.338284
 20
0.253368
 30
0.000000
 11
1.354894
 21
0.000001
 31
0.000000
 12
0.831553
 22
0.253368
 32
0.000000
 13
0.831553
 23
0.253368
 33
0.000000
 62
0
  0
3DFACE
  8
Cube40
 10
1.084920
 20
0.269974
 30
0.000000
 11
1.338284
 21
0.253368
 31
0.000000
 12
0.831553
 22
0.253368
 32
0.000000
 13
0.831553
 23
0.253368
 33
0.000000
 62
0
 0
ENDSEC
 0
EOF
