  0
SECTION
  2
HEADER
  0
ENDSEC
  0
SECTION
  2
TABLES
  0
TABLE
  2
LAYER
  70
    153
  0
LAYER
  2
Cube28
 70
0
 62
15
  6
CONTINUOUS
  0
ENDTAB
  0
ENDSEC
  0
SECTION
  2
ENTITIES
  0
3DFACE
  8
Cube28
 10
1.555162
 20
-0.625001
 30
-0.152649
 11
1.555162
 21
0.625000
 31
-0.152649
 12
1.555162
 22
0.625000
 32
-0.172541
 13
1.555162
 23
-0.625001
 33
-0.172541
 62
0
  0
3DFACE
  8
Cube28
 10
1.555162
 20
0.625000
 30
-0.152649
 11
0.555162
 21
0.625000
 31
-0.152649
 12
0.555162
 22
0.625000
 32
-0.172541
 13
1.555162
 23
0.625000
 33
-0.172541
 62
0
  0
3DFACE
  8
Cube28
 10
1.055161
 20
-0.504930
 30
-0.330958
 11
0.555162
 21
-0.625001
 31
-0.172541
 12
1.555162
 22
-0.625001
 32
-0.172541
 13
1.555162
 23
-0.625001
 33
-0.172541
 62
0
  0
3DFACE
  8
Cube28
 10
1.436115
 20
-0.000001
 30
-0.446330
 11
1.555162
 21
-0.625001
 31
-0.172541
 12
1.555162
 22
0.625000
 32
-0.172541
 13
1.555162
 23
0.625000
 33
-0.172541
 62
0
  0
3DFACE
  8
Cube28
 10
1.436115
 20
-0.000001
 30
-0.446330
 11
1.555162
 21
0.625000
 31
-0.172541
 12
1.250750
 22
-0.000001
 32
-0.599560
 13
1.250750
 23
-0.000001
 33
-0.599560
 62
0
  0
3DFACE
  8
Cube28
 10
0.555162
 20
-0.625001
 30
-0.172541
 11
0.674208
 21
-0.000001
 31
-0.446330
 12
0.555162
 22
0.625000
 32
-0.172541
 13
0.555162
 23
0.625000
 33
-0.172541
 62
0
  0
3DFACE
  8
Cube28
 10
0.674208
 20
-0.000001
 30
-0.446330
 11
0.859575
 21
-0.000000
 31
-0.599561
 12
0.555162
 22
0.625000
 32
-0.172541
 13
0.555162
 23
0.625000
 33
-0.172541
 62
0
  0
3DFACE
  8
Cube28
 10
1.055161
 20
0.504929
 30
-0.330957
 11
1.555162
 21
0.625000
 31
-0.172541
 12
0.555162
 22
0.625000
 32
-0.172541
 13
0.555162
 23
0.625000
 33
-0.172541
 62
0
  0
3DFACE
  8
Cube28
 10
1.055161
 20
-0.229876
 30
-0.565350
 11
1.055161
 21
-0.504930
 31
-0.330958
 12
1.555162
 22
-0.625001
 32
-0.172541
 13
1.555162
 23
-0.625001
 33
-0.172541
 62
0
  0
3DFACE
  8
Cube28
 10
0.555162
 20
-0.625001
 30
-0.172541
 11
1.055161
 21
-0.504930
 31
-0.330958
 12
1.055161
 22
-0.229876
 32
-0.565350
 13
1.055161
 23
-0.229876
 33
-0.565350
 62
0
  0
3DFACE
  8
Cube28
 10
1.055162
 20
-0.000001
 30
-0.747831
 11
1.250750
 21
-0.000001
 31
-0.599560
 12
1.555162
 22
0.625000
 32
-0.172541
 13
1.555162
 23
0.625000
 33
-0.172541
 62
0
  0
3DFACE
  8
Cube28
 10
1.436115
 20
-0.000001
 30
-0.446330
 11
1.250750
 21
-0.000001
 31
-0.599560
 12
1.555162
 22
-0.625001
 32
-0.172541
 13
1.555162
 23
-0.625001
 33
-0.172541
 62
0
  0
3DFACE
  8
Cube28
 10
0.674208
 20
-0.000001
 30
-0.446330
 11
0.555162
 21
-0.625001
 31
-0.172541
 12
0.859575
 22
-0.000000
 32
-0.599561
 13
0.859575
 23
-0.000000
 33
-0.599561
 62
0
  0
3DFACE
  8
Cube28
 10
0.555162
 20
0.625000
 30
-0.172541
 11
0.859575
 21
-0.000000
 31
-0.599561
 12
1.055162
 22
-0.000001
 32
-0.747831
 13
1.055162
 23
-0.000001
 33
-0.747831
 62
0
  0
3DFACE
  8
Cube28
 10
1.055161
 20
0.229878
 30
-0.565347
 11
1.055161
 21
0.504929
 31
-0.330957
 12
0.555162
 22
0.625000
 32
-0.172541
 13
0.555162
 23
0.625000
 33
-0.172541
 62
0
  0
3DFACE
  8
Cube28
 10
1.055161
 20
0.229878
 30
-0.565347
 11
0.555162
 21
0.625000
 31
-0.172541
 12
1.055162
 22
-0.000001
 32
-0.747831
 13
1.055162
 23
-0.000001
 33
-0.747831
 62
0
  0
3DFACE
  8
Cube28
 10
1.555162
 20
0.625000
 30
-0.172541
 11
1.055161
 21
0.504929
 31
-0.330957
 12
1.055161
 22
0.229878
 32
-0.565347
 13
1.055161
 23
0.229878
 33
-0.565347
 62
0
  0
3DFACE
  8
Cube28
 10
1.555162
 20
-0.625001
 30
-0.172541
 11
1.250750
 21
-0.000001
 31
-0.599560
 12
1.055162
 22
-0.000001
 32
-0.747831
 13
1.055162
 23
-0.000001
 33
-0.747831
 62
0
  0
3DFACE
  8
Cube28
 10
1.055161
 20
0.229878
 30
-0.565347
 11
1.055162
 21
-0.000001
 31
-0.747831
 12
1.555162
 22
0.625000
 32
-0.172541
 13
1.555162
 23
0.625000
 33
-0.172541
 62
0
  0
3DFACE
  8
Cube28
 10
1.055161
 20
-0.229876
 30
-0.565350
 11
1.555162
 21
-0.625001
 31
-0.172541
 12
1.055162
 22
-0.000001
 32
-0.747831
 13
1.055162
 23
-0.000001
 33
-0.747831
 62
0
  0
3DFACE
  8
Cube28
 10
1.055162
 20
-0.000001
 30
-0.747831
 11
0.859575
 21
-0.000000
 31
-0.599561
 12
0.555162
 22
-0.625001
 32
-0.172541
 13
0.555162
 23
-0.625001
 33
-0.172541
 62
0
  0
3DFACE
  8
Cube28
 10
0.555162
 20
0.625000
 30
-0.152649
 11
0.555162
 21
-0.625001
 31
-0.152649
 12
0.555162
 22
-0.625001
 32
-0.172541
 13
0.555162
 23
0.625000
 33
-0.172541
 62
0
  0
3DFACE
  8
Cube28
 10
0.555162
 20
-0.625001
 30
-0.172541
 11
1.055161
 21
-0.229876
 31
-0.565350
 12
1.055162
 22
-0.000001
 32
-0.747831
 13
1.055162
 23
-0.000001
 33
-0.747831
 62
0
  0
3DFACE
  8
Cube28
 10
1.555162
 20
0.625000
 30
-0.152649
 11
1.508449
 21
0.578287
 31
-0.110588
 12
0.601876
 22
0.578286
 32
-0.110587
 13
0.555162
 23
0.625000
 33
-0.152649
 62
0
  0
3DFACE
  8
Cube28
 10
0.555162
 20
-0.625001
 30
-0.152649
 11
1.555162
 21
-0.625001
 31
-0.152649
 12
1.555162
 22
-0.625001
 32
-0.172541
 13
0.555162
 23
-0.625001
 33
-0.172541
 62
0
  0
3DFACE
  8
Cube28
 10
0.555162
 20
0.625000
 30
-0.152649
 11
0.601876
 21
0.578286
 31
-0.110587
 12
0.601876
 22
-0.578287
 32
-0.110587
 13
0.555162
 23
-0.625001
 33
-0.152649
 62
0
  0
3DFACE
  8
Cube28
 10
1.555162
 20
-0.625001
 30
-0.152649
 11
1.508449
 21
-0.578287
 31
-0.110588
 12
1.508449
 22
0.578287
 32
-0.110588
 13
1.555162
 23
0.625000
 33
-0.152649
 62
0
  0
3DFACE
  8
Cube28
 10
1.055164
 20
0.401306
 30
0.000002
 11
0.601876
 21
0.578286
 31
-0.110587
 12
1.508449
 22
0.578287
 32
-0.110588
 13
1.508449
 23
0.578287
 33
-0.110588
 62
0
  0
3DFACE
  8
Cube28
 10
0.555162
 20
-0.625001
 30
-0.152649
 11
0.601876
 21
-0.578287
 31
-0.110587
 12
1.508449
 22
-0.578287
 32
-0.110588
 13
1.555162
 23
-0.625001
 33
-0.152649
 62
0
  0
3DFACE
  8
Cube28
 10
0.601876
 20
0.578286
 30
-0.110587
 11
0.753387
 21
-0.000001
 31
-0.000507
 12
0.601876
 22
-0.578287
 32
-0.110587
 13
0.601876
 23
-0.578287
 33
-0.110587
 62
0
  0
3DFACE
  8
Cube28
 10
1.508449
 20
0.578287
 30
-0.110588
 11
1.508449
 21
-0.578287
 31
-0.110588
 12
1.356936
 22
-0.000001
 32
-0.000507
 13
1.356936
 23
-0.000001
 33
-0.000507
 62
0
  0
3DFACE
  8
Cube28
 10
0.754438
 20
-0.000001
 30
0.000000
 11
0.753387
 21
-0.000001
 31
-0.000507
 12
0.601876
 22
0.578286
 32
-0.110587
 13
0.805113
 23
0.384919
 33
0.000001
 62
0
  0
3DFACE
  8
Cube28
 10
0.805113
 20
0.384919
 30
0.000001
 11
0.601876
 21
0.578286
 31
-0.110587
 12
1.055164
 22
0.401306
 32
0.000002
 13
1.055164
 23
0.401306
 33
0.000002
 62
0
  0
3DFACE
  8
Cube28
 10
1.305209
 20
0.384918
 30
0.000001
 11
1.508449
 21
0.578287
 31
-0.110588
 12
1.356936
 22
-0.000001
 32
-0.000507
 13
1.355885
 23
-0.000001
 33
0.000001
 62
0
  0
3DFACE
  8
Cube28
 10
1.055164
 20
0.401306
 30
0.000002
 11
1.508449
 21
0.578287
 31
-0.110588
 12
1.305209
 22
0.384918
 32
0.000001
 13
1.305209
 23
0.384918
 33
0.000001
 62
0
  0
3DFACE
  8
Cube28
 10
1.055161
 20
-0.401309
 30
0.000001
 11
1.508449
 21
-0.578287
 31
-0.110588
 12
0.601876
 22
-0.578287
 32
-0.110587
 13
0.601876
 23
-0.578287
 33
-0.110587
 62
0
  0
3DFACE
  8
Cube28
 10
0.805113
 20
-0.384920
 30
0.000000
 11
0.601876
 21
-0.578287
 31
-0.110587
 12
0.753387
 22
-0.000001
 32
-0.000507
 13
0.754438
 23
-0.000001
 33
0.000000
 62
0
  0
3DFACE
  8
Cube28
 10
1.055161
 20
-0.401309
 30
0.000001
 11
0.601876
 21
-0.578287
 31
-0.110587
 12
0.805113
 22
-0.384920
 32
0.000000
 13
0.805113
 23
-0.384920
 33
0.000000
 62
0
  0
3DFACE
  8
Cube28
 10
1.355885
 20
-0.000001
 30
0.000001
 11
1.356936
 21
-0.000001
 31
-0.000507
 12
1.508449
 22
-0.578287
 32
-0.110588
 13
1.305210
 23
-0.384919
 33
0.000001
 62
0
  0
3DFACE
  8
Cube28
 10
1.305210
 20
-0.384919
 30
0.000001
 11
1.508449
 21
-0.578287
 31
-0.110588
 12
1.055161
 22
-0.401309
 32
0.000001
 13
1.055161
 23
-0.401309
 33
0.000001
 62
0
  0
3DFACE
  8
Cube28
 10
1.305210
 20
-0.384919
 30
0.000001
 11
1.055161
 21
-0.401309
 31
0.000001
 12
0.805113
 22
-0.384920
 32
0.000000
 13
0.805113
 23
-0.384920
 33
0.000000
 62
0
  0
3DFACE
  8
Cube28
 10
0.754438
 20
-0.000001
 30
0.000000
 11
1.305210
 21
-0.384919
 31
0.000001
 12
0.805113
 22
-0.384920
 32
0.000000
 13
0.805113
 23
-0.384920
 33
0.000000
 62
0
  0
3DFACE
  8
Cube28
 10
1.355885
 20
-0.000001
 30
0.000001
 11
1.305210
 21
-0.384919
 31
0.000001
 12
0.754438
 22
-0.000001
 32
0.000000
 13
0.754438
 23
-0.000001
 33
0.000000
 62
0
  0
3DFACE
  8
Cube28
 10
1.305209
 20
0.384918
 30
0.000001
 11
1.355885
 21
-0.000001
 31
0.000001
 12
0.754438
 22
-0.000001
 32
0.000000
 13
0.754438
 23
-0.000001
 33
0.000000
 62
0
  0
3DFACE
  8
Cube28
 10
0.805113
 20
0.384919
 30
0.000001
 11
1.305209
 21
0.384918
 31
0.000001
 12
0.754438
 22
-0.000001
 32
0.000000
 13
0.754438
 23
-0.000001
 33
0.000000
 62
0
  0
3DFACE
  8
Cube28
 10
1.055164
 20
0.401306
 30
0.000002
 11
1.305209
 21
0.384918
 31
0.000001
 12
0.805113
 22
0.384919
 32
0.000001
 13
0.805113
 23
0.384919
 33
0.000001
 62
0
 0
ENDSEC
 0
EOF
