  0
SECTION
  2
HEADER
  0
ENDSEC
  0
SECTION
  2
TABLES
  0
TABLE
  2
LAYER
  70
    153
  0
LAYER
  2
Cylinder22
 70
0
 62
15
  6
CONTINUOUS
  0
ENDTAB
  0
ENDSEC
  0
SECTION
  2
ENTITIES
  0
3DFACE
  8
Cylinder22
 10
-0.934028
 20
-1.000000
 30
0.341502
 11
-0.934028
 21
-1.000000
 31
0.359790
 12
1.465972
 22
-1.000000
 32
0.359790
 13
1.465972
 23
-1.000000
 33
0.341502
 62
0
  0
3DFACE
  8
Cylinder22
 10
1.465972
 20
1.000000
 30
0.359790
 11
1.465972
 21
1.000000
 31
0.341502
 12
1.465972
 22
-1.000000
 32
0.341502
 13
1.465972
 23
-1.000000
 33
0.359790
 62
0
  0
3DFACE
  8
Cylinder22
 10
-0.373629
 20
0.000002
 30
-0.624449
 11
-0.226086
 21
0.196216
 31
-0.812417
 12
-0.934028
 22
1.000000
 32
0.341502
 13
-0.934028
 23
1.000000
 33
0.341502
 62
0
  0
3DFACE
  8
Cylinder22
 10
1.465972
 20
1.000000
 30
0.341502
 11
0.905572
 21
-0.000003
 31
-0.624449
 12
1.465972
 22
-1.000000
 32
0.341502
 13
1.465972
 23
-1.000000
 33
0.341502
 62
0
  0
3DFACE
  8
Cylinder22
 10
-0.226084
 20
-0.196212
 30
-0.812421
 11
-0.373629
 21
0.000002
 31
-0.624449
 12
-0.934028
 22
-1.000000
 32
0.341502
 13
-0.934028
 23
-1.000000
 33
0.341502
 62
0
  0
3DFACE
  8
Cylinder22
 10
-0.373629
 20
0.000002
 30
-0.624449
 11
-0.934028
 21
1.000000
 31
0.341502
 12
-0.934028
 22
-1.000000
 32
0.341502
 13
-0.934028
 23
-1.000000
 33
0.341502
 62
0
  0
3DFACE
  8
Cylinder22
 10
0.265976
 20
-0.535595
 30
-0.517396
 11
-0.934028
 21
-1.000000
 31
0.341502
 12
1.465972
 22
-1.000000
 32
0.341502
 13
1.465972
 23
-1.000000
 33
0.341502
 62
0
  0
3DFACE
  8
Cylinder22
 10
-0.934028
 20
1.000000
 30
0.341502
 11
0.265976
 21
0.535595
 31
-0.517396
 12
1.465972
 22
1.000000
 32
0.341502
 13
1.465972
 23
1.000000
 33
0.341502
 62
0
  0
3DFACE
  8
Cylinder22
 10
-0.226084
 20
-0.196212
 30
-0.812421
 11
-0.934028
 21
-1.000000
 31
0.341502
 12
0.265976
 22
-0.535595
 32
-0.517396
 13
0.265976
 23
-0.535595
 33
-0.517396
 62
0
  0
3DFACE
  8
Cylinder22
 10
0.265976
 20
0.535595
 30
-0.517396
 11
-0.934028
 21
1.000000
 31
0.341502
 12
-0.226086
 22
0.196216
 32
-0.812417
 13
-0.226086
 23
0.196216
 33
-0.812417
 62
0
  0
3DFACE
  8
Cylinder22
 10
0.758027
 20
0.196212
 30
-0.812421
 11
1.465972
 21
1.000000
 31
0.341502
 12
0.265976
 22
0.535595
 32
-0.517396
 13
0.265976
 23
0.535595
 33
-0.517396
 62
0
  0
3DFACE
  8
Cylinder22
 10
0.265976
 20
-0.535595
 30
-0.517396
 11
1.465972
 21
-1.000000
 31
0.341502
 12
0.758030
 22
-0.196218
 32
-0.812416
 13
0.758030
 23
-0.196218
 33
-0.812416
 62
0
  0
3DFACE
  8
Cylinder22
 10
0.905572
 20
-0.000003
 30
-0.624449
 11
0.758030
 21
-0.196218
 31
-0.812416
 12
1.465972
 22
-1.000000
 32
0.341502
 13
1.465972
 23
-1.000000
 33
0.341502
 62
0
  0
3DFACE
  8
Cylinder22
 10
0.758027
 20
0.196212
 30
-0.812421
 11
0.905572
 21
-0.000003
 31
-0.624449
 12
1.465972
 22
1.000000
 32
0.341502
 13
1.465972
 23
1.000000
 33
0.341502
 62
0
  0
3DFACE
  8
Cylinder22
 10
0.624242
 20
-0.000002
 30
-0.982987
 11
0.758030
 21
-0.196218
 31
-0.812416
 12
0.905572
 22
-0.000003
 32
-0.624449
 13
0.758027
 23
0.196212
 33
-0.812421
 62
0
  0
3DFACE
  8
Cylinder22
 10
0.265976
 20
-0.535595
 30
-0.517396
 11
-0.092301
 21
0.000001
 31
-0.982984
 12
-0.226084
 22
-0.196212
 32
-0.812421
 13
-0.226084
 23
-0.196212
 33
-0.812421
 62
0
  0
3DFACE
  8
Cylinder22
 10
0.624242
 20
-0.000002
 30
-0.982987
 11
-0.092301
 21
0.000001
 31
-0.982984
 12
0.265976
 22
-0.535595
 32
-0.517396
 13
0.265976
 23
-0.535595
 33
-0.517396
 62
0
  0
3DFACE
  8
Cylinder22
 10
0.758030
 20
-0.196218
 30
-0.812416
 11
0.624242
 21
-0.000002
 31
-0.982987
 12
0.265976
 22
-0.535595
 32
-0.517396
 13
0.265976
 23
-0.535595
 33
-0.517396
 62
0
  0
3DFACE
  8
Cylinder22
 10
0.265976
 20
0.535595
 30
-0.517396
 11
-0.226086
 21
0.196216
 31
-0.812417
 12
-0.092301
 22
0.000001
 32
-0.982984
 13
-0.092301
 23
0.000001
 33
-0.982984
 62
0
  0
3DFACE
  8
Cylinder22
 10
0.624242
 20
-0.000002
 30
-0.982987
 11
0.265976
 21
0.535595
 31
-0.517396
 12
-0.092301
 22
0.000001
 32
-0.982984
 13
-0.092301
 23
0.000001
 33
-0.982984
 62
0
  0
3DFACE
  8
Cylinder22
 10
0.758027
 20
0.196212
 30
-0.812421
 11
0.265976
 21
0.535595
 31
-0.517396
 12
0.624242
 22
-0.000002
 32
-0.982987
 13
0.624242
 23
-0.000002
 33
-0.982987
 62
0
  0
3DFACE
  8
Cylinder22
 10
1.465972
 20
1.000000
 30
0.341502
 11
1.465972
 21
1.000000
 31
0.359790
 12
-0.934028
 22
1.000000
 32
0.359790
 13
-0.934028
 23
1.000000
 33
0.341502
 62
0
  0
3DFACE
  8
Cylinder22
 10
-0.373629
 20
0.000002
 30
-0.624449
 11
-0.226084
 21
-0.196212
 31
-0.812421
 12
-0.092301
 22
0.000001
 32
-0.982984
 13
-0.226086
 23
0.196216
 33
-0.812417
 62
0
  0
3DFACE
  8
Cylinder22
 10
-0.934028
 20
1.000000
 30
0.359790
 11
1.465972
 21
1.000000
 31
0.359790
 12
1.340869
 22
0.535318
 32
0.628074
 13
-0.808925
 23
0.535318
 33
0.628075
 62
0
  0
3DFACE
  8
Cylinder22
 10
-0.745966
 20
0.245775
 30
0.763091
 11
1.277909
 21
0.245774
 31
0.763091
 12
1.236196
 22
0.000000
 32
0.852546
 13
-0.704252
 23
0.000000
 33
0.852546
 62
0
  0
3DFACE
  8
Cylinder22
 10
-0.808925
 20
0.535318
 30
0.628075
 11
1.340869
 21
0.535318
 31
0.628074
 12
1.277909
 22
0.245774
 32
0.763091
 13
-0.745966
 23
0.245775
 33
0.763091
 62
0
  0
3DFACE
  8
Cylinder22
 10
-0.704252
 20
0.000000
 30
0.852546
 11
1.236196
 21
0.000000
 31
0.852546
 12
1.277910
 22
-0.245775
 32
0.763091
 13
-0.745966
 23
-0.245774
 33
0.763091
 62
0
  0
3DFACE
  8
Cylinder22
 10
-0.745966
 20
-0.245774
 30
0.763091
 11
1.277910
 21
-0.245775
 31
0.763091
 12
1.340869
 22
-0.535319
 32
0.628074
 13
-0.808925
 23
-0.535319
 33
0.628074
 62
0
  0
3DFACE
  8
Cylinder22
 10
-0.808925
 20
-0.535319
 30
0.628074
 11
1.340869
 21
-0.535319
 31
0.628074
 12
1.465972
 22
-1.000000
 32
0.359790
 13
-0.934028
 23
-1.000000
 33
0.359790
 62
0
  0
3DFACE
  8
Cylinder22
 10
1.277910
 20
-0.245775
 30
0.763091
 11
1.465972
 21
-1.000000
 31
0.359790
 12
1.340869
 22
-0.535319
 32
0.628074
 13
1.340869
 23
-0.535319
 33
0.628074
 62
0
  0
3DFACE
  8
Cylinder22
 10
1.236196
 20
0.000000
 30
0.852546
 11
1.465972
 21
-1.000000
 31
0.359790
 12
1.277910
 22
-0.245775
 32
0.763091
 13
1.277910
 23
-0.245775
 33
0.763091
 62
0
  0
3DFACE
  8
Cylinder22
 10
1.277909
 20
0.245774
 30
0.763091
 11
1.465972
 21
-1.000000
 31
0.359790
 12
1.236196
 22
0.000000
 32
0.852546
 13
1.236196
 23
0.000000
 33
0.852546
 62
0
  0
3DFACE
  8
Cylinder22
 10
1.340869
 20
0.535318
 30
0.628074
 11
1.465972
 21
-1.000000
 31
0.359790
 12
1.277909
 22
0.245774
 32
0.763091
 13
1.277909
 23
0.245774
 33
0.763091
 62
0
  0
3DFACE
  8
Cylinder22
 10
1.465972
 20
1.000000
 30
0.359790
 11
1.465972
 21
-1.000000
 31
0.359790
 12
1.340869
 22
0.535318
 32
0.628074
 13
1.340869
 23
0.535318
 33
0.628074
 62
0
  0
3DFACE
  8
Cylinder22
 10
-0.934028
 20
-1.000000
 30
0.359790
 11
-0.934028
 21
-1.000000
 31
0.341502
 12
-0.934028
 22
1.000000
 32
0.341502
 13
-0.934028
 23
1.000000
 33
0.359790
 62
0
  0
3DFACE
  8
Cylinder22
 10
-0.745966
 20
-0.245774
 30
0.763091
 11
-0.808925
 21
-0.535319
 31
0.628074
 12
-0.934028
 22
-1.000000
 32
0.359790
 13
-0.934028
 23
-1.000000
 33
0.359790
 62
0
  0
3DFACE
  8
Cylinder22
 10
-0.704252
 20
0.000000
 30
0.852546
 11
-0.745966
 21
-0.245774
 31
0.763091
 12
-0.934028
 22
-1.000000
 32
0.359790
 13
-0.934028
 23
-1.000000
 33
0.359790
 62
0
  0
3DFACE
  8
Cylinder22
 10
-0.745966
 20
0.245775
 30
0.763091
 11
-0.704252
 21
0.000000
 31
0.852546
 12
-0.934028
 22
-1.000000
 32
0.359790
 13
-0.934028
 23
-1.000000
 33
0.359790
 62
0
  0
3DFACE
  8
Cylinder22
 10
-0.808925
 20
0.535318
 30
0.628075
 11
-0.745966
 21
0.245775
 31
0.763091
 12
-0.934028
 22
-1.000000
 32
0.359790
 13
-0.934028
 23
-1.000000
 33
0.359790
 62
0
  0
3DFACE
  8
Cylinder22
 10
-0.934028
 20
1.000000
 30
0.359790
 11
-0.808925
 21
0.535318
 31
0.628075
 12
-0.934028
 22
-1.000000
 32
0.359790
 13
-0.934028
 23
-1.000000
 33
0.359790
 62
0
 0
ENDSEC
 0
EOF
