  0
SECTION
  2
HEADER
  0
ENDSEC
  0
SECTION
  2
TABLES
  0
TABLE
  2
LAYER
  70
    153
  0
LAYER
  2
Cube99
 70
0
 62
15
  6
CONTINUOUS
  0
ENDTAB
  0
ENDSEC
  0
SECTION
  2
ENTITIES
  0
3DFACE
  8
Cube99
 10
0.698755
 20
-0.870063
 30
-0.121842
 11
1.059147
 21
-0.941750
 31
-0.121841
 12
1.008102
 22
-0.123233
 32
-0.861169
 13
1.008102
 23
-0.123233
 33
-0.861169
 62
0
  0
3DFACE
  8
Cube99
 10
0.698753
 20
0.870065
 30
-0.121841
 11
1.008110
 21
0.123212
 31
-0.861190
 12
1.059145
 22
0.941751
 32
-0.121840
 13
1.059145
 23
0.941751
 33
-0.121840
 62
0
  0
3DFACE
  8
Cube99
 10
1.059145
 20
0.941751
 30
-0.105377
 11
1.059145
 21
0.941751
 31
-0.121840
 12
1.419539
 22
0.870064
 32
-0.121841
 13
1.419539
 23
0.870064
 33
-0.105377
 62
0
  0
3DFACE
  8
Cube99
 10
1.419539
 20
-0.870063
 30
-0.105377
 11
1.419539
 21
-0.870063
 31
-0.121841
 12
1.059147
 22
-0.941750
 32
-0.121841
 13
1.059147
 23
-0.941750
 33
-0.105377
 62
0
  0
3DFACE
  8
Cube99
 10
1.419539
 20
0.870064
 30
-0.105377
 11
1.419539
 21
0.870064
 31
-0.121841
 12
1.551998
 22
0.204146
 32
-0.121842
 13
1.551998
 23
0.204146
 33
-0.105377
 62
0
  0
3DFACE
  8
Cube99
 10
1.426350
 20
0.152101
 30
-0.619650
 11
1.551998
 21
0.204146
 31
-0.121842
 12
1.419539
 22
0.870064
 32
-0.121841
 13
1.411754
 23
0.352608
 33
-0.527088
 62
0
  0
3DFACE
  8
Cube99
 10
1.551998
 20
-0.204145
 30
-0.105377
 11
1.551998
 21
-0.204145
 31
-0.121840
 12
1.419539
 22
-0.870063
 32
-0.121841
 13
1.419539
 23
-0.870063
 33
-0.105377
 62
0
  0
3DFACE
  8
Cube99
 10
1.551998
 20
-0.204145
 30
-0.121840
 11
1.426350
 21
-0.152100
 31
-0.619651
 12
1.411754
 22
-0.352607
 32
-0.527089
 13
1.419539
 23
-0.870063
 33
-0.121841
 62
0
  0
3DFACE
  8
Cube99
 10
0.936520
 20
-0.050793
 30
-0.861770
 11
0.691945
 21
-0.152100
 31
-0.619652
 12
0.706541
 22
-0.352606
 32
-0.527091
 13
0.706541
 23
-0.352606
 33
-0.527091
 62
0
  0
3DFACE
  8
Cube99
 10
0.706540
 20
0.352606
 30
-0.527091
 11
0.691945
 21
0.152100
 31
-0.619652
 12
0.936531
 22
0.050789
 32
-0.861781
 13
0.936531
 23
0.050789
 33
-0.861781
 62
0
  0
3DFACE
  8
Cube99
 10
1.551998
 20
0.204146
 30
-0.105377
 11
1.551998
 21
0.204146
 31
-0.121842
 12
1.551998
 22
-0.204145
 32
-0.121840
 13
1.551998
 23
-0.204145
 33
-0.105377
 62
0
  0
3DFACE
  8
Cube99
 10
0.566295
 20
0.204147
 30
-0.121837
 11
0.691945
 21
0.152100
 31
-0.619652
 12
0.706540
 22
0.352606
 32
-0.527091
 13
0.698753
 23
0.870065
 33
-0.121841
 62
0
  0
3DFACE
  8
Cube99
 10
0.936520
 20
-0.050793
 30
-0.861770
 11
0.701080
 21
0.000000
 31
-0.655677
 12
0.691945
 22
-0.152100
 32
-0.619652
 13
0.691945
 23
-0.152100
 33
-0.619652
 62
0
  0
3DFACE
  8
Cube99
 10
1.417215
 20
-0.000000
 30
-0.655676
 11
1.426350
 21
-0.152100
 31
-0.619651
 12
1.551998
 22
-0.204145
 32
-0.121840
 13
1.551998
 23
-0.204145
 33
-0.121840
 62
0
  0
3DFACE
  8
Cube99
 10
1.426350
 20
0.152101
 30
-0.619650
 11
1.417215
 21
-0.000000
 31
-0.655676
 12
1.551998
 22
-0.204145
 32
-0.121840
 13
1.551998
 23
-0.204145
 33
-0.121840
 62
0
  0
3DFACE
  8
Cube99
 10
1.551998
 20
0.204146
 30
-0.121842
 11
1.426350
 21
0.152101
 31
-0.619650
 12
1.551998
 22
-0.204145
 32
-0.121840
 13
1.551998
 23
-0.204145
 33
-0.121840
 62
0
  0
3DFACE
  8
Cube99
 10
0.701080
 20
0.000000
 30
-0.655677
 11
0.936531
 21
0.050789
 31
-0.861781
 12
0.691945
 22
0.152100
 32
-0.619652
 13
0.691945
 23
0.152100
 33
-0.619652
 62
0
  0
3DFACE
  8
Cube99
 10
0.691945
 20
-0.152100
 30
-0.619652
 11
0.566296
 21
-0.204146
 31
-0.121839
 12
0.698755
 22
-0.870063
 32
-0.121842
 13
0.706541
 23
-0.352606
 33
-0.527091
 62
0
  0
3DFACE
  8
Cube99
 10
0.701080
 20
0.000000
 30
-0.655677
 11
0.566296
 21
-0.204146
 31
-0.121839
 12
0.691945
 22
-0.152100
 32
-0.619652
 13
0.691945
 23
-0.152100
 33
-0.619652
 62
0
  0
3DFACE
  8
Cube99
 10
0.691945
 20
0.152100
 30
-0.619652
 11
0.566296
 21
-0.204146
 31
-0.121839
 12
0.701080
 22
0.000000
 32
-0.655677
 13
0.701080
 23
0.000000
 33
-0.655677
 62
0
  0
3DFACE
  8
Cube99
 10
0.566295
 20
0.204147
 30
-0.121837
 11
0.566296
 21
-0.204146
 31
-0.121839
 12
0.691945
 22
0.152100
 32
-0.619652
 13
0.691945
 23
0.152100
 33
-0.619652
 62
0
  0
3DFACE
  8
Cube99
 10
1.419539
 20
0.870064
 30
-0.121841
 11
1.059145
 21
0.941751
 31
-0.121840
 12
1.110183
 22
0.123212
 32
-0.861190
 13
1.110183
 23
0.123212
 33
-0.861190
 62
0
  0
3DFACE
  8
Cube99
 10
1.411754
 20
0.352608
 30
-0.527088
 11
1.419539
 21
0.870064
 31
-0.121841
 12
1.110183
 22
0.123212
 32
-0.861190
 13
1.110183
 23
0.123212
 33
-0.861190
 62
0
  0
3DFACE
  8
Cube99
 10
1.110191
 20
-0.123233
 30
-0.861170
 11
1.419539
 21
-0.870063
 31
-0.121841
 12
1.411754
 22
-0.352607
 32
-0.527089
 13
1.411754
 23
-0.352607
 33
-0.527089
 62
0
  0
3DFACE
  8
Cube99
 10
1.419539
 20
-0.870063
 30
-0.121841
 11
1.110191
 21
-0.123233
 31
-0.861170
 12
1.059147
 22
-0.941750
 32
-0.121841
 13
1.059147
 23
-0.941750
 33
-0.121841
 62
0
  0
3DFACE
  8
Cube99
 10
1.181757
 20
0.050787
 30
-0.861786
 11
1.426350
 21
0.152101
 31
-0.619650
 12
1.411754
 22
0.352608
 32
-0.527088
 13
1.411754
 23
0.352608
 33
-0.527088
 62
0
  0
3DFACE
  8
Cube99
 10
1.411754
 20
-0.352607
 30
-0.527089
 11
1.426350
 21
-0.152100
 31
-0.619651
 12
1.181767
 22
-0.050791
 32
-0.861776
 13
1.181767
 23
-0.050791
 33
-0.861776
 62
0
  0
3DFACE
  8
Cube99
 10
1.110191
 20
-0.123233
 30
-0.861170
 11
1.059147
 21
-0.002988
 31
-0.969030
 12
1.059145
 22
-0.005737
 32
-0.967300
 13
1.059145
 23
-0.005737
 33
-0.967300
 62
0
  0
3DFACE
  8
Cube99
 10
1.181767
 20
-0.050791
 30
-0.861776
 11
1.059147
 21
-0.002988
 31
-0.969030
 12
1.110191
 22
-0.123233
 32
-0.861170
 13
1.110191
 23
-0.123233
 33
-0.861170
 62
0
  0
3DFACE
  8
Cube99
 10
1.411754
 20
-0.352607
 30
-0.527089
 11
1.181767
 21
-0.050791
 31
-0.861776
 12
1.110191
 22
-0.123233
 32
-0.861170
 13
1.110191
 23
-0.123233
 33
-0.861170
 62
0
  0
3DFACE
  8
Cube99
 10
0.706541
 20
-0.352606
 30
-0.527091
 11
0.698755
 21
-0.870063
 31
-0.121842
 12
1.008102
 22
-0.123233
 32
-0.861169
 13
1.008102
 23
-0.123233
 33
-0.861169
 62
0
  0
3DFACE
  8
Cube99
 10
1.059147
 20
-0.941750
 30
-0.121841
 11
1.110191
 21
-0.123233
 31
-0.861170
 12
1.059145
 22
-0.005737
 32
-0.967300
 13
1.008102
 23
-0.123233
 33
-0.861169
 62
0
  0
3DFACE
  8
Cube99
 10
1.008110
 20
0.123212
 30
-0.861190
 11
0.698753
 21
0.870065
 31
-0.121841
 12
0.706540
 22
0.352606
 32
-0.527091
 13
0.706540
 23
0.352606
 33
-0.527091
 62
0
  0
3DFACE
  8
Cube99
 10
1.110183
 20
0.123212
 30
-0.861190
 11
1.059145
 21
0.941751
 31
-0.121840
 12
1.008110
 22
0.123212
 32
-0.861190
 13
1.059145
 23
0.005735
 33
-0.967302
 62
0
  0
3DFACE
  8
Cube99
 10
1.110183
 20
0.123212
 30
-0.861190
 11
1.059145
 21
0.005735
 31
-0.967302
 12
1.059146
 22
0.002988
 32
-0.969031
 13
1.059146
 23
0.002988
 33
-0.969031
 62
0
  0
3DFACE
  8
Cube99
 10
1.181757
 20
0.050787
 30
-0.861786
 11
1.110183
 21
0.123212
 31
-0.861190
 12
1.059146
 22
0.002988
 32
-0.969031
 13
1.059146
 23
0.002988
 33
-0.969031
 62
0
  0
3DFACE
  8
Cube99
 10
1.411754
 20
0.352608
 30
-0.527088
 11
1.110183
 21
0.123212
 31
-0.861190
 12
1.181757
 22
0.050787
 32
-0.861786
 13
1.181757
 23
0.050787
 33
-0.861786
 62
0
  0
3DFACE
  8
Cube99
 10
1.181757
 20
0.050787
 30
-0.861786
 11
1.417215
 21
-0.000000
 31
-0.655676
 12
1.426350
 22
0.152101
 32
-0.619650
 13
1.426350
 23
0.152101
 33
-0.619650
 62
0
  0
3DFACE
  8
Cube99
 10
1.417215
 20
-0.000000
 30
-0.655676
 11
1.181767
 21
-0.050791
 31
-0.861776
 12
1.426350
 22
-0.152100
 32
-0.619651
 13
1.426350
 23
-0.152100
 33
-0.619651
 62
0
  0
3DFACE
  8
Cube99
 10
1.008110
 20
0.123212
 30
-0.861190
 11
0.706540
 21
0.352606
 31
-0.527091
 12
0.936531
 22
0.050789
 32
-0.861781
 13
0.936531
 23
0.050789
 33
-0.861781
 62
0
  0
3DFACE
  8
Cube99
 10
1.059145
 20
0.005735
 30
-0.967302
 11
1.008110
 21
0.123212
 31
-0.861190
 12
0.936531
 22
0.050789
 32
-0.861781
 13
0.936531
 23
0.050789
 33
-0.861781
 62
0
  0
3DFACE
  8
Cube99
 10
1.059146
 20
0.002988
 30
-0.969031
 11
1.059145
 21
0.005735
 31
-0.967302
 12
0.936531
 22
0.050789
 32
-0.861781
 13
0.936531
 23
0.050789
 33
-0.861781
 62
0
  0
3DFACE
  8
Cube99
 10
1.008102
 20
-0.123233
 30
-0.861169
 11
0.936520
 21
-0.050793
 31
-0.861770
 12
0.706541
 22
-0.352606
 32
-0.527091
 13
0.706541
 23
-0.352606
 33
-0.527091
 62
0
  0
3DFACE
  8
Cube99
 10
1.059145
 20
-0.005737
 30
-0.967300
 11
0.936520
 21
-0.050793
 31
-0.861770
 12
1.008102
 22
-0.123233
 32
-0.861169
 13
1.008102
 23
-0.123233
 33
-0.861169
 62
0
  0
3DFACE
  8
Cube99
 10
1.059147
 20
-0.002988
 30
-0.969030
 11
0.936520
 21
-0.050793
 31
-0.861770
 12
1.059145
 22
-0.005737
 32
-0.967300
 13
1.059145
 23
-0.005737
 33
-0.967300
 62
0
  0
3DFACE
  8
Cube99
 10
1.181757
 20
0.050787
 30
-0.861786
 11
1.059146
 21
0.002988
 31
-0.969031
 12
1.059147
 22
-0.002988
 32
-0.969030
 13
1.059147
 23
-0.002988
 33
-0.969030
 62
0
  0
3DFACE
  8
Cube99
 10
1.181767
 20
-0.050791
 30
-0.861776
 11
1.181757
 21
0.050787
 31
-0.861786
 12
1.059147
 22
-0.002988
 32
-0.969030
 13
1.059147
 23
-0.002988
 33
-0.969030
 62
0
  0
3DFACE
  8
Cube99
 10
1.417215
 20
-0.000000
 30
-0.655676
 11
1.181757
 21
0.050787
 31
-0.861786
 12
1.181767
 22
-0.050791
 32
-0.861776
 13
1.181767
 23
-0.050791
 33
-0.861776
 62
0
  0
3DFACE
  8
Cube99
 10
0.936531
 20
0.050789
 30
-0.861781
 11
0.701080
 21
0.000000
 31
-0.655677
 12
0.936520
 22
-0.050793
 32
-0.861770
 13
0.936520
 23
-0.050793
 33
-0.861770
 62
0
  0
3DFACE
  8
Cube99
 10
1.059146
 20
0.002988
 30
-0.969031
 11
0.936531
 21
0.050789
 31
-0.861781
 12
0.936520
 22
-0.050793
 32
-0.861770
 13
0.936520
 23
-0.050793
 33
-0.861770
 62
0
  0
3DFACE
  8
Cube99
 10
1.059147
 20
-0.002988
 30
-0.969030
 11
1.059146
 21
0.002988
 31
-0.969031
 12
0.936520
 22
-0.050793
 32
-0.861770
 13
0.936520
 23
-0.050793
 33
-0.861770
 62
0
  0
3DFACE
  8
Cube99
 10
1.059147
 20
-0.941750
 30
-0.105377
 11
1.059147
 21
-0.941750
 31
-0.121841
 12
0.698755
 22
-0.870063
 32
-0.121842
 13
0.698755
 23
-0.870063
 33
-0.105377
 62
0
  0
3DFACE
  8
Cube99
 10
0.698753
 20
0.870065
 30
-0.105377
 11
0.698753
 21
0.870065
 31
-0.121841
 12
1.059145
 22
0.941751
 32
-0.121840
 13
1.059145
 23
0.941751
 33
-0.105377
 62
0
  0
3DFACE
  8
Cube99
 10
1.379889
 20
0.830414
 30
-0.058753
 11
1.059145
 21
0.894214
 31
-0.058753
 12
1.059145
 22
0.941751
 32
-0.105377
 13
1.419539
 23
0.870064
 33
-0.105377
 62
0
  0
3DFACE
  8
Cube99
 10
1.059147
 20
-0.941750
 30
-0.105377
 11
1.059147
 21
-0.894211
 31
-0.058752
 12
1.379888
 22
-0.830412
 32
-0.058752
 13
1.419539
 23
-0.870063
 33
-0.105377
 62
0
  0
3DFACE
  8
Cube99
 10
0.698755
 20
-0.870063
 30
-0.105377
 11
0.698755
 21
-0.870063
 31
-0.121842
 12
0.566296
 22
-0.204146
 32
-0.121839
 13
0.566296
 23
-0.204146
 33
-0.105377
 62
0
  0
3DFACE
  8
Cube99
 10
0.566295
 20
0.204147
 30
-0.105377
 11
0.566295
 21
0.204147
 31
-0.121837
 12
0.698753
 22
0.870065
 32
-0.121841
 13
0.698753
 23
0.870065
 33
-0.105377
 62
0
  0
3DFACE
  8
Cube99
 10
1.379889
 20
0.830414
 30
-0.058753
 11
1.419539
 21
0.870064
 31
-0.105377
 12
1.551998
 22
0.204146
 32
-0.105377
 13
1.505372
 23
0.199554
 33
-0.058752
 62
0
  0
3DFACE
  8
Cube99
 10
1.505374
 20
-0.199553
 30
-0.058753
 11
1.551998
 21
-0.204145
 31
-0.105377
 12
1.419539
 22
-0.870063
 32
-0.105377
 13
1.379888
 23
-0.830412
 33
-0.058752
 62
0
  0
3DFACE
  8
Cube99
 10
1.505372
 20
0.199554
 30
-0.058752
 11
1.551998
 21
0.204146
 31
-0.105377
 12
1.551998
 22
-0.204145
 32
-0.105377
 13
1.505374
 23
-0.199553
 33
-0.058753
 62
0
  0
3DFACE
  8
Cube99
 10
0.566296
 20
-0.204146
 30
-0.105377
 11
0.566296
 21
-0.204146
 31
-0.121839
 12
0.566295
 22
0.204147
 32
-0.121837
 13
0.566295
 23
0.204147
 33
-0.105377
 62
0
  0
3DFACE
  8
Cube99
 10
1.059147
 20
-0.941750
 30
-0.105377
 11
0.698755
 21
-0.870063
 31
-0.105377
 12
0.738406
 22
-0.830412
 32
-0.058752
 13
1.059147
 23
-0.894211
 33
-0.058752
 62
0
  0
3DFACE
  8
Cube99
 10
0.698753
 20
0.870065
 30
-0.105377
 11
1.059145
 21
0.941751
 31
-0.105377
 12
1.059145
 22
0.894214
 32
-0.058753
 13
0.738405
 23
0.830414
 33
-0.058752
 62
0
  0
3DFACE
  8
Cube99
 10
1.339799
 20
0.790325
 30
-0.025745
 11
1.059145
 21
0.846150
 31
-0.025745
 12
1.059145
 22
0.894214
 32
-0.058753
 13
1.379889
 23
0.830414
 33
-0.058753
 62
0
  0
3DFACE
  8
Cube99
 10
1.059147
 20
-0.846148
 30
-0.025745
 11
1.339799
 21
-0.790323
 31
-0.025745
 12
1.379888
 22
-0.830412
 32
-0.058752
 13
1.059147
 23
-0.894211
 33
-0.058752
 62
0
  0
3DFACE
  8
Cube99
 10
0.738406
 20
-0.830412
 30
-0.058752
 11
0.698755
 21
-0.870063
 31
-0.105377
 12
0.566296
 22
-0.204146
 32
-0.105377
 13
0.612921
 23
-0.199553
 33
-0.058752
 62
0
  0
3DFACE
  8
Cube99
 10
0.612920
 20
0.199555
 30
-0.058753
 11
0.566295
 21
0.204147
 31
-0.105377
 12
0.698753
 22
0.870065
 32
-0.105377
 13
0.738405
 23
0.830414
 33
-0.058752
 62
0
  0
3DFACE
  8
Cube99
 10
1.505372
 20
0.199554
 30
-0.058752
 11
1.458235
 21
0.194912
 31
-0.025746
 12
1.339799
 22
0.790325
 32
-0.025745
 13
1.379889
 23
0.830414
 33
-0.058753
 62
0
  0
3DFACE
  8
Cube99
 10
1.379888
 20
-0.830412
 30
-0.058752
 11
1.339799
 21
-0.790323
 31
-0.025745
 12
1.458234
 22
-0.194911
 32
-0.025745
 13
1.505374
 23
-0.199553
 33
-0.058753
 62
0
  0
3DFACE
  8
Cube99
 10
1.505372
 20
0.199554
 30
-0.058752
 11
1.505374
 21
-0.199553
 31
-0.058753
 12
1.458234
 22
-0.194911
 32
-0.025745
 13
1.458235
 23
0.194912
 33
-0.025746
 62
0
  0
3DFACE
  8
Cube99
 10
0.612921
 20
-0.199553
 30
-0.058752
 11
0.566296
 21
-0.204146
 31
-0.105377
 12
0.566295
 22
0.204147
 32
-0.105377
 13
0.612920
 23
0.199555
 33
-0.058753
 62
0
  0
3DFACE
  8
Cube99
 10
0.778494
 20
-0.790324
 30
-0.025745
 11
1.059147
 21
-0.846148
 31
-0.025745
 12
1.059147
 22
-0.894211
 32
-0.058752
 13
0.738406
 23
-0.830412
 33
-0.058752
 62
0
  0
3DFACE
  8
Cube99
 10
1.059145
 20
0.846150
 30
-0.025745
 11
0.778493
 21
0.790325
 31
-0.025745
 12
0.738405
 22
0.830414
 32
-0.058752
 13
1.059145
 23
0.894214
 33
-0.058753
 62
0
  0
3DFACE
  8
Cube99
 10
1.059145
 20
0.789859
 30
-0.000000
 11
1.059145
 21
0.846150
 31
-0.025745
 12
1.339799
 22
0.790325
 32
-0.025745
 13
1.292847
 23
0.743373
 33
-0.000000
 62
0
  0
3DFACE
  8
Cube99
 10
1.292848
 20
-0.743372
 30
-0.000000
 11
1.339799
 21
-0.790323
 31
-0.025745
 12
1.059147
 22
-0.846148
 32
-0.025745
 13
1.059147
 23
-0.789858
 33
-0.000000
 62
0
  0
3DFACE
  8
Cube99
 10
0.612921
 20
-0.199553
 30
-0.058752
 11
0.660059
 21
-0.194911
 31
-0.025746
 12
0.778494
 22
-0.790324
 32
-0.025745
 13
0.738406
 23
-0.830412
 33
-0.058752
 62
0
  0
3DFACE
  8
Cube99
 10
0.738405
 20
0.830414
 30
-0.058752
 11
0.778493
 21
0.790325
 31
-0.025745
 12
0.660059
 22
0.194913
 32
-0.025746
 13
0.612920
 23
0.199555
 33
-0.058753
 62
0
  0
3DFACE
  8
Cube99
 10
1.292847
 20
0.743373
 30
-0.000000
 11
1.339799
 21
0.790325
 31
-0.025745
 12
1.458235
 22
0.194912
 32
-0.025746
 13
1.403024
 23
0.189475
 33
-0.000000
 62
0
  0
3DFACE
  8
Cube99
 10
1.403024
 20
-0.189474
 30
-0.000000
 11
1.458234
 21
-0.194911
 31
-0.025745
 12
1.339799
 22
-0.790323
 32
-0.025745
 13
1.292848
 23
-0.743372
 33
-0.000000
 62
0
  0
3DFACE
  8
Cube99
 10
1.403024
 20
0.189475
 30
-0.000000
 11
1.458235
 21
0.194912
 31
-0.025746
 12
1.458234
 22
-0.194911
 32
-0.025745
 13
1.403024
 23
-0.189474
 33
-0.000000
 62
0
  0
3DFACE
  8
Cube99
 10
0.612921
 20
-0.199553
 30
-0.058752
 11
0.612920
 21
0.199555
 31
-0.058753
 12
0.660059
 22
0.194913
 32
-0.025746
 13
0.660059
 23
-0.194911
 33
-0.025746
 62
0
  0
3DFACE
  8
Cube99
 10
0.825445
 20
0.743373
 30
-0.000000
 11
0.778493
 21
0.790325
 31
-0.025745
 12
1.059145
 22
0.846150
 32
-0.025745
 13
1.059145
 23
0.789859
 33
-0.000000
 62
0
  0
3DFACE
  8
Cube99
 10
0.715270
 20
0.189475
 30
-0.000000
 11
0.660059
 21
0.194913
 31
-0.025746
 12
0.778493
 22
0.790325
 32
-0.025745
 13
0.825445
 23
0.743373
 33
-0.000000
 62
0
  0
3DFACE
  8
Cube99
 10
0.825446
 20
-0.743372
 30
-0.000000
 11
0.778494
 21
-0.790324
 31
-0.025745
 12
0.660059
 22
-0.194911
 32
-0.025746
 13
0.715270
 23
-0.189474
 33
-0.000000
 62
0
  0
3DFACE
  8
Cube99
 10
0.715270
 20
-0.189474
 30
-0.000000
 11
0.660059
 21
-0.194911
 31
-0.025746
 12
0.660059
 22
0.194913
 32
-0.025746
 13
0.715270
 23
0.189475
 33
-0.000000
 62
0
  0
3DFACE
  8
Cube99
 10
1.059147
 20
-0.789858
 30
-0.000000
 11
1.059147
 21
-0.846148
 31
-0.025745
 12
0.778494
 22
-0.790324
 32
-0.025745
 13
0.825446
 23
-0.743372
 33
-0.000000
 62
0
  0
3DFACE
  8
Cube99
 10
0.825445
 20
0.743373
 30
-0.000000
 11
0.715270
 21
-0.189474
 31
-0.000000
 12
0.715270
 22
0.189475
 32
-0.000000
 13
0.715270
 23
0.189475
 33
-0.000000
 62
0
  0
3DFACE
  8
Cube99
 10
0.825446
 20
-0.743372
 30
-0.000000
 11
0.715270
 21
-0.189474
 31
-0.000000
 12
0.825445
 22
0.743373
 32
-0.000000
 13
0.825445
 23
0.743373
 33
-0.000000
 62
0
  0
3DFACE
  8
Cube99
 10
1.059145
 20
0.789859
 30
-0.000000
 11
0.825446
 21
-0.743372
 31
-0.000000
 12
0.825445
 22
0.743373
 32
-0.000000
 13
0.825445
 23
0.743373
 33
-0.000000
 62
0
  0
3DFACE
  8
Cube99
 10
1.059147
 20
-0.789858
 30
-0.000000
 11
0.825446
 21
-0.743372
 31
-0.000000
 12
1.059145
 22
0.789859
 32
-0.000000
 13
1.059145
 23
0.789859
 33
-0.000000
 62
0
  0
3DFACE
  8
Cube99
 10
1.292848
 20
-0.743372
 30
-0.000000
 11
1.059147
 21
-0.789858
 31
-0.000000
 12
1.059145
 22
0.789859
 32
-0.000000
 13
1.059145
 23
0.789859
 33
-0.000000
 62
0
  0
3DFACE
  8
Cube99
 10
1.292847
 20
0.743373
 30
-0.000000
 11
1.292848
 21
-0.743372
 31
-0.000000
 12
1.059145
 22
0.789859
 32
-0.000000
 13
1.059145
 23
0.789859
 33
-0.000000
 62
0
  0
3DFACE
  8
Cube99
 10
1.403024
 20
-0.189474
 30
-0.000000
 11
1.292848
 21
-0.743372
 31
-0.000000
 12
1.292847
 22
0.743373
 32
-0.000000
 13
1.292847
 23
0.743373
 33
-0.000000
 62
0
  0
3DFACE
  8
Cube99
 10
1.403024
 20
0.189475
 30
-0.000000
 11
1.403024
 21
-0.189474
 31
-0.000000
 12
1.292847
 22
0.743373
 32
-0.000000
 13
1.292847
 23
0.743373
 33
-0.000000
 62
0
 0
ENDSEC
 0
EOF
