  0
SECTION
  2
HEADER
  0
ENDSEC
  0
SECTION
  2
TABLES
  0
TABLE
  2
LAYER
  70
    153
  0
LAYER
  2
Cube193
 70
0
 62
15
  6
CONTINUOUS
  0
ENDTAB
  0
ENDSEC
  0
SECTION
  2
ENTITIES
  0
3DFACE
  8
Cube193
 10
1.544935
 20
0.018896
 30
-0.487833
 11
1.540968
 21
0.212699
 31
-0.468120
 12
1.057734
 22
0.018896
 32
-0.933564
 13
1.057734
 23
0.018896
 33
-0.933564
 62
0
  0
3DFACE
  8
Cube193
 10
0.090426
 20
0.018898
 30
-0.487831
 11
0.577652
 21
0.018897
 31
-0.933584
 12
0.094395
 22
0.212701
 32
-0.468119
 13
0.094395
 23
0.212701
 33
-0.468119
 62
0
  0
3DFACE
  8
Cube193
 10
0.052335
 20
0.460771
 30
-0.269015
 11
0.134312
 21
0.702265
 31
-0.269015
 12
0.134312
 22
0.702265
 32
-0.256201
 13
0.052335
 23
0.460771
 33
-0.256201
 62
0
  0
3DFACE
  8
Cube193
 10
0.134312
 20
0.702265
 30
-0.269015
 11
0.375810
 21
0.784243
 31
-0.269015
 12
0.375810
 22
0.784243
 32
-0.256201
 13
0.134312
 23
0.702265
 33
-0.256201
 62
0
  0
3DFACE
  8
Cube193
 10
0.407636
 20
0.729118
 30
-0.402897
 11
0.375810
 21
0.784243
 31
-0.269015
 12
0.134312
 22
0.702265
 32
-0.269015
 13
0.134312
 23
0.702265
 33
-0.269015
 62
0
  0
3DFACE
  8
Cube193
 10
1.259555
 20
0.784242
 30
-0.269013
 11
1.501051
 21
0.702265
 31
-0.269015
 12
1.501051
 22
0.702265
 32
-0.256202
 13
1.259555
 23
0.784242
 33
-0.256203
 62
0
  0
3DFACE
  8
Cube193
 10
1.259555
 20
0.784242
 30
-0.269013
 11
1.227728
 21
0.729116
 31
-0.402897
 12
1.501051
 22
0.702265
 32
-0.269015
 13
1.501051
 23
0.702265
 33
-0.269015
 62
0
  0
3DFACE
  8
Cube193
 10
1.501051
 20
0.702265
 30
-0.269015
 11
1.583028
 21
0.460768
 31
-0.269016
 12
1.583028
 22
0.460768
 32
-0.256202
 13
1.501051
 23
0.702265
 33
-0.256202
 62
0
  0
3DFACE
  8
Cube193
 10
1.583027
 20
-0.422977
 30
-0.269017
 11
1.527904
 21
-0.391151
 31
-0.402895
 12
1.501050
 22
-0.664473
 32
-0.269015
 13
1.501050
 23
-0.664473
 33
-0.269015
 62
0
  0
3DFACE
  8
Cube193
 10
0.107459
 20
-0.391150
 30
-0.402894
 11
0.052335
 21
-0.422976
 31
-0.269016
 12
0.134312
 22
-0.664472
 32
-0.269015
 13
0.134312
 23
-0.664472
 33
-0.269015
 62
0
  0
3DFACE
  8
Cube193
 10
0.007617
 20
0.235953
 30
-0.269017
 11
0.052335
 21
0.460771
 31
-0.269015
 12
0.052335
 22
0.460771
 32
-0.256201
 13
0.007617
 23
0.235953
 33
-0.256200
 62
0
  0
3DFACE
  8
Cube193
 10
0.052335
 20
0.460771
 30
-0.269015
 11
0.107460
 21
0.428945
 31
-0.402895
 12
0.134312
 22
0.702265
 32
-0.269015
 13
0.134312
 23
0.702265
 33
-0.269015
 62
0
  0
3DFACE
  8
Cube193
 10
0.375810
 20
0.784243
 30
-0.269015
 11
0.600625
 21
0.828961
 31
-0.269014
 12
0.600625
 22
0.828961
 32
-0.256202
 13
0.375810
 23
0.784243
 33
-0.256201
 62
0
  0
3DFACE
  8
Cube193
 10
0.600625
 20
0.828961
 30
-0.269014
 11
0.375810
 21
0.784243
 31
-0.269015
 12
0.407636
 22
0.729118
 32
-0.402897
 13
0.623878
 23
0.742181
 33
-0.468121
 62
0
  0
3DFACE
  8
Cube193
 10
1.034738
 20
0.828960
 30
-0.269015
 11
1.259555
 21
0.784242
 31
-0.269013
 12
1.259555
 22
0.784242
 32
-0.256203
 13
1.034738
 23
0.828960
 33
-0.256202
 62
0
  0
3DFACE
  8
Cube193
 10
1.011485
 20
0.742180
 30
-0.468121
 11
1.227728
 21
0.729116
 31
-0.402897
 12
1.259555
 22
0.784242
 32
-0.269013
 13
1.034738
 23
0.828960
 33
-0.269015
 62
0
  0
3DFACE
  8
Cube193
 10
1.527903
 20
0.428942
 30
-0.402896
 11
1.583028
 21
0.460768
 31
-0.269016
 12
1.501051
 22
0.702265
 32
-0.269015
 13
1.501051
 23
0.702265
 33
-0.269015
 62
0
  0
3DFACE
  8
Cube193
 10
1.583028
 20
0.460768
 30
-0.269016
 11
1.627747
 21
0.235951
 31
-0.269016
 12
1.627747
 22
0.235951
 32
-0.256203
 13
1.583028
 23
0.460768
 33
-0.256202
 62
0
  0
3DFACE
  8
Cube193
 10
1.527904
 20
-0.391151
 30
-0.402895
 11
1.540968
 21
-0.174908
 31
-0.468119
 12
1.025554
 22
-0.101119
 32
-0.933584
 13
1.025554
 23
-0.101119
 33
-0.933584
 62
0
  0
3DFACE
  8
Cube193
 10
1.540968
 20
-0.174908
 30
-0.468119
 11
1.527904
 21
-0.391151
 31
-0.402895
 12
1.583027
 22
-0.422977
 32
-0.269017
 13
1.627746
 23
-0.198160
 33
-0.269018
 62
0
  0
3DFACE
  8
Cube193
 10
1.227730
 20
-0.691328
 30
-0.402893
 11
1.259555
 21
-0.746450
 31
-0.269018
 12
1.501050
 22
-0.664473
 32
-0.269015
 13
1.501050
 23
-0.664473
 33
-0.269015
 62
0
  0
3DFACE
  8
Cube193
 10
0.375808
 20
-0.746449
 30
-0.269019
 11
0.407633
 21
-0.691327
 31
-0.402893
 12
0.134312
 22
-0.664472
 32
-0.269015
 13
0.134312
 23
-0.664472
 33
-0.269015
 62
0
  0
3DFACE
  8
Cube193
 10
0.094393
 20
-0.174907
 30
-0.468117
 11
0.107459
 21
-0.391150
 31
-0.402894
 12
0.609831
 22
-0.101106
 32
-0.933607
 13
0.609831
 23
-0.101106
 33
-0.933607
 62
0
  0
3DFACE
  8
Cube193
 10
0.007616
 20
-0.198159
 30
-0.269018
 11
0.052335
 21
-0.422976
 31
-0.269016
 12
0.107459
 22
-0.391150
 32
-0.402894
 13
0.094393
 23
-0.174907
 33
-0.468117
 62
0
  0
3DFACE
  8
Cube193
 10
-0.006610
 20
0.018898
 30
-0.269017
 11
0.007617
 21
0.235953
 31
-0.269017
 12
0.007617
 22
0.235953
 32
-0.256200
 13
-0.006610
 23
0.018898
 33
-0.256200
 62
0
  0
3DFACE
  8
Cube193
 10
0.094395
 20
0.212701
 30
-0.468119
 11
0.107460
 21
0.428945
 31
-0.402895
 12
0.052335
 22
0.460771
 32
-0.269015
 13
0.007617
 23
0.235953
 33
-0.269017
 62
0
  0
3DFACE
  8
Cube193
 10
0.600625
 20
0.828961
 30
-0.269014
 11
0.817682
 21
0.843187
 31
-0.269015
 12
0.817682
 22
0.843187
 32
-0.256201
 13
0.600625
 23
0.828961
 33
-0.256202
 62
0
  0
3DFACE
  8
Cube193
 10
0.817682
 20
0.843187
 30
-0.269015
 11
0.600625
 21
0.828961
 31
-0.269014
 12
0.623878
 22
0.742181
 32
-0.468121
 13
0.817682
 23
0.746149
 33
-0.487833
 62
0
  0
3DFACE
  8
Cube193
 10
0.817682
 20
0.843187
 30
-0.269015
 11
1.034738
 21
0.828960
 31
-0.269015
 12
1.034738
 22
0.828960
 32
-0.256202
 13
0.817682
 23
0.843187
 33
-0.256201
 62
0
  0
3DFACE
  8
Cube193
 10
0.817682
 20
0.843187
 30
-0.269015
 11
0.817682
 21
0.746149
 31
-0.487833
 12
1.011485
 22
0.742180
 32
-0.468121
 13
1.034738
 23
0.828960
 33
-0.269015
 62
0
  0
3DFACE
  8
Cube193
 10
1.627747
 20
0.235951
 30
-0.269016
 11
1.583028
 21
0.460768
 31
-0.269016
 12
1.527903
 22
0.428942
 32
-0.402896
 13
1.540968
 23
0.212699
 33
-0.468120
 62
0
  0
3DFACE
  8
Cube193
 10
1.627747
 20
0.235951
 30
-0.269016
 11
1.641973
 21
0.018895
 31
-0.269013
 12
1.641973
 22
0.018895
 32
-0.256203
 13
1.627747
 23
0.235951
 33
-0.256203
 62
0
  0
3DFACE
  8
Cube193
 10
1.641973
 20
0.018895
 30
-0.269013
 11
1.627747
 21
0.235951
 31
-0.269016
 12
1.540968
 22
0.212699
 32
-0.468120
 13
1.544935
 23
0.018896
 33
-0.487833
 62
0
  0
3DFACE
  8
Cube193
 10
1.544935
 20
0.018896
 30
-0.487833
 11
1.540968
 21
-0.174908
 31
-0.468119
 12
1.627746
 22
-0.198160
 32
-0.269018
 13
1.641973
 23
0.018895
 33
-0.269013
 62
0
  0
3DFACE
  8
Cube193
 10
0.817681
 20
-0.708361
 30
-0.487830
 11
1.011486
 21
-0.704392
 31
-0.468117
 12
0.817682
 22
-0.221100
 32
-0.933615
 13
0.817682
 23
-0.221100
 33
-0.933615
 62
0
  0
3DFACE
  8
Cube193
 10
1.034738
 20
-0.791169
 30
-0.269019
 11
1.259555
 21
-0.746450
 31
-0.269018
 12
1.227730
 22
-0.691328
 32
-0.402893
 13
1.011486
 23
-0.704392
 33
-0.468117
 62
0
  0
3DFACE
  8
Cube193
 10
0.623876
 20
-0.704393
 30
-0.468116
 11
0.407633
 21
-0.691327
 31
-0.402893
 12
0.375808
 22
-0.746449
 32
-0.269019
 13
0.600625
 23
-0.791169
 33
-0.269019
 62
0
  0
3DFACE
  8
Cube193
 10
0.817681
 20
-0.805396
 30
-0.269016
 11
1.034738
 21
-0.791169
 31
-0.269019
 12
1.011486
 22
-0.704392
 32
-0.468117
 13
0.817681
 23
-0.708361
 33
-0.487830
 62
0
  0
3DFACE
  8
Cube193
 10
0.623876
 20
-0.704393
 30
-0.468116
 11
0.817681
 21
-0.708361
 31
-0.487830
 12
0.817682
 22
-0.221100
 32
-0.933615
 13
0.817682
 23
-0.221100
 33
-0.933615
 62
0
  0
3DFACE
  8
Cube193
 10
0.623876
 20
-0.704393
 30
-0.468116
 11
0.600625
 21
-0.791169
 31
-0.269019
 12
0.817681
 22
-0.805396
 32
-0.269016
 13
0.817681
 23
-0.708361
 33
-0.487830
 62
0
  0
3DFACE
  8
Cube193
 10
0.090426
 20
0.018898
 30
-0.487831
 11
0.094395
 21
0.212701
 31
-0.468119
 12
0.007617
 22
0.235953
 32
-0.269017
 13
-0.006610
 23
0.018898
 33
-0.269017
 62
0
  0
3DFACE
  8
Cube193
 10
0.090426
 20
0.018898
 30
-0.487831
 11
-0.006610
 21
0.018898
 31
-0.269017
 12
0.007616
 22
-0.198159
 32
-0.269018
 13
0.094393
 23
-0.174907
 33
-0.468117
 62
0
  0
3DFACE
  8
Cube193
 10
0.107460
 20
0.428945
 30
-0.402895
 11
0.094395
 21
0.212701
 31
-0.468119
 12
0.609812
 22
0.138911
 32
-0.933586
 13
0.609812
 23
0.138911
 33
-0.933586
 62
0
  0
3DFACE
  8
Cube193
 10
0.134312
 20
0.702265
 30
-0.269015
 11
0.107460
 21
0.428945
 31
-0.402895
 12
0.609812
 22
0.138911
 32
-0.933586
 13
0.609812
 23
0.138911
 33
-0.933586
 62
0
  0
3DFACE
  8
Cube193
 10
0.407636
 20
0.729118
 30
-0.402897
 11
0.697647
 21
0.226804
 31
-0.933547
 12
0.623878
 22
0.742181
 32
-0.468121
 13
0.623878
 23
0.742181
 33
-0.468121
 62
0
  0
3DFACE
  8
Cube193
 10
1.227728
 20
0.729116
 30
-0.402897
 11
1.011485
 21
0.742180
 31
-0.468121
 12
0.937714
 22
0.226797
 32
-0.933554
 13
0.937714
 23
0.226797
 33
-0.933554
 62
0
  0
3DFACE
  8
Cube193
 10
0.817682
 20
0.746149
 30
-0.487833
 11
0.623878
 21
0.742181
 31
-0.468121
 12
0.817682
 22
0.258963
 32
-0.933551
 13
0.817682
 23
0.258963
 33
-0.933551
 62
0
  0
3DFACE
  8
Cube193
 10
0.817682
 20
0.746149
 30
-0.487833
 11
0.817682
 21
0.258963
 31
-0.933551
 12
1.011485
 22
0.742180
 32
-0.468121
 13
1.011485
 23
0.742180
 33
-0.468121
 62
0
  0
3DFACE
  8
Cube193
 10
1.025574
 20
0.138923
 30
-0.933563
 11
1.527903
 21
0.428942
 31
-0.402896
 12
1.501051
 22
0.702265
 32
-0.269015
 13
1.501051
 23
0.702265
 33
-0.269015
 62
0
  0
3DFACE
  8
Cube193
 10
1.527903
 20
0.428942
 30
-0.402896
 11
1.025574
 21
0.138923
 31
-0.933563
 12
1.540968
 22
0.212699
 32
-0.468120
 13
1.540968
 23
0.212699
 33
-0.468120
 62
0
  0
3DFACE
  8
Cube193
 10
1.544935
 20
0.018896
 30
-0.487833
 11
1.057734
 21
0.018896
 31
-0.933564
 12
1.540968
 22
-0.174908
 32
-0.468119
 13
1.540968
 23
-0.174908
 33
-0.468119
 62
0
  0
3DFACE
  8
Cube193
 10
0.824110
 20
0.025331
 30
-1.135248
 11
0.817678
 21
0.018900
 31
-1.142340
 12
1.057734
 22
0.018896
 32
-0.933564
 13
1.057734
 23
0.018896
 33
-0.933564
 62
0
  0
3DFACE
  8
Cube193
 10
1.025574
 20
0.138923
 30
-0.933563
 11
0.824110
 21
0.025331
 31
-1.135248
 12
1.057734
 22
0.018896
 32
-0.933564
 13
1.057734
 23
0.018896
 33
-0.933564
 62
0
  0
3DFACE
  8
Cube193
 10
1.540968
 20
0.212699
 30
-0.468120
 11
1.025574
 21
0.138923
 31
-0.933563
 12
1.057734
 22
0.018896
 32
-0.933564
 13
1.057734
 23
0.018896
 33
-0.933564
 62
0
  0
3DFACE
  8
Cube193
 10
0.937680
 20
-0.188947
 30
-0.933615
 11
1.227730
 21
-0.691328
 31
-0.402893
 12
1.501050
 22
-0.664473
 32
-0.269015
 13
1.501050
 23
-0.664473
 33
-0.269015
 62
0
  0
3DFACE
  8
Cube193
 10
1.227730
 20
-0.691328
 30
-0.402893
 11
0.937680
 21
-0.188947
 31
-0.933615
 12
1.011486
 22
-0.704392
 32
-0.468117
 13
1.011486
 23
-0.704392
 33
-0.468117
 62
0
  0
3DFACE
  8
Cube193
 10
0.697686
 20
-0.188943
 30
-0.933619
 11
0.407633
 21
-0.691327
 31
-0.402893
 12
0.623876
 22
-0.704393
 32
-0.468116
 13
0.623876
 23
-0.704393
 33
-0.468116
 62
0
  0
3DFACE
  8
Cube193
 10
0.134312
 20
-0.664472
 30
-0.269015
 11
0.407633
 21
-0.691327
 31
-0.402893
 12
0.697686
 22
-0.188943
 32
-0.933619
 13
0.697686
 23
-0.188943
 33
-0.933619
 62
0
  0
3DFACE
  8
Cube193
 10
0.937680
 20
-0.188947
 30
-0.933615
 11
0.817682
 21
-0.221100
 31
-0.933615
 12
1.011486
 22
-0.704392
 32
-0.468117
 13
1.011486
 23
-0.704392
 33
-0.468117
 62
0
  0
3DFACE
  8
Cube193
 10
0.824140
 20
0.012438
 30
-1.135216
 11
0.817682
 21
-0.221100
 31
-0.933615
 12
0.937680
 22
-0.188947
 32
-0.933615
 13
0.937680
 23
-0.188947
 33
-0.933615
 62
0
  0
3DFACE
  8
Cube193
 10
0.817678
 20
0.018900
 30
-1.142340
 11
0.817682
 21
-0.221100
 31
-0.933615
 12
0.824140
 22
0.012438
 32
-1.135216
 13
0.824140
 23
0.012438
 33
-1.135216
 62
0
  0
3DFACE
  8
Cube193
 10
0.577652
 20
0.018897
 30
-0.933584
 11
0.090426
 21
0.018898
 31
-0.487831
 12
0.094393
 22
-0.174907
 32
-0.468117
 13
0.094393
 23
-0.174907
 33
-0.468117
 62
0
  0
3DFACE
  8
Cube193
 10
0.697686
 20
-0.188943
 30
-0.933619
 11
0.623876
 21
-0.704393
 31
-0.468116
 12
0.817682
 22
-0.221100
 32
-0.933615
 13
0.817682
 23
-0.221100
 33
-0.933615
 62
0
  0
3DFACE
  8
Cube193
 10
0.811235
 20
0.012456
 30
-1.135235
 11
0.697686
 21
-0.188943
 31
-0.933619
 12
0.817682
 22
-0.221100
 32
-0.933615
 13
0.817682
 23
-0.221100
 33
-0.933615
 62
0
  0
3DFACE
  8
Cube193
 10
0.817678
 20
0.018900
 30
-1.142340
 11
0.811235
 21
0.012456
 31
-1.135235
 12
0.817682
 22
-0.221100
 32
-0.933615
 13
0.817682
 23
-0.221100
 33
-0.933615
 62
0
  0
3DFACE
  8
Cube193
 10
0.811266
 20
0.025312
 30
-1.135269
 11
0.577652
 21
0.018897
 31
-0.933584
 12
0.817678
 22
0.018900
 32
-1.142340
 13
0.817678
 23
0.018900
 33
-1.142340
 62
0
  0
3DFACE
  8
Cube193
 10
0.609812
 20
0.138911
 30
-0.933586
 11
0.577652
 21
0.018897
 31
-0.933584
 12
0.811266
 22
0.025312
 32
-1.135269
 13
0.811266
 23
0.025312
 33
-1.135269
 62
0
  0
3DFACE
  8
Cube193
 10
0.094395
 20
0.212701
 30
-0.468119
 11
0.577652
 21
0.018897
 31
-0.933584
 12
0.609812
 22
0.138911
 32
-0.933586
 13
0.609812
 23
0.138911
 33
-0.933586
 62
0
  0
3DFACE
  8
Cube193
 10
0.697647
 20
0.226804
 30
-0.933547
 11
0.811266
 21
0.025312
 31
-1.135269
 12
0.817678
 22
0.018900
 32
-1.142340
 13
0.817678
 23
0.018900
 33
-1.142340
 62
0
  0
3DFACE
  8
Cube193
 10
0.817682
 20
0.258963
 30
-0.933551
 11
0.697647
 21
0.226804
 31
-0.933547
 12
0.817678
 22
0.018900
 32
-1.142340
 13
0.817678
 23
0.018900
 33
-1.142340
 62
0
  0
3DFACE
  8
Cube193
 10
0.623878
 20
0.742181
 30
-0.468121
 11
0.697647
 21
0.226804
 31
-0.933547
 12
0.817682
 22
0.258963
 32
-0.933551
 13
0.817682
 23
0.258963
 33
-0.933551
 62
0
  0
3DFACE
  8
Cube193
 10
0.697647
 20
0.226804
 30
-0.933547
 11
0.407636
 21
0.729118
 31
-0.402897
 12
0.134312
 22
0.702265
 32
-0.269015
 13
0.134312
 23
0.702265
 33
-0.269015
 62
0
  0
3DFACE
  8
Cube193
 10
0.937714
 20
0.226797
 30
-0.933554
 11
0.817678
 21
0.018900
 31
-1.142340
 12
0.824110
 22
0.025331
 32
-1.135248
 13
0.824110
 23
0.025331
 33
-1.135248
 62
0
  0
3DFACE
  8
Cube193
 10
0.817682
 20
0.258963
 30
-0.933551
 11
0.817678
 21
0.018900
 31
-1.142340
 12
0.937714
 22
0.226797
 32
-0.933554
 13
0.937714
 23
0.226797
 33
-0.933554
 62
0
  0
3DFACE
  8
Cube193
 10
1.011485
 20
0.742180
 30
-0.468121
 11
0.817682
 21
0.258963
 31
-0.933551
 12
0.937714
 22
0.226797
 32
-0.933554
 13
0.937714
 23
0.226797
 33
-0.933554
 62
0
  0
3DFACE
  8
Cube193
 10
0.609812
 20
0.138911
 30
-0.933586
 11
0.811266
 21
0.025312
 31
-1.135269
 12
0.697647
 22
0.226804
 32
-0.933547
 13
0.134312
 23
0.702265
 33
-0.269015
 62
0
  0
3DFACE
  8
Cube193
 10
1.501051
 20
0.702265
 30
-0.269015
 11
1.227728
 21
0.729116
 31
-0.402897
 12
0.937714
 22
0.226797
 32
-0.933554
 13
0.937714
 23
0.226797
 33
-0.933554
 62
0
  0
3DFACE
  8
Cube193
 10
1.501050
 20
-0.664473
 30
-0.269015
 11
1.527904
 21
-0.391151
 31
-0.402895
 12
1.025554
 22
-0.101119
 32
-0.933584
 13
1.025554
 23
-0.101119
 33
-0.933584
 62
0
  0
3DFACE
  8
Cube193
 10
1.025574
 20
0.138923
 30
-0.933563
 11
1.501051
 21
0.702265
 31
-0.269015
 12
0.937714
 22
0.226797
 32
-0.933554
 13
0.824110
 23
0.025331
 33
-1.135248
 62
0
  0
3DFACE
  8
Cube193
 10
0.824140
 20
0.012438
 30
-1.135216
 11
1.025554
 21
-0.101119
 31
-0.933584
 12
1.540968
 22
-0.174908
 32
-0.468119
 13
1.540968
 23
-0.174908
 33
-0.468119
 62
0
  0
3DFACE
  8
Cube193
 10
1.057734
 20
0.018896
 30
-0.933564
 11
0.824140
 21
0.012438
 31
-1.135216
 12
1.540968
 22
-0.174908
 32
-0.468119
 13
1.540968
 23
-0.174908
 33
-0.468119
 62
0
  0
3DFACE
  8
Cube193
 10
0.817678
 20
0.018900
 30
-1.142340
 11
0.824140
 21
0.012438
 31
-1.135216
 12
1.057734
 22
0.018896
 32
-0.933564
 13
1.057734
 23
0.018896
 33
-0.933564
 62
0
  0
3DFACE
  8
Cube193
 10
0.609831
 20
-0.101106
 30
-0.933607
 11
0.107459
 21
-0.391150
 31
-0.402894
 12
0.134312
 22
-0.664472
 32
-0.269015
 13
0.134312
 23
-0.664472
 33
-0.269015
 62
0
  0
3DFACE
  8
Cube193
 10
0.937680
 20
-0.188947
 30
-0.933615
 11
1.501050
 21
-0.664473
 31
-0.269015
 12
1.025554
 22
-0.101119
 32
-0.933584
 13
0.824140
 23
0.012438
 33
-1.135216
 62
0
  0
3DFACE
  8
Cube193
 10
0.811235
 20
0.012456
 30
-1.135235
 11
0.094393
 21
-0.174907
 31
-0.468117
 12
0.609831
 22
-0.101106
 32
-0.933607
 13
0.609831
 23
-0.101106
 33
-0.933607
 62
0
  0
3DFACE
  8
Cube193
 10
0.577652
 20
0.018897
 30
-0.933584
 11
0.094393
 21
-0.174907
 31
-0.468117
 12
0.811235
 22
0.012456
 32
-1.135235
 13
0.811235
 23
0.012456
 33
-1.135235
 62
0
  0
3DFACE
  8
Cube193
 10
0.817678
 20
0.018900
 30
-1.142340
 11
0.577652
 21
0.018897
 31
-0.933584
 12
0.811235
 22
0.012456
 32
-1.135235
 13
0.811235
 23
0.012456
 33
-1.135235
 62
0
  0
3DFACE
  8
Cube193
 10
0.697686
 20
-0.188943
 30
-0.933619
 11
0.811235
 21
0.012456
 31
-1.135235
 12
0.609831
 22
-0.101106
 32
-0.933607
 13
0.134312
 23
-0.664472
 33
-0.269015
 62
0
  0
3DFACE
  8
Cube193
 10
0.129967
 20
0.439969
 30
-0.160624
 11
0.052335
 21
0.460771
 31
-0.256201
 12
0.134312
 22
0.702265
 32
-0.256201
 13
0.197541
 23
0.639036
 33
-0.160624
 62
0
  0
3DFACE
  8
Cube193
 10
1.583027
 20
-0.422977
 30
-0.269017
 11
1.501050
 21
-0.664473
 31
-0.269015
 12
1.501050
 22
-0.664473
 32
-0.256201
 13
1.583027
 23
-0.422977
 33
-0.256201
 62
0
  0
3DFACE
  8
Cube193
 10
1.501050
 20
-0.664473
 30
-0.269015
 11
1.259555
 21
-0.746450
 31
-0.269018
 12
1.259555
 22
-0.746450
 32
-0.256200
 13
1.501050
 23
-0.664473
 33
-0.256201
 62
0
  0
3DFACE
  8
Cube193
 10
0.375808
 20
-0.746449
 30
-0.269019
 11
0.134312
 21
-0.664472
 31
-0.269015
 12
0.134312
 22
-0.664472
 32
-0.256199
 13
0.375808
 23
-0.746449
 33
-0.256199
 62
0
  0
3DFACE
  8
Cube193
 10
0.134312
 20
-0.664472
 30
-0.269015
 11
0.052335
 21
-0.422976
 31
-0.269016
 12
0.052335
 22
-0.422976
 32
-0.256199
 13
0.134312
 23
-0.664472
 33
-0.256199
 62
0
  0
3DFACE
  8
Cube193
 10
0.197541
 20
0.639036
 30
-0.160624
 11
0.134312
 21
0.702265
 31
-0.256201
 12
0.375810
 22
0.784243
 32
-0.256201
 13
0.396610
 23
0.706611
 33
-0.160625
 62
0
  0
3DFACE
  8
Cube193
 10
1.238755
 20
0.706610
 30
-0.160625
 11
1.259555
 21
0.784242
 31
-0.256203
 12
1.501051
 22
0.702265
 32
-0.256202
 13
1.437822
 23
0.639035
 33
-0.160625
 62
0
  0
3DFACE
  8
Cube193
 10
1.627746
 20
-0.198160
 30
-0.269018
 11
1.583027
 21
-0.422977
 31
-0.269017
 12
1.583027
 22
-0.422977
 32
-0.256201
 13
1.627746
 23
-0.198160
 33
-0.256202
 62
0
  0
3DFACE
  8
Cube193
 10
1.259555
 20
-0.746450
 30
-0.269018
 11
1.034738
 21
-0.791169
 31
-0.269019
 12
1.034738
 22
-0.791169
 32
-0.256201
 13
1.259555
 23
-0.746450
 33
-0.256200
 62
0
  0
3DFACE
  8
Cube193
 10
0.600625
 20
-0.791169
 30
-0.269019
 11
0.375808
 21
-0.746449
 31
-0.269019
 12
0.375808
 22
-0.746449
 32
-0.256199
 13
0.600625
 23
-0.791169
 33
-0.256202
 62
0
  0
3DFACE
  8
Cube193
 10
0.052335
 20
-0.422976
 30
-0.269016
 11
0.007616
 21
-0.198159
 31
-0.269018
 12
0.007616
 22
-0.198159
 32
-0.256200
 13
0.052335
 23
-0.422976
 33
-0.256199
 62
0
  0
3DFACE
  8
Cube193
 10
0.396610
 20
0.706611
 30
-0.160625
 11
0.375810
 21
0.784243
 31
-0.256201
 12
0.600625
 22
0.828961
 32
-0.256202
 13
0.611115
 23
0.749277
 33
-0.160624
 62
0
  0
3DFACE
  8
Cube193
 10
0.611115
 20
0.749277
 30
-0.160624
 11
0.600625
 21
0.828961
 31
-0.256202
 12
0.817682
 22
0.843187
 32
-0.256201
 13
0.817682
 23
0.762817
 33
-0.160625
 62
0
  0
3DFACE
  8
Cube193
 10
1.024247
 20
0.749276
 30
-0.160623
 11
1.034738
 21
0.828960
 31
-0.256202
 12
1.259555
 22
0.784242
 32
-0.256203
 13
1.238755
 23
0.706610
 33
-0.160625
 62
0
  0
3DFACE
  8
Cube193
 10
0.817682
 20
0.762817
 30
-0.160625
 11
0.817682
 21
0.843187
 31
-0.256201
 12
1.034738
 22
0.828960
 32
-0.256202
 13
1.024247
 23
0.749276
 33
-0.160623
 62
0
  0
3DFACE
  8
Cube193
 10
1.641973
 20
0.018895
 30
-0.269013
 11
1.627746
 21
-0.198160
 31
-0.269018
 12
1.627746
 22
-0.198160
 32
-0.256202
 13
1.641973
 23
0.018895
 33
-0.256203
 62
0
  0
3DFACE
  8
Cube193
 10
1.034738
 20
-0.791169
 30
-0.269019
 11
0.817681
 21
-0.805396
 31
-0.269016
 12
0.817681
 22
-0.805396
 32
-0.256202
 13
1.034738
 23
-0.791169
 33
-0.256201
 62
0
  0
3DFACE
  8
Cube193
 10
0.817681
 20
-0.805396
 30
-0.269016
 11
0.600625
 21
-0.791169
 31
-0.269019
 12
0.600625
 22
-0.791169
 32
-0.256202
 13
0.817681
 23
-0.805396
 33
-0.256202
 62
0
  0
3DFACE
  8
Cube193
 10
0.007616
 20
-0.198159
 30
-0.269018
 11
-0.006610
 21
0.018898
 31
-0.269017
 12
-0.006610
 22
0.018898
 32
-0.256200
 13
0.007616
 23
-0.198159
 33
-0.256200
 62
0
  0
3DFACE
  8
Cube193
 10
0.087299
 20
0.225463
 30
-0.160624
 11
0.007617
 21
0.235953
 31
-0.256200
 12
0.052335
 22
0.460771
 32
-0.256201
 13
0.129967
 23
0.439969
 33
-0.160624
 62
0
  0
3DFACE
  8
Cube193
 10
0.267575
 20
0.569002
 30
-0.086088
 11
0.215953
 21
0.416929
 31
-0.086088
 12
0.129967
 22
0.439969
 32
-0.160624
 13
0.197541
 23
0.639036
 33
-0.160624
 62
0
  0
3DFACE
  8
Cube193
 10
1.437822
 20
0.639035
 30
-0.160625
 11
1.501051
 21
0.702265
 31
-0.256202
 12
1.583028
 22
0.460768
 32
-0.256202
 13
1.505395
 23
0.439968
 33
-0.160625
 62
0
  0
3DFACE
  8
Cube193
 10
1.505395
 20
0.439968
 30
-0.160625
 11
1.583028
 21
0.460768
 31
-0.256202
 12
1.627747
 22
0.235951
 32
-0.256203
 13
1.548060
 23
0.225460
 33
-0.160622
 62
0
  0
3DFACE
  8
Cube193
 10
1.505395
 20
-0.402176
 30
-0.160625
 11
1.583027
 21
-0.422977
 31
-0.256201
 12
1.501050
 22
-0.664473
 32
-0.256201
 13
1.437821
 23
-0.601244
 33
-0.160624
 62
0
  0
3DFACE
  8
Cube193
 10
1.437821
 20
-0.601244
 30
-0.160624
 11
1.501050
 21
-0.664473
 31
-0.256201
 12
1.259555
 22
-0.746450
 32
-0.256200
 13
1.238754
 23
-0.668819
 33
-0.160625
 62
0
  0
3DFACE
  8
Cube193
 10
0.396609
 20
-0.668819
 30
-0.160625
 11
0.375808
 21
-0.746449
 31
-0.256199
 12
0.134312
 22
-0.664472
 32
-0.256199
 13
0.197540
 23
-0.601244
 33
-0.160625
 62
0
  0
3DFACE
  8
Cube193
 10
0.197540
 20
-0.601244
 30
-0.160625
 11
0.134312
 21
-0.664472
 31
-0.256199
 12
0.052335
 22
-0.422976
 32
-0.256199
 13
0.129965
 23
-0.402175
 33
-0.160625
 62
0
  0
3DFACE
  8
Cube193
 10
0.073760
 20
0.018898
 30
-0.160624
 11
-0.006610
 21
0.018898
 31
-0.256200
 12
0.007617
 22
0.235953
 32
-0.256200
 13
0.087299
 23
0.225463
 33
-0.160624
 62
0
  0
3DFACE
  8
Cube193
 10
0.419650
 20
0.620625
 30
-0.086089
 11
0.267575
 21
0.569002
 31
-0.086088
 12
0.197541
 22
0.639036
 32
-0.160624
 13
0.396610
 23
0.706611
 33
-0.160625
 62
0
  0
3DFACE
  8
Cube193
 10
1.367786
 20
0.569001
 30
-0.086088
 11
1.215714
 21
0.620622
 31
-0.086088
 12
1.238755
 22
0.706610
 32
-0.160625
 13
1.437822
 23
0.639035
 33
-0.160625
 62
0
  0
3DFACE
  8
Cube193
 10
1.548060
 20
0.225460
 30
-0.160622
 11
1.627747
 21
0.235951
 31
-0.256203
 12
1.641973
 22
0.018895
 32
-0.256203
 13
1.561597
 23
0.018896
 33
-0.160621
 62
0
  0
3DFACE
  8
Cube193
 10
1.548061
 20
-0.187667
 30
-0.160622
 11
1.627746
 21
-0.198160
 31
-0.256202
 12
1.583027
 22
-0.422977
 32
-0.256201
 13
1.505395
 23
-0.402176
 33
-0.160625
 62
0
  0
3DFACE
  8
Cube193
 10
1.238754
 20
-0.668819
 30
-0.160625
 11
1.259555
 21
-0.746450
 31
-0.256200
 12
1.034738
 22
-0.791169
 32
-0.256201
 13
1.024244
 23
-0.711485
 33
-0.160623
 62
0
  0
3DFACE
  8
Cube193
 10
0.611118
 20
-0.711485
 30
-0.160623
 11
0.600625
 21
-0.791169
 31
-0.256202
 12
0.375808
 22
-0.746449
 32
-0.256199
 13
0.396609
 23
-0.668819
 33
-0.160625
 62
0
  0
3DFACE
  8
Cube193
 10
0.129965
 20
-0.402175
 30
-0.160625
 11
0.052335
 21
-0.422976
 31
-0.256199
 12
0.007616
 22
-0.198159
 32
-0.256200
 13
0.087298
 23
-0.187666
 33
-0.160624
 62
0
  0
3DFACE
  8
Cube193
 10
0.622735
 20
0.661021
 30
-0.086089
 11
0.419650
 21
0.620625
 31
-0.086089
 12
0.396610
 22
0.706611
 32
-0.160625
 13
0.611115
 23
0.749277
 33
-0.160624
 62
0
  0
3DFACE
  8
Cube193
 10
0.817681
 20
0.673799
 30
-0.086089
 11
0.622735
 21
0.661021
 31
-0.086089
 12
0.611115
 22
0.749277
 32
-0.160624
 13
0.817682
 23
0.762817
 33
-0.160625
 62
0
  0
3DFACE
  8
Cube193
 10
1.215714
 20
0.620622
 30
-0.086088
 11
1.012628
 21
0.661019
 31
-0.086088
 12
1.024247
 22
0.749276
 32
-0.160623
 13
1.238755
 23
0.706610
 33
-0.160625
 62
0
  0
3DFACE
  8
Cube193
 10
1.012628
 20
0.661019
 30
-0.086088
 11
0.817681
 21
0.673799
 31
-0.086089
 12
0.817682
 22
0.762817
 32
-0.160625
 13
1.024247
 23
0.749276
 33
-0.160623
 62
0
  0
3DFACE
  8
Cube193
 10
1.561597
 20
0.018896
 30
-0.160621
 11
1.641973
 21
0.018895
 31
-0.256203
 12
1.627746
 22
-0.198160
 32
-0.256202
 13
1.548061
 23
-0.187667
 33
-0.160622
 62
0
  0
3DFACE
  8
Cube193
 10
1.024244
 20
-0.711485
 30
-0.160623
 11
1.034738
 21
-0.791169
 31
-0.256201
 12
0.817681
 22
-0.805396
 32
-0.256202
 13
0.817681
 23
-0.725021
 33
-0.160621
 62
0
  0
3DFACE
  8
Cube193
 10
0.817681
 20
-0.725021
 30
-0.160621
 11
0.817681
 21
-0.805396
 31
-0.256202
 12
0.600625
 22
-0.791169
 32
-0.256202
 13
0.611118
 23
-0.711485
 33
-0.160623
 62
0
  0
3DFACE
  8
Cube193
 10
0.087298
 20
-0.187666
 30
-0.160624
 11
0.007616
 21
-0.198159
 31
-0.256200
 12
-0.006610
 22
0.018898
 32
-0.256200
 13
0.073760
 23
0.018898
 33
-0.160624
 62
0
  0
3DFACE
  8
Cube193
 10
0.215953
 20
0.416929
 30
-0.086088
 11
0.175556
 21
0.213843
 31
-0.086089
 12
0.087299
 22
0.225463
 32
-0.160624
 13
0.129967
 23
0.439969
 33
-0.160624
 62
0
  0
3DFACE
  8
Cube193
 10
0.267575
 20
0.569002
 30
-0.086088
 11
0.337329
 21
0.499248
 31
-0.035008
 12
0.301596
 22
0.393982
 32
-0.035008
 13
0.215953
 23
0.416929
 33
-0.086088
 62
0
  0
3DFACE
  8
Cube193
 10
1.419408
 20
0.416928
 30
-0.086088
 11
1.367786
 21
0.569001
 31
-0.086088
 12
1.437822
 22
0.639035
 32
-0.160625
 13
1.505395
 23
0.439968
 33
-0.160625
 62
0
  0
3DFACE
  8
Cube193
 10
1.459804
 20
0.213842
 30
-0.086088
 11
1.419408
 21
0.416928
 31
-0.086088
 12
1.505395
 22
0.439968
 32
-0.160625
 13
1.548060
 23
0.225460
 33
-0.160622
 62
0
  0
3DFACE
  8
Cube193
 10
1.367787
 20
-0.531210
 30
-0.086088
 11
1.419410
 21
-0.379135
 31
-0.086088
 12
1.505395
 22
-0.402176
 32
-0.160625
 13
1.437821
 23
-0.601244
 33
-0.160624
 62
0
  0
3DFACE
  8
Cube193
 10
1.215713
 20
-0.582832
 30
-0.086088
 11
1.367787
 21
-0.531210
 31
-0.086088
 12
1.437821
 22
-0.601244
 32
-0.160624
 13
1.238754
 23
-0.668819
 33
-0.160625
 62
0
  0
3DFACE
  8
Cube193
 10
0.267574
 20
-0.531210
 30
-0.086089
 11
0.419650
 21
-0.582833
 31
-0.086089
 12
0.396609
 22
-0.668819
 32
-0.160625
 13
0.197540
 23
-0.601244
 33
-0.160625
 62
0
  0
3DFACE
  8
Cube193
 10
0.215951
 20
-0.379134
 30
-0.086089
 11
0.267574
 21
-0.531210
 31
-0.086089
 12
0.197540
 22
-0.601244
 32
-0.160625
 13
0.129965
 23
-0.402175
 33
-0.160625
 62
0
  0
3DFACE
  8
Cube193
 10
0.175556
 20
0.213843
 30
-0.086089
 11
0.162778
 21
0.018899
 31
-0.086089
 12
0.073760
 22
0.018898
 32
-0.160624
 13
0.087299
 23
0.225463
 33
-0.160624
 62
0
  0
3DFACE
  8
Cube193
 10
0.419650
 20
0.620625
 30
-0.086089
 11
0.442597
 21
0.534981
 31
-0.035008
 12
0.337329
 22
0.499248
 32
-0.035008
 13
0.267575
 23
0.569002
 33
-0.086088
 62
0
  0
3DFACE
  8
Cube193
 10
1.367786
 20
0.569001
 30
-0.086088
 11
1.298032
 21
0.499247
 31
-0.035008
 12
1.192766
 22
0.534980
 32
-0.035008
 13
1.215714
 23
0.620622
 33
-0.086088
 62
0
  0
3DFACE
  8
Cube193
 10
1.472580
 20
0.018897
 30
-0.086088
 11
1.459804
 21
0.213842
 31
-0.086088
 12
1.548060
 22
0.225460
 32
-0.160622
 13
1.561597
 23
0.018896
 33
-0.160621
 62
0
  0
3DFACE
  8
Cube193
 10
1.419410
 20
-0.379135
 30
-0.086088
 11
1.459805
 21
-0.176044
 31
-0.086088
 12
1.548061
 22
-0.187667
 32
-0.160622
 13
1.505395
 23
-0.402176
 33
-0.160625
 62
0
  0
3DFACE
  8
Cube193
 10
1.012622
 20
-0.623228
 30
-0.086088
 11
1.215713
 21
-0.582832
 31
-0.086088
 12
1.238754
 22
-0.668819
 32
-0.160625
 13
1.024244
 23
-0.711485
 33
-0.160623
 62
0
  0
3DFACE
  8
Cube193
 10
0.419650
 20
-0.582833
 30
-0.086089
 11
0.622740
 21
-0.623228
 31
-0.086088
 12
0.611118
 22
-0.711485
 32
-0.160623
 13
0.396609
 23
-0.668819
 33
-0.160625
 62
0
  0
3DFACE
  8
Cube193
 10
0.175554
 20
-0.176043
 30
-0.086089
 11
0.215951
 21
-0.379134
 31
-0.086089
 12
0.129965
 22
-0.402175
 32
-0.160625
 13
0.087298
 23
-0.187666
 33
-0.160624
 62
0
  0
3DFACE
  8
Cube193
 10
0.419650
 20
0.620625
 30
-0.086089
 11
0.622735
 21
0.661021
 31
-0.086089
 12
0.634307
 22
0.573114
 32
-0.035008
 13
0.442597
 23
0.534981
 33
-0.035008
 62
0
  0
3DFACE
  8
Cube193
 10
0.634307
 20
0.573114
 30
-0.035008
 11
0.622735
 21
0.661021
 31
-0.086089
 12
0.817681
 22
0.673799
 32
-0.086089
 13
0.817680
 23
0.585133
 33
-0.035008
 62
0
  0
3DFACE
  8
Cube193
 10
1.012628
 20
0.661019
 30
-0.086088
 11
1.215714
 21
0.620622
 31
-0.086088
 12
1.192766
 22
0.534980
 32
-0.035008
 13
1.001055
 23
0.573113
 33
-0.035008
 62
0
  0
3DFACE
  8
Cube193
 10
0.817680
 20
0.585133
 30
-0.035008
 11
0.817681
 21
0.673799
 31
-0.086089
 12
1.012628
 22
0.661019
 32
-0.086088
 13
1.001055
 23
0.573113
 33
-0.035008
 62
0
  0
3DFACE
  8
Cube193
 10
1.459805
 20
-0.176044
 30
-0.086088
 11
1.472580
 21
0.018897
 31
-0.086088
 12
1.561597
 22
0.018896
 32
-0.160621
 13
1.548061
 23
-0.187667
 33
-0.160622
 62
0
  0
3DFACE
  8
Cube193
 10
0.817680
 20
-0.636003
 30
-0.086087
 11
1.012622
 21
-0.623228
 31
-0.086088
 12
1.024244
 22
-0.711485
 32
-0.160623
 13
0.817681
 23
-0.725021
 33
-0.160621
 62
0
  0
3DFACE
  8
Cube193
 10
0.622740
 20
-0.623228
 30
-0.086088
 11
0.817680
 21
-0.636003
 31
-0.086087
 12
0.817681
 22
-0.725021
 32
-0.160621
 13
0.611118
 23
-0.711485
 33
-0.160623
 62
0
  0
3DFACE
  8
Cube193
 10
0.162778
 20
0.018899
 30
-0.086089
 11
0.175554
 21
-0.176043
 31
-0.086089
 12
0.087298
 22
-0.187666
 32
-0.160624
 13
0.073760
 23
0.018898
 33
-0.160624
 62
0
  0
3DFACE
  8
Cube193
 10
0.175556
 20
0.213843
 30
-0.086089
 11
0.215953
 21
0.416929
 31
-0.086088
 12
0.301596
 22
0.393982
 32
-0.035008
 13
0.263462
 23
0.202270
 33
-0.035008
 62
0
  0
3DFACE
  8
Cube193
 10
0.394702
 20
0.369034
 30
0.000001
 11
0.301596
 21
0.393982
 31
-0.035008
 12
0.337329
 22
0.499248
 32
-0.035008
 13
0.413162
 23
0.423415
 33
0.000001
 62
0
  0
3DFACE
  8
Cube193
 10
1.419408
 20
0.416928
 30
-0.086088
 11
1.333765
 21
0.393981
 31
-0.035008
 12
1.298032
 22
0.499247
 32
-0.035008
 13
1.367786
 23
0.569001
 33
-0.086088
 62
0
  0
3DFACE
  8
Cube193
 10
1.419408
 20
0.416928
 30
-0.086088
 11
1.459804
 21
0.213842
 31
-0.086088
 12
1.371898
 22
0.202269
 32
-0.035007
 13
1.333765
 23
0.393981
 33
-0.035008
 62
0
  0
3DFACE
  8
Cube193
 10
1.367787
 20
-0.531210
 30
-0.086088
 11
1.298032
 21
-0.461455
 31
-0.035007
 12
1.333766
 22
-0.356186
 32
-0.035007
 13
1.419410
 23
-0.379135
 33
-0.086088
 62
0
  0
3DFACE
  8
Cube193
 10
1.215713
 20
-0.582832
 30
-0.086088
 11
1.192763
 21
-0.497189
 31
-0.035007
 12
1.298032
 22
-0.461455
 32
-0.035007
 13
1.367787
 23
-0.531210
 33
-0.086088
 62
0
  0
3DFACE
  8
Cube193
 10
0.267574
 20
-0.531210
 30
-0.086089
 11
0.337329
 21
-0.461455
 31
-0.035007
 12
0.442600
 22
-0.497189
 32
-0.035007
 13
0.419650
 23
-0.582833
 33
-0.086089
 62
0
  0
3DFACE
  8
Cube193
 10
0.215951
 20
-0.379134
 30
-0.086089
 11
0.301594
 21
-0.356184
 31
-0.035008
 12
0.337329
 22
-0.461455
 32
-0.035007
 13
0.267574
 23
-0.531210
 33
-0.086089
 62
0
  0
3DFACE
  8
Cube193
 10
0.251444
 20
0.018899
 30
-0.035008
 11
0.162778
 21
0.018899
 31
-0.086089
 12
0.175556
 22
0.213843
 32
-0.086089
 13
0.263462
 23
0.202270
 33
-0.035008
 62
0
  0
3DFACE
  8
Cube193
 10
0.413162
 20
0.423415
 30
0.000001
 11
0.337329
 21
0.499248
 31
-0.035008
 12
0.442597
 22
0.534981
 32
-0.035008
 13
0.467544
 23
0.441875
 33
0.000001
 62
0
  0
3DFACE
  8
Cube193
 10
1.167818
 20
0.441873
 30
0.000001
 11
1.192766
 21
0.534980
 31
-0.035008
 12
1.298032
 22
0.499247
 32
-0.035008
 13
1.222198
 23
0.423414
 33
0.000001
 62
0
  0
3DFACE
  8
Cube193
 10
1.222198
 20
0.423414
 30
0.000001
 11
1.298032
 21
0.499247
 31
-0.035008
 12
1.333765
 22
0.393981
 32
-0.035008
 13
1.240658
 23
0.369033
 33
0.000001
 62
0
  0
3DFACE
  8
Cube193
 10
0.359028
 20
0.189689
 30
0.000001
 11
0.263462
 21
0.202270
 31
-0.035008
 12
0.301596
 22
0.393982
 32
-0.035008
 13
0.394702
 23
0.369034
 33
0.000001
 62
0
  0
3DFACE
  8
Cube193
 10
1.371898
 20
0.202269
 30
-0.035007
 11
1.459804
 21
0.213842
 31
-0.086088
 12
1.472580
 22
0.018897
 32
-0.086088
 13
1.383913
 23
0.018897
 33
-0.035006
 62
0
  0
3DFACE
  8
Cube193
 10
1.459805
 20
-0.176044
 30
-0.086088
 11
1.419410
 21
-0.379135
 31
-0.086088
 12
1.333766
 22
-0.356186
 32
-0.035007
 13
1.371899
 23
-0.164470
 33
-0.035007
 62
0
  0
3DFACE
  8
Cube193
 10
1.192763
 20
-0.497189
 30
-0.035007
 11
1.215713
 21
-0.582832
 31
-0.086088
 12
1.012622
 22
-0.623228
 32
-0.086088
 13
1.001047
 23
-0.535323
 33
-0.035007
 62
0
  0
3DFACE
  8
Cube193
 10
0.634314
 20
-0.535323
 30
-0.035007
 11
0.622740
 21
-0.623228
 31
-0.086088
 12
0.419650
 22
-0.582833
 32
-0.086089
 13
0.442600
 23
-0.497189
 33
-0.035007
 62
0
  0
3DFACE
  8
Cube193
 10
0.301594
 20
-0.356184
 30
-0.035008
 11
0.215951
 21
-0.379134
 31
-0.086089
 12
0.175554
 22
-0.176043
 32
-0.086089
 13
0.263460
 23
-0.164469
 33
-0.035008
 62
0
  0
3DFACE
  8
Cube193
 10
0.467544
 20
0.441875
 30
0.000001
 11
0.442597
 21
0.534981
 31
-0.035008
 12
0.634307
 22
0.573114
 32
-0.035008
 13
0.646889
 23
0.477548
 33
0.000001
 62
0
  0
3DFACE
  8
Cube193
 10
0.646889
 20
0.477548
 30
0.000001
 11
0.634307
 21
0.573114
 31
-0.035008
 12
0.817680
 22
0.585133
 32
-0.035008
 13
0.817679
 23
0.488742
 33
0.000001
 62
0
  0
3DFACE
  8
Cube193
 10
1.240658
 20
0.369033
 30
0.000001
 11
1.333765
 21
0.393981
 31
-0.035008
 12
1.371898
 22
0.202269
 32
-0.035007
 13
1.276332
 23
0.189689
 33
0.000001
 62
0
  0
3DFACE
  8
Cube193
 10
0.988474
 20
0.477547
 30
0.000001
 11
1.001055
 21
0.573113
 31
-0.035008
 12
1.192766
 22
0.534980
 32
-0.035008
 13
1.167818
 23
0.441873
 33
0.000001
 62
0
  0
3DFACE
  8
Cube193
 10
0.347834
 20
0.018900
 30
0.000001
 11
0.251444
 21
0.018899
 31
-0.035008
 12
0.263462
 22
0.202270
 32
-0.035008
 13
0.359028
 23
0.189689
 33
0.000001
 62
0
  0
3DFACE
  8
Cube193
 10
0.817679
 20
0.488742
 30
0.000001
 11
0.817680
 21
0.585133
 31
-0.035008
 12
1.001055
 22
0.573113
 32
-0.035008
 13
0.988474
 23
0.477547
 33
0.000001
 62
0
  0
3DFACE
  8
Cube193
 10
1.276332
 20
0.189689
 30
0.000001
 11
1.371898
 21
0.202269
 31
-0.035007
 12
1.383913
 22
0.018897
 32
-0.035006
 13
1.287524
 23
0.018898
 33
0.000001
 62
0
  0
3DFACE
  8
Cube193
 10
1.383913
 20
0.018897
 30
-0.035006
 11
1.472580
 21
0.018897
 31
-0.086088
 12
1.459805
 22
-0.176044
 32
-0.086088
 13
1.371899
 23
-0.164470
 33
-0.035007
 62
0
  0
3DFACE
  8
Cube193
 10
1.001047
 20
-0.535323
 30
-0.035007
 11
1.012622
 21
-0.623228
 31
-0.086088
 12
0.817680
 22
-0.636003
 32
-0.086087
 13
0.817680
 23
-0.547337
 33
-0.035006
 62
0
  0
3DFACE
  8
Cube193
 10
0.817680
 20
-0.547337
 30
-0.035006
 11
0.817680
 21
-0.636003
 31
-0.086087
 12
0.622740
 22
-0.623228
 32
-0.086088
 13
0.634314
 23
-0.535323
 33
-0.035007
 62
0
  0
3DFACE
  8
Cube193
 10
0.263460
 20
-0.164469
 30
-0.035008
 11
0.175554
 21
-0.176043
 31
-0.086089
 12
0.162778
 22
0.018899
 32
-0.086089
 13
0.251444
 23
0.018899
 33
-0.035008
 62
0
  0
3DFACE
  8
Cube193
 10
0.359026
 20
-0.151885
 30
0.000001
 11
0.263460
 21
-0.164469
 31
-0.035008
 12
0.251444
 22
0.018899
 32
-0.035008
 13
0.347834
 23
0.018900
 33
0.000001
 62
0
  0
3DFACE
  8
Cube193
 10
0.394700
 20
-0.331236
 30
0.000001
 11
0.301594
 21
-0.356184
 31
-0.035008
 12
0.263460
 22
-0.164469
 32
-0.035008
 13
0.359026
 23
-0.151885
 33
0.000001
 62
0
  0
3DFACE
  8
Cube193
 10
0.413162
 20
-0.385622
 30
0.000001
 11
0.337329
 21
-0.461455
 31
-0.035007
 12
0.301594
 22
-0.356184
 32
-0.035008
 13
0.394700
 23
-0.331236
 33
0.000001
 62
0
  0
3DFACE
  8
Cube193
 10
0.467548
 20
-0.404084
 30
0.000001
 11
0.442600
 21
-0.497189
 31
-0.035007
 12
0.337329
 22
-0.461455
 32
-0.035007
 13
0.413162
 23
-0.385622
 33
0.000001
 62
0
  0
3DFACE
  8
Cube193
 10
0.817679
 20
-0.450948
 30
0.000001
 11
0.817680
 21
-0.547337
 31
-0.035006
 12
0.634314
 22
-0.535323
 32
-0.035007
 13
0.646897
 23
-0.439757
 33
0.000001
 62
0
  0
3DFACE
  8
Cube193
 10
0.646897
 20
-0.439757
 30
0.000001
 11
0.634314
 21
-0.535323
 31
-0.035007
 12
0.442600
 22
-0.497189
 32
-0.035007
 13
0.467548
 23
-0.404084
 33
0.000001
 62
0
  0
3DFACE
  8
Cube193
 10
0.988464
 20
-0.439758
 30
0.000001
 11
1.001047
 21
-0.535323
 31
-0.035007
 12
0.817680
 22
-0.547337
 32
-0.035006
 13
0.817679
 23
-0.450948
 33
0.000001
 62
0
  0
3DFACE
  8
Cube193
 10
1.167814
 20
-0.404083
 30
0.000001
 11
1.192763
 21
-0.497189
 31
-0.035007
 12
1.001047
 22
-0.535323
 32
-0.035007
 13
0.988464
 23
-0.439758
 33
0.000001
 62
0
  0
3DFACE
  8
Cube193
 10
1.222199
 20
-0.385622
 30
0.000001
 11
1.298032
 21
-0.461455
 31
-0.035007
 12
1.192763
 22
-0.497189
 32
-0.035007
 13
1.167814
 23
-0.404083
 33
0.000001
 62
0
  0
3DFACE
  8
Cube193
 10
1.240660
 20
-0.331237
 30
0.000001
 11
1.333766
 21
-0.356186
 31
-0.035007
 12
1.298032
 22
-0.461455
 32
-0.035007
 13
1.222199
 23
-0.385622
 33
0.000001
 62
0
  0
3DFACE
  8
Cube193
 10
1.287524
 20
0.018898
 30
0.000001
 11
1.383913
 21
0.018897
 31
-0.035006
 12
1.371899
 22
-0.164470
 32
-0.035007
 13
1.276334
 23
-0.151886
 33
0.000001
 62
0
  0
3DFACE
  8
Cube193
 10
1.276334
 20
-0.151886
 30
0.000001
 11
1.371899
 21
-0.164470
 31
-0.035007
 12
1.333766
 22
-0.356186
 32
-0.035007
 13
1.240660
 23
-0.331237
 33
0.000001
 62
0
  0
3DFACE
  8
Cube193
 10
0.988464
 20
-0.439758
 30
0.000001
 11
0.817679
 21
-0.450948
 31
0.000001
 12
0.646897
 22
-0.439757
 32
0.000001
 13
0.646897
 23
-0.439757
 33
0.000001
 62
0
  0
3DFACE
  8
Cube193
 10
0.467548
 20
-0.404084
 30
0.000001
 11
0.988464
 21
-0.439758
 31
0.000001
 12
0.646897
 22
-0.439757
 32
0.000001
 13
0.646897
 23
-0.439757
 33
0.000001
 62
0
  0
3DFACE
  8
Cube193
 10
1.167814
 20
-0.404083
 30
0.000001
 11
0.988464
 21
-0.439758
 31
0.000001
 12
0.467548
 22
-0.404084
 32
0.000001
 13
0.467548
 23
-0.404084
 33
0.000001
 62
0
  0
3DFACE
  8
Cube193
 10
0.413162
 20
-0.385622
 30
0.000001
 11
1.167814
 21
-0.404083
 31
0.000001
 12
0.467548
 22
-0.404084
 32
0.000001
 13
0.467548
 23
-0.404084
 33
0.000001
 62
0
  0
3DFACE
  8
Cube193
 10
1.222199
 20
-0.385622
 30
0.000001
 11
1.167814
 21
-0.404083
 31
0.000001
 12
0.413162
 22
-0.385622
 32
0.000001
 13
0.413162
 23
-0.385622
 33
0.000001
 62
0
  0
3DFACE
  8
Cube193
 10
1.240660
 20
-0.331237
 30
0.000001
 11
1.222199
 21
-0.385622
 31
0.000001
 12
0.413162
 22
-0.385622
 32
0.000001
 13
0.413162
 23
-0.385622
 33
0.000001
 62
0
  0
3DFACE
  8
Cube193
 10
0.394700
 20
-0.331236
 30
0.000001
 11
1.240660
 21
-0.331237
 31
0.000001
 12
0.413162
 22
-0.385622
 32
0.000001
 13
0.413162
 23
-0.385622
 33
0.000001
 62
0
  0
3DFACE
  8
Cube193
 10
1.276334
 20
-0.151886
 30
0.000001
 11
1.240660
 21
-0.331237
 31
0.000001
 12
0.394700
 22
-0.331236
 32
0.000001
 13
0.394700
 23
-0.331236
 33
0.000001
 62
0
  0
3DFACE
  8
Cube193
 10
0.359026
 20
-0.151885
 30
0.000001
 11
1.276334
 21
-0.151886
 31
0.000001
 12
0.394700
 22
-0.331236
 32
0.000001
 13
0.394700
 23
-0.331236
 33
0.000001
 62
0
  0
3DFACE
  8
Cube193
 10
1.287524
 20
0.018898
 30
0.000001
 11
1.276334
 21
-0.151886
 31
0.000001
 12
0.359026
 22
-0.151885
 32
0.000001
 13
0.359026
 23
-0.151885
 33
0.000001
 62
0
  0
3DFACE
  8
Cube193
 10
0.347834
 20
0.018900
 30
0.000001
 11
1.287524
 21
0.018898
 31
0.000001
 12
0.359026
 22
-0.151885
 32
0.000001
 13
0.359026
 23
-0.151885
 33
0.000001
 62
0
  0
3DFACE
  8
Cube193
 10
0.359028
 20
0.189689
 30
0.000001
 11
1.287524
 21
0.018898
 31
0.000001
 12
0.347834
 22
0.018900
 32
0.000001
 13
0.347834
 23
0.018900
 33
0.000001
 62
0
  0
3DFACE
  8
Cube193
 10
1.276332
 20
0.189689
 30
0.000001
 11
1.287524
 21
0.018898
 31
0.000001
 12
0.359028
 22
0.189689
 32
0.000001
 13
0.359028
 23
0.189689
 33
0.000001
 62
0
  0
3DFACE
  8
Cube193
 10
0.394702
 20
0.369034
 30
0.000001
 11
1.276332
 21
0.189689
 31
0.000001
 12
0.359028
 22
0.189689
 32
0.000001
 13
0.359028
 23
0.189689
 33
0.000001
 62
0
  0
3DFACE
  8
Cube193
 10
1.240658
 20
0.369033
 30
0.000001
 11
1.276332
 21
0.189689
 31
0.000001
 12
0.394702
 22
0.369034
 32
0.000001
 13
0.394702
 23
0.369034
 33
0.000001
 62
0
  0
3DFACE
  8
Cube193
 10
1.222198
 20
0.423414
 30
0.000001
 11
1.240658
 21
0.369033
 31
0.000001
 12
0.394702
 22
0.369034
 32
0.000001
 13
0.394702
 23
0.369034
 33
0.000001
 62
0
  0
3DFACE
  8
Cube193
 10
0.413162
 20
0.423415
 30
0.000001
 11
1.222198
 21
0.423414
 31
0.000001
 12
0.394702
 22
0.369034
 32
0.000001
 13
0.394702
 23
0.369034
 33
0.000001
 62
0
  0
3DFACE
  8
Cube193
 10
1.167818
 20
0.441873
 30
0.000001
 11
1.222198
 21
0.423414
 31
0.000001
 12
0.413162
 22
0.423415
 32
0.000001
 13
0.413162
 23
0.423415
 33
0.000001
 62
0
  0
3DFACE
  8
Cube193
 10
0.467544
 20
0.441875
 30
0.000001
 11
1.167818
 21
0.441873
 31
0.000001
 12
0.413162
 22
0.423415
 32
0.000001
 13
0.413162
 23
0.423415
 33
0.000001
 62
0
  0
3DFACE
  8
Cube193
 10
0.988474
 20
0.477547
 30
0.000001
 11
1.167818
 21
0.441873
 31
0.000001
 12
0.467544
 22
0.441875
 32
0.000001
 13
0.467544
 23
0.441875
 33
0.000001
 62
0
  0
3DFACE
  8
Cube193
 10
0.646889
 20
0.477548
 30
0.000001
 11
0.988474
 21
0.477547
 31
0.000001
 12
0.467544
 22
0.441875
 32
0.000001
 13
0.467544
 23
0.441875
 33
0.000001
 62
0
  0
3DFACE
  8
Cube193
 10
0.817679
 20
0.488742
 30
0.000001
 11
0.988474
 21
0.477547
 31
0.000001
 12
0.646889
 22
0.477548
 32
0.000001
 13
0.646889
 23
0.477548
 33
0.000001
 62
0
 0
ENDSEC
 0
EOF
