  0
SECTION
  2
HEADER
  0
ENDSEC
  0
SECTION
  2
TABLES
  0
TABLE
  2
LAYER
  70
    153
  0
LAYER
  2
Cylinder4
 70
0
 62
15
  6
CONTINUOUS
  0
ENDTAB
  0
ENDSEC
  0
SECTION
  2
ENTITIES
  0
3DFACE
  8
Cylinder4
 10
0.119849
 20
0.097912
 30
-0.349847
 11
0.021937
 21
0.000000
 31
-0.443584
 12
0.831066
 22
0.000000
 32
0.283399
 13
0.859042
 23
0.251622
 33
0.323353
 62
0
  0
3DFACE
  8
Cylinder4
 10
0.021937
 20
0.000000
 30
-0.443584
 11
0.119846
 21
-0.097909
 31
-0.349849
 12
0.859042
 22
-0.251621
 32
0.323352
 13
0.831066
 23
0.000000
 33
0.283399
 62
0
  0
3DFACE
  8
Cylinder4
 10
0.119849
 20
0.097912
 30
-0.349847
 11
0.859042
 21
0.251622
 31
0.323353
 12
1.020507
 22
0.998571
 32
0.553656
 13
1.020507
 23
0.998571
 33
0.553656
 62
0
  0
3DFACE
  8
Cylinder4
 10
0.119846
 20
-0.097909
 30
-0.349849
 11
1.020507
 21
-0.998571
 31
0.553656
 12
0.859042
 22
-0.251621
 32
0.323352
 13
0.859042
 23
-0.251621
 33
0.323352
 62
0
  0
3DFACE
  8
Cylinder4
 10
0.021937
 20
0.000000
 30
-0.443584
 11
-0.075987
 21
-0.097924
 31
-0.349835
 12
-0.229688
 22
-0.837106
 32
0.323353
 13
0.021937
 23
-0.809130
 33
0.283400
 62
0
  0
3DFACE
  8
Cylinder4
 10
-0.075987
 20
-0.097924
 30
-0.349835
 11
-0.976634
 21
-0.998571
 31
0.553656
 12
-0.229688
 22
-0.837106
 32
0.323353
 13
-0.229688
 23
-0.837106
 33
0.323353
 62
0
  0
3DFACE
  8
Cylinder4
 10
-0.075986
 20
0.097923
 30
-0.349837
 11
0.021937
 21
0.000000
 31
-0.443584
 12
0.021938
 22
0.809130
 32
0.283399
 13
-0.229684
 23
0.837105
 33
0.323352
 62
0
  0
3DFACE
  8
Cylinder4
 10
-0.976634
 20
0.998571
 30
0.553656
 11
1.020507
 21
0.998571
 31
0.553656
 12
1.020507
 22
0.998571
 32
0.596102
 13
-0.976634
 23
0.998571
 33
0.596102
 62
0
  0
3DFACE
  8
Cylinder4
 10
0.021937
 20
0.000000
 30
-0.443584
 11
0.119849
 21
0.097912
 31
-0.349847
 12
0.273557
 22
0.837105
 32
0.323352
 13
0.021938
 23
0.809130
 33
0.283399
 62
0
  0
3DFACE
  8
Cylinder4
 10
-0.075986
 20
0.097923
 30
-0.349837
 11
-0.229684
 21
0.837105
 31
0.323352
 12
-0.976634
 22
0.998571
 32
0.553656
 13
-0.976634
 23
0.998571
 33
0.553656
 62
0
  0
3DFACE
  8
Cylinder4
 10
0.119849
 20
0.097912
 30
-0.349847
 11
1.020507
 21
0.998571
 31
0.553656
 12
0.273557
 22
0.837105
 32
0.323352
 13
0.273557
 23
0.837105
 33
0.323352
 62
0
  0
3DFACE
  8
Cylinder4
 10
-0.229684
 20
0.837105
 30
0.323352
 11
0.021938
 21
0.809130
 31
0.283399
 12
0.273557
 22
0.837105
 32
0.323352
 13
0.273557
 23
0.837105
 33
0.323352
 62
0
  0
3DFACE
  8
Cylinder4
 10
-0.976634
 20
0.998571
 30
0.553656
 11
-0.229684
 21
0.837105
 31
0.323352
 12
0.273557
 22
0.837105
 32
0.323352
 13
0.273557
 23
0.837105
 33
0.323352
 62
0
  0
3DFACE
  8
Cylinder4
 10
1.020507
 20
0.998571
 30
0.553656
 11
-0.976634
 21
0.998571
 31
0.553656
 12
0.273557
 22
0.837105
 32
0.323352
 13
0.273557
 23
0.837105
 33
0.323352
 62
0
  0
3DFACE
  8
Cylinder4
 10
1.020507
 20
0.998571
 30
0.553656
 11
1.020507
 21
-0.998571
 31
0.553656
 12
1.020507
 22
-0.998571
 32
0.596102
 13
1.020507
 23
0.998571
 33
0.596102
 62
0
  0
3DFACE
  8
Cylinder4
 10
0.119846
 20
-0.097909
 30
-0.349849
 11
0.021937
 21
0.000000
 31
-0.443584
 12
0.021937
 22
-0.809130
 32
0.283400
 13
0.273558
 23
-0.837106
 33
0.323353
 62
0
  0
3DFACE
  8
Cylinder4
 10
0.831066
 20
0.000000
 30
0.283399
 11
0.859042
 21
-0.251621
 31
0.323352
 12
1.020507
 22
-0.998571
 32
0.553656
 13
1.020507
 23
-0.998571
 33
0.553656
 62
0
  0
3DFACE
  8
Cylinder4
 10
0.859042
 20
0.251622
 30
0.323353
 11
0.831066
 21
0.000000
 31
0.283399
 12
1.020507
 22
-0.998571
 32
0.553656
 13
1.020507
 23
-0.998571
 33
0.553656
 62
0
  0
3DFACE
  8
Cylinder4
 10
1.020507
 20
0.998571
 30
0.553656
 11
0.859042
 21
0.251622
 31
0.323353
 12
1.020507
 22
-0.998571
 32
0.553656
 13
1.020507
 23
-0.998571
 33
0.553656
 62
0
  0
3DFACE
  8
Cylinder4
 10
0.119846
 20
-0.097909
 30
-0.349849
 11
0.273558
 21
-0.837106
 31
0.323353
 12
1.020507
 22
-0.998571
 32
0.553656
 13
1.020507
 23
-0.998571
 33
0.553656
 62
0
  0
3DFACE
  8
Cylinder4
 10
-0.075986
 20
0.097923
 30
-0.349837
 11
-0.976634
 21
0.998571
 31
0.553656
 12
-0.815169
 22
0.251623
 32
0.323353
 13
-0.815169
 23
0.251623
 33
0.323353
 62
0
  0
3DFACE
  8
Cylinder4
 10
-0.075987
 20
-0.097924
 30
-0.349835
 11
0.021937
 21
0.000000
 31
-0.443584
 12
-0.787194
 22
0.000000
 32
0.283400
 13
-0.815170
 23
-0.251623
 33
0.323353
 62
0
  0
3DFACE
  8
Cylinder4
 10
-0.229688
 20
-0.837106
 30
0.323353
 11
0.273558
 21
-0.837106
 31
0.323353
 12
0.021937
 22
-0.809130
 32
0.283400
 13
0.021937
 23
-0.809130
 33
0.283400
 62
0
  0
3DFACE
  8
Cylinder4
 10
1.020507
 20
-0.998571
 30
0.553656
 11
0.273558
 21
-0.837106
 31
0.323353
 12
-0.229688
 22
-0.837106
 32
0.323353
 13
-0.229688
 23
-0.837106
 33
0.323353
 62
0
  0
3DFACE
  8
Cylinder4
 10
-0.976634
 20
-0.998571
 30
0.553656
 11
1.020507
 21
-0.998571
 31
0.553656
 12
-0.229688
 22
-0.837106
 32
0.323353
 13
-0.229688
 23
-0.837106
 33
0.323353
 62
0
  0
3DFACE
  8
Cylinder4
 10
0.021937
 20
0.000000
 30
-0.443584
 11
-0.075986
 21
0.097923
 31
-0.349837
 12
-0.815169
 22
0.251623
 32
0.323353
 13
-0.787194
 23
0.000000
 33
0.283400
 62
0
  0
3DFACE
  8
Cylinder4
 10
-0.075987
 20
-0.097924
 30
-0.349835
 11
-0.815170
 21
-0.251623
 31
0.323353
 12
-0.976634
 22
-0.998571
 32
0.553656
 13
-0.976634
 23
-0.998571
 33
0.553656
 62
0
  0
3DFACE
  8
Cylinder4
 10
-0.787194
 20
0.000000
 30
0.283400
 11
-0.976634
 21
-0.998571
 31
0.553656
 12
-0.815170
 22
-0.251623
 32
0.323353
 13
-0.815170
 23
-0.251623
 33
0.323353
 62
0
  0
3DFACE
  8
Cylinder4
 10
-0.815169
 20
0.251623
 30
0.323353
 11
-0.976634
 21
-0.998571
 31
0.553656
 12
-0.787194
 22
0.000000
 32
0.283400
 13
-0.787194
 23
0.000000
 33
0.283400
 62
0
  0
3DFACE
  8
Cylinder4
 10
-0.976634
 20
0.998571
 30
0.553656
 11
-0.976634
 21
-0.998571
 31
0.553656
 12
-0.815169
 22
0.251623
 32
0.323353
 13
-0.815169
 23
0.251623
 33
0.323353
 62
0
  0
3DFACE
  8
Cylinder4
 10
-0.279538
 20
0.301474
 30
0.998570
 11
-0.976634
 21
0.998571
 31
0.596102
 12
1.020507
 22
0.998571
 32
0.596102
 13
0.323411
 23
0.301474
 33
0.998570
 62
0
  0
3DFACE
  8
Cylinder4
 10
1.020507
 20
-0.998571
 30
0.553656
 11
-0.976634
 21
-0.998571
 31
0.553656
 12
-0.976634
 22
-0.998571
 32
0.596102
 13
1.020507
 23
-0.998571
 33
0.596102
 62
0
  0
3DFACE
  8
Cylinder4
 10
0.323411
 20
0.301474
 30
0.998570
 11
1.020507
 21
0.998571
 31
0.596102
 12
1.020507
 22
-0.998571
 32
0.596102
 13
0.323411
 23
-0.301475
 33
0.998570
 62
0
  0
3DFACE
  8
Cylinder4
 10
0.323411
 20
-0.301475
 30
0.998570
 11
1.020507
 21
-0.998571
 31
0.596102
 12
-0.976634
 22
-0.998571
 32
0.596102
 13
-0.279538
 23
-0.301475
 33
0.998570
 62
0
  0
3DFACE
  8
Cylinder4
 10
-0.976634
 20
-0.998571
 30
0.553656
 11
-0.976634
 21
0.998571
 31
0.553656
 12
-0.976634
 22
0.998571
 32
0.596102
 13
-0.976634
 23
-0.998571
 33
0.596102
 62
0
  0
3DFACE
  8
Cylinder4
 10
-0.279538
 20
-0.301475
 30
0.998570
 11
-0.976634
 21
-0.998571
 31
0.596102
 12
-0.976634
 22
0.998571
 32
0.596102
 13
-0.279538
 23
0.301474
 33
0.998570
 62
0
  0
3DFACE
  8
Cylinder4
 10
-0.279538
 20
0.301474
 30
0.998570
 11
0.323411
 21
0.301474
 31
0.998570
 12
0.323411
 22
-0.301475
 32
0.998570
 13
-0.279538
 23
-0.301475
 33
0.998570
 62
0
 0
ENDSEC
 0
EOF
