  0
SECTION
  2
HEADER
  0
ENDSEC
  0
SECTION
  2
TABLES
  0
TABLE
  2
LAYER
  70
    153
  0
LAYER
  2
Cylinder
 70
0
 62
15
  6
CONTINUOUS
  0
ENDTAB
  0
ENDSEC
  0
SECTION
  2
ENTITIES
  0
3DFACE
  8
Cylinder
 10
-1.338012
 20
0.139283
 30
0.320134
 11
-0.637790
 21
0.000001
 31
-0.288559
 12
-1.231410
 22
0.396644
 32
0.320134
 13
-1.231410
 23
0.396644
 33
0.320134
 62
0
  0
3DFACE
  8
Cylinder
 10
-1.034435
 20
0.593622
 30
0.320136
 11
-0.637790
 21
0.000001
 31
-0.288559
 12
-0.777073
 22
0.700224
 32
0.320136
 13
-0.777073
 23
0.700224
 33
0.320136
 62
0
  0
3DFACE
  8
Cylinder
 10
-0.637788
 20
1.080844
 30
0.651003
 11
-0.777073
 21
0.700224
 31
0.320136
 12
-0.637790
 22
0.000001
 32
-0.288559
 13
-0.498505
 23
0.700230
 33
0.320140
 62
0
  0
3DFACE
  8
Cylinder
 10
-0.498505
 20
0.700230
 30
0.320140
 11
-0.637790
 21
0.000001
 31
-0.288559
 12
-0.241141
 22
0.593626
 32
0.320140
 13
-0.241141
 23
0.593626
 33
0.320140
 62
0
  0
3DFACE
  8
Cylinder
 10
-0.044160
 20
0.396650
 30
0.320143
 11
-0.637790
 21
0.000001
 31
-0.288559
 12
0.062444
 22
0.139286
 32
0.320143
 13
0.062444
 23
0.139286
 33
0.320143
 62
0
  0
3DFACE
  8
Cylinder
 10
-1.718633
 20
-0.000000
 30
0.684556
 11
-1.718633
 21
-0.000000
 31
0.651003
 12
-1.402061
 22
0.764272
 32
0.651003
 13
-1.402061
 23
0.764272
 33
0.684556
 62
0
  0
3DFACE
  8
Cylinder
 10
-1.402061
 20
0.764272
 30
0.651003
 11
-1.231410
 21
0.396644
 31
0.320134
 12
-0.637790
 22
0.000001
 32
-0.288559
 13
-1.034435
 23
0.593622
 33
0.320136
 62
0
  0
3DFACE
  8
Cylinder
 10
-1.402061
 20
0.764272
 30
0.651003
 11
-1.718633
 21
-0.000000
 31
0.651003
 12
-1.338012
 22
0.139283
 32
0.320134
 13
-1.231410
 23
0.396644
 33
0.320134
 62
0
  0
3DFACE
  8
Cylinder
 10
-1.402061
 20
0.764272
 30
0.684556
 11
-1.402061
 21
0.764272
 31
0.651003
 12
-0.637788
 22
1.080844
 32
0.651003
 13
-0.637788
 23
1.080844
 33
0.684557
 62
0
  0
3DFACE
  8
Cylinder
 10
-1.402061
 20
0.764272
 30
0.651003
 11
-1.034435
 21
0.593622
 31
0.320136
 12
-0.777073
 22
0.700224
 32
0.320136
 13
-0.637788
 23
1.080844
 33
0.651003
 62
0
  0
3DFACE
  8
Cylinder
 10
-0.637788
 20
1.080844
 30
0.684557
 11
-0.637788
 21
1.080844
 31
0.651003
 12
0.126485
 22
0.764273
 32
0.651004
 13
0.126485
 23
0.764273
 33
0.684557
 62
0
  0
3DFACE
  8
Cylinder
 10
0.126485
 20
0.764273
 30
0.684557
 11
0.126485
 21
0.764273
 31
0.651004
 12
0.443057
 22
0.000001
 32
0.651004
 13
0.443057
 23
0.000001
 33
0.684556
 62
0
  0
3DFACE
  8
Cylinder
 10
-0.637788
 20
1.080844
 30
0.651003
 11
-0.498505
 21
0.700230
 31
0.320140
 12
-0.241141
 22
0.593626
 32
0.320140
 13
0.126485
 23
0.764273
 33
0.651004
 62
0
  0
3DFACE
  8
Cylinder
 10
0.126485
 20
0.764273
 30
0.651004
 11
-0.241141
 21
0.593626
 31
0.320140
 12
-0.637790
 22
0.000001
 32
-0.288559
 13
-0.044160
 23
0.396650
 33
0.320143
 62
0
  0
3DFACE
  8
Cylinder
 10
0.062446
 20
-0.139285
 30
0.320145
 11
-0.637790
 21
0.000001
 31
-0.288559
 12
-0.044159
 22
-0.396650
 32
0.320144
 13
-0.044159
 23
-0.396650
 33
0.320144
 62
0
  0
3DFACE
  8
Cylinder
 10
0.126485
 20
0.764273
 30
0.651004
 11
-0.044160
 21
0.396650
 31
0.320143
 12
0.062444
 22
0.139286
 32
0.320143
 13
0.443057
 23
0.000001
 33
0.651004
 62
0
  0
3DFACE
  8
Cylinder
 10
0.443057
 20
0.000001
 30
0.651004
 11
0.062444
 21
0.139286
 31
0.320143
 12
-0.637790
 22
0.000001
 32
-0.288559
 13
0.062446
 23
-0.139285
 33
0.320145
 62
0
  0
3DFACE
  8
Cylinder
 10
0.126485
 20
-0.764272
 30
0.651004
 11
-0.044159
 21
-0.396650
 31
0.320144
 12
-0.637790
 22
0.000001
 32
-0.288559
 13
-0.241139
 23
-0.593627
 33
0.320142
 62
0
  0
3DFACE
  8
Cylinder
 10
0.062446
 20
-0.139285
 30
0.320145
 11
-0.044159
 21
-0.396650
 31
0.320144
 12
0.126485
 22
-0.764272
 32
0.651004
 13
0.443057
 23
0.000001
 33
0.651004
 62
0
  0
3DFACE
  8
Cylinder
 10
-0.241139
 20
-0.593627
 30
0.320142
 11
-0.637790
 21
0.000001
 31
-0.288559
 12
-0.498504
 22
-0.700231
 32
0.320142
 13
-0.498504
 23
-0.700231
 33
0.320142
 62
0
  0
3DFACE
  8
Cylinder
 10
-1.402061
 20
-0.764273
 30
0.651003
 11
-1.034438
 21
-0.593626
 31
0.320141
 12
-0.637790
 22
0.000001
 32
-0.288559
 13
-1.231411
 23
-0.396645
 33
0.320136
 62
0
  0
3DFACE
  8
Cylinder
 10
-0.637788
 20
-1.080844
 30
0.651004
 11
-0.498504
 21
-0.700231
 31
0.320142
 12
-0.637790
 22
0.000001
 32
-0.288559
 13
-0.777074
 23
-0.700230
 33
0.320141
 62
0
  0
3DFACE
  8
Cylinder
 10
-0.241139
 20
-0.593627
 30
0.320142
 11
-0.498504
 21
-0.700231
 31
0.320142
 12
-0.637788
 22
-1.080844
 32
0.651004
 13
0.126485
 23
-0.764272
 33
0.651004
 62
0
  0
3DFACE
  8
Cylinder
 10
-0.777074
 20
-0.700230
 30
0.320141
 11
-0.637790
 21
0.000001
 31
-0.288559
 12
-1.034438
 22
-0.593626
 32
0.320141
 13
-1.034438
 23
-0.593626
 33
0.320141
 62
0
  0
3DFACE
  8
Cylinder
 10
-1.231411
 20
-0.396645
 30
0.320136
 11
-0.637790
 21
0.000001
 31
-0.288559
 12
-1.338014
 22
-0.139283
 32
0.320136
 13
-1.338014
 23
-0.139283
 33
0.320136
 62
0
  0
3DFACE
  8
Cylinder
 10
-0.777074
 20
-0.700230
 30
0.320141
 11
-1.034438
 21
-0.593626
 31
0.320141
 12
-1.402061
 22
-0.764273
 32
0.651003
 13
-0.637788
 23
-1.080844
 33
0.651004
 62
0
  0
3DFACE
  8
Cylinder
 10
-1.338014
 20
-0.139283
 30
0.320136
 11
-0.637790
 21
0.000001
 31
-0.288559
 12
-1.338012
 22
0.139283
 32
0.320134
 13
-1.718633
 23
-0.000000
 33
0.651003
 62
0
  0
3DFACE
  8
Cylinder
 10
-1.338014
 20
-0.139283
 30
0.320136
 11
-1.718633
 21
-0.000000
 31
0.651003
 12
-1.402061
 22
-0.764273
 32
0.651003
 13
-1.231411
 23
-0.396645
 33
0.320136
 62
0
  0
3DFACE
  8
Cylinder
 10
-1.270899
 20
0.633110
 30
0.879693
 11
-1.402061
 21
0.764272
 31
0.684556
 12
-0.637788
 22
1.080844
 32
0.684557
 13
-0.637788
 23
1.080844
 33
0.684557
 62
0
  0
3DFACE
  8
Cylinder
 10
-1.718633
 20
-0.000000
 30
0.684556
 11
-1.402061
 21
0.764272
 31
0.684556
 12
-1.270899
 22
0.633110
 32
0.879693
 13
-1.270899
 23
0.633110
 33
0.879693
 62
0
  0
3DFACE
  8
Cylinder
 10
-0.637788
 20
1.080844
 30
0.684557
 11
0.126485
 21
0.764273
 31
0.684557
 12
-0.004677
 22
0.633110
 32
0.879694
 13
-0.004677
 23
0.633110
 33
0.879694
 62
0
  0
3DFACE
  8
Cylinder
 10
0.443057
 20
0.000001
 30
0.684556
 11
0.443057
 21
0.000001
 31
0.651004
 12
0.126485
 22
-0.764272
 32
0.651004
 13
0.126485
 23
-0.764272
 33
0.684556
 62
0
  0
3DFACE
  8
Cylinder
 10
0.126485
 20
-0.764272
 30
0.684556
 11
0.126485
 21
-0.764272
 31
0.651004
 12
-0.637788
 22
-1.080844
 32
0.651004
 13
-0.637788
 23
-1.080844
 33
0.684556
 62
0
  0
3DFACE
  8
Cylinder
 10
-0.637788
 20
-1.080844
 30
0.684556
 11
-0.637788
 21
-1.080844
 31
0.651004
 12
-1.402061
 22
-0.764273
 32
0.651003
 13
-1.402061
 23
-0.764273
 33
0.684557
 62
0
  0
3DFACE
  8
Cylinder
 10
-1.402061
 20
-0.764273
 30
0.684557
 11
-1.402061
 21
-0.764273
 31
0.651003
 12
-1.718633
 22
-0.000000
 32
0.651003
 13
-1.718633
 23
-0.000000
 33
0.684556
 62
0
  0
3DFACE
  8
Cylinder
 10
-1.270899
 20
0.633110
 30
0.879693
 11
-0.637788
 21
1.080844
 31
0.684557
 12
-0.637788
 22
0.633374
 32
0.998575
 13
-0.637788
 23
0.633374
 33
0.998575
 62
0
  0
3DFACE
  8
Cylinder
 10
-1.271162
 20
-0.000001
 30
0.998575
 11
-1.718633
 21
-0.000000
 31
0.684556
 12
-1.270899
 22
0.633110
 32
0.879693
 13
-1.270899
 23
0.633110
 33
0.879693
 62
0
  0
3DFACE
  8
Cylinder
 10
-0.004677
 20
0.633110
 30
0.879694
 11
0.126485
 21
0.764273
 31
0.684557
 12
0.443057
 22
0.000001
 32
0.684556
 13
0.443057
 23
0.000001
 33
0.684556
 62
0
  0
3DFACE
  8
Cylinder
 10
-0.637788
 20
0.633374
 30
0.998575
 11
-0.637788
 21
1.080844
 31
0.684557
 12
-0.004677
 22
0.633110
 32
0.879694
 13
-0.004677
 23
0.633110
 33
0.879694
 62
0
  0
3DFACE
  8
Cylinder
 10
0.443057
 20
0.000001
 30
0.684556
 11
0.126485
 21
-0.764272
 31
0.684556
 12
-0.004677
 22
-0.633110
 32
0.879693
 13
-0.004677
 23
-0.633110
 33
0.879693
 62
0
  0
3DFACE
  8
Cylinder
 10
-0.004677
 20
-0.633110
 30
0.879693
 11
0.126485
 21
-0.764272
 31
0.684556
 12
-0.637788
 22
-1.080844
 32
0.684556
 13
-0.637788
 23
-1.080844
 33
0.684556
 62
0
  0
3DFACE
  8
Cylinder
 10
-0.637788
 20
-1.080844
 30
0.684556
 11
-1.402061
 21
-0.764273
 31
0.684557
 12
-1.270898
 22
-0.633110
 32
0.879694
 13
-1.270898
 23
-0.633110
 33
0.879694
 62
0
  0
3DFACE
  8
Cylinder
 10
-1.270898
 20
-0.633110
 30
0.879694
 11
-1.402061
 21
-0.764273
 31
0.684557
 12
-1.718633
 22
-0.000000
 32
0.684556
 13
-1.718633
 23
-0.000000
 33
0.684556
 62
0
  0
3DFACE
  8
Cylinder
 10
-1.039452
 20
0.401663
 30
0.998570
 11
-1.270899
 21
0.633110
 31
0.879693
 12
-0.637788
 22
0.633374
 32
0.998575
 13
-0.637788
 23
0.633374
 33
0.998575
 62
0
  0
3DFACE
  8
Cylinder
 10
-0.004677
 20
0.633110
 30
0.879694
 11
0.443057
 21
0.000001
 31
0.684556
 12
-0.004412
 22
-0.000000
 32
0.998575
 13
-0.004412
 23
-0.000000
 33
0.998575
 62
0
  0
3DFACE
  8
Cylinder
 10
-1.271162
 20
-0.000001
 30
0.998575
 11
-1.270899
 21
0.633110
 31
0.879693
 12
-1.039452
 22
0.401663
 32
0.998570
 13
-1.039452
 23
0.401663
 33
0.998570
 62
0
  0
3DFACE
  8
Cylinder
 10
-0.637788
 20
0.633374
 30
0.998575
 11
-0.004677
 21
0.633110
 31
0.879694
 12
-0.236156
 22
0.401665
 32
0.998570
 13
-0.236156
 23
0.401665
 33
0.998570
 62
0
  0
3DFACE
  8
Cylinder
 10
-0.236156
 20
0.401665
 30
0.998570
 11
-0.004677
 21
0.633110
 31
0.879694
 12
-0.004412
 22
-0.000000
 32
0.998575
 13
-0.004412
 23
-0.000000
 33
0.998575
 62
0
  0
3DFACE
  8
Cylinder
 10
-0.004412
 20
-0.000000
 30
0.998575
 11
0.443057
 21
0.000001
 31
0.684556
 12
-0.004677
 22
-0.633110
 32
0.879693
 13
-0.004677
 23
-0.633110
 33
0.879693
 62
0
  0
3DFACE
  8
Cylinder
 10
-0.004677
 20
-0.633110
 30
0.879693
 11
-0.637788
 21
-1.080844
 31
0.684556
 12
-0.637787
 22
-0.633376
 32
0.998574
 13
-0.637787
 23
-0.633376
 33
0.998574
 62
0
  0
3DFACE
  8
Cylinder
 10
-0.637787
 20
-0.633376
 30
0.998574
 11
-0.637788
 21
-1.080844
 31
0.684556
 12
-1.270898
 22
-0.633110
 32
0.879694
 13
-1.270898
 23
-0.633110
 33
0.879694
 62
0
  0
3DFACE
  8
Cylinder
 10
-1.270898
 20
-0.633110
 30
0.879694
 11
-1.718633
 21
-0.000000
 31
0.684556
 12
-1.271162
 22
-0.000001
 32
0.998575
 13
-1.271162
 23
-0.000001
 33
0.998575
 62
0
  0
3DFACE
  8
Cylinder
 10
-1.039453
 20
-0.401632
 30
0.998570
 11
-1.270898
 21
-0.633110
 31
0.879694
 12
-1.271162
 22
-0.000001
 32
0.998575
 13
-1.271162
 23
-0.000001
 33
0.998575
 62
0
  0
3DFACE
  8
Cylinder
 10
-0.236157
 20
-0.401630
 30
0.998570
 11
-0.004677
 21
-0.633110
 31
0.879693
 12
-0.637787
 22
-0.633376
 32
0.998574
 13
-0.637787
 23
-0.633376
 33
0.998574
 62
0
  0
3DFACE
  8
Cylinder
 10
-0.637787
 20
-0.633376
 30
0.998574
 11
-1.270898
 21
-0.633110
 31
0.879694
 12
-1.039453
 22
-0.401632
 32
0.998570
 13
-1.039453
 23
-0.401632
 33
0.998570
 62
0
  0
3DFACE
  8
Cylinder
 10
-0.004412
 20
-0.000000
 30
0.998575
 11
-0.004677
 21
-0.633110
 31
0.879693
 12
-0.236157
 22
-0.401630
 32
0.998570
 13
-0.236157
 23
-0.401630
 33
0.998570
 62
0
  0
3DFACE
  8
Cylinder
 10
-0.236157
 20
-0.401630
 30
0.998570
 11
-0.637787
 21
-0.633376
 31
0.998574
 12
-1.039453
 22
-0.401632
 32
0.998570
 13
-1.039453
 23
-0.401632
 33
0.998570
 62
0
  0
3DFACE
  8
Cylinder
 10
-0.004412
 20
-0.000000
 30
0.998575
 11
-0.236157
 21
-0.401630
 31
0.998570
 12
-1.039453
 22
-0.401632
 32
0.998570
 13
-1.039453
 23
-0.401632
 33
0.998570
 62
0
  0
3DFACE
  8
Cylinder
 10
-1.271162
 20
-0.000001
 30
0.998575
 11
-0.004412
 21
-0.000000
 31
0.998575
 12
-1.039453
 22
-0.401632
 32
0.998570
 13
-1.039453
 23
-0.401632
 33
0.998570
 62
0
  0
3DFACE
  8
Cylinder
 10
-1.039452
 20
0.401663
 30
0.998570
 11
-0.004412
 21
-0.000000
 31
0.998575
 12
-1.271162
 22
-0.000001
 32
0.998575
 13
-1.271162
 23
-0.000001
 33
0.998575
 62
0
  0
3DFACE
  8
Cylinder
 10
-0.236156
 20
0.401665
 30
0.998570
 11
-0.004412
 21
-0.000000
 31
0.998575
 12
-1.039452
 22
0.401663
 32
0.998570
 13
-1.039452
 23
0.401663
 33
0.998570
 62
0
  0
3DFACE
  8
Cylinder
 10
-0.637788
 20
0.633374
 30
0.998575
 11
-0.236156
 21
0.401665
 31
0.998570
 12
-1.039452
 22
0.401663
 32
0.998570
 13
-1.039452
 23
0.401663
 33
0.998570
 62
0
 0
ENDSEC
 0
EOF
