  0
SECTION
  2
HEADER
  0
ENDSEC
  0
SECTION
  2
TABLES
  0
TABLE
  2
LAYER
  70
    153
  0
LAYER
  2
Cylinder
 70
0
 62
15
  6
CONTINUOUS
  0
ENDTAB
  0
ENDSEC
  0
SECTION
  2
ENTITIES
  0
3DFACE
  8
Cylinder
 10
-0.951804
 20
0.662579
 30
0.195384
 11
-0.677355
 21
0.000000
 31
-0.380587
 12
-0.402906
 22
0.662579
 32
0.195384
 13
-0.677355
 23
0.849712
 33
0.358056
 62
0
  0
3DFACE
  8
Cylinder
 10
-1.339934
 20
0.274449
 30
0.195384
 11
-0.677355
 21
0.000000
 31
-0.380587
 12
-0.951804
 22
0.662579
 32
0.195384
 13
-1.492683
 23
0.815329
 33
0.621743
 62
0
  0
3DFACE
  8
Cylinder
 10
-1.711150
 20
-0.000001
 30
0.621671
 11
-1.492683
 21
0.815329
 31
0.621743
 12
-1.492683
 22
0.815329
 32
0.659649
 13
-1.711150
 23
-0.000001
 33
0.659649
 62
0
  0
3DFACE
  8
Cylinder
 10
-1.492683
 20
0.815329
 30
0.621743
 11
-0.677355
 21
1.033795
 31
0.621671
 12
-0.677355
 22
1.033795
 32
0.659648
 13
-1.492683
 23
0.815329
 33
0.659649
 62
0
  0
3DFACE
  8
Cylinder
 10
-1.492683
 20
0.815329
 30
0.621743
 11
-0.951804
 21
0.662579
 31
0.195384
 12
-0.677355
 22
0.849712
 32
0.358056
 13
-0.677355
 23
1.033795
 33
0.621671
 62
0
  0
3DFACE
  8
Cylinder
 10
-0.677355
 20
1.033795
 30
0.621671
 11
0.137973
 21
0.815329
 31
0.621743
 12
0.137973
 22
0.815329
 32
0.659649
 13
-0.677355
 23
1.033795
 33
0.659648
 62
0
  0
3DFACE
  8
Cylinder
 10
-0.402906
 20
0.662579
 30
0.195384
 11
-0.677355
 21
0.000000
 31
-0.380587
 12
-0.014775
 22
0.274450
 32
0.195385
 13
0.137973
 23
0.815329
 33
0.621743
 62
0
  0
3DFACE
  8
Cylinder
 10
-0.677355
 20
0.849712
 30
0.358056
 11
-0.402906
 21
0.662579
 31
0.195384
 12
0.137973
 22
0.815329
 32
0.621743
 13
-0.677355
 23
1.033795
 33
0.621671
 62
0
  0
3DFACE
  8
Cylinder
 10
0.137973
 20
0.815329
 30
0.621743
 11
0.356440
 21
0.000000
 31
0.621671
 12
0.356440
 22
0.000000
 32
0.659649
 13
0.137973
 23
0.815329
 33
0.659649
 62
0
  0
3DFACE
  8
Cylinder
 10
0.137973
 20
0.815329
 30
0.621743
 11
-0.014775
 21
0.274450
 31
0.195385
 12
0.172357
 22
0.000000
 32
0.358057
 13
0.356440
 23
0.000000
 33
0.621671
 62
0
  0
3DFACE
  8
Cylinder
 10
-0.014775
 20
0.274450
 30
0.195385
 11
-0.677355
 21
0.000000
 31
-0.380587
 12
-0.014775
 22
-0.274450
 32
0.195385
 13
0.172357
 23
0.000000
 33
0.358057
 62
0
  0
3DFACE
  8
Cylinder
 10
-0.014775
 20
-0.274450
 30
0.195385
 11
-0.677355
 21
0.000000
 31
-0.380587
 12
-0.402906
 22
-0.662580
 32
0.195384
 13
0.137973
 23
-0.815329
 33
0.621742
 62
0
  0
3DFACE
  8
Cylinder
 10
-0.014775
 20
-0.274450
 30
0.195385
 11
0.137973
 21
-0.815329
 31
0.621742
 12
0.356440
 22
0.000000
 32
0.621671
 13
0.172357
 23
0.000000
 33
0.358057
 62
0
  0
3DFACE
  8
Cylinder
 10
-0.951804
 20
-0.662580
 30
0.195384
 11
-0.677355
 21
0.000000
 31
-0.380587
 12
-1.339935
 22
-0.274450
 32
0.195384
 13
-1.492683
 23
-0.815329
 33
0.621743
 62
0
  0
3DFACE
  8
Cylinder
 10
0.137973
 20
-0.815329
 30
0.621742
 11
-0.402906
 21
-0.662580
 31
0.195384
 12
-0.677355
 22
-0.849712
 32
0.358056
 13
-0.677356
 23
-1.033795
 33
0.621671
 62
0
  0
3DFACE
  8
Cylinder
 10
-0.402906
 20
-0.662580
 30
0.195384
 11
-0.677355
 21
0.000000
 31
-0.380587
 12
-0.951804
 22
-0.662580
 32
0.195384
 13
-0.677355
 23
-0.849712
 33
0.358056
 62
0
  0
3DFACE
  8
Cylinder
 10
-1.339934
 20
0.274449
 30
0.195384
 11
-1.492683
 21
0.815329
 31
0.621743
 12
-1.711150
 22
-0.000001
 32
0.621671
 13
-1.527067
 23
-0.000001
 33
0.358056
 62
0
  0
3DFACE
  8
Cylinder
 10
-1.492683
 20
-0.815329
 30
0.621743
 11
-0.677356
 21
-1.033795
 31
0.621671
 12
-0.677355
 22
-0.849712
 32
0.358056
 13
-0.951804
 23
-0.662580
 33
0.195384
 62
0
  0
3DFACE
  8
Cylinder
 10
-0.677355
 20
0.000000
 30
-0.380587
 11
-1.339934
 21
0.274449
 31
0.195384
 12
-1.527067
 22
-0.000001
 32
0.358056
 13
-1.339935
 23
-0.274450
 33
0.195384
 62
0
  0
3DFACE
  8
Cylinder
 10
-1.711150
 20
-0.000001
 30
0.621671
 11
-1.492683
 21
-0.815329
 31
0.621743
 12
-1.339935
 22
-0.274450
 32
0.195384
 13
-1.527067
 23
-0.000001
 33
0.358056
 62
0
  0
3DFACE
  8
Cylinder
 10
-1.492683
 20
0.815329
 30
0.659649
 11
-0.677355
 21
1.033795
 31
0.659648
 12
-1.068289
 22
0.677236
 32
0.918751
 13
-1.068289
 23
0.677236
 33
0.918751
 62
0
  0
3DFACE
  8
Cylinder
 10
0.137973
 20
0.815329
 30
0.659649
 11
-0.286420
 21
0.677236
 31
0.918751
 12
-0.677355
 22
1.033795
 32
0.659648
 13
-0.677355
 23
1.033795
 33
0.659648
 62
0
  0
3DFACE
  8
Cylinder
 10
0.356440
 20
0.000000
 30
0.621671
 11
0.137973
 21
-0.815329
 31
0.621742
 12
0.137973
 22
-0.815329
 32
0.659649
 13
0.356440
 23
0.000000
 33
0.659649
 62
0
  0
3DFACE
  8
Cylinder
 10
0.137973
 20
-0.815329
 30
0.621742
 11
-0.677356
 21
-1.033795
 31
0.621671
 12
-0.677356
 22
-1.033795
 32
0.659649
 13
0.137973
 23
-0.815329
 33
0.659649
 62
0
  0
3DFACE
  8
Cylinder
 10
-0.677356
 20
-1.033795
 30
0.621671
 11
-1.492683
 21
-0.815329
 31
0.621743
 12
-1.492683
 22
-0.815329
 32
0.659649
 13
-0.677356
 23
-1.033795
 33
0.659649
 62
0
  0
3DFACE
  8
Cylinder
 10
-1.492683
 20
-0.815329
 30
0.621743
 11
-1.711150
 21
-0.000001
 31
0.621671
 12
-1.711150
 22
-0.000001
 32
0.659649
 13
-1.492683
 23
-0.815329
 33
0.659649
 62
0
  0
3DFACE
  8
Cylinder
 10
-1.492683
 20
0.815329
 30
0.659649
 11
-1.354591
 21
0.390934
 31
0.918751
 12
-1.711150
 22
-0.000001
 32
0.659649
 13
-1.711150
 23
-0.000001
 33
0.659649
 62
0
  0
3DFACE
  8
Cylinder
 10
0.137973
 20
0.815329
 30
0.659649
 11
0.356440
 21
0.000000
 31
0.659649
 12
-0.000118
 22
0.390935
 32
0.918751
 13
-0.000118
 23
0.390935
 33
0.918751
 62
0
  0
3DFACE
  8
Cylinder
 10
-1.492683
 20
-0.815329
 30
0.659649
 11
-1.711150
 21
-0.000001
 31
0.659649
 12
-1.354591
 22
-0.390935
 32
0.918751
 13
-1.354591
 23
-0.390935
 33
0.918751
 62
0
  0
3DFACE
  8
Cylinder
 10
-0.229681
 20
0.447239
 30
0.998557
 11
-0.286420
 21
0.677236
 31
0.918751
 12
0.137973
 22
0.815329
 32
0.659649
 13
-0.000118
 23
0.390935
 33
0.918751
 62
0
  0
3DFACE
  8
Cylinder
 10
-1.124593
 20
0.447673
 30
0.998558
 11
-1.354591
 21
0.390934
 31
0.918751
 12
-1.492683
 22
0.815329
 32
0.659649
 13
-1.068289
 23
0.677236
 33
0.918751
 62
0
  0
3DFACE
  8
Cylinder
 10
-0.676762
 20
0.567426
 30
0.998530
 11
-1.068289
 21
0.677236
 31
0.918751
 12
-0.677355
 22
1.033795
 32
0.659648
 13
-0.286420
 23
0.677236
 33
0.918751
 62
0
  0
3DFACE
  8
Cylinder
 10
0.137973
 20
-0.815329
 30
0.659649
 11
-0.000118
 21
-0.390935
 31
0.918751
 12
0.356440
 22
0.000000
 32
0.659649
 13
0.356440
 23
0.000000
 33
0.659649
 62
0
  0
3DFACE
  8
Cylinder
 10
-1.492683
 20
-0.815329
 30
0.659649
 11
-1.068290
 21
-0.677238
 31
0.918750
 12
-0.677356
 22
-1.033795
 32
0.659649
 13
-0.677356
 23
-1.033795
 33
0.659649
 62
0
  0
3DFACE
  8
Cylinder
 10
0.137973
 20
-0.815329
 30
0.659649
 11
-0.677356
 21
-1.033795
 31
0.659649
 12
-0.286420
 22
-0.677238
 32
0.918750
 13
-0.286420
 23
-0.677238
 33
0.918750
 62
0
  0
3DFACE
  8
Cylinder
 10
-1.354591
 20
-0.390935
 30
0.918751
 11
-1.711150
 21
-0.000001
 31
0.659649
 12
-1.354591
 22
0.390934
 32
0.918751
 13
-1.244780
 23
-0.000595
 33
0.998530
 62
0
  0
3DFACE
  8
Cylinder
 10
-1.124593
 20
0.447673
 30
0.998558
 11
-1.068289
 21
0.677236
 31
0.918751
 12
-0.676762
 22
0.567426
 32
0.998530
 13
-0.676762
 23
0.567426
 33
0.998530
 62
0
  0
3DFACE
  8
Cylinder
 10
-1.244780
 20
-0.000595
 30
0.998530
 11
-1.354591
 21
0.390934
 31
0.918751
 12
-1.124593
 22
0.447673
 32
0.998558
 13
-1.124593
 23
0.447673
 33
0.998558
 62
0
  0
3DFACE
  8
Cylinder
 10
-0.676762
 20
0.567426
 30
0.998530
 11
-0.286420
 21
0.677236
 31
0.918751
 12
-0.229681
 22
0.447239
 32
0.998557
 13
-0.229681
 23
0.447239
 33
0.998557
 62
0
  0
3DFACE
  8
Cylinder
 10
-0.109929
 20
-0.000594
 30
0.998530
 11
-0.000118
 21
0.390935
 31
0.918751
 12
0.356440
 22
0.000000
 32
0.659649
 13
-0.000118
 23
-0.390935
 33
0.918751
 62
0
  0
3DFACE
  8
Cylinder
 10
-0.229681
 20
0.447239
 30
0.998557
 11
-0.000118
 21
0.390935
 31
0.918751
 12
-0.109929
 22
-0.000594
 32
0.998530
 13
-0.109929
 23
-0.000594
 33
0.998530
 62
0
  0
3DFACE
  8
Cylinder
 10
-0.230117
 20
-0.447674
 30
0.998557
 11
-0.000118
 21
-0.390935
 31
0.918751
 12
0.137973
 22
-0.815329
 32
0.659649
 13
-0.286420
 23
-0.677238
 33
0.918750
 62
0
  0
3DFACE
  8
Cylinder
 10
-0.677949
 20
-0.567426
 30
0.998530
 11
-0.286420
 21
-0.677238
 31
0.918750
 12
-0.677356
 22
-1.033795
 32
0.659649
 13
-1.068290
 23
-0.677238
 33
0.918750
 62
0
  0
3DFACE
  8
Cylinder
 10
-1.125068
 20
-0.447229
 30
0.998544
 11
-1.068290
 21
-0.677238
 31
0.918750
 12
-1.492683
 22
-0.815329
 32
0.659649
 13
-1.354591
 23
-0.390935
 33
0.918751
 62
0
  0
3DFACE
  8
Cylinder
 10
-1.125068
 20
-0.447229
 30
0.998544
 11
-1.354591
 21
-0.390935
 31
0.918751
 12
-1.244780
 22
-0.000595
 32
0.998530
 13
-1.244780
 23
-0.000595
 33
0.998530
 62
0
  0
3DFACE
  8
Cylinder
 10
-0.677949
 20
-0.567426
 30
0.998530
 11
-1.068290
 21
-0.677238
 31
0.918750
 12
-1.125068
 22
-0.447229
 32
0.998544
 13
-1.125068
 23
-0.447229
 33
0.998544
 62
0
  0
3DFACE
  8
Cylinder
 10
-0.230117
 20
-0.447674
 30
0.998557
 11
-0.286420
 21
-0.677238
 31
0.918750
 12
-0.677949
 22
-0.567426
 32
0.998530
 13
-0.677949
 23
-0.567426
 33
0.998530
 62
0
  0
3DFACE
  8
Cylinder
 10
-0.109929
 20
-0.000594
 30
0.998530
 11
-0.000118
 21
-0.390935
 31
0.918751
 12
-0.230117
 22
-0.447674
 32
0.998557
 13
-0.230117
 23
-0.447674
 33
0.998557
 62
0
  0
3DFACE
  8
Cylinder
 10
-1.125068
 20
-0.447229
 30
0.998544
 11
-0.230117
 21
-0.447674
 31
0.998557
 12
-0.677949
 22
-0.567426
 32
0.998530
 13
-0.677949
 23
-0.567426
 33
0.998530
 62
0
  0
3DFACE
  8
Cylinder
 10
-1.244780
 20
-0.000595
 30
0.998530
 11
-0.230117
 21
-0.447674
 31
0.998557
 12
-1.125068
 22
-0.447229
 32
0.998544
 13
-1.125068
 23
-0.447229
 33
0.998544
 62
0
  0
3DFACE
  8
Cylinder
 10
-0.109929
 20
-0.000594
 30
0.998530
 11
-0.230117
 21
-0.447674
 31
0.998557
 12
-1.244780
 22
-0.000595
 32
0.998530
 13
-1.244780
 23
-0.000595
 33
0.998530
 62
0
  0
3DFACE
  8
Cylinder
 10
-0.229681
 20
0.447239
 30
0.998557
 11
-0.109929
 21
-0.000594
 31
0.998530
 12
-1.244780
 22
-0.000595
 32
0.998530
 13
-1.244780
 23
-0.000595
 33
0.998530
 62
0
  0
3DFACE
  8
Cylinder
 10
-1.124593
 20
0.447673
 30
0.998558
 11
-0.229681
 21
0.447239
 31
0.998557
 12
-1.244780
 22
-0.000595
 32
0.998530
 13
-1.244780
 23
-0.000595
 33
0.998530
 62
0
  0
3DFACE
  8
Cylinder
 10
-0.676762
 20
0.567426
 30
0.998530
 11
-0.229681
 21
0.447239
 31
0.998557
 12
-1.124593
 22
0.447673
 32
0.998558
 13
-1.124593
 23
0.447673
 33
0.998558
 62
0
 0
ENDSEC
 0
EOF
