  0
SECTION
  2
HEADER
  0
ENDSEC
  0
SECTION
  2
TABLES
  0
TABLE
  2
LAYER
  70
    153
  0
LAYER
  2
Cylinder
 70
0
 62
15
  6
CONTINUOUS
  0
ENDTAB
  0
ENDSEC
  0
SECTION
  2
ENTITIES
  0
3DFACE
  8
Cylinder
 10
-1.007187
 20
0.000000
 30
0.691879
 11
-0.890015
 21
0.890014
 31
0.691879
 12
-0.890015
 22
0.890014
 32
0.724588
 13
-1.007187
 23
0.000000
 33
0.724588
 62
0
  0
3DFACE
  8
Cylinder
 10
-0.890015
 20
0.890014
 30
0.691879
 11
-0.000000
 21
1.007186
 31
0.691879
 12
-0.000000
 22
1.007186
 32
0.724588
 13
-0.890015
 23
0.890014
 33
0.724588
 62
0
  0
3DFACE
  8
Cylinder
 10
-0.000000
 20
1.007186
 30
0.691879
 11
0.890014
 21
0.890014
 31
0.691879
 12
0.890014
 22
0.890014
 32
0.724588
 13
-0.000000
 23
1.007186
 33
0.724588
 62
0
  0
3DFACE
  8
Cylinder
 10
0.890015
 20
-0.890014
 30
0.691879
 11
1.007187
 21
0.000000
 31
0.691879
 12
0.166472
 22
-0.166472
 32
-0.039062
 13
0.166472
 23
-0.166472
 33
-0.039062
 62
0
  0
3DFACE
  8
Cylinder
 10
0.890015
 20
-0.890014
 30
0.691879
 11
0.166472
 21
-0.166472
 31
-0.039062
 12
0.000000
 22
-1.007186
 32
0.691879
 13
0.000000
 23
-1.007186
 33
0.691879
 62
0
  0
3DFACE
  8
Cylinder
 10
-0.890014
 20
-0.890014
 30
0.691879
 11
0.000000
 21
-1.007186
 31
0.691879
 12
-0.166476
 22
-0.166475
 32
-0.039059
 13
-0.166476
 23
-0.166475
 33
-0.039059
 62
0
  0
3DFACE
  8
Cylinder
 10
-0.890014
 20
-0.890014
 30
0.691879
 11
-0.166476
 21
-0.166475
 31
-0.039059
 12
-1.007187
 22
0.000000
 32
0.691879
 13
-1.007187
 23
0.000000
 33
0.691879
 62
0
  0
3DFACE
  8
Cylinder
 10
-0.890015
 20
0.890014
 30
0.691879
 11
-1.007187
 21
0.000000
 31
0.691879
 12
-0.166475
 22
0.166475
 32
-0.039060
 13
-0.166475
 23
0.166475
 33
-0.039060
 62
0
  0
3DFACE
  8
Cylinder
 10
-0.890015
 20
0.890014
 30
0.691879
 11
-0.166475
 21
0.166475
 31
-0.039060
 12
-0.000000
 22
1.007186
 32
0.691879
 13
-0.000000
 23
1.007186
 33
0.691879
 62
0
  0
3DFACE
  8
Cylinder
 10
0.890014
 20
0.890014
 30
0.691879
 11
-0.000000
 21
1.007186
 31
0.691879
 12
0.166474
 22
0.166475
 32
-0.039060
 13
0.166474
 23
0.166475
 33
-0.039060
 62
0
  0
3DFACE
  8
Cylinder
 10
0.890014
 20
0.890014
 30
0.691879
 11
0.166474
 21
0.166475
 31
-0.039060
 12
1.007187
 22
0.000000
 32
0.691879
 13
1.007187
 23
0.000000
 33
0.691879
 62
0
  0
3DFACE
  8
Cylinder
 10
-0.000000
 20
1.007186
 30
0.691879
 11
-0.166475
 21
0.166475
 31
-0.039060
 12
0.000000
 22
0.000000
 32
-0.183774
 13
0.166474
 23
0.166475
 33
-0.039060
 62
0
  0
3DFACE
  8
Cylinder
 10
1.007187
 20
0.000000
 30
0.691879
 11
0.166474
 21
0.166475
 31
-0.039060
 12
0.000000
 22
0.000000
 32
-0.183774
 13
0.166472
 23
-0.166472
 33
-0.039062
 62
0
  0
3DFACE
  8
Cylinder
 10
-0.166475
 20
0.166475
 30
-0.039060
 11
-1.007187
 21
0.000000
 31
0.691879
 12
-0.166476
 22
-0.166475
 32
-0.039059
 13
0.000000
 23
0.000000
 33
-0.183774
 62
0
  0
3DFACE
  8
Cylinder
 10
-0.166476
 20
-0.166475
 30
-0.039059
 11
0.000000
 21
-1.007186
 31
0.691879
 12
0.166472
 22
-0.166472
 32
-0.039062
 13
0.000000
 23
0.000000
 33
-0.183774
 62
0
  0
3DFACE
  8
Cylinder
 10
0.890014
 20
0.890014
 30
0.691879
 11
1.007187
 21
0.000000
 31
0.691879
 12
1.007187
 22
0.000000
 32
0.724588
 13
0.890014
 23
0.890014
 33
0.724588
 62
0
  0
3DFACE
  8
Cylinder
 10
-0.000000
 20
1.007186
 30
0.724588
 11
-0.314635
 21
0.757409
 31
0.906195
 12
-0.890015
 22
0.890014
 32
0.724588
 13
-0.890015
 23
0.890014
 33
0.724588
 62
0
  0
3DFACE
  8
Cylinder
 10
-0.000000
 20
1.007186
 30
0.724588
 11
0.890014
 21
0.890014
 31
0.724588
 12
0.314634
 22
0.757409
 32
0.906194
 13
0.314634
 23
0.757409
 33
0.906194
 62
0
  0
3DFACE
  8
Cylinder
 10
1.007187
 20
0.000000
 30
0.691879
 11
0.890015
 21
-0.890014
 31
0.691879
 12
0.890015
 22
-0.890014
 32
0.724588
 13
1.007187
 23
0.000000
 33
0.724588
 62
0
  0
3DFACE
  8
Cylinder
 10
0.890015
 20
-0.890014
 30
0.691879
 11
0.000000
 21
-1.007186
 31
0.691879
 12
0.000000
 22
-1.007186
 32
0.724588
 13
0.890015
 23
-0.890014
 33
0.724588
 62
0
  0
3DFACE
  8
Cylinder
 10
0.000000
 20
-1.007186
 30
0.691879
 11
-0.890014
 21
-0.890014
 31
0.691879
 12
-0.890014
 22
-0.890014
 32
0.724588
 13
0.000000
 23
-1.007186
 33
0.724588
 62
0
  0
3DFACE
  8
Cylinder
 10
-0.890014
 20
-0.890014
 30
0.691879
 11
-1.007187
 21
0.000000
 31
0.691879
 12
-1.007187
 22
0.000000
 32
0.724588
 13
-0.890014
 23
-0.890014
 33
0.724588
 62
0
  0
3DFACE
  8
Cylinder
 10
-1.007187
 20
0.000000
 30
0.724588
 11
-0.757410
 21
-0.314635
 31
0.906194
 12
-0.890014
 22
-0.890014
 32
0.724588
 13
-0.890014
 23
-0.890014
 33
0.724588
 62
0
  0
3DFACE
  8
Cylinder
 10
-0.000057
 20
0.630339
 30
0.998547
 11
-0.314635
 21
0.757409
 31
0.906195
 12
-0.000000
 22
1.007186
 32
0.724588
 13
0.314634
 23
0.757409
 33
0.906194
 62
0
  0
3DFACE
  8
Cylinder
 10
1.007187
 20
0.000000
 30
0.724588
 11
0.890015
 21
-0.890014
 31
0.724588
 12
0.757410
 22
-0.314635
 32
0.906194
 13
0.757410
 23
-0.314635
 33
0.906194
 62
0
  0
3DFACE
  8
Cylinder
 10
-1.007187
 20
0.000000
 30
0.724588
 11
-0.890015
 21
0.890014
 31
0.724588
 12
-0.757410
 22
0.314635
 32
0.906195
 13
-0.757410
 23
0.314635
 33
0.906195
 62
0
  0
3DFACE
  8
Cylinder
 10
-0.445936
 20
0.445935
 30
0.998427
 11
-0.890015
 21
0.890014
 31
0.724588
 12
-0.314635
 22
0.757409
 32
0.906195
 13
-0.314635
 23
0.757409
 33
0.906195
 62
0
  0
3DFACE
  8
Cylinder
 10
-0.757410
 20
0.314635
 30
0.906195
 11
-0.890015
 21
0.890014
 31
0.724588
 12
-0.445936
 22
0.445935
 32
0.998427
 13
-0.445936
 23
0.445935
 33
0.998427
 62
0
  0
3DFACE
  8
Cylinder
 10
0.314634
 20
0.757409
 30
0.906194
 11
0.890014
 21
0.890014
 31
0.724588
 12
0.445834
 22
0.445877
 32
0.998463
 13
0.445834
 23
0.445877
 33
0.998463
 62
0
  0
3DFACE
  8
Cylinder
 10
1.007187
 20
0.000000
 30
0.724588
 11
0.757410
 21
0.314634
 31
0.906194
 12
0.890014
 22
0.890014
 32
0.724588
 13
0.890014
 23
0.890014
 33
0.724588
 62
0
  0
3DFACE
  8
Cylinder
 10
0.000000
 20
-1.007186
 30
0.724588
 11
0.314636
 21
-0.757409
 31
0.906194
 12
0.890015
 22
-0.890014
 32
0.724588
 13
0.890015
 23
-0.890014
 33
0.724588
 62
0
  0
3DFACE
  8
Cylinder
 10
0.000000
 20
-1.007186
 30
0.724588
 11
-0.890014
 21
-0.890014
 31
0.724588
 12
-0.314635
 22
-0.757409
 32
0.906194
 13
-0.314635
 23
-0.757409
 33
0.906194
 62
0
  0
3DFACE
  8
Cylinder
 10
-0.757410
 20
-0.314635
 30
0.906194
 11
-1.007187
 21
0.000000
 31
0.724588
 12
-0.757410
 22
0.314635
 32
0.906195
 13
-0.630340
 23
0.000057
 33
0.998546
 62
0
  0
3DFACE
  8
Cylinder
 10
-0.445936
 20
0.445935
 30
0.998427
 11
-0.314635
 21
0.757409
 31
0.906195
 12
-0.000057
 22
0.630339
 32
0.998547
 13
-0.000057
 23
0.630339
 33
0.998547
 62
0
  0
3DFACE
  8
Cylinder
 10
-0.630340
 20
0.000057
 30
0.998546
 11
-0.757410
 21
0.314635
 31
0.906195
 12
-0.445936
 22
0.445935
 32
0.998427
 13
-0.445936
 23
0.445935
 33
0.998427
 62
0
  0
3DFACE
  8
Cylinder
 10
0.445834
 20
0.445877
 30
0.998463
 11
0.890014
 21
0.890014
 31
0.724588
 12
0.757410
 22
0.314634
 32
0.906194
 13
0.757410
 23
0.314634
 33
0.906194
 62
0
  0
3DFACE
  8
Cylinder
 10
-0.000057
 20
0.630339
 30
0.998547
 11
0.314634
 21
0.757409
 31
0.906194
 12
0.445834
 22
0.445877
 32
0.998463
 13
0.445834
 23
0.445877
 33
0.998463
 62
0
  0
3DFACE
  8
Cylinder
 10
0.630340
 20
0.000057
 30
0.998546
 11
0.757410
 21
0.314634
 31
0.906194
 12
1.007187
 22
0.000000
 32
0.724588
 13
0.757410
 23
-0.314635
 33
0.906194
 62
0
  0
3DFACE
  8
Cylinder
 10
0.445834
 20
0.445877
 30
0.998463
 11
0.757410
 21
0.314634
 31
0.906194
 12
0.630340
 22
0.000057
 32
0.998546
 13
0.630340
 23
0.000057
 33
0.998546
 62
0
  0
3DFACE
  8
Cylinder
 10
0.757410
 20
-0.314635
 30
0.906194
 11
0.890015
 21
-0.890014
 31
0.724588
 12
0.445694
 22
-0.445694
 32
0.998550
 13
0.445694
 23
-0.445694
 33
0.998550
 62
0
  0
3DFACE
  8
Cylinder
 10
0.445694
 20
-0.445694
 30
0.998550
 11
0.890015
 21
-0.890014
 31
0.724588
 12
0.314636
 22
-0.757409
 32
0.906194
 13
0.314636
 23
-0.757409
 33
0.906194
 62
0
  0
3DFACE
  8
Cylinder
 10
-0.314635
 20
-0.757409
 30
0.906194
 11
-0.890014
 21
-0.890014
 31
0.724588
 12
-0.445796
 22
-0.445753
 32
0.998513
 13
-0.445796
 23
-0.445753
 33
0.998513
 62
0
  0
3DFACE
  8
Cylinder
 10
0.000058
 20
-0.630339
 30
0.998547
 11
0.314636
 21
-0.757409
 31
0.906194
 12
0.000000
 22
-1.007186
 32
0.724588
 13
-0.314635
 23
-0.757409
 33
0.906194
 62
0
  0
3DFACE
  8
Cylinder
 10
-0.445796
 20
-0.445753
 30
0.998513
 11
-0.890014
 21
-0.890014
 31
0.724588
 12
-0.757410
 22
-0.314635
 32
0.906194
 13
-0.757410
 23
-0.314635
 33
0.906194
 62
0
  0
3DFACE
  8
Cylinder
 10
-0.445796
 20
-0.445753
 30
0.998513
 11
-0.757410
 21
-0.314635
 31
0.906194
 12
-0.630340
 22
0.000057
 32
0.998546
 13
-0.630340
 23
0.000057
 33
0.998546
 62
0
  0
3DFACE
  8
Cylinder
 10
0.445694
 20
-0.445694
 30
0.998550
 11
0.314636
 21
-0.757409
 31
0.906194
 12
0.000058
 22
-0.630339
 32
0.998547
 13
0.000058
 23
-0.630339
 33
0.998547
 62
0
  0
3DFACE
  8
Cylinder
 10
0.000058
 20
-0.630339
 30
0.998547
 11
-0.314635
 21
-0.757409
 31
0.906194
 12
-0.445796
 22
-0.445753
 32
0.998513
 13
-0.445796
 23
-0.445753
 33
0.998513
 62
0
  0
3DFACE
  8
Cylinder
 10
0.630340
 20
0.000057
 30
0.998546
 11
0.757410
 21
-0.314635
 31
0.906194
 12
0.445694
 22
-0.445694
 32
0.998550
 13
0.445694
 23
-0.445694
 33
0.998550
 62
0
  0
3DFACE
  8
Cylinder
 10
0.445694
 20
-0.445694
 30
0.998550
 11
0.000058
 21
-0.630339
 31
0.998547
 12
-0.445796
 22
-0.445753
 32
0.998513
 13
-0.445796
 23
-0.445753
 33
0.998513
 62
0
  0
3DFACE
  8
Cylinder
 10
0.630340
 20
0.000057
 30
0.998546
 11
0.445694
 21
-0.445694
 31
0.998550
 12
-0.445796
 22
-0.445753
 32
0.998513
 13
-0.445796
 23
-0.445753
 33
0.998513
 62
0
  0
3DFACE
  8
Cylinder
 10
-0.630340
 20
0.000057
 30
0.998546
 11
0.630340
 21
0.000057
 31
0.998546
 12
-0.445796
 22
-0.445753
 32
0.998513
 13
-0.445796
 23
-0.445753
 33
0.998513
 62
0
  0
3DFACE
  8
Cylinder
 10
0.445834
 20
0.445877
 30
0.998463
 11
0.630340
 21
0.000057
 31
0.998546
 12
-0.630340
 22
0.000057
 32
0.998546
 13
-0.630340
 23
0.000057
 33
0.998546
 62
0
  0
3DFACE
  8
Cylinder
 10
-0.445936
 20
0.445935
 30
0.998427
 11
0.445834
 21
0.445877
 31
0.998463
 12
-0.630340
 22
0.000057
 32
0.998546
 13
-0.630340
 23
0.000057
 33
0.998546
 62
0
  0
3DFACE
  8
Cylinder
 10
-0.000057
 20
0.630339
 30
0.998547
 11
0.445834
 21
0.445877
 31
0.998463
 12
-0.445936
 22
0.445935
 32
0.998427
 13
-0.445936
 23
0.445935
 33
0.998427
 62
0
 0
ENDSEC
 0
EOF
