  0
SECTION
  2
HEADER
  0
ENDSEC
  0
SECTION
  2
TABLES
  0
TABLE
  2
LAYER
  70
    153
  0
LAYER
  2
NoName1
 70
0
 62
15
  6
CONTINUOUS
  0
ENDTAB
  0
ENDSEC
  0
SECTION
  2
ENTITIES
  0
3DFACE
  8
NoName1
 10
-0.647859
 20
-1.177501
 30
-0.720303
 11
-0.647859
 21
-1.177503
 31
-0.769410
 12
-0.838774
 22
-0.563811
 32
-0.769617
 13
-0.838775
 23
-0.563811
 33
-0.720510
 62
0
  0
3DFACE
  8
NoName1
 10
0.302750
 20
-1.429050
 30
-0.472367
 11
0.349994
 21
-0.772723
 31
-0.335542
 12
0.690690
 22
-0.464708
 32
-0.471021
 13
0.642177
 23
-1.177467
 33
-0.720507
 62
0
  0
3DFACE
  8
NoName1
 10
0.833858
 20
-0.563996
 30
-0.720508
 11
0.833858
 21
-0.563996
 31
-0.769615
 12
0.642177
 22
-1.177469
 32
-0.769615
 13
0.642177
 23
-1.177467
 33
-0.720507
 62
0
  0
3DFACE
  8
NoName1
 10
0.833858
 20
0.336442
 30
-0.721872
 11
0.833859
 21
0.336442
 31
-0.770980
 12
0.908172
 22
-0.007199
 32
-0.768894
 13
0.908171
 23
-0.007199
 33
-0.719787
 62
0
  0
3DFACE
  8
NoName1
 10
0.690690
 20
-0.464708
 30
-0.471021
 11
0.412657
 21
-0.290913
 31
-0.335550
 12
0.466397
 22
-0.007199
 32
-0.335541
 13
0.466397
 23
-0.007199
 33
-0.335541
 62
0
  0
3DFACE
  8
NoName1
 10
0.629007
 20
0.249336
 30
-0.470109
 11
0.398093
 21
0.157155
 31
-0.335544
 12
0.329793
 22
0.318034
 32
-0.335543
 13
0.329793
 23
0.318034
 33
-0.335543
 62
0
  0
3DFACE
  8
NoName1
 10
0.264674
 20
0.603846
 30
-0.473754
 11
0.169974
 21
0.386454
 31
-0.335733
 12
-0.000001
 22
0.451580
 32
-0.335543
 13
-0.000001
 23
0.451580
 33
-0.335543
 62
0
  0
3DFACE
  8
NoName1
 10
-0.270414
 20
0.603949
 30
-0.473338
 11
-0.167963
 21
0.386092
 31
-0.335545
 12
-0.329794
 22
0.318036
 32
-0.335544
 13
-0.329794
 23
0.318036
 33
-0.335544
 62
0
  0
3DFACE
  8
NoName1
 10
0.000003
 20
-0.010141
 30
-1.543582
 11
-0.431013
 21
0.170782
 31
-1.195595
 12
-0.908171
 22
-0.007199
 32
-0.768894
 13
-0.463535
 23
-0.325105
 33
-1.199729
 62
0
  0
3DFACE
  8
NoName1
 10
-0.167963
 20
0.386092
 30
-0.335545
 11
-0.000001
 21
0.451580
 31
-0.335543
 12
0.169974
 22
0.386454
 32
-0.335733
 13
0.169974
 23
0.386454
 33
-0.335733
 62
0
  0
3DFACE
  8
NoName1
 10
-0.329794
 20
0.318036
 30
-0.335544
 11
-0.167963
 21
0.386092
 31
-0.335545
 12
0.169974
 22
0.386454
 32
-0.335733
 13
0.169974
 23
0.386454
 33
-0.335733
 62
0
  0
3DFACE
  8
NoName1
 10
0.329793
 20
0.318034
 30
-0.335543
 11
-0.329794
 21
0.318036
 31
-0.335544
 12
0.169974
 22
0.386454
 32
-0.335733
 13
0.169974
 23
0.386454
 33
-0.335733
 62
0
  0
3DFACE
  8
NoName1
 10
0.398093
 20
0.157155
 30
-0.335544
 11
-0.329794
 21
0.318036
 31
-0.335544
 12
0.329793
 22
0.318034
 32
-0.335543
 13
0.329793
 23
0.318034
 33
-0.335543
 62
0
  0
3DFACE
  8
NoName1
 10
-0.398096
 20
0.157048
 30
-0.336213
 11
-0.329794
 21
0.318036
 31
-0.335544
 12
0.398093
 22
0.157155
 32
-0.335544
 13
0.398093
 23
0.157155
 33
-0.335544
 62
0
  0
3DFACE
  8
NoName1
 10
-0.466398
 20
-0.007199
 30
-0.335541
 11
-0.398096
 21
0.157048
 31
-0.336213
 12
0.398093
 22
0.157155
 32
-0.335544
 13
0.398093
 23
0.157155
 33
-0.335544
 62
0
  0
3DFACE
  8
NoName1
 10
0.466397
 20
-0.007199
 30
-0.335541
 11
-0.466398
 21
-0.007199
 31
-0.335541
 12
0.398093
 22
0.157155
 32
-0.335544
 13
0.398093
 23
0.157155
 33
-0.335544
 62
0
  0
3DFACE
  8
NoName1
 10
-0.420814
 20
-0.290020
 30
-0.335545
 11
-0.466398
 21
-0.007199
 31
-0.335541
 12
0.466397
 22
-0.007199
 32
-0.335541
 13
0.466397
 23
-0.007199
 33
-0.335541
 62
0
  0
3DFACE
  8
NoName1
 10
0.412657
 20
-0.290913
 30
-0.335550
 11
-0.420814
 21
-0.290020
 31
-0.335545
 12
0.466397
 22
-0.007199
 32
-0.335541
 13
0.466397
 23
-0.007199
 33
-0.335541
 62
0
  0
3DFACE
  8
NoName1
 10
0.349994
 20
-0.772723
 30
-0.335542
 11
-0.420814
 21
-0.290020
 31
-0.335545
 12
0.412657
 22
-0.290913
 32
-0.335550
 13
0.412657
 23
-0.290913
 33
-0.335550
 62
0
  0
3DFACE
  8
NoName1
 10
-0.319693
 20
-0.773500
 30
-0.335544
 11
-0.420814
 21
-0.290020
 31
-0.335545
 12
0.349994
 22
-0.772723
 32
-0.335542
 13
0.349994
 23
-0.772723
 33
-0.335542
 62
0
  0
3DFACE
  8
NoName1
 10
-0.190325
 20
-0.929732
 30
-0.335981
 11
-0.319693
 21
-0.773500
 31
-0.335544
 12
0.349994
 22
-0.772723
 32
-0.335542
 13
0.349994
 23
-0.772723
 33
-0.335542
 62
0
  0
3DFACE
  8
NoName1
 10
0.190132
 20
-0.929901
 30
-0.335546
 11
-0.190325
 21
-0.929732
 31
-0.335981
 12
0.349994
 22
-0.772723
 32
-0.335542
 13
0.349994
 23
-0.772723
 33
-0.335542
 62
0
  0
3DFACE
  8
NoName1
 10
-0.000001
 20
-1.111239
 30
-0.335541
 11
-0.190325
 21
-0.929732
 31
-0.335981
 12
0.190132
 22
-0.929901
 32
-0.335546
 13
0.190132
 23
-0.929901
 33
-0.335546
 62
0
  0
3DFACE
  8
NoName1
 10
-0.466398
 20
-0.007199
 30
-0.335541
 11
-0.420814
 21
-0.290020
 31
-0.335545
 12
-0.685122
 22
-0.464803
 32
-0.471383
 13
-0.685122
 23
-0.464803
 33
-0.471383
 62
0
  0
3DFACE
  8
NoName1
 10
-0.685122
 20
-0.464803
 30
-0.471383
 11
-0.908172
 21
-0.007199
 31
-0.719787
 12
-0.629807
 22
0.249296
 32
-0.469918
 13
-0.466398
 23
-0.007199
 33
-0.335541
 62
0
  0
3DFACE
  8
NoName1
 10
-0.838753
 20
0.335698
 30
-0.721876
 11
-0.838753
 21
0.335698
 31
-0.770983
 12
-0.647983
 22
0.616099
 32
-0.771199
 13
-0.647983
 23
0.616099
 33
-0.722092
 62
0
  0
3DFACE
  8
NoName1
 10
-0.647983
 20
0.616099
 30
-0.722092
 11
-0.270414
 21
0.603949
 31
-0.473338
 12
-0.329794
 22
0.318036
 32
-0.335544
 13
-0.629807
 23
0.249296
 33
-0.469918
 62
0
  0
3DFACE
  8
NoName1
 10
-0.329794
 20
0.318036
 30
-0.335544
 11
-0.398096
 21
0.157048
 31
-0.336213
 12
-0.629807
 22
0.249296
 32
-0.469918
 13
-0.629807
 23
0.249296
 33
-0.469918
 62
0
  0
3DFACE
  8
NoName1
 10
-0.000001
 20
-1.111239
 30
-0.335541
 11
0.190132
 21
-0.929901
 31
-0.335546
 12
0.302750
 22
-1.429050
 32
-0.472367
 13
0.302750
 23
-1.429050
 33
-0.472367
 62
0
  0
3DFACE
  8
NoName1
 10
-0.685122
 20
-0.464803
 30
-0.471383
 11
-0.319693
 21
-0.773500
 31
-0.335544
 12
-0.307141
 22
-1.429597
 32
-0.472376
 13
-0.647859
 23
-1.177501
 33
-0.720303
 62
0
  0
3DFACE
  8
NoName1
 10
-0.838775
 20
-0.563811
 30
-0.720510
 11
-0.838774
 21
-0.563811
 31
-0.769617
 12
-0.908171
 22
-0.007199
 32
-0.768894
 13
-0.908172
 23
-0.007199
 33
-0.719787
 62
0
  0
3DFACE
  8
NoName1
 10
0.349994
 20
-0.772723
 30
-0.335542
 11
0.412657
 21
-0.290913
 31
-0.335550
 12
0.690690
 22
-0.464708
 32
-0.471021
 13
0.690690
 23
-0.464708
 33
-0.471021
 62
0
  0
3DFACE
  8
NoName1
 10
-0.000001
 20
-2.116871
 30
-0.719787
 11
-0.000001
 21
-2.116871
 31
-0.768894
 12
-0.367782
 22
-1.666532
 32
-0.769582
 13
-0.367783
 23
-1.666532
 33
-0.720474
 62
0
  0
3DFACE
  8
NoName1
 10
-0.367783
 20
-1.666532
 30
-0.720474
 11
-0.367782
 21
-1.666532
 31
-0.769582
 12
-0.647859
 22
-1.177503
 32
-0.769410
 13
-0.647859
 23
-1.177501
 33
-0.720303
 62
0
  0
3DFACE
  8
NoName1
 10
0.466397
 20
-0.007199
 30
-0.335541
 11
0.398093
 21
0.157155
 31
-0.335544
 12
0.629007
 22
0.249336
 32
-0.470109
 13
0.629007
 23
0.249336
 33
-0.470109
 62
0
  0
3DFACE
  8
NoName1
 10
0.642177
 20
-1.177467
 30
-0.720507
 11
0.642177
 21
-1.177469
 31
-0.769615
 12
0.355446
 22
-1.666647
 32
-0.769618
 13
0.355446
 23
-1.666644
 33
-0.720510
 62
0
  0
3DFACE
  8
NoName1
 10
0.355446
 20
-1.666644
 30
-0.720510
 11
0.355446
 21
-1.666647
 31
-0.769618
 12
-0.000001
 22
-2.116871
 32
-0.768894
 13
-0.000001
 23
-2.116871
 33
-0.719787
 62
0
  0
3DFACE
  8
NoName1
 10
0.629007
 20
0.249336
 30
-0.470109
 11
0.329793
 21
0.318034
 31
-0.335543
 12
0.264674
 22
0.603846
 32
-0.473754
 13
0.642177
 23
0.617205
 33
-0.721876
 62
0
  0
3DFACE
  8
NoName1
 10
0.908171
 20
-0.007199
 30
-0.719787
 11
0.908172
 21
-0.007199
 31
-0.768894
 12
0.833858
 22
-0.563996
 32
-0.769615
 13
0.833858
 23
-0.563996
 33
-0.720508
 62
0
  0
3DFACE
  8
NoName1
 10
0.690690
 20
-0.464708
 30
-0.471021
 11
0.466397
 21
-0.007199
 31
-0.335541
 12
0.629007
 22
0.249336
 32
-0.470109
 13
0.908171
 23
-0.007199
 33
-0.719787
 62
0
  0
3DFACE
  8
NoName1
 10
0.329793
 20
0.318034
 30
-0.335543
 11
0.169974
 21
0.386454
 31
-0.335733
 12
0.264674
 22
0.603846
 32
-0.473754
 13
0.264674
 23
0.603846
 33
-0.473754
 62
0
  0
3DFACE
  8
NoName1
 10
0.833859
 20
0.336442
 30
-0.770980
 11
0.833858
 21
0.336442
 31
-0.721872
 12
0.642177
 22
0.617205
 32
-0.721876
 13
0.642177
 23
0.617205
 33
-0.770984
 62
0
  0
3DFACE
  8
NoName1
 10
-0.000000
 20
0.866889
 30
-0.721177
 11
-0.000000
 21
0.866886
 31
-0.770285
 12
0.355598
 22
0.807861
 32
-0.770292
 13
0.355598
 23
0.807861
 33
-0.721184
 62
0
  0
3DFACE
  8
NoName1
 10
-0.000001
 20
0.451580
 30
-0.335543
 11
-0.167963
 21
0.386092
 31
-0.335545
 12
-0.270414
 22
0.603949
 32
-0.473338
 13
-0.270414
 23
0.603949
 33
-0.473338
 62
0
  0
3DFACE
  8
NoName1
 10
0.264674
 20
0.603846
 30
-0.473754
 11
-0.000001
 21
0.451580
 31
-0.335543
 12
-0.270414
 22
0.603949
 32
-0.473338
 13
-0.000000
 23
0.866889
 33
-0.721177
 62
0
  0
3DFACE
  8
NoName1
 10
0.000003
 20
-0.010141
 30
-1.543582
 11
-0.178616
 21
0.408978
 31
-1.204159
 12
-0.647983
 22
0.616099
 32
-0.771199
 13
-0.431013
 23
0.170782
 33
-1.195595
 62
0
  0
3DFACE
  8
NoName1
 10
-0.908172
 20
-0.007199
 30
-0.719787
 11
-0.908171
 21
-0.007199
 31
-0.768894
 12
-0.838753
 22
0.335698
 32
-0.770983
 13
-0.838753
 23
0.335698
 33
-0.721876
 62
0
  0
3DFACE
  8
NoName1
 10
-0.629807
 20
0.249296
 30
-0.469918
 11
-0.398096
 21
0.157048
 31
-0.336213
 12
-0.466398
 22
-0.007199
 32
-0.335541
 13
-0.466398
 23
-0.007199
 33
-0.335541
 62
0
  0
3DFACE
  8
NoName1
 10
-0.307141
 20
-1.429597
 30
-0.472376
 11
-0.000001
 21
-1.111239
 31
-0.335541
 12
0.302750
 22
-1.429050
 32
-0.472367
 13
-0.000001
 23
-2.116871
 33
-0.719787
 62
0
  0
3DFACE
  8
NoName1
 10
-0.319693
 20
-0.773500
 30
-0.335544
 11
-0.190325
 21
-0.929732
 31
-0.335981
 12
-0.307141
 22
-1.429597
 32
-0.472376
 13
-0.307141
 23
-1.429597
 33
-0.472376
 62
0
  0
3DFACE
  8
NoName1
 10
-0.685122
 20
-0.464803
 30
-0.471383
 11
-0.420814
 21
-0.290020
 31
-0.335545
 12
-0.319693
 22
-0.773500
 32
-0.335544
 13
-0.319693
 23
-0.773500
 33
-0.335544
 62
0
  0
3DFACE
  8
NoName1
 10
-0.000001
 20
-1.111239
 30
-0.335541
 11
-0.307141
 21
-1.429597
 31
-0.472376
 12
-0.190325
 22
-0.929732
 32
-0.335981
 13
-0.190325
 23
-0.929732
 33
-0.335981
 62
0
  0
3DFACE
  8
NoName1
 10
0.302750
 20
-1.429050
 30
-0.472367
 11
0.190132
 21
-0.929901
 31
-0.335546
 12
0.349994
 22
-0.772723
 32
-0.335542
 13
0.349994
 23
-0.772723
 33
-0.335542
 62
0
  0
3DFACE
  8
NoName1
 10
0.355598
 20
0.807861
 30
-0.721184
 11
0.355598
 21
0.807861
 31
-0.770292
 12
0.642177
 22
0.617205
 32
-0.770984
 13
0.642177
 23
0.617205
 33
-0.721876
 62
0
  0
3DFACE
  8
NoName1
 10
-0.368038
 20
0.807684
 30
-0.720971
 11
-0.368038
 21
0.807684
 31
-0.770078
 12
-0.000000
 22
0.866886
 32
-0.770285
 13
-0.000000
 23
0.866889
 33
-0.721177
 62
0
  0
3DFACE
  8
NoName1
 10
-0.647983
 20
0.616099
 30
-0.722092
 11
-0.647983
 21
0.616099
 31
-0.771199
 12
-0.368038
 22
0.807684
 32
-0.770078
 13
-0.368038
 23
0.807684
 33
-0.720971
 62
0
  0
3DFACE
  8
NoName1
 10
-0.270414
 20
0.603949
 30
-0.473338
 11
-0.647983
 21
0.616099
 31
-0.722092
 12
-0.368038
 22
0.807684
 32
-0.720971
 13
-0.368038
 23
0.807684
 33
-0.720971
 62
0
  0
3DFACE
  8
NoName1
 10
-0.270414
 20
0.603949
 30
-0.473338
 11
-0.368038
 21
0.807684
 31
-0.720971
 12
-0.000000
 22
0.866889
 32
-0.721177
 13
-0.000000
 23
0.866889
 33
-0.721177
 62
0
  0
3DFACE
  8
NoName1
 10
0.264674
 20
0.603846
 30
-0.473754
 11
-0.000000
 21
0.866889
 31
-0.721177
 12
0.355598
 22
0.807861
 32
-0.721184
 13
0.355598
 23
0.807861
 33
-0.721184
 62
0
  0
3DFACE
  8
NoName1
 10
0.264674
 20
0.603846
 30
-0.473754
 11
0.355598
 21
0.807861
 31
-0.721184
 12
0.642177
 22
0.617205
 32
-0.721876
 13
0.642177
 23
0.617205
 33
-0.721876
 62
0
  0
3DFACE
  8
NoName1
 10
0.629007
 20
0.249336
 30
-0.470109
 11
0.642177
 21
0.617205
 31
-0.721876
 12
0.833858
 22
0.336442
 32
-0.721872
 13
0.833858
 23
0.336442
 33
-0.721872
 62
0
  0
3DFACE
  8
NoName1
 10
0.629007
 20
0.249336
 30
-0.470109
 11
0.833858
 21
0.336442
 31
-0.721872
 12
0.908171
 22
-0.007199
 32
-0.719787
 13
0.908171
 23
-0.007199
 33
-0.719787
 62
0
  0
3DFACE
  8
NoName1
 10
0.690690
 20
-0.464708
 30
-0.471021
 11
0.908171
 21
-0.007199
 31
-0.719787
 12
0.833858
 22
-0.563996
 32
-0.720508
 13
0.833858
 23
-0.563996
 33
-0.720508
 62
0
  0
3DFACE
  8
NoName1
 10
0.690690
 20
-0.464708
 30
-0.471021
 11
0.833858
 21
-0.563996
 31
-0.720508
 12
0.642177
 22
-1.177467
 32
-0.720507
 13
0.642177
 23
-1.177467
 33
-0.720507
 62
0
  0
3DFACE
  8
NoName1
 10
0.302750
 20
-1.429050
 30
-0.472367
 11
0.642177
 21
-1.177467
 31
-0.720507
 12
0.355446
 22
-1.666644
 32
-0.720510
 13
0.355446
 23
-1.666644
 33
-0.720510
 62
0
  0
3DFACE
  8
NoName1
 10
0.302750
 20
-1.429050
 30
-0.472367
 11
0.355446
 21
-1.666644
 31
-0.720510
 12
-0.000001
 22
-2.116871
 32
-0.719787
 13
-0.000001
 23
-2.116871
 33
-0.719787
 62
0
  0
3DFACE
  8
NoName1
 10
-0.307141
 20
-1.429597
 30
-0.472376
 11
-0.000001
 21
-2.116871
 31
-0.719787
 12
-0.367783
 22
-1.666532
 32
-0.720474
 13
-0.367783
 23
-1.666532
 33
-0.720474
 62
0
  0
3DFACE
  8
NoName1
 10
-0.307141
 20
-1.429597
 30
-0.472376
 11
-0.367783
 21
-1.666532
 31
-0.720474
 12
-0.647859
 22
-1.177501
 32
-0.720303
 13
-0.647859
 23
-1.177501
 33
-0.720303
 62
0
  0
3DFACE
  8
NoName1
 10
-0.685122
 20
-0.464803
 30
-0.471383
 11
-0.647859
 21
-1.177501
 31
-0.720303
 12
-0.838775
 22
-0.563811
 32
-0.720510
 13
-0.838775
 23
-0.563811
 33
-0.720510
 62
0
  0
3DFACE
  8
NoName1
 10
-0.685122
 20
-0.464803
 30
-0.471383
 11
-0.838775
 21
-0.563811
 31
-0.720510
 12
-0.908172
 22
-0.007199
 32
-0.719787
 13
-0.908172
 23
-0.007199
 33
-0.719787
 62
0
  0
3DFACE
  8
NoName1
 10
-0.629807
 20
0.249296
 30
-0.469918
 11
-0.908172
 21
-0.007199
 31
-0.719787
 12
-0.838753
 22
0.335698
 32
-0.721876
 13
-0.838753
 23
0.335698
 33
-0.721876
 62
0
  0
3DFACE
  8
NoName1
 10
-0.629807
 20
0.249296
 30
-0.469918
 11
-0.838753
 21
0.335698
 31
-0.721876
 12
-0.647983
 22
0.616099
 32
-0.722092
 13
-0.647983
 23
0.616099
 33
-0.722092
 62
0
  0
3DFACE
  8
NoName1
 10
0.355598
 20
0.807861
 30
-0.770292
 11
-0.000000
 21
0.866886
 31
-0.770285
 12
0.180009
 22
0.410245
 32
-1.202693
 13
0.180009
 23
0.410245
 33
-1.202693
 62
0
  0
3DFACE
  8
NoName1
 10
0.642177
 20
0.617205
 30
-0.770984
 11
0.180009
 21
0.410245
 31
-1.202693
 12
0.000003
 22
-0.010141
 32
-1.543582
 13
0.428527
 23
0.170859
 33
-1.196009
 62
0
  0
3DFACE
  8
NoName1
 10
0.908172
 20
-0.007199
 30
-0.768894
 11
0.428527
 21
0.170859
 31
-1.196009
 12
0.000003
 22
-0.010141
 32
-1.543582
 13
0.462084
 23
-0.324982
 33
-1.199519
 62
0
  0
3DFACE
  8
NoName1
 10
0.210687
 20
-1.030891
 30
-1.199446
 11
0.642177
 21
-1.177469
 31
-0.769615
 12
0.462084
 22
-0.324982
 32
-1.199519
 13
0.000003
 23
-0.010141
 33
-1.543582
 62
0
  0
3DFACE
  8
NoName1
 10
-0.000001
 20
-2.116871
 30
-0.768894
 11
0.355446
 21
-1.666647
 31
-0.769618
 12
0.210687
 22
-1.030891
 32
-1.199446
 13
0.210687
 23
-1.030891
 33
-1.199446
 62
0
  0
3DFACE
  8
NoName1
 10
-0.463535
 20
-0.325105
 30
-1.199729
 11
-0.647859
 21
-1.177503
 31
-0.769410
 12
-0.206369
 22
-1.030472
 32
-1.198955
 13
0.000003
 23
-0.010141
 33
-1.543582
 62
0
  0
3DFACE
  8
NoName1
 10
-0.838753
 20
0.335698
 30
-0.770983
 11
-0.908171
 21
-0.007199
 31
-0.768894
 12
-0.431013
 22
0.170782
 32
-1.195595
 13
-0.431013
 23
0.170782
 33
-1.195595
 62
0
  0
3DFACE
  8
NoName1
 10
-0.368038
 20
0.807684
 30
-0.770078
 11
-0.647983
 21
0.616099
 31
-0.771199
 12
-0.178616
 22
0.408978
 32
-1.204159
 13
-0.178616
 23
0.408978
 33
-1.204159
 62
0
  0
3DFACE
  8
NoName1
 10
-0.838774
 20
-0.563811
 30
-0.769617
 11
-0.647859
 21
-1.177503
 31
-0.769410
 12
-0.463535
 22
-0.325105
 32
-1.199729
 13
-0.463535
 23
-0.325105
 33
-1.199729
 62
0
  0
3DFACE
  8
NoName1
 10
-0.908171
 20
-0.007199
 30
-0.768894
 11
-0.838774
 21
-0.563811
 31
-0.769617
 12
-0.463535
 22
-0.325105
 32
-1.199729
 13
-0.463535
 23
-0.325105
 33
-1.199729
 62
0
  0
3DFACE
  8
NoName1
 10
-0.206369
 20
-1.030472
 30
-1.198955
 11
-0.000001
 21
-2.116871
 31
-0.768894
 12
0.210687
 22
-1.030891
 32
-1.199446
 13
0.000003
 23
-0.010141
 33
-1.543582
 62
0
  0
3DFACE
  8
NoName1
 10
-0.647859
 20
-1.177503
 30
-0.769410
 11
-0.367782
 21
-1.666532
 31
-0.769582
 12
-0.206369
 22
-1.030472
 32
-1.198955
 13
-0.206369
 23
-1.030472
 33
-1.198955
 62
0
  0
3DFACE
  8
NoName1
 10
0.642177
 20
-1.177469
 30
-0.769615
 11
0.833858
 21
-0.563996
 31
-0.769615
 12
0.462084
 22
-0.324982
 32
-1.199519
 13
0.462084
 23
-0.324982
 33
-1.199519
 62
0
  0
3DFACE
  8
NoName1
 10
-0.367782
 20
-1.666532
 30
-0.769582
 11
-0.000001
 21
-2.116871
 31
-0.768894
 12
-0.206369
 22
-1.030472
 32
-1.198955
 13
-0.206369
 23
-1.030472
 33
-1.198955
 62
0
  0
3DFACE
  8
NoName1
 10
0.908172
 20
-0.007199
 30
-0.768894
 11
0.833859
 21
0.336442
 31
-0.770980
 12
0.428527
 22
0.170859
 32
-1.196009
 13
0.428527
 23
0.170859
 33
-1.196009
 62
0
  0
3DFACE
  8
NoName1
 10
0.355446
 20
-1.666647
 30
-0.769618
 11
0.642177
 21
-1.177469
 31
-0.769615
 12
0.210687
 22
-1.030891
 32
-1.199446
 13
0.210687
 23
-1.030891
 33
-1.199446
 62
0
  0
3DFACE
  8
NoName1
 10
0.642177
 20
0.617205
 30
-0.770984
 11
0.355598
 21
0.807861
 31
-0.770292
 12
0.180009
 22
0.410245
 32
-1.202693
 13
0.180009
 23
0.410245
 33
-1.202693
 62
0
  0
3DFACE
  8
NoName1
 10
0.833858
 20
-0.563996
 30
-0.769615
 11
0.908172
 21
-0.007199
 31
-0.768894
 12
0.462084
 22
-0.324982
 32
-1.199519
 13
0.462084
 23
-0.324982
 33
-1.199519
 62
0
  0
3DFACE
  8
NoName1
 10
-0.000000
 20
0.866886
 30
-0.770285
 11
-0.368038
 21
0.807684
 31
-0.770078
 12
-0.178616
 22
0.408978
 32
-1.204159
 13
-0.178616
 23
0.408978
 33
-1.204159
 62
0
  0
3DFACE
  8
NoName1
 10
0.833859
 20
0.336442
 30
-0.770980
 11
0.642177
 21
0.617205
 31
-0.770984
 12
0.428527
 22
0.170859
 32
-1.196009
 13
0.428527
 23
0.170859
 33
-1.196009
 62
0
  0
3DFACE
  8
NoName1
 10
-0.647983
 20
0.616099
 30
-0.771199
 11
-0.838753
 21
0.335698
 31
-0.770983
 12
-0.431013
 22
0.170782
 32
-1.195595
 13
-0.431013
 23
0.170782
 33
-1.195595
 62
0
  0
3DFACE
  8
NoName1
 10
-0.000000
 20
0.866886
 30
-0.770285
 11
-0.178616
 21
0.408978
 31
-1.204159
 12
0.000003
 22
-0.010141
 32
-1.543582
 13
0.180009
 23
0.410245
 33
-1.202693
 62
0
 0
ENDSEC
 0
EOF
