  0
SECTION
  2
HEADER
  0
ENDSEC
  0
SECTION
  2
TABLES
  0
TABLE
  2
LAYER
  70
    153
  0
LAYER
  2
Cylinder3
 70
0
 62
15
  6
CONTINUOUS
  0
ENDTAB
  0
ENDSEC
  0
SECTION
  2
ENTITIES
  0
3DFACE
  8
Cylinder3
 10
0.814332
 20
0.000000
 30
0.179719
 11
0.814332
 21
0.000000
 31
0.203228
 12
-0.597860
 22
1.412191
 32
0.203227
 13
-0.597860
 23
1.412191
 33
0.179719
 62
0
  0
3DFACE
  8
Cylinder3
 10
-0.844678
 20
-0.246834
 30
-0.803440
 11
-2.010051
 21
0.000000
 31
0.179719
 12
-0.597860
 22
-1.412191
 32
0.179719
 13
-0.597860
 23
-1.412191
 33
0.179719
 62
0
  0
3DFACE
  8
Cylinder3
 10
-0.351042
 20
0.246834
 30
-0.803440
 11
0.814332
 21
0.000000
 31
0.179719
 12
-0.597860
 22
1.412191
 32
0.179719
 13
-0.597860
 23
1.412191
 33
0.179719
 62
0
  0
3DFACE
  8
Cylinder3
 10
-0.351026
 20
-0.246818
 30
-0.803440
 11
-0.597860
 21
-1.412191
 31
0.179719
 12
0.814332
 22
0.000000
 32
0.179719
 13
0.814332
 23
0.000000
 33
0.179719
 62
0
  0
3DFACE
  8
Cylinder3
 10
0.814332
 20
0.000000
 30
0.179719
 11
-0.425625
 21
-0.172221
 31
-0.888040
 12
-0.351026
 22
-0.246818
 32
-0.803440
 13
-0.351026
 23
-0.246818
 33
-0.803440
 62
0
  0
3DFACE
  8
Cylinder3
 10
-0.597860
 20
-1.412191
 30
0.179719
 11
-0.770072
 21
-0.172220
 31
-0.888054
 12
-0.844678
 22
-0.246834
 32
-0.803440
 13
-0.844678
 23
-0.246834
 33
-0.803440
 62
0
  0
3DFACE
  8
Cylinder3
 10
-2.010051
 20
0.000000
 30
0.179719
 11
-0.844678
 21
0.246834
 31
-0.803440
 12
-0.597860
 22
1.412191
 32
0.179719
 13
-0.597860
 23
1.412191
 33
0.179719
 62
0
  0
3DFACE
  8
Cylinder3
 10
-0.770072
 20
-0.172220
 30
-0.888054
 11
-2.010051
 21
0.000000
 31
0.179719
 12
-0.844678
 22
-0.246834
 32
-0.803440
 13
-0.844678
 23
-0.246834
 33
-0.803440
 62
0
  0
3DFACE
  8
Cylinder3
 10
-0.770099
 20
0.172253
 30
-0.888022
 11
-0.597860
 21
1.412191
 31
0.179719
 12
-0.844678
 22
0.246834
 32
-0.803440
 13
-0.844678
 23
0.246834
 33
-0.803440
 62
0
  0
3DFACE
  8
Cylinder3
 10
-0.597860
 20
1.412191
 30
0.179719
 11
-0.425620
 21
0.172253
 31
-0.888023
 12
-0.351042
 22
0.246834
 32
-0.803440
 13
-0.351042
 23
0.246834
 33
-0.803440
 62
0
  0
3DFACE
  8
Cylinder3
 10
-0.425620
 20
0.172253
 30
-0.888023
 11
0.814332
 21
0.000000
 31
0.179719
 12
-0.351042
 22
0.246834
 32
-0.803440
 13
-0.351042
 23
0.246834
 33
-0.803440
 62
0
  0
3DFACE
  8
Cylinder3
 10
0.814332
 20
0.000000
 30
0.179719
 11
-0.507621
 21
-0.090232
 31
-0.969432
 12
-0.425625
 22
-0.172221
 32
-0.888040
 13
-0.425625
 23
-0.172221
 33
-0.888040
 62
0
  0
3DFACE
  8
Cylinder3
 10
-0.425625
 20
-0.172221
 30
-0.888040
 11
-0.597860
 21
-1.412191
 31
0.179719
 12
-0.351026
 22
-0.246818
 32
-0.803440
 13
-0.351026
 23
-0.246818
 33
-0.803440
 62
0
  0
3DFACE
  8
Cylinder3
 10
-0.597860
 20
-1.412191
 30
0.179719
 11
-0.688092
 21
-0.090237
 31
-0.969433
 12
-0.770072
 22
-0.172220
 32
-0.888054
 13
-0.770072
 23
-0.172220
 33
-0.888054
 62
0
  0
3DFACE
  8
Cylinder3
 10
-2.010051
 20
0.000000
 30
0.179719
 11
-0.770099
 21
0.172253
 31
-0.888022
 12
-0.844678
 22
0.246834
 32
-0.803440
 13
-0.844678
 23
0.246834
 33
-0.803440
 62
0
  0
3DFACE
  8
Cylinder3
 10
-0.688092
 20
-0.090237
 30
-0.969433
 11
-2.010051
 21
0.000000
 31
0.179719
 12
-0.770072
 22
-0.172220
 32
-0.888054
 13
-0.770072
 23
-0.172220
 33
-0.888054
 62
0
  0
3DFACE
  8
Cylinder3
 10
-0.688091
 20
0.090239
 30
-0.969432
 11
-0.597860
 21
1.412191
 31
0.179719
 12
-0.770099
 22
0.172253
 32
-0.888022
 13
-0.770099
 23
0.172253
 33
-0.888022
 62
0
  0
3DFACE
  8
Cylinder3
 10
-0.597860
 20
1.412191
 30
0.179719
 11
-0.507629
 21
0.090238
 31
-0.969432
 12
-0.425620
 22
0.172253
 32
-0.888023
 13
-0.425620
 23
0.172253
 33
-0.888023
 62
0
  0
3DFACE
  8
Cylinder3
 10
-0.507629
 20
0.090238
 30
-0.969432
 11
0.814332
 21
0.000000
 31
0.179719
 12
-0.425620
 22
0.172253
 32
-0.888023
 13
-0.425620
 23
0.172253
 33
-0.888023
 62
0
  0
3DFACE
  8
Cylinder3
 10
-0.507621
 20
-0.090232
 30
-0.969432
 11
-0.597860
 21
-1.412191
 31
0.179719
 12
-0.425625
 22
-0.172221
 32
-0.888040
 13
-0.425625
 23
-0.172221
 33
-0.888040
 62
0
  0
3DFACE
  8
Cylinder3
 10
-0.507629
 20
0.090238
 30
-0.969432
 11
-0.597860
 21
0.000000
 31
-1.047875
 12
-0.507621
 22
-0.090232
 32
-0.969432
 13
0.814332
 23
0.000000
 33
0.179719
 62
0
  0
3DFACE
  8
Cylinder3
 10
-2.010051
 20
0.000000
 30
0.179719
 11
-0.688091
 21
0.090239
 31
-0.969432
 12
-0.770099
 22
0.172253
 32
-0.888022
 13
-0.770099
 23
0.172253
 33
-0.888022
 62
0
  0
3DFACE
  8
Cylinder3
 10
-0.507621
 20
-0.090232
 30
-0.969432
 11
-0.597860
 21
0.000000
 31
-1.047875
 12
-0.688092
 22
-0.090237
 32
-0.969433
 13
-0.597860
 23
-1.412191
 33
0.179719
 62
0
  0
3DFACE
  8
Cylinder3
 10
-0.597860
 20
1.412191
 30
0.179719
 11
-0.688091
 21
0.090239
 31
-0.969432
 12
-0.597860
 22
0.000000
 32
-1.047875
 13
-0.507629
 23
0.090238
 33
-0.969432
 62
0
  0
3DFACE
  8
Cylinder3
 10
-0.597860
 20
1.412191
 30
0.179719
 11
-0.597860
 21
1.412191
 31
0.203227
 12
-2.010051
 22
0.000000
 32
0.203228
 13
-2.010051
 23
0.000000
 33
0.179719
 62
0
  0
3DFACE
  8
Cylinder3
 10
-2.010051
 20
0.000000
 30
0.179719
 11
-0.688092
 21
-0.090237
 31
-0.969433
 12
-0.597860
 22
0.000000
 32
-1.047875
 13
-0.688091
 23
0.090239
 33
-0.969432
 62
0
  0
3DFACE
  8
Cylinder3
 10
-0.597860
 20
-1.412191
 30
0.179719
 11
-0.597860
 21
-1.412191
 31
0.203227
 12
0.814332
 22
0.000000
 32
0.203228
 13
0.814332
 23
0.000000
 33
0.179719
 62
0
  0
3DFACE
  8
Cylinder3
 10
-0.597860
 20
1.412191
 30
0.203227
 11
0.814332
 21
0.000000
 31
0.203228
 12
0.434468
 22
0.064904
 32
0.469209
 13
-0.532956
 23
1.032326
 33
0.469210
 62
0
  0
3DFACE
  8
Cylinder3
 10
-2.010051
 20
0.000000
 30
0.179719
 11
-2.010051
 21
0.000000
 31
0.203228
 12
-0.597860
 22
-1.412191
 32
0.203227
 13
-0.597860
 23
-1.412191
 33
0.179719
 62
0
  0
3DFACE
  8
Cylinder3
 10
-2.010051
 20
0.000000
 30
0.203228
 11
-0.597860
 21
1.412191
 31
0.203227
 12
-0.662763
 22
1.032327
 32
0.469209
 13
-1.630186
 23
0.064904
 33
0.469210
 62
0
  0
3DFACE
  8
Cylinder3
 10
-0.662763
 20
1.032327
 30
0.469209
 11
-0.597860
 21
1.412191
 31
0.203227
 12
-0.532956
 22
1.032326
 32
0.469210
 13
-0.532956
 23
1.032326
 33
0.469210
 62
0
  0
3DFACE
  8
Cylinder3
 10
0.434468
 20
0.064904
 30
0.469209
 11
0.814332
 21
0.000000
 31
0.203228
 12
0.434468
 22
-0.064903
 32
0.469209
 13
0.434468
 23
-0.064903
 33
0.469209
 62
0
  0
3DFACE
  8
Cylinder3
 10
-0.156256
 20
0.434029
 30
0.578927
 11
-0.163829
 21
0.441602
 31
0.578927
 12
-0.532956
 22
1.032326
 32
0.469210
 13
0.434468
 23
0.064904
 33
0.469209
 62
0
  0
3DFACE
  8
Cylinder3
 10
0.814332
 20
0.000000
 30
0.203228
 11
-0.597860
 21
-1.412191
 31
0.203227
 12
-0.532956
 22
-1.032326
 32
0.469209
 13
0.434468
 23
-0.064903
 33
0.469209
 62
0
  0
3DFACE
  8
Cylinder3
 10
-0.597860
 20
-1.412191
 30
0.203227
 11
-2.010051
 21
0.000000
 31
0.203228
 12
-1.630186
 22
-0.064904
 32
0.469210
 13
-0.662763
 23
-1.032326
 33
0.469210
 62
0
  0
3DFACE
  8
Cylinder3
 10
-1.630186
 20
0.064904
 30
0.469210
 11
-0.662763
 21
1.032327
 31
0.469209
 12
-1.031893
 22
0.441598
 32
0.578928
 13
-1.039458
 23
0.434034
 33
0.578928
 62
0
  0
3DFACE
  8
Cylinder3
 10
-0.532956
 20
1.032326
 30
0.469210
 11
-0.163829
 21
0.441602
 31
0.578927
 12
-0.597860
 22
0.731611
 32
0.578927
 13
-0.597860
 23
0.731611
 33
0.578927
 62
0
  0
3DFACE
  8
Cylinder3
 10
-0.597860
 20
-0.731610
 30
0.578928
 11
-1.031894
 21
-0.441596
 31
0.578928
 12
-1.039458
 22
-0.434032
 32
0.578928
 13
-1.039458
 23
-0.434032
 33
0.578928
 62
0
  0
3DFACE
  8
Cylinder3
 10
-1.329468
 20
-0.000000
 30
0.578929
 11
-0.597860
 21
-0.731610
 31
0.578928
 12
-1.039458
 22
-0.434032
 32
0.578928
 13
-1.039458
 23
-0.434032
 33
0.578928
 62
0
  0
3DFACE
  8
Cylinder3
 10
-0.163829
 20
-0.441601
 30
0.578928
 11
-0.597860
 21
-0.731610
 31
0.578928
 12
-1.329468
 22
-0.000000
 32
0.578929
 13
-1.329468
 23
-0.000000
 33
0.578929
 62
0
  0
3DFACE
  8
Cylinder3
 10
-1.039458
 20
0.434034
 30
0.578928
 11
-0.163829
 21
-0.441601
 31
0.578928
 12
-1.329468
 22
-0.000000
 32
0.578929
 13
-1.329468
 23
-0.000000
 33
0.578929
 62
0
  0
3DFACE
  8
Cylinder3
 10
-1.031893
 20
0.441598
 30
0.578928
 11
-0.163829
 21
-0.441601
 31
0.578928
 12
-1.039458
 22
0.434034
 32
0.578928
 13
-1.039458
 23
0.434034
 33
0.578928
 62
0
  0
3DFACE
  8
Cylinder3
 10
-0.156258
 20
-0.434030
 30
0.578928
 11
-0.163829
 21
-0.441601
 31
0.578928
 12
-1.031893
 22
0.441598
 32
0.578928
 13
-1.031893
 23
0.441598
 33
0.578928
 62
0
  0
3DFACE
  8
Cylinder3
 10
-0.597860
 20
0.731611
 30
0.578927
 11
-0.156258
 21
-0.434030
 31
0.578928
 12
-1.031893
 22
0.441598
 32
0.578928
 13
-1.031893
 23
0.441598
 33
0.578928
 62
0
  0
3DFACE
  8
Cylinder3
 10
0.133753
 20
0.000000
 30
0.578927
 11
-0.156258
 21
-0.434030
 31
0.578928
 12
-0.597860
 22
0.731611
 32
0.578927
 13
-0.597860
 23
0.731611
 33
0.578927
 62
0
  0
3DFACE
  8
Cylinder3
 10
-0.156256
 20
0.434029
 30
0.578927
 11
0.133753
 21
0.000000
 31
0.578927
 12
-0.597860
 22
0.731611
 32
0.578927
 13
-0.597860
 23
0.731611
 33
0.578927
 62
0
  0
3DFACE
  8
Cylinder3
 10
-0.163829
 20
0.441602
 30
0.578927
 11
-0.156256
 21
0.434029
 31
0.578927
 12
-0.597860
 22
0.731611
 32
0.578927
 13
-0.597860
 23
0.731611
 33
0.578927
 62
0
  0
3DFACE
  8
Cylinder3
 10
0.133753
 20
0.000000
 30
0.578927
 11
-0.156256
 21
0.434029
 31
0.578927
 12
0.434468
 22
0.064904
 32
0.469209
 13
0.434468
 23
0.064904
 33
0.469209
 62
0
  0
3DFACE
  8
Cylinder3
 10
-0.163829
 20
-0.441601
 30
0.578928
 11
-0.156258
 21
-0.434030
 31
0.578928
 12
0.434468
 22
-0.064903
 32
0.469209
 13
-0.532956
 23
-1.032326
 33
0.469209
 62
0
  0
3DFACE
  8
Cylinder3
 10
-0.597860
 20
-0.731610
 30
0.578928
 11
-0.163829
 21
-0.441601
 31
0.578928
 12
-0.532956
 22
-1.032326
 32
0.469209
 13
-0.532956
 23
-1.032326
 33
0.469209
 62
0
  0
3DFACE
  8
Cylinder3
 10
-1.039458
 20
-0.434032
 30
0.578928
 11
-1.031894
 21
-0.441596
 31
0.578928
 12
-0.662763
 22
-1.032326
 32
0.469210
 13
-1.630186
 23
-0.064904
 33
0.469210
 62
0
  0
3DFACE
  8
Cylinder3
 10
-1.630186
 20
0.064904
 30
0.469210
 11
-1.039458
 21
0.434034
 31
0.578928
 12
-1.329468
 22
-0.000000
 32
0.578929
 13
-1.329468
 23
-0.000000
 33
0.578929
 62
0
  0
3DFACE
  8
Cylinder3
 10
-0.597860
 20
0.731611
 30
0.578927
 11
-1.031893
 21
0.441598
 31
0.578928
 12
-0.662763
 22
1.032327
 32
0.469209
 13
-0.662763
 23
1.032327
 33
0.469209
 62
0
  0
3DFACE
  8
Cylinder3
 10
-0.662763
 20
1.032327
 30
0.469209
 11
-0.532956
 21
1.032326
 31
0.469210
 12
-0.597860
 22
0.731611
 32
0.578927
 13
-0.597860
 23
0.731611
 33
0.578927
 62
0
  0
3DFACE
  8
Cylinder3
 10
0.434468
 20
-0.064903
 30
0.469209
 11
-0.156258
 21
-0.434030
 31
0.578928
 12
0.133753
 22
0.000000
 32
0.578927
 13
0.133753
 23
0.000000
 33
0.578927
 62
0
  0
3DFACE
  8
Cylinder3
 10
-0.662763
 20
-1.032326
 30
0.469210
 11
-1.031894
 21
-0.441596
 31
0.578928
 12
-0.597860
 22
-0.731610
 32
0.578928
 13
-0.597860
 23
-0.731610
 33
0.578928
 62
0
  0
3DFACE
  8
Cylinder3
 10
0.133753
 20
0.000000
 30
0.578927
 11
0.434468
 21
0.064904
 31
0.469209
 12
0.434468
 22
-0.064903
 32
0.469209
 13
0.434468
 23
-0.064903
 33
0.469209
 62
0
  0
3DFACE
  8
Cylinder3
 10
-0.532956
 20
-1.032326
 30
0.469209
 11
-0.597860
 21
-1.412191
 31
0.203227
 12
-0.662763
 22
-1.032326
 32
0.469210
 13
-0.662763
 23
-1.032326
 33
0.469210
 62
0
  0
3DFACE
  8
Cylinder3
 10
-1.630186
 20
-0.064904
 30
0.469210
 11
-2.010051
 21
0.000000
 31
0.203228
 12
-1.630186
 22
0.064904
 32
0.469210
 13
-1.630186
 23
0.064904
 33
0.469210
 62
0
  0
3DFACE
  8
Cylinder3
 10
-0.662763
 20
-1.032326
 30
0.469210
 11
-0.597860
 21
-0.731610
 31
0.578928
 12
-0.532956
 22
-1.032326
 32
0.469209
 13
-0.532956
 23
-1.032326
 33
0.469209
 62
0
  0
3DFACE
  8
Cylinder3
 10
-1.329468
 20
-0.000000
 30
0.578929
 11
-1.039458
 21
-0.434032
 31
0.578928
 12
-1.630186
 22
-0.064904
 32
0.469210
 13
-1.630186
 23
-0.064904
 33
0.469210
 62
0
  0
3DFACE
  8
Cylinder3
 10
-1.630186
 20
-0.064904
 30
0.469210
 11
-1.630186
 21
0.064904
 31
0.469210
 12
-1.329468
 22
-0.000000
 32
0.578929
 13
-1.329468
 23
-0.000000
 33
0.578929
 62
0
 0
ENDSEC
 0
EOF
