  0
SECTION
  2
HEADER
  0
ENDSEC
  0
SECTION
  2
TABLES
  0
TABLE
  2
LAYER
  70
    153
  0
LAYER
  2
Cube37
 70
0
 62
15
  6
CONTINUOUS
  0
ENDTAB
  0
ENDSEC
  0
SECTION
  2
ENTITIES
  0
3DFACE
  8
Cube37
 10
1.650856
 20
0.314883
 30
-1.037140
 11
1.867467
 21
0.727573
 31
-0.415816
 12
1.743345
 22
0.589700
 32
-0.771845
 13
1.743345
 23
0.589700
 33
-0.771845
 62
0
  0
3DFACE
  8
Cube37
 10
1.555428
 20
-0.000001
 30
-1.310865
 11
1.867467
 21
0.727573
 31
-0.415816
 12
1.650856
 22
0.314883
 32
-1.037140
 13
1.650856
 23
0.314883
 33
-1.037140
 62
0
  0
3DFACE
  8
Cube37
 10
1.650856
 20
-0.314887
 30
-1.037138
 11
1.867467
 21
0.727573
 31
-0.415816
 12
1.555428
 22
-0.000001
 32
-1.310865
 13
1.555428
 23
-0.000001
 33
-1.310865
 62
0
  0
3DFACE
  8
Cube37
 10
1.743346
 20
-0.589704
 30
-0.771843
 11
1.867467
 21
0.727573
 31
-0.415816
 12
1.650856
 22
-0.314887
 32
-1.037138
 13
1.650856
 23
-0.314887
 33
-1.037138
 62
0
  0
3DFACE
  8
Cube37
 10
1.867467
 20
-0.727575
 30
-0.415817
 11
1.867467
 21
0.727573
 31
-0.415816
 12
1.743346
 22
-0.589704
 32
-0.771843
 13
1.743346
 23
-0.589704
 33
-0.771843
 62
0
  0
3DFACE
  8
Cube37
 10
1.743346
 20
-0.589704
 30
-0.771843
 11
1.650856
 21
-0.314887
 31
-1.037138
 12
-0.331481
 22
-0.314888
 32
-1.037138
 13
-0.423970
 23
-0.589705
 33
-0.771843
 62
0
  0
3DFACE
  8
Cube37
 10
-0.423969
 20
0.589699
 30
-0.771845
 11
-0.331480
 21
0.314883
 31
-1.037140
 12
1.650856
 22
0.314883
 32
-1.037140
 13
1.743345
 23
0.589700
 33
-0.771845
 62
0
  0
3DFACE
  8
Cube37
 10
-0.331480
 20
0.314883
 30
-1.037140
 11
-0.236052
 21
-0.000001
 31
-1.310865
 12
1.555428
 22
-0.000001
 32
-1.310865
 13
1.650856
 23
0.314883
 33
-1.037140
 62
0
  0
3DFACE
  8
Cube37
 10
1.650856
 20
-0.314887
 30
-1.037138
 11
1.555428
 21
-0.000001
 31
-1.310865
 12
-0.236052
 22
-0.000001
 32
-1.310865
 13
-0.331481
 23
-0.314888
 33
-1.037138
 62
0
  0
3DFACE
  8
Cube37
 10
-0.331480
 20
0.314883
 30
-1.037140
 11
-0.423969
 21
0.589699
 31
-0.771845
 12
-0.548091
 22
0.727573
 32
-0.415816
 13
-0.548091
 23
0.727573
 33
-0.415816
 62
0
  0
3DFACE
  8
Cube37
 10
-0.236052
 20
-0.000001
 30
-1.310865
 11
-0.331480
 21
0.314883
 31
-1.037140
 12
-0.548091
 22
0.727573
 32
-0.415816
 13
-0.548091
 23
0.727573
 33
-0.415816
 62
0
  0
3DFACE
  8
Cube37
 10
-0.331481
 20
-0.314888
 30
-1.037138
 11
-0.236052
 21
-0.000001
 31
-1.310865
 12
-0.548091
 22
0.727573
 32
-0.415816
 13
-0.548091
 23
0.727573
 33
-0.415816
 62
0
  0
3DFACE
  8
Cube37
 10
-0.423970
 20
-0.589705
 30
-0.771843
 11
-0.331481
 21
-0.314888
 31
-1.037138
 12
-0.548091
 22
0.727573
 32
-0.415816
 13
-0.548091
 23
0.727573
 33
-0.415816
 62
0
  0
3DFACE
  8
Cube37
 10
-0.548091
 20
-0.727576
 30
-0.415817
 11
-0.423970
 21
-0.589705
 31
-0.771843
 12
-0.548091
 22
0.727573
 32
-0.415816
 13
-0.548091
 23
0.727573
 33
-0.415816
 62
0
  0
3DFACE
  8
Cube37
 10
-0.548091
 20
-0.727576
 30
-0.415817
 11
-0.353963
 21
-0.921704
 31
-0.415817
 12
-0.423970
 22
-0.589705
 32
-0.771843
 13
-0.423970
 23
-0.589705
 33
-0.771843
 62
0
  0
3DFACE
  8
Cube37
 10
-0.548091
 20
0.727573
 30
-0.415816
 11
-0.548091
 21
0.727573
 31
-0.379278
 12
-0.548091
 22
-0.727576
 32
-0.379278
 13
-0.548091
 23
-0.727576
 33
-0.415817
 62
0
  0
3DFACE
  8
Cube37
 10
-0.353963
 20
0.921701
 30
-0.415816
 11
-0.548091
 21
0.727573
 31
-0.415816
 12
-0.423969
 22
0.589699
 32
-0.771845
 13
-0.423969
 23
0.589699
 33
-0.771845
 62
0
  0
3DFACE
  8
Cube37
 10
-0.423969
 20
0.589699
 30
-0.771845
 11
1.743345
 21
0.589700
 31
-0.771845
 12
1.673337
 22
0.921701
 32
-0.415816
 13
-0.353963
 23
0.921701
 33
-0.415816
 62
0
  0
3DFACE
  8
Cube37
 10
-0.353963
 20
-0.921704
 30
-0.415817
 11
1.673338
 21
-0.921704
 31
-0.415817
 12
1.743346
 22
-0.589704
 32
-0.771843
 13
-0.423970
 23
-0.589705
 33
-0.771843
 62
0
  0
3DFACE
  8
Cube37
 10
1.673338
 20
-0.921704
 30
-0.415817
 11
1.867467
 21
-0.727575
 31
-0.415817
 12
1.743346
 22
-0.589704
 32
-0.771843
 13
1.743346
 23
-0.589704
 33
-0.771843
 62
0
  0
3DFACE
  8
Cube37
 10
-0.353963
 20
-0.921704
 30
-0.415817
 11
-0.353963
 21
-0.921704
 31
-0.379278
 12
1.673338
 22
-0.921704
 32
-0.379277
 13
1.673338
 23
-0.921704
 33
-0.415817
 62
0
  0
3DFACE
  8
Cube37
 10
-0.548091
 20
-0.727576
 30
-0.415817
 11
-0.548091
 21
-0.727576
 31
-0.379278
 12
-0.353963
 22
-0.921704
 32
-0.379278
 13
-0.353963
 23
-0.921704
 33
-0.415817
 62
0
  0
3DFACE
  8
Cube37
 10
1.673337
 20
0.921701
 30
-0.415816
 11
1.673337
 21
0.921701
 31
-0.379279
 12
-0.353963
 22
0.921701
 32
-0.379277
 13
-0.353963
 23
0.921701
 33
-0.415816
 62
0
  0
3DFACE
  8
Cube37
 10
-0.353963
 20
0.921701
 30
-0.415816
 11
-0.353963
 21
0.921701
 31
-0.379277
 12
-0.548091
 22
0.727573
 32
-0.379278
 13
-0.548091
 23
0.727573
 33
-0.415816
 62
0
  0
3DFACE
  8
Cube37
 10
1.867467
 20
0.727573
 30
-0.415816
 11
1.673337
 21
0.921701
 31
-0.415816
 12
1.743345
 22
0.589700
 32
-0.771845
 13
1.743345
 23
0.589700
 33
-0.771845
 62
0
  0
3DFACE
  8
Cube37
 10
-0.548091
 20
-0.727576
 30
-0.379278
 11
-0.096026
 21
-0.843604
 31
-0.138911
 12
-0.353963
 22
-0.921704
 32
-0.379278
 13
-0.353963
 23
-0.921704
 33
-0.379278
 62
0
  0
3DFACE
  8
Cube37
 10
1.867467
 20
0.727573
 30
-0.415816
 11
1.867467
 21
0.727573
 31
-0.379278
 12
1.673337
 22
0.921701
 32
-0.379279
 13
1.673337
 23
0.921701
 33
-0.415816
 62
0
  0
3DFACE
  8
Cube37
 10
-0.096028
 20
0.843602
 30
-0.138912
 11
-0.548091
 21
0.727573
 31
-0.379278
 12
-0.353963
 22
0.921701
 32
-0.379277
 13
-0.353963
 23
0.921701
 33
-0.379277
 62
0
  0
3DFACE
  8
Cube37
 10
1.673338
 20
-0.921704
 30
-0.415817
 11
1.673338
 21
-0.921704
 31
-0.379277
 12
1.867467
 22
-0.727575
 32
-0.379278
 13
1.867467
 23
-0.727575
 33
-0.415817
 62
0
  0
3DFACE
  8
Cube37
 10
1.415403
 20
-0.843604
 30
-0.138912
 11
1.867467
 21
-0.727575
 31
-0.379278
 12
1.673338
 22
-0.921704
 32
-0.379277
 13
1.673338
 23
-0.921704
 33
-0.379277
 62
0
  0
3DFACE
  8
Cube37
 10
1.867467
 20
0.727573
 30
-0.379278
 11
1.415398
 21
0.843601
 31
-0.138909
 12
1.673337
 22
0.921701
 32
-0.379279
 13
1.673337
 23
0.921701
 33
-0.379279
 62
0
  0
3DFACE
  8
Cube37
 10
-0.548091
 20
-0.727576
 30
-0.379278
 11
-0.548091
 21
0.727573
 31
-0.379278
 12
-0.096028
 22
0.843602
 32
-0.138912
 13
-0.096026
 23
-0.843604
 33
-0.138911
 62
0
  0
3DFACE
  8
Cube37
 10
1.867467
 20
-0.727575
 30
-0.415817
 11
1.867467
 21
-0.727575
 31
-0.379278
 12
1.867467
 22
0.727573
 32
-0.379278
 13
1.867467
 23
0.727573
 33
-0.415816
 62
0
  0
3DFACE
  8
Cube37
 10
0.189631
 20
-0.813446
 30
-0.046096
 11
-0.096026
 21
-0.843604
 31
-0.138911
 12
-0.096028
 22
0.843602
 32
-0.138912
 13
0.189632
 23
0.813444
 33
-0.046096
 62
0
  0
3DFACE
  8
Cube37
 10
1.867467
 20
0.727573
 30
-0.379278
 11
1.867467
 21
-0.727575
 31
-0.379278
 12
1.415403
 22
-0.843604
 32
-0.138912
 13
1.415398
 23
0.843601
 33
-0.138909
 62
0
  0
3DFACE
  8
Cube37
 10
1.129747
 20
0.813444
 30
-0.046096
 11
1.415398
 21
0.843601
 31
-0.138909
 12
1.415403
 22
-0.843604
 32
-0.138912
 13
1.129745
 23
-0.813447
 33
-0.046096
 62
0
  0
3DFACE
  8
Cube37
 10
1.415403
 20
-0.843604
 30
-0.138912
 11
1.673338
 21
-0.921704
 31
-0.379277
 12
-0.353963
 22
-0.921704
 32
-0.379278
 13
-0.353963
 23
-0.921704
 33
-0.379278
 62
0
  0
3DFACE
  8
Cube37
 10
-0.096026
 20
-0.843604
 30
-0.138911
 11
1.415403
 21
-0.843604
 31
-0.138912
 12
-0.353963
 22
-0.921704
 32
-0.379278
 13
-0.353963
 23
-0.921704
 33
-0.379278
 62
0
  0
3DFACE
  8
Cube37
 10
1.129745
 20
-0.813447
 30
-0.046096
 11
1.415403
 21
-0.843604
 31
-0.138912
 12
-0.096026
 22
-0.843604
 32
-0.138911
 13
-0.096026
 23
-0.843604
 33
-0.138911
 62
0
  0
3DFACE
  8
Cube37
 10
0.189631
 20
-0.813446
 30
-0.046096
 11
1.129745
 21
-0.813447
 31
-0.046096
 12
-0.096026
 22
-0.843604
 32
-0.138911
 13
-0.096026
 23
-0.843604
 33
-0.138911
 62
0
  0
3DFACE
  8
Cube37
 10
0.801757
 20
-0.798469
 30
-0.000000
 11
1.129745
 21
-0.813447
 31
-0.046096
 12
0.189631
 22
-0.813446
 32
-0.046096
 13
0.189631
 23
-0.813446
 33
-0.046096
 62
0
  0
3DFACE
  8
Cube37
 10
0.517618
 20
-0.798469
 30
-0.000000
 11
0.801757
 21
-0.798469
 31
-0.000000
 12
0.189631
 22
-0.813446
 32
-0.046096
 13
0.189631
 23
-0.813446
 33
-0.046096
 62
0
  0
3DFACE
  8
Cube37
 10
0.517618
 20
-0.798469
 30
-0.000000
 11
0.189631
 21
-0.813446
 31
-0.046096
 12
0.189632
 22
0.813444
 32
-0.046096
 13
0.517618
 23
0.798467
 33
-0.000000
 62
0
  0
3DFACE
  8
Cube37
 10
-0.096028
 20
0.843602
 30
-0.138912
 11
-0.353963
 21
0.921701
 31
-0.379277
 12
1.673337
 22
0.921701
 32
-0.379279
 13
1.673337
 23
0.921701
 33
-0.379279
 62
0
  0
3DFACE
  8
Cube37
 10
1.415398
 20
0.843601
 30
-0.138909
 11
-0.096028
 21
0.843602
 31
-0.138912
 12
1.673337
 22
0.921701
 32
-0.379279
 13
1.673337
 23
0.921701
 33
-0.379279
 62
0
  0
3DFACE
  8
Cube37
 10
1.129747
 20
0.813444
 30
-0.046096
 11
-0.096028
 21
0.843602
 31
-0.138912
 12
1.415398
 22
0.843601
 32
-0.138909
 13
1.415398
 23
0.843601
 33
-0.138909
 62
0
  0
3DFACE
  8
Cube37
 10
0.189632
 20
0.813444
 30
-0.046096
 11
-0.096028
 21
0.843602
 31
-0.138912
 12
1.129747
 22
0.813444
 32
-0.046096
 13
1.129747
 23
0.813444
 33
-0.046096
 62
0
  0
3DFACE
  8
Cube37
 10
0.801757
 20
0.798466
 30
-0.000000
 11
0.189632
 21
0.813444
 31
-0.046096
 12
1.129747
 22
0.813444
 32
-0.046096
 13
1.129747
 23
0.813444
 33
-0.046096
 62
0
  0
3DFACE
  8
Cube37
 10
0.517618
 20
0.798467
 30
-0.000000
 11
0.189632
 21
0.813444
 31
-0.046096
 12
0.801757
 22
0.798466
 32
-0.000000
 13
0.801757
 23
0.798466
 33
-0.000000
 62
0
  0
3DFACE
  8
Cube37
 10
0.801757
 20
0.798466
 30
-0.000000
 11
1.129747
 21
0.813444
 31
-0.046096
 12
1.129745
 22
-0.813447
 32
-0.046096
 13
0.801757
 23
-0.798469
 33
-0.000000
 62
0
  0
3DFACE
  8
Cube37
 10
0.801757
 20
0.798466
 30
-0.000000
 11
0.801757
 21
-0.798469
 31
-0.000000
 12
0.517618
 22
-0.798469
 32
-0.000000
 13
0.517618
 23
0.798467
 33
-0.000000
 62
0
 0
ENDSEC
 0
EOF
