999
DXF gemstone file C:\WINDOWS\Desktop\3dLapidary\Models\GemCadWin\SqEmer2.dxf created by GemCad for Windows
0
SECTION
2
HEADER
0
ENDSEC
0
SECTION
2
TABLES
0
TABLE
2
LAYER
70
153
0
LAYER
2
GEM
70
0
62
15
6
CONTINUOUS
0
ENDTAB
0
ENDSEC
0
SECTION
2
ENTITIES
0
3DFACE
8
GEM
10
0.000000
20
-0.000000
30
-0.840103
11
-0.156293
21
0.785736
31
-0.120109
12
0.156293
22
0.785736
32
-0.120109
13
0.156293
23
0.785736
33
-0.120109
62
0
0
3DFACE
8
GEM
10
-0.156293
20
0.785736
30
-0.120109
11
0.000000
21
-0.000000
31
-0.840103
12
-0.525012
22
0.785735
32
0.009187
13
-0.525012
23
0.785735
33
0.009187
62
0
0
3DFACE
8
GEM
10
-0.156293
20
0.785736
30
-0.120109
11
-0.525012
21
0.785735
31
0.009187
12
-0.525011
22
0.785736
32
0.009188
13
-0.525011
23
0.785736
33
0.009188
62
0
0
3DFACE
8
GEM
10
-0.525012
20
0.785735
30
0.009187
11
0.000000
21
-0.000000
31
-0.840103
12
-0.785735
22
0.525012
32
0.009187
13
-0.785735
23
0.525012
33
0.009187
62
0
0
3DFACE
8
GEM
10
-0.785735
20
0.525012
30
0.009187
11
0.000000
21
-0.000000
31
-0.840103
12
-0.785736
22
0.156293
32
-0.120109
13
-0.785736
23
0.156293
33
-0.120109
62
0
0
3DFACE
8
GEM
10
-0.785735
20
0.525012
30
0.009187
11
-0.785736
21
0.156293
31
-0.120109
12
-0.785736
22
0.525011
32
0.009188
13
-0.785736
23
0.525011
33
0.009188
62
0
0
3DFACE
8
GEM
10
-0.785736
20
0.156293
30
-0.120109
11
0.000000
21
-0.000000
31
-0.840103
12
-0.785736
22
-0.156293
32
-0.120109
13
-0.785736
23
-0.156293
33
-0.120109
62
0
0
3DFACE
8
GEM
10
-0.785736
20
-0.156293
30
-0.120109
11
0.000000
21
-0.000000
31
-0.840103
12
-0.785735
22
-0.525012
32
0.009187
13
-0.785735
23
-0.525012
33
0.009187
62
0
0
3DFACE
8
GEM
10
-0.785736
20
-0.156293
30
-0.120109
11
-0.785735
21
-0.525012
31
0.009187
12
-0.785736
22
-0.525011
32
0.009188
13
-0.785736
23
-0.525011
33
0.009188
62
0
0
3DFACE
8
GEM
10
-0.785735
20
-0.525012
30
0.009187
11
0.000000
21
-0.000000
31
-0.840103
12
-0.525012
22
-0.785735
32
0.009187
13
-0.525012
23
-0.785735
33
0.009187
62
0
0
3DFACE
8
GEM
10
-0.525012
20
-0.785735
30
0.009187
11
0.000000
21
-0.000000
31
-0.840103
12
-0.156293
22
-0.785736
32
-0.120109
13
-0.156293
23
-0.785736
33
-0.120109
62
0
0
3DFACE
8
GEM
10
-0.525012
20
-0.785735
30
0.009187
11
-0.156293
21
-0.785736
31
-0.120109
12
-0.525011
22
-0.785736
32
0.009188
13
-0.525011
23
-0.785736
33
0.009188
62
0
0
3DFACE
8
GEM
10
-0.156293
20
-0.785736
30
-0.120109
11
0.000000
21
-0.000000
31
-0.840103
12
0.156293
22
-0.785736
32
-0.120109
13
0.156293
23
-0.785736
33
-0.120109
62
0
0
3DFACE
8
GEM
10
0.156293
20
-0.785736
30
-0.120109
11
0.000000
21
-0.000000
31
-0.840103
12
0.525012
22
-0.785735
32
0.009187
13
0.525012
23
-0.785735
33
0.009187
62
0
0
3DFACE
8
GEM
10
0.156293
20
-0.785736
30
-0.120109
11
0.525012
21
-0.785735
31
0.009187
12
0.525011
22
-0.785736
32
0.009188
13
0.525011
23
-0.785736
33
0.009188
62
0
0
3DFACE
8
GEM
10
0.525012
20
-0.785735
30
0.009187
11
0.000000
21
-0.000000
31
-0.840103
12
0.785735
22
-0.525012
32
0.009187
13
0.785735
23
-0.525012
33
0.009187
62
0
0
3DFACE
8
GEM
10
0.785735
20
-0.525012
30
0.009187
11
0.000000
21
-0.000000
31
-0.840103
12
0.785736
22
-0.156293
32
-0.120109
13
0.785736
23
-0.156293
33
-0.120109
62
0
0
3DFACE
8
GEM
10
0.785735
20
-0.525012
30
0.009187
11
0.785736
21
-0.156293
31
-0.120109
12
0.785736
22
-0.525011
32
0.009188
13
0.785736
23
-0.525011
33
0.009188
62
0
0
3DFACE
8
GEM
10
0.785736
20
-0.156293
30
-0.120109
11
0.000000
21
-0.000000
31
-0.840103
12
0.785736
22
0.156293
32
-0.120109
13
0.785736
23
0.156293
33
-0.120109
62
0
0
3DFACE
8
GEM
10
0.785736
20
0.156293
30
-0.120109
11
0.000000
21
-0.000000
31
-0.840103
12
0.785735
22
0.525012
32
0.009187
13
0.785735
23
0.525012
33
0.009187
62
0
0
3DFACE
8
GEM
10
0.785736
20
0.156293
30
-0.120109
11
0.785735
21
0.525012
31
0.009187
12
0.785736
22
0.525011
32
0.009188
13
0.785736
23
0.525011
33
0.009188
62
0
0
3DFACE
8
GEM
10
0.785735
20
0.525012
30
0.009187
11
0.000000
21
-0.000000
31
-0.840103
12
0.525012
22
0.785735
32
0.009187
13
0.525012
23
0.785735
33
0.009187
62
0
0
3DFACE
8
GEM
10
0.000000
20
-0.000000
30
-0.840103
11
0.156293
21
0.785736
31
-0.120109
12
0.525011
22
0.785736
32
0.009188
13
0.525011
23
0.785736
33
0.009188
62
0
0
3DFACE
8
GEM
10
0.000000
20
-0.000000
30
-0.840103
11
0.525011
21
0.785736
31
0.009188
12
0.525012
22
0.785735
32
0.009187
13
0.525012
23
0.785735
33
0.009187
62
0
0
3DFACE
8
GEM
10
-0.525011
20
0.785736
30
0.009188
11
-0.525012
21
0.785735
31
0.009187
12
-0.785735
22
0.525012
32
0.009187
13
-0.785735
23
0.525012
33
0.009187
62
0
0
3DFACE
8
GEM
10
-0.525011
20
0.785736
30
0.009188
11
-0.785735
21
0.525012
31
0.009187
12
-0.785736
22
0.525011
32
0.009188
13
-0.785736
23
0.525011
33
0.009188
62
0
0
3DFACE
8
GEM
10
-0.525011
20
0.785736
30
0.009188
11
-0.785736
21
0.525011
31
0.009188
12
-0.785736
22
0.525011
32
0.039216
13
-0.785736
23
0.525011
33
0.039216
62
0
0
3DFACE
8
GEM
10
-0.525011
20
0.785736
30
0.009188
11
-0.785736
21
0.525011
31
0.039216
12
-0.525011
22
0.785736
32
0.039216
13
-0.525011
23
0.785736
33
0.039216
62
0
0
3DFACE
8
GEM
10
-0.785736
20
-0.525011
30
0.009188
11
-0.785735
21
-0.525012
31
0.009187
12
-0.525012
22
-0.785735
32
0.009187
13
-0.525012
23
-0.785735
33
0.009187
62
0
0
3DFACE
8
GEM
10
-0.785736
20
-0.525011
30
0.009188
11
-0.525012
21
-0.785735
31
0.009187
12
-0.525011
22
-0.785736
32
0.009188
13
-0.525011
23
-0.785736
33
0.009188
62
0
0
3DFACE
8
GEM
10
-0.785736
20
-0.525011
30
0.009188
11
-0.525011
21
-0.785736
31
0.009188
12
-0.525011
22
-0.785736
32
0.039216
13
-0.525011
23
-0.785736
33
0.039216
62
0
0
3DFACE
8
GEM
10
-0.785736
20
-0.525011
30
0.009188
11
-0.525011
21
-0.785736
31
0.039216
12
-0.785736
22
-0.525011
32
0.039216
13
-0.785736
23
-0.525011
33
0.039216
62
0
0
3DFACE
8
GEM
10
0.525011
20
-0.785736
30
0.009188
11
0.525012
21
-0.785735
31
0.009187
12
0.785735
22
-0.525012
32
0.009187
13
0.785735
23
-0.525012
33
0.009187
62
0
0
3DFACE
8
GEM
10
0.525011
20
-0.785736
30
0.009188
11
0.785735
21
-0.525012
31
0.009187
12
0.785736
22
-0.525011
32
0.009188
13
0.785736
23
-0.525011
33
0.009188
62
0
0
3DFACE
8
GEM
10
0.525011
20
-0.785736
30
0.009188
11
0.785736
21
-0.525011
31
0.009188
12
0.785736
22
-0.525011
32
0.039216
13
0.785736
23
-0.525011
33
0.039216
62
0
0
3DFACE
8
GEM
10
0.525011
20
-0.785736
30
0.009188
11
0.785736
21
-0.525011
31
0.039216
12
0.525011
22
-0.785736
32
0.039216
13
0.525011
23
-0.785736
33
0.039216
62
0
0
3DFACE
8
GEM
10
0.785736
20
0.525011
30
0.009188
11
0.785735
21
0.525012
31
0.009187
12
0.525012
22
0.785735
32
0.009187
13
0.525012
23
0.785735
33
0.009187
62
0
0
3DFACE
8
GEM
10
0.785736
20
0.525011
30
0.009188
11
0.525012
21
0.785735
31
0.009187
12
0.525011
22
0.785736
32
0.009188
13
0.525011
23
0.785736
33
0.009188
62
0
0
3DFACE
8
GEM
10
0.785736
20
0.525011
30
0.009188
11
0.525011
21
0.785736
31
0.009188
12
0.525011
22
0.785736
32
0.039216
13
0.525011
23
0.785736
33
0.039216
62
0
0
3DFACE
8
GEM
10
0.785736
20
0.525011
30
0.009188
11
0.525011
21
0.785736
31
0.039216
12
0.785736
22
0.525011
32
0.039216
13
0.785736
23
0.525011
33
0.039216
62
0
0
3DFACE
8
GEM
10
0.156293
20
0.785736
30
-0.120109
11
-0.156293
21
0.785736
31
-0.120109
12
-0.525011
22
0.785736
32
0.009188
13
-0.525011
23
0.785736
33
0.009188
62
0
0
3DFACE
8
GEM
10
0.156293
20
0.785736
30
-0.120109
11
-0.525011
21
0.785736
31
0.009188
12
-0.525011
22
0.785736
32
0.039216
13
-0.525011
23
0.785736
33
0.039216
62
0
0
3DFACE
8
GEM
10
0.156293
20
0.785736
30
-0.120109
11
-0.525011
21
0.785736
31
0.039216
12
-0.524874
22
0.785736
32
0.039290
13
-0.524874
23
0.785736
33
0.039290
62
0
0
3DFACE
8
GEM
10
0.156293
20
0.785736
30
-0.120109
11
-0.524874
21
0.785736
31
0.039290
12
0.524874
22
0.785736
32
0.039290
13
0.524874
23
0.785736
33
0.039290
62
0
0
3DFACE
8
GEM
10
0.156293
20
0.785736
30
-0.120109
11
0.524874
21
0.785736
31
0.039290
12
0.525011
22
0.785736
32
0.039216
13
0.525011
23
0.785736
33
0.039216
62
0
0
3DFACE
8
GEM
10
0.156293
20
0.785736
30
-0.120109
11
0.525011
21
0.785736
31
0.039216
12
0.525011
22
0.785736
32
0.009188
13
0.525011
23
0.785736
33
0.009188
62
0
0
3DFACE
8
GEM
10
-0.785736
20
0.525011
30
0.009188
11
-0.785736
21
0.156293
31
-0.120109
12
-0.785736
22
-0.156293
32
-0.120109
13
-0.785736
23
-0.156293
33
-0.120109
62
0
0
3DFACE
8
GEM
10
-0.785736
20
0.525011
30
0.009188
11
-0.785736
21
-0.156293
31
-0.120109
12
-0.785736
22
-0.525011
32
0.009188
13
-0.785736
23
-0.525011
33
0.009188
62
0
0
3DFACE
8
GEM
10
-0.785736
20
0.525011
30
0.009188
11
-0.785736
21
-0.525011
31
0.009188
12
-0.785736
22
-0.525011
32
0.039216
13
-0.785736
23
-0.525011
33
0.039216
62
0
0
3DFACE
8
GEM
10
-0.785736
20
0.525011
30
0.009188
11
-0.785736
21
-0.525011
31
0.039216
12
-0.785736
22
-0.524874
32
0.039290
13
-0.785736
23
-0.524874
33
0.039290
62
0
0
3DFACE
8
GEM
10
-0.785736
20
0.525011
30
0.009188
11
-0.785736
21
-0.524874
31
0.039290
12
-0.785736
22
0.524874
32
0.039290
13
-0.785736
23
0.524874
33
0.039290
62
0
0
3DFACE
8
GEM
10
-0.785736
20
0.525011
30
0.009188
11
-0.785736
21
0.524874
31
0.039290
12
-0.785736
22
0.525011
32
0.039216
13
-0.785736
23
0.525011
33
0.039216
62
0
0
3DFACE
8
GEM
10
-0.525011
20
-0.785736
30
0.009188
11
-0.156293
21
-0.785736
31
-0.120109
12
0.156293
22
-0.785736
32
-0.120109
13
0.156293
23
-0.785736
33
-0.120109
62
0
0
3DFACE
8
GEM
10
-0.525011
20
-0.785736
30
0.009188
11
0.156293
21
-0.785736
31
-0.120109
12
0.525011
22
-0.785736
32
0.009188
13
0.525011
23
-0.785736
33
0.009188
62
0
0
3DFACE
8
GEM
10
-0.525011
20
-0.785736
30
0.009188
11
0.525011
21
-0.785736
31
0.009188
12
0.525011
22
-0.785736
32
0.039216
13
0.525011
23
-0.785736
33
0.039216
62
0
0
3DFACE
8
GEM
10
-0.525011
20
-0.785736
30
0.009188
11
0.525011
21
-0.785736
31
0.039216
12
0.524874
22
-0.785736
32
0.039290
13
0.524874
23
-0.785736
33
0.039290
62
0
0
3DFACE
8
GEM
10
-0.525011
20
-0.785736
30
0.009188
11
0.524874
21
-0.785736
31
0.039290
12
-0.524874
22
-0.785736
32
0.039290
13
-0.524874
23
-0.785736
33
0.039290
62
0
0
3DFACE
8
GEM
10
-0.525011
20
-0.785736
30
0.009188
11
-0.524874
21
-0.785736
31
0.039290
12
-0.525011
22
-0.785736
32
0.039216
13
-0.525011
23
-0.785736
33
0.039216
62
0
0
3DFACE
8
GEM
10
0.785736
20
-0.525011
30
0.009188
11
0.785736
21
-0.156293
31
-0.120109
12
0.785736
22
0.156293
32
-0.120109
13
0.785736
23
0.156293
33
-0.120109
62
0
0
3DFACE
8
GEM
10
0.785736
20
-0.525011
30
0.009188
11
0.785736
21
0.156293
31
-0.120109
12
0.785736
22
0.525011
32
0.009188
13
0.785736
23
0.525011
33
0.009188
62
0
0
3DFACE
8
GEM
10
0.785736
20
-0.525011
30
0.009188
11
0.785736
21
0.525011
31
0.009188
12
0.785736
22
0.525011
32
0.039216
13
0.785736
23
0.525011
33
0.039216
62
0
0
3DFACE
8
GEM
10
0.785736
20
-0.525011
30
0.009188
11
0.785736
21
0.525011
31
0.039216
12
0.785736
22
0.524874
32
0.039290
13
0.785736
23
0.524874
33
0.039290
62
0
0
3DFACE
8
GEM
10
0.785736
20
-0.525011
30
0.009188
11
0.785736
21
0.524874
31
0.039290
12
0.785736
22
-0.524874
32
0.039290
13
0.785736
23
-0.524874
33
0.039290
62
0
0
3DFACE
8
GEM
10
0.785736
20
-0.525011
30
0.009188
11
0.785736
21
-0.524874
31
0.039290
12
0.785736
22
-0.525011
32
0.039216
13
0.785736
23
-0.525011
33
0.039216
62
0
0
3DFACE
8
GEM
10
0.785736
20
0.525011
30
0.039216
11
0.525011
21
0.785736
31
0.039216
12
0.524874
22
0.785736
32
0.039290
13
0.524874
23
0.785736
33
0.039290
62
0
0
3DFACE
8
GEM
10
0.785736
20
0.525011
30
0.039216
11
0.524874
21
0.785736
31
0.039290
12
0.442817
22
0.662878
32
0.149911
13
0.442817
23
0.662878
33
0.149911
62
0
0
3DFACE
8
GEM
10
0.785736
20
0.525011
30
0.039216
11
0.442817
21
0.662878
31
0.149911
12
0.442763
22
0.662536
32
0.150125
13
0.442763
23
0.662536
33
0.150125
62
0
0
3DFACE
8
GEM
10
0.785736
20
0.525011
30
0.039216
11
0.442763
21
0.662536
31
0.150125
12
0.662536
22
0.442763
32
0.150125
13
0.662536
23
0.442763
33
0.150125
62
0
0
3DFACE
8
GEM
10
0.785736
20
0.525011
30
0.039216
11
0.662536
21
0.442763
31
0.150125
12
0.662878
22
0.442817
32
0.149911
13
0.662878
23
0.442817
33
0.149911
62
0
0
3DFACE
8
GEM
10
0.785736
20
0.525011
30
0.039216
11
0.662878
21
0.442817
31
0.149911
12
0.785736
22
0.524874
32
0.039290
13
0.785736
23
0.524874
33
0.039290
62
0
0
3DFACE
8
GEM
10
0.525011
20
-0.785736
30
0.039216
11
0.785736
21
-0.525011
31
0.039216
12
0.785736
22
-0.524874
32
0.039290
13
0.785736
23
-0.524874
33
0.039290
62
0
0
3DFACE
8
GEM
10
0.525011
20
-0.785736
30
0.039216
11
0.785736
21
-0.524874
31
0.039290
12
0.662878
22
-0.442817
32
0.149911
13
0.662878
23
-0.442817
33
0.149911
62
0
0
3DFACE
8
GEM
10
0.525011
20
-0.785736
30
0.039216
11
0.662878
21
-0.442817
31
0.149911
12
0.662536
22
-0.442763
32
0.150125
13
0.662536
23
-0.442763
33
0.150125
62
0
0
3DFACE
8
GEM
10
0.525011
20
-0.785736
30
0.039216
11
0.662536
21
-0.442763
31
0.150125
12
0.442763
22
-0.662536
32
0.150125
13
0.442763
23
-0.662536
33
0.150125
62
0
0
3DFACE
8
GEM
10
0.525011
20
-0.785736
30
0.039216
11
0.442763
21
-0.662536
31
0.150125
12
0.442817
22
-0.662878
32
0.149911
13
0.442817
23
-0.662878
33
0.149911
62
0
0
3DFACE
8
GEM
10
0.525011
20
-0.785736
30
0.039216
11
0.442817
21
-0.662878
31
0.149911
12
0.524874
22
-0.785736
32
0.039290
13
0.524874
23
-0.785736
33
0.039290
62
0
0
3DFACE
8
GEM
10
-0.785736
20
-0.525011
30
0.039216
11
-0.525011
21
-0.785736
31
0.039216
12
-0.524874
22
-0.785736
32
0.039290
13
-0.524874
23
-0.785736
33
0.039290
62
0
0
3DFACE
8
GEM
10
-0.785736
20
-0.525011
30
0.039216
11
-0.524874
21
-0.785736
31
0.039290
12
-0.442817
22
-0.662878
32
0.149911
13
-0.442817
23
-0.662878
33
0.149911
62
0
0
3DFACE
8
GEM
10
-0.785736
20
-0.525011
30
0.039216
11
-0.442817
21
-0.662878
31
0.149911
12
-0.442763
22
-0.662536
32
0.150125
13
-0.442763
23
-0.662536
33
0.150125
62
0
0
3DFACE
8
GEM
10
-0.785736
20
-0.525011
30
0.039216
11
-0.442763
21
-0.662536
31
0.150125
12
-0.662536
22
-0.442763
32
0.150125
13
-0.662536
23
-0.442763
33
0.150125
62
0
0
3DFACE
8
GEM
10
-0.785736
20
-0.525011
30
0.039216
11
-0.662536
21
-0.442763
31
0.150125
12
-0.662878
22
-0.442817
32
0.149911
13
-0.662878
23
-0.442817
33
0.149911
62
0
0
3DFACE
8
GEM
10
-0.785736
20
-0.525011
30
0.039216
11
-0.662878
21
-0.442817
31
0.149911
12
-0.785736
22
-0.524874
32
0.039290
13
-0.785736
23
-0.524874
33
0.039290
62
0
0
3DFACE
8
GEM
10
-0.525011
20
0.785736
30
0.039216
11
-0.785736
21
0.525011
31
0.039216
12
-0.785736
22
0.524874
32
0.039290
13
-0.785736
23
0.524874
33
0.039290
62
0
0
3DFACE
8
GEM
10
-0.525011
20
0.785736
30
0.039216
11
-0.785736
21
0.524874
31
0.039290
12
-0.662878
22
0.442817
32
0.149911
13
-0.662878
23
0.442817
33
0.149911
62
0
0
3DFACE
8
GEM
10
-0.525011
20
0.785736
30
0.039216
11
-0.662878
21
0.442817
31
0.149911
12
-0.662536
22
0.442763
32
0.150125
13
-0.662536
23
0.442763
33
0.150125
62
0
0
3DFACE
8
GEM
10
-0.525011
20
0.785736
30
0.039216
11
-0.662536
21
0.442763
31
0.150125
12
-0.442763
22
0.662536
32
0.150125
13
-0.442763
23
0.662536
33
0.150125
62
0
0
3DFACE
8
GEM
10
-0.525011
20
0.785736
30
0.039216
11
-0.442763
21
0.662536
31
0.150125
12
-0.442817
22
0.662878
32
0.149911
13
-0.442817
23
0.662878
33
0.149911
62
0
0
3DFACE
8
GEM
10
-0.525011
20
0.785736
30
0.039216
11
-0.442817
21
0.662878
31
0.149911
12
-0.524874
22
0.785736
32
0.039290
13
-0.524874
23
0.785736
33
0.039290
62
0
0
3DFACE
8
GEM
10
0.524874
20
0.785736
30
0.039290
11
-0.524874
21
0.785736
31
0.039290
12
-0.442817
22
0.662878
32
0.149911
13
-0.442817
23
0.662878
33
0.149911
62
0
0
3DFACE
8
GEM
10
0.524874
20
0.785736
30
0.039290
11
-0.442817
21
0.662878
31
0.149911
12
0.442817
22
0.662878
32
0.149911
13
0.442817
23
0.662878
33
0.149911
62
0
0
3DFACE
8
GEM
10
0.785736
20
-0.524874
30
0.039290
11
0.785736
21
0.524874
31
0.039290
12
0.662878
22
0.442817
32
0.149911
13
0.662878
23
0.442817
33
0.149911
62
0
0
3DFACE
8
GEM
10
0.785736
20
-0.524874
30
0.039290
11
0.662878
21
0.442817
31
0.149911
12
0.662878
22
-0.442817
32
0.149911
13
0.662878
23
-0.442817
33
0.149911
62
0
0
3DFACE
8
GEM
10
-0.524874
20
-0.785736
30
0.039290
11
0.524874
21
-0.785736
31
0.039290
12
0.442817
22
-0.662878
32
0.149911
13
0.442817
23
-0.662878
33
0.149911
62
0
0
3DFACE
8
GEM
10
-0.524874
20
-0.785736
30
0.039290
11
0.442817
21
-0.662878
31
0.149911
12
-0.442817
22
-0.662878
32
0.149911
13
-0.442817
23
-0.662878
33
0.149911
62
0
0
3DFACE
8
GEM
10
-0.785736
20
0.524874
30
0.039290
11
-0.785736
21
-0.524874
31
0.039290
12
-0.662878
22
-0.442817
32
0.149911
13
-0.662878
23
-0.442817
33
0.149911
62
0
0
3DFACE
8
GEM
10
-0.785736
20
0.524874
30
0.039290
11
-0.662878
21
-0.442817
31
0.149911
12
-0.662878
22
0.442817
32
0.149911
13
-0.662878
23
0.442817
33
0.149911
62
0
0
3DFACE
8
GEM
10
0.662536
20
0.442763
30
0.150125
11
0.442763
21
0.662536
31
0.150125
12
0.358741
22
0.536814
32
0.228685
13
0.358741
23
0.536814
33
0.228685
62
0
0
3DFACE
8
GEM
10
0.662536
20
0.442763
30
0.150125
11
0.358741
21
0.536814
31
0.228685
12
0.536814
22
0.358741
32
0.228685
13
0.536814
23
0.358741
33
0.228685
62
0
0
3DFACE
8
GEM
10
0.442763
20
-0.662536
30
0.150125
11
0.662536
21
-0.442763
31
0.150125
12
0.536814
22
-0.358741
32
0.228685
13
0.536814
23
-0.358741
33
0.228685
62
0
0
3DFACE
8
GEM
10
0.442763
20
-0.662536
30
0.150125
11
0.536814
21
-0.358741
31
0.228685
12
0.358741
22
-0.536814
32
0.228685
13
0.358741
23
-0.536814
33
0.228685
62
0
0
3DFACE
8
GEM
10
-0.662536
20
-0.442763
30
0.150125
11
-0.442763
21
-0.662536
31
0.150125
12
-0.358741
22
-0.536814
32
0.228685
13
-0.358741
23
-0.536814
33
0.228685
62
0
0
3DFACE
8
GEM
10
-0.662536
20
-0.442763
30
0.150125
11
-0.358741
21
-0.536814
31
0.228685
12
-0.536814
22
-0.358741
32
0.228685
13
-0.536814
23
-0.358741
33
0.228685
62
0
0
3DFACE
8
GEM
10
-0.442763
20
0.662536
30
0.150125
11
-0.662536
21
0.442763
31
0.150125
12
-0.536814
22
0.358741
32
0.228685
13
-0.536814
23
0.358741
33
0.228685
62
0
0
3DFACE
8
GEM
10
-0.442763
20
0.662536
30
0.150125
11
-0.536814
21
0.358741
31
0.228685
12
-0.358741
22
0.536814
32
0.228685
13
-0.358741
23
0.536814
33
0.228685
62
0
0
3DFACE
8
GEM
10
0.442763
20
0.662536
30
0.150125
11
0.442817
21
0.662878
31
0.149911
12
-0.442817
22
0.662878
32
0.149911
13
-0.442817
23
0.662878
33
0.149911
62
0
0
3DFACE
8
GEM
10
0.442763
20
0.662536
30
0.150125
11
-0.442817
21
0.662878
31
0.149911
12
-0.442763
22
0.662536
32
0.150125
13
-0.442763
23
0.662536
33
0.150125
62
0
0
3DFACE
8
GEM
10
0.442763
20
0.662536
30
0.150125
11
-0.442763
21
0.662536
31
0.150125
12
-0.358741
22
0.536814
32
0.228685
13
-0.358741
23
0.536814
33
0.228685
62
0
0
3DFACE
8
GEM
10
0.442763
20
0.662536
30
0.150125
11
-0.358741
21
0.536814
31
0.228685
12
-0.358465
22
0.536639
32
0.228794
13
-0.358465
23
0.536639
33
0.228794
62
0
0
3DFACE
8
GEM
10
0.442763
20
0.662536
30
0.150125
11
-0.358465
21
0.536639
31
0.228794
12
0.358465
22
0.536639
32
0.228794
13
0.358465
23
0.536639
33
0.228794
62
0
0
3DFACE
8
GEM
10
0.442763
20
0.662536
30
0.150125
11
0.358465
21
0.536639
31
0.228794
12
0.358741
22
0.536814
32
0.228685
13
0.358741
23
0.536814
33
0.228685
62
0
0
3DFACE
8
GEM
10
0.662878
20
0.442817
30
0.149911
11
0.662536
21
0.442763
31
0.150125
12
0.536814
22
0.358741
32
0.228685
13
0.536814
23
0.358741
33
0.228685
62
0
0
3DFACE
8
GEM
10
0.662878
20
0.442817
30
0.149911
11
0.536814
21
0.358741
31
0.228685
12
0.536639
22
0.358465
32
0.228794
13
0.536639
23
0.358465
33
0.228794
62
0
0
3DFACE
8
GEM
10
0.662878
20
0.442817
30
0.149911
11
0.536639
21
0.358465
31
0.228794
12
0.536639
22
-0.358465
32
0.228794
13
0.536639
23
-0.358465
33
0.228794
62
0
0
3DFACE
8
GEM
10
0.662878
20
0.442817
30
0.149911
11
0.536639
21
-0.358465
31
0.228794
12
0.536814
22
-0.358741
32
0.228685
13
0.536814
23
-0.358741
33
0.228685
62
0
0
3DFACE
8
GEM
10
0.662878
20
0.442817
30
0.149911
11
0.536814
21
-0.358741
31
0.228685
12
0.662536
22
-0.442763
32
0.150125
13
0.662536
23
-0.442763
33
0.150125
62
0
0
3DFACE
8
GEM
10
0.662878
20
0.442817
30
0.149911
11
0.662536
21
-0.442763
31
0.150125
12
0.662878
22
-0.442817
32
0.149911
13
0.662878
23
-0.442817
33
0.149911
62
0
0
3DFACE
8
GEM
10
0.442817
20
-0.662878
30
0.149911
11
0.442763
21
-0.662536
31
0.150125
12
0.358741
22
-0.536814
32
0.228685
13
0.358741
23
-0.536814
33
0.228685
62
0
0
3DFACE
8
GEM
10
0.442817
20
-0.662878
30
0.149911
11
0.358741
21
-0.536814
31
0.228685
12
0.358465
22
-0.536639
32
0.228794
13
0.358465
23
-0.536639
33
0.228794
62
0
0
3DFACE
8
GEM
10
0.442817
20
-0.662878
30
0.149911
11
0.358465
21
-0.536639
31
0.228794
12
-0.358465
22
-0.536639
32
0.228794
13
-0.358465
23
-0.536639
33
0.228794
62
0
0
3DFACE
8
GEM
10
0.442817
20
-0.662878
30
0.149911
11
-0.358465
21
-0.536639
31
0.228794
12
-0.358741
22
-0.536814
32
0.228685
13
-0.358741
23
-0.536814
33
0.228685
62
0
0
3DFACE
8
GEM
10
0.442817
20
-0.662878
30
0.149911
11
-0.358741
21
-0.536814
31
0.228685
12
-0.442763
22
-0.662536
32
0.150125
13
-0.442763
23
-0.662536
33
0.150125
62
0
0
3DFACE
8
GEM
10
0.442817
20
-0.662878
30
0.149911
11
-0.442763
21
-0.662536
31
0.150125
12
-0.442817
22
-0.662878
32
0.149911
13
-0.442817
23
-0.662878
33
0.149911
62
0
0
3DFACE
8
GEM
10
-0.662878
20
-0.442817
30
0.149911
11
-0.662536
21
-0.442763
31
0.150125
12
-0.536814
22
-0.358741
32
0.228685
13
-0.536814
23
-0.358741
33
0.228685
62
0
0
3DFACE
8
GEM
10
-0.662878
20
-0.442817
30
0.149911
11
-0.536814
21
-0.358741
31
0.228685
12
-0.536639
22
-0.358465
32
0.228794
13
-0.536639
23
-0.358465
33
0.228794
62
0
0
3DFACE
8
GEM
10
-0.662878
20
-0.442817
30
0.149911
11
-0.536639
21
-0.358465
31
0.228794
12
-0.536639
22
0.358465
32
0.228794
13
-0.536639
23
0.358465
33
0.228794
62
0
0
3DFACE
8
GEM
10
-0.662878
20
-0.442817
30
0.149911
11
-0.536639
21
0.358465
31
0.228794
12
-0.536814
22
0.358741
32
0.228685
13
-0.536814
23
0.358741
33
0.228685
62
0
0
3DFACE
8
GEM
10
-0.662878
20
-0.442817
30
0.149911
11
-0.536814
21
0.358741
31
0.228685
12
-0.662536
22
0.442763
32
0.150125
13
-0.662536
23
0.442763
33
0.150125
62
0
0
3DFACE
8
GEM
10
-0.662878
20
-0.442817
30
0.149911
11
-0.662536
21
0.442763
31
0.150125
12
-0.662878
22
0.442817
32
0.149911
13
-0.662878
23
0.442817
33
0.149911
62
0
0
3DFACE
8
GEM
10
0.536814
20
0.358741
30
0.228685
11
0.358741
21
0.536814
31
0.228685
12
0.358465
22
0.536639
32
0.228794
13
0.358465
23
0.536639
33
0.228794
62
0
0
3DFACE
8
GEM
10
0.536814
20
0.358741
30
0.228685
11
0.358465
21
0.536639
31
0.228794
12
0.274114
22
0.410349
32
0.279819
13
0.274114
23
0.410349
33
0.279819
62
0
0
3DFACE
8
GEM
10
0.536814
20
0.358741
30
0.228685
11
0.274114
21
0.410349
31
0.279819
12
0.410349
22
0.274114
32
0.279819
13
0.410349
23
0.274114
33
0.279819
62
0
0
3DFACE
8
GEM
10
0.536814
20
0.358741
30
0.228685
11
0.410349
21
0.274114
31
0.279819
12
0.536639
22
0.358465
32
0.228794
13
0.536639
23
0.358465
33
0.228794
62
0
0
3DFACE
8
GEM
10
0.358741
20
-0.536814
30
0.228685
11
0.536814
21
-0.358741
31
0.228685
12
0.536639
22
-0.358465
32
0.228794
13
0.536639
23
-0.358465
33
0.228794
62
0
0
3DFACE
8
GEM
10
0.358741
20
-0.536814
30
0.228685
11
0.536639
21
-0.358465
31
0.228794
12
0.410349
22
-0.274114
32
0.279819
13
0.410349
23
-0.274114
33
0.279819
62
0
0
3DFACE
8
GEM
10
0.358741
20
-0.536814
30
0.228685
11
0.410349
21
-0.274114
31
0.279819
12
0.274114
22
-0.410349
32
0.279819
13
0.274114
23
-0.410349
33
0.279819
62
0
0
3DFACE
8
GEM
10
0.358741
20
-0.536814
30
0.228685
11
0.274114
21
-0.410349
31
0.279819
12
0.358465
22
-0.536639
32
0.228794
13
0.358465
23
-0.536639
33
0.228794
62
0
0
3DFACE
8
GEM
10
-0.536814
20
-0.358741
30
0.228685
11
-0.358741
21
-0.536814
31
0.228685
12
-0.358465
22
-0.536639
32
0.228794
13
-0.358465
23
-0.536639
33
0.228794
62
0
0
3DFACE
8
GEM
10
-0.536814
20
-0.358741
30
0.228685
11
-0.358465
21
-0.536639
31
0.228794
12
-0.274114
22
-0.410349
32
0.279819
13
-0.274114
23
-0.410349
33
0.279819
62
0
0
3DFACE
8
GEM
10
-0.536814
20
-0.358741
30
0.228685
11
-0.274114
21
-0.410349
31
0.279819
12
-0.410349
22
-0.274114
32
0.279819
13
-0.410349
23
-0.274114
33
0.279819
62
0
0
3DFACE
8
GEM
10
-0.536814
20
-0.358741
30
0.228685
11
-0.410349
21
-0.274114
31
0.279819
12
-0.536639
22
-0.358465
32
0.228794
13
-0.536639
23
-0.358465
33
0.228794
62
0
0
3DFACE
8
GEM
10
-0.358741
20
0.536814
30
0.228685
11
-0.536814
21
0.358741
31
0.228685
12
-0.536639
22
0.358465
32
0.228794
13
-0.536639
23
0.358465
33
0.228794
62
0
0
3DFACE
8
GEM
10
-0.358741
20
0.536814
30
0.228685
11
-0.536639
21
0.358465
31
0.228794
12
-0.410349
22
0.274114
32
0.279819
13
-0.410349
23
0.274114
33
0.279819
62
0
0
3DFACE
8
GEM
10
-0.358741
20
0.536814
30
0.228685
11
-0.410349
21
0.274114
31
0.279819
12
-0.274114
22
0.410349
32
0.279819
13
-0.274114
23
0.410349
33
0.279819
62
0
0
3DFACE
8
GEM
10
-0.358741
20
0.536814
30
0.228685
11
-0.274114
21
0.410349
31
0.279819
12
-0.358465
22
0.536639
32
0.228794
13
-0.358465
23
0.536639
33
0.228794
62
0
0
3DFACE
8
GEM
10
0.358465
20
0.536639
30
0.228794
11
-0.358465
21
0.536639
31
0.228794
12
-0.274114
22
0.410349
32
0.279819
13
-0.274114
23
0.410349
33
0.279819
62
0
0
3DFACE
8
GEM
10
0.358465
20
0.536639
30
0.228794
11
-0.274114
21
0.410349
31
0.279819
12
0.274114
22
0.410349
32
0.279819
13
0.274114
23
0.410349
33
0.279819
62
0
0
3DFACE
8
GEM
10
0.536639
20
-0.358465
30
0.228794
11
0.536639
21
0.358465
31
0.228794
12
0.410349
22
0.274114
32
0.279819
13
0.410349
23
0.274114
33
0.279819
62
0
0
3DFACE
8
GEM
10
0.536639
20
-0.358465
30
0.228794
11
0.410349
21
0.274114
31
0.279819
12
0.410349
22
-0.274114
32
0.279819
13
0.410349
23
-0.274114
33
0.279819
62
0
0
3DFACE
8
GEM
10
-0.358465
20
-0.536639
30
0.228794
11
0.358465
21
-0.536639
31
0.228794
12
0.274114
22
-0.410349
32
0.279819
13
0.274114
23
-0.410349
33
0.279819
62
0
0
3DFACE
8
GEM
10
-0.358465
20
-0.536639
30
0.228794
11
0.274114
21
-0.410349
31
0.279819
12
-0.274114
22
-0.410349
32
0.279819
13
-0.274114
23
-0.410349
33
0.279819
62
0
0
3DFACE
8
GEM
10
-0.536639
20
0.358465
30
0.228794
11
-0.536639
21
-0.358465
31
0.228794
12
-0.410349
22
-0.274114
32
0.279819
13
-0.410349
23
-0.274114
33
0.279819
62
0
0
3DFACE
8
GEM
10
-0.536639
20
0.358465
30
0.228794
11
-0.410349
21
-0.274114
31
0.279819
12
-0.410349
22
0.274114
32
0.279819
13
-0.410349
23
0.274114
33
0.279819
62
0
0
3DFACE
8
GEM
10
0.410349
20
0.274114
30
0.279819
11
0.274114
21
0.410349
31
0.279819
12
-0.274114
22
0.410349
32
0.279819
13
-0.274114
23
0.410349
33
0.279819
62
0
0
3DFACE
8
GEM
10
0.410349
20
0.274114
30
0.279819
11
-0.274114
21
0.410349
31
0.279819
12
-0.410349
22
0.274114
32
0.279819
13
-0.410349
23
0.274114
33
0.279819
62
0
0
3DFACE
8
GEM
10
0.410349
20
0.274114
30
0.279819
11
-0.410349
21
0.274114
31
0.279819
12
-0.410349
22
-0.274114
32
0.279819
13
-0.410349
23
-0.274114
33
0.279819
62
0
0
3DFACE
8
GEM
10
0.410349
20
0.274114
30
0.279819
11
-0.410349
21
-0.274114
31
0.279819
12
-0.274114
22
-0.410349
32
0.279819
13
-0.274114
23
-0.410349
33
0.279819
62
0
0
3DFACE
8
GEM
10
0.410349
20
0.274114
30
0.279819
11
-0.274114
21
-0.410349
31
0.279819
12
0.274114
22
-0.410349
32
0.279819
13
0.274114
23
-0.410349
33
0.279819
62
0
0
3DFACE
8
GEM
10
0.410349
20
0.274114
30
0.279819
11
0.274114
21
-0.410349
31
0.279819
12
0.410349
22
-0.274114
32
0.279819
13
0.410349
23
-0.274114
33
0.279819
62
0
0
ENDSEC
0
EOF
