  0
SECTION
  2
HEADER
  0
ENDSEC
  0
SECTION
  2
TABLES
  0
TABLE
  2
LAYER
  70
    153
  0
LAYER
  2
Cylinder1
 70
0
 62
15
  6
CONTINUOUS
  0
ENDTAB
  0
ENDSEC
  0
SECTION
  2
ENTITIES
  0
3DFACE
  8
Cylinder1
 10
-1.794211
 20
-0.260287
 30
0.635715
 11
-0.902593
 21
-1.151904
 31
0.635715
 12
-0.642306
 22
0.000000
 32
-0.295467
 13
-0.642306
 23
0.000000
 33
-0.295467
 62
0
  0
3DFACE
  8
Cylinder1
 10
-0.902592
 20
1.151905
 30
0.635715
 11
-0.642306
 21
0.000000
 31
-0.295467
 12
-0.642306
 22
1.074870
 32
0.445045
 13
-0.642306
 23
1.074870
 33
0.445045
 62
0
  0
3DFACE
  8
Cylinder1
 10
0.509599
 20
0.260287
 30
0.635715
 11
-0.382020
 21
1.151906
 31
0.635715
 12
-0.642306
 22
0.000000
 32
-0.295467
 13
-0.642306
 23
0.000000
 33
-0.295467
 62
0
  0
3DFACE
  8
Cylinder1
 10
-0.642306
 20
1.074870
 30
0.445045
 11
-0.642306
 21
0.000000
 31
-0.295467
 12
-0.382020
 22
1.151906
 32
0.635715
 13
-0.382020
 23
1.151906
 33
0.635715
 62
0
  0
3DFACE
  8
Cylinder1
 10
-0.382017
 20
1.151903
 30
0.662830
 11
-0.382020
 21
1.151906
 31
0.635715
 12
0.509599
 22
0.260287
 32
0.635715
 13
0.509596
 23
0.260290
 33
0.662829
 62
0
  0
3DFACE
  8
Cylinder1
 10
0.509599
 20
0.260287
 30
0.635715
 11
-0.642306
 21
0.000000
 31
-0.295467
 12
0.432564
 22
0.000001
 32
0.445045
 13
0.432564
 23
0.000001
 33
0.445045
 62
0
  0
3DFACE
  8
Cylinder1
 10
0.432564
 20
0.000001
 30
0.445045
 11
-0.642306
 21
0.000000
 31
-0.295467
 12
0.509599
 22
-0.260286
 32
0.635715
 13
0.509599
 23
-0.260286
 33
0.635715
 62
0
  0
3DFACE
  8
Cylinder1
 10
0.509595
 20
-0.260290
 30
0.662830
 11
0.509599
 21
-0.260286
 31
0.635715
 12
-0.382020
 22
-1.151905
 32
0.635715
 13
-0.382017
 23
-1.151902
 33
0.662829
 62
0
  0
3DFACE
  8
Cylinder1
 10
-0.382020
 20
-1.151905
 30
0.635715
 11
0.509599
 21
-0.260286
 31
0.635715
 12
-0.642306
 22
0.000000
 32
-0.295467
 13
-0.642306
 23
0.000000
 33
-0.295467
 62
0
  0
3DFACE
  8
Cylinder1
 10
-0.642306
 20
0.000000
 30
-0.295467
 11
-0.902592
 21
1.151905
 31
0.635715
 12
-1.794211
 22
0.260287
 32
0.635715
 13
-1.794211
 23
0.260287
 33
0.635715
 62
0
  0
3DFACE
  8
Cylinder1
 10
-0.902596
 20
1.151902
 30
0.662829
 11
-0.902592
 21
1.151905
 31
0.635715
 12
-0.382020
 22
1.151906
 32
0.635715
 13
-0.382017
 23
1.151903
 33
0.662830
 62
0
  0
3DFACE
  8
Cylinder1
 10
-0.902592
 20
1.151905
 30
0.635715
 11
-0.642306
 21
1.074870
 31
0.445045
 12
-0.382020
 22
1.151906
 32
0.635715
 13
-0.382020
 23
1.151906
 33
0.635715
 62
0
  0
3DFACE
  8
Cylinder1
 10
0.509596
 20
0.260290
 30
0.662829
 11
0.509599
 21
0.260287
 31
0.635715
 12
0.509599
 22
-0.260286
 32
0.635715
 13
0.509595
 23
-0.260290
 33
0.662830
 62
0
  0
3DFACE
  8
Cylinder1
 10
-0.642306
 20
-1.074869
 30
0.445045
 11
-0.642306
 21
0.000000
 31
-0.295467
 12
-0.902593
 22
-1.151904
 32
0.635715
 13
-0.902593
 23
-1.151904
 33
0.635715
 62
0
  0
3DFACE
  8
Cylinder1
 10
0.509599
 20
0.260287
 30
0.635715
 11
0.432564
 21
0.000001
 31
0.445045
 12
0.509599
 22
-0.260286
 32
0.635715
 13
0.509599
 23
-0.260286
 33
0.635715
 62
0
  0
3DFACE
  8
Cylinder1
 10
-0.382020
 20
-1.151905
 30
0.635715
 11
-0.642306
 21
0.000000
 31
-0.295467
 12
-0.642306
 22
-1.074869
 32
0.445045
 13
-0.642306
 23
-1.074869
 33
0.445045
 62
0
  0
3DFACE
  8
Cylinder1
 10
-1.717176
 20
-0.000000
 30
0.445045
 11
-0.642306
 21
0.000000
 31
-0.295467
 12
-1.794211
 22
0.260287
 32
0.635715
 13
-1.794211
 23
0.260287
 33
0.635715
 62
0
  0
3DFACE
  8
Cylinder1
 10
-0.642306
 20
-1.074869
 30
0.445045
 11
-0.902593
 21
-1.151904
 31
0.635715
 12
-0.382020
 22
-1.151905
 32
0.635715
 13
-0.382020
 23
-1.151905
 33
0.635715
 62
0
  0
3DFACE
  8
Cylinder1
 10
-1.794211
 20
-0.260287
 30
0.635715
 11
-0.642306
 21
0.000000
 31
-0.295467
 12
-1.717176
 22
-0.000000
 32
0.445045
 13
-1.717176
 23
-0.000000
 33
0.445045
 62
0
  0
3DFACE
  8
Cylinder1
 10
-1.794208
 20
0.260290
 30
0.662830
 11
-1.794211
 21
0.260287
 31
0.635715
 12
-0.902592
 22
1.151905
 32
0.635715
 13
-0.902596
 23
1.151902
 33
0.662829
 62
0
  0
3DFACE
  8
Cylinder1
 10
-1.717176
 20
-0.000000
 30
0.445045
 11
-1.794211
 21
0.260287
 31
0.635715
 12
-1.794211
 22
-0.260287
 32
0.635715
 13
-1.794211
 23
-0.260287
 33
0.635715
 62
0
  0
3DFACE
  8
Cylinder1
 10
-0.382684
 20
0.259633
 30
0.998552
 11
-0.382017
 21
1.151903
 31
0.662830
 12
0.509596
 22
0.260290
 32
0.662829
 13
0.509596
 23
0.260290
 33
0.662829
 62
0
  0
3DFACE
  8
Cylinder1
 10
-0.902597
 20
-1.151901
 30
0.662829
 11
-0.902593
 21
-1.151904
 31
0.635715
 12
-1.794211
 22
-0.260287
 32
0.635715
 13
-1.794208
 23
-0.260290
 33
0.662829
 62
0
  0
3DFACE
  8
Cylinder1
 10
-1.794208
 20
0.260290
 30
0.662830
 11
-0.902596
 21
1.151902
 31
0.662829
 12
-0.901927
 22
0.259633
 32
0.998552
 13
-0.901927
 23
0.259633
 33
0.998552
 62
0
  0
3DFACE
  8
Cylinder1
 10
-0.901927
 20
0.259633
 30
0.998552
 11
-0.902596
 21
1.151902
 31
0.662829
 12
-0.382017
 22
1.151903
 32
0.662830
 13
-0.382684
 23
0.259633
 33
0.998552
 62
0
  0
3DFACE
  8
Cylinder1
 10
-0.382673
 20
-0.259621
 30
0.998552
 11
0.509595
 21
-0.260290
 31
0.662830
 12
-0.382017
 22
-1.151902
 32
0.662829
 13
-0.382017
 23
-1.151902
 33
0.662829
 62
0
  0
3DFACE
  8
Cylinder1
 10
-0.382017
 20
-1.151902
 30
0.662829
 11
-0.382020
 21
-1.151905
 31
0.635715
 12
-0.902593
 22
-1.151904
 32
0.635715
 13
-0.902597
 23
-1.151901
 33
0.662829
 62
0
  0
3DFACE
  8
Cylinder1
 10
-0.382684
 20
0.259633
 30
0.998552
 11
0.509596
 21
0.260290
 31
0.662829
 12
0.509595
 22
-0.260290
 32
0.662830
 13
-0.382673
 23
-0.259621
 33
0.998552
 62
0
  0
3DFACE
  8
Cylinder1
 10
-1.794208
 20
-0.260290
 30
0.662829
 11
-1.794211
 21
-0.260287
 31
0.635715
 12
-1.794211
 22
0.260287
 32
0.635715
 13
-1.794208
 23
0.260290
 33
0.662830
 62
0
  0
3DFACE
  8
Cylinder1
 10
-0.901928
 20
-0.259633
 30
0.998552
 11
-0.902597
 21
-1.151901
 31
0.662829
 12
-1.794208
 22
-0.260290
 32
0.662829
 13
-1.794208
 23
-0.260290
 33
0.662829
 62
0
  0
3DFACE
  8
Cylinder1
 10
-0.382673
 20
-0.259621
 30
0.998552
 11
-0.382017
 21
-1.151902
 31
0.662829
 12
-0.902597
 22
-1.151901
 32
0.662829
 13
-0.901928
 23
-0.259633
 33
0.998552
 62
0
  0
3DFACE
  8
Cylinder1
 10
-0.901928
 20
-0.259633
 30
0.998552
 11
-1.794208
 21
-0.260290
 31
0.662829
 12
-1.794208
 22
0.260290
 32
0.662830
 13
-0.901927
 23
0.259633
 33
0.998552
 62
0
  0
3DFACE
  8
Cylinder1
 10
-0.901928
 20
-0.259633
 30
0.998552
 11
-0.901927
 21
0.259633
 31
0.998552
 12
-0.382684
 22
0.259633
 32
0.998552
 13
-0.382673
 23
-0.259621
 33
0.998552
 62
0
 0
ENDSEC
 0
EOF
